<?xml version="1.0" encoding="UTF-8" standalone="no"?>
<!-- Created with Inkscape (http://www.inkscape.org/) -->

<svg
   width="7.5702386mm"
   height="25.072474mm"
   viewBox="0 0 7.5702386 25.072473"
   version="1.1"
   id="svg5"
   inkscape:version="1.2.2 (b0a8486541, 2022-12-01)"
   sodipodi:docname="fire_int_0.svg"
   xmlns:inkscape="http://www.inkscape.org/namespaces/inkscape"
   xmlns:sodipodi="http://sodipodi.sourceforge.net/DTD/sodipodi-0.dtd"
   xmlns="http://www.w3.org/2000/svg"
   xmlns:svg="http://www.w3.org/2000/svg">
  <sodipodi:namedview
     id="namedview7"
     pagecolor="#4d4d4d"
     bordercolor="#666666"
     borderopacity="1.0"
     inkscape:pageshadow="2"
     inkscape:pageopacity="0"
     inkscape:pagecheckerboard="false"
     inkscape:document-units="mm"
     showgrid="false"
     inkscape:zoom="2.2627666"
     inkscape:cx="-37.343667"
     inkscape:cy="35.796888"
     inkscape:window-width="1920"
     inkscape:window-height="1080"
     inkscape:window-x="0"
     inkscape:window-y="0"
     inkscape:window-maximized="1"
     inkscape:current-layer="g166920"
     inkscape:showpageshadow="2"
     inkscape:deskcolor="#4d4d4d" />
  <defs
     id="defs2" />
  <g
     inkscape:label="Layer 1"
     inkscape:groupmode="layer"
     id="layer1"
     transform="translate(12.88674,-140.05944)">
    <g
       id="g166920"
       transform="translate(-233.47975,-67.146562)">
      <g
         id="g64494"
         transform="rotate(-8.9614849,131.81194,448.91812)">
        <path
           style="opacity:1;fill:#b56c2a;fill-opacity:1;fill-rule:nonzero;stroke:#000000;stroke-width:0.25;stroke-linecap:round;stroke-linejoin:round;stroke-opacity:1"
           d="m 254.92669,247.9147 c -1.32448,-2.30591 -0.69992,-5.4586 0.11541,-7.99334 0.58412,-1.81597 1.74393,-3.48437 3.26649,-4.68546 0.98858,-0.8979 1.78609,-2.24578 1.44338,-3.63274 -0.20868,-1.75994 -0.57813,-3.62553 -0.10959,-5.34252 0.12966,-0.47512 0.60099,-2.51995 0.77575,-1.25321 0.65939,3.14634 2.74422,6.30174 2.55871,9.61583 -0.11877,2.12165 -1.05248,4.22615 -2.31459,5.92951 -1.51897,2.15073 -1.67703,4.97775 -1.25195,7.50915 -0.0965,1.0232 -1.32069,1.17257 -2.12876,1.16953 -0.89757,-0.003 -1.90501,-0.53358 -2.35485,-1.31675 z"
           id="path57863"
           sodipodi:nodetypes="aaaaacaaaaa" />
        <path
           style="opacity:1;fill:none;fill-opacity:1;fill-rule:nonzero;stroke:#000000;stroke-width:0.25;stroke-linecap:round;stroke-linejoin:round;stroke-opacity:1"
           d="m 255.55133,248.65771 c 0,0 -0.83451,-2.6958 -0.80772,-4.08287 0.0329,-1.70569 0.50379,-3.41513 1.18639,-4.97863 0.4201,-0.96224 1.07655,-1.81358 1.75075,-2.61848 0.71811,-0.85733 1.86164,-1.35533 2.41882,-2.32499 0.4645,-0.80838 0.64573,-1.78598 0.65916,-2.71821 0.0183,-1.27145 -0.69713,-2.46362 -0.79185,-3.73167 -0.0571,-0.76483 0.13793,-2.29675 0.13793,-2.29675"
           id="path62628"
           sodipodi:nodetypes="caaaaaac" />
        <path
           style="opacity:1;fill:none;fill-opacity:1;fill-rule:nonzero;stroke:#000000;stroke-width:0.25;stroke-linecap:round;stroke-linejoin:round;stroke-opacity:1"
           d="m 256.1331,248.96472 c 0,0 -0.35464,-1.09269 -0.45969,-1.65577 -0.23165,-1.24174 -0.48248,-2.51304 -0.371,-3.77127 0.11398,-1.28652 0.50104,-2.56086 1.0514,-3.72929 0.39373,-0.8359 0.94048,-1.61015 1.57798,-2.279 0.55574,-0.58307 1.39162,-0.85999 1.91844,-1.46931 0.48804,-0.56447 0.86769,-1.24296 1.09014,-1.95523 0.21422,-0.6859 0.20838,-2.14562 0.20838,-2.14562"
           id="path62630"
           sodipodi:nodetypes="caaaaaac" />
        <path
           style="opacity:1;fill:none;fill-opacity:1;fill-rule:nonzero;stroke:#000000;stroke-width:0.25;stroke-linecap:round;stroke-linejoin:round;stroke-opacity:1"
           d="m 256.88758,249.13422 c 0,0 -0.31753,-0.76918 -0.41452,-1.17207 -0.18112,-0.75242 -0.22186,-1.53213 -0.30678,-2.30137 -0.0752,-0.68125 -0.26656,-1.36849 -0.17944,-2.04832 0.0968,-0.75553 0.5685,-1.41717 0.76702,-2.15255 0.16264,-0.60247 0.0698,-1.27979 0.34441,-1.84015 0.33048,-0.67436 0.96523,-1.15331 1.49622,-1.68438 0.40935,-0.40941 1.29836,-1.15366 1.29836,-1.15366"
           id="path62632"
           sodipodi:nodetypes="caaaaaac" />
        <path
           style="opacity:1;fill:none;fill-opacity:1;fill-rule:nonzero;stroke:#000000;stroke-width:0.25;stroke-linecap:round;stroke-linejoin:round;stroke-opacity:1"
           d="m 257.40019,249.21585 c 0,0 -0.65222,-2.20429 -0.71829,-3.34172 -0.0493,-0.84867 0.12612,-1.6967 0.24363,-2.53864 0.11576,-0.8294 0.23883,-1.66162 0.45391,-2.47097 0.14063,-0.52921 0.24074,-1.09425 0.54444,-1.54989 0.57181,-0.8579 1.62076,-1.29261 2.29904,-2.06908 0.52923,-0.60584 1.09312,-1.23517 1.35872,-1.9945 0.3733,-1.06727 0.42146,-2.26431 0.25392,-3.3825 -0.15801,-1.05457 -0.91465,-1.94298 -1.1639,-2.97978 -0.14144,-0.58836 -0.18027,-1.80639 -0.18027,-1.80639"
           id="path62634"
           sodipodi:nodetypes="caaaaaaaac" />
        <path
           style="opacity:1;fill:none;fill-opacity:1;fill-rule:nonzero;stroke:#000000;stroke-width:0.25;stroke-linecap:round;stroke-linejoin:round;stroke-opacity:1"
           d="m 258.02929,249.10805 c 0,0 -0.57369,-1.59289 -0.72694,-2.42164 -0.12935,-0.69951 -0.21036,-1.41881 -0.15796,-2.12824 0.0658,-0.89033 0.3875,-1.74298 0.58854,-2.61281 0.15325,-0.66308 0.10389,-1.41349 0.47085,-1.98664 0.39218,-0.61254 1.2044,-0.83029 1.7177,-1.34559 0.63814,-0.64063 1.26131,-1.3326 1.66452,-2.14195 0.32013,-0.6426 0.56153,-2.0793 0.56153,-2.0793"
           id="path62636"
           sodipodi:nodetypes="caaaaaac" />
        <path
           style="opacity:1;fill:none;fill-opacity:1;fill-rule:nonzero;stroke:#000000;stroke-width:0.25;stroke-linecap:round;stroke-linejoin:round;stroke-opacity:1"
           d="m 258.75025,248.87445 c 0,0 -0.43902,-1.76833 -0.58849,-2.66605 -0.12867,-0.77283 -0.30491,-1.55307 -0.26437,-2.33549 0.0482,-0.93075 0.30919,-1.84539 0.59995,-2.73087 0.13287,-0.40464 0.27626,-0.81758 0.519,-1.16753 0.62961,-0.9077 1.73573,-1.4137 2.36482,-2.32177 0.47458,-0.68504 0.8178,-1.47552 1.01291,-2.28573 0.19781,-0.82139 0.255,-1.69363 0.1406,-2.53072 -0.0591,-0.43279 -0.42109,-1.24093 -0.42109,-1.24093"
           id="path62638"
           sodipodi:nodetypes="caaaaaaac" />
        <path
           style="opacity:1;fill:none;fill-opacity:1;fill-rule:nonzero;stroke:#000000;stroke-width:0.25;stroke-linecap:round;stroke-linejoin:round;stroke-opacity:1"
           d="m 259.12583,248.58009 c -0.0303,-0.15759 -0.552,-2.32752 -0.61616,-3.51548 -0.0419,-0.77642 -0.0354,-1.57323 0.15292,-2.32764 0.19674,-0.78831 0.52231,-1.56618 1.00182,-2.22208 0.39329,-0.53796 1.13934,-0.76755 1.48733,-1.33586 0.14456,-0.23609 0.21339,-0.80263 0.21339,-0.80263"
           id="path62640"
           sodipodi:nodetypes="caaaac" />
      </g>
    </g>
  </g>
</svg>
