<?xml version="1.0" encoding="UTF-8" standalone="no"?>
<!-- Created with Inkscape (http://www.inkscape.org/) -->

<svg
   width="11.696698mm"
   height="41.777908mm"
   viewBox="0 0 11.696698 41.777908"
   version="1.1"
   id="svg5"
   inkscape:version="1.2.2 (b0a8486541, 2022-12-01)"
   sodipodi:docname="fire_mid_2.svg"
   xmlns:inkscape="http://www.inkscape.org/namespaces/inkscape"
   xmlns:sodipodi="http://sodipodi.sourceforge.net/DTD/sodipodi-0.dtd"
   xmlns="http://www.w3.org/2000/svg"
   xmlns:svg="http://www.w3.org/2000/svg">
  <sodipodi:namedview
     id="namedview7"
     pagecolor="#4d4d4d"
     bordercolor="#666666"
     borderopacity="1.0"
     inkscape:pageshadow="2"
     inkscape:pageopacity="0"
     inkscape:pagecheckerboard="false"
     inkscape:document-units="mm"
     showgrid="false"
     inkscape:zoom="1.6000176"
     inkscape:cx="102.18638"
     inkscape:cy="-41.87454"
     inkscape:window-width="1920"
     inkscape:window-height="1080"
     inkscape:window-x="0"
     inkscape:window-y="0"
     inkscape:window-maximized="1"
     inkscape:current-layer="g166920"
     inkscape:showpageshadow="2"
     inkscape:deskcolor="#4d4d4d" />
  <defs
     id="defs2" />
  <g
     inkscape:label="Layer 1"
     inkscape:groupmode="layer"
     id="layer1"
     transform="translate(23.383436,-117.37008)">
    <g
       id="g166920"
       transform="translate(-233.47975,-67.146562)">
      <g
         id="g143080"
         transform="matrix(0.61156556,1.7760345e-4,-8.4585773e-4,0.6148799,78.750782,112.96897)"
         style="stroke-width:1.63073">
        <path
           style="opacity:1;fill:#f9b244;fill-opacity:1;fill-rule:nonzero;stroke:#000000;stroke-width:0.407684;stroke-linecap:round;stroke-linejoin:round;stroke-opacity:1"
           d="m 217.76793,178.19081 c -2.27674,-3.6033 -2.61482,-8.26634 -2.55886,-12.52828 0.0771,-5.87595 2.20725,-11.57156 3.98018,-17.17419 1.65596,-5.23299 5.83051,-9.78242 6.18736,-15.25956 0.37466,-5.75045 -4.3624,-16.72848 -4.3624,-16.72848 0,0 7.38954,9.1696 9.10233,14.66093 2.27623,7.29778 1.89541,15.30037 1.12504,22.90599 -0.38012,3.75275 -3.03267,7.19598 -2.8102,10.96137 0.28792,4.8731 6.77895,9.01261 5.28209,13.65905 -0.99917,3.10154 -4.92824,5.45364 -8.18494,5.34489 -3.23604,-0.10806 -6.03109,-3.10449 -7.7606,-5.84172 z"
           id="path143070"
           sodipodi:nodetypes="aaaacaaaaaa" />
        <path
           style="opacity:1;fill:none;fill-opacity:1;fill-rule:nonzero;stroke:#000000;stroke-width:0.407684;stroke-linecap:round;stroke-linejoin:round;stroke-opacity:1"
           d="m 223.74348,182.21125 c 0,0 -5.72346,-10.45751 -5.90073,-16.19481 -0.19543,-6.32493 5.39099,-18.20431 5.39099,-18.20431"
           id="path149025"
           sodipodi:nodetypes="cac" />
        <path
           style="opacity:1;fill:none;fill-opacity:1;fill-rule:nonzero;stroke:#000000;stroke-width:0.407684;stroke-linecap:round;stroke-linejoin:round;stroke-opacity:1"
           d="m 228.98133,180.3249 c 0,0 1.20586,-2.65297 1.06693,-4.03847 -0.29724,-2.9642 -3.079,-5.17853 -3.95404,-8.02808 -0.6276,-2.04377 -0.88204,-6.34959 -0.88204,-6.34959"
           id="path149027"
           sodipodi:nodetypes="caac" />
        <path
           style="opacity:1;fill:none;fill-opacity:1;fill-rule:nonzero;stroke:#000000;stroke-width:0.407684;stroke-linecap:round;stroke-linejoin:round;stroke-opacity:1"
           d="m 224.67942,173.07515 c 0,0 -3.4687,-8.14901 -3.02343,-12.36661 0.55129,-5.22182 5.78785,-9.05167 6.85813,-14.19261 0.71066,-3.41355 -0.41578,-10.45242 -0.41578,-10.45242"
           id="path149029"
           sodipodi:nodetypes="caac" />
        <path
           style="opacity:1;fill:none;fill-opacity:1;fill-rule:nonzero;stroke:#000000;stroke-width:0.407684;stroke-linecap:round;stroke-linejoin:round;stroke-opacity:1"
           d="m 227.36801,174.64655 c 0,0 -0.13422,2.97069 -1.25993,3.17606 -2.19085,0.39968 -3.42905,-2.97225 -4.50941,-4.91126 -1.41881,-2.54647 -2.28219,-5.50247 -2.3582,-8.41157 -0.0364,-1.39259 0.91712,-4.07731 0.91712,-4.07731"
           id="path149031"
           sodipodi:nodetypes="caaac" />
        <path
           style="opacity:1;fill:none;fill-opacity:1;fill-rule:nonzero;stroke:#000000;stroke-width:0.407684;stroke-linecap:round;stroke-linejoin:round;stroke-opacity:1"
           d="m 223.85179,163.39844 c 0.0196,-0.19677 -0.13228,-3.24002 0.64141,-4.57197 0.93043,-1.60178 3.40963,-1.84483 4.40257,-3.409 1.51095,-2.3802 1.70812,-5.43501 1.82983,-8.24858 0.0851,-1.96803 -0.77686,-5.85995 -0.77686,-5.85995"
           id="path149033"
           sodipodi:nodetypes="caaac" />
        <path
           style="opacity:1;fill:none;fill-opacity:1;fill-rule:nonzero;stroke:#000000;stroke-width:0.407684;stroke-linecap:round;stroke-linejoin:round;stroke-opacity:1"
           d="m 225.00185,155.20053 c 0,0 0.84738,0.4335 1.23297,0.267 1.53222,-0.66164 2.0056,-2.71645 2.56208,-4.28303 0.46225,-1.30129 0.59166,-4.09912 0.59166,-4.09912"
           id="path149035"
           sodipodi:nodetypes="caac" />
        <path
           style="opacity:1;fill:none;fill-opacity:1;fill-rule:nonzero;stroke:#000000;stroke-width:0.407684;stroke-linecap:round;stroke-linejoin:round;stroke-opacity:1"
           d="m 223.08205,152.9459 c 0,0 2.27648,-4.755 2.79341,-7.31135 0.40891,-2.02212 2.34367,-6.18711 0.21062,-6.18537"
           id="path149037"
           sodipodi:nodetypes="cac" />
        <path
           style="opacity:1;fill:none;fill-opacity:1;fill-rule:nonzero;stroke:#000000;stroke-width:0.407684;stroke-linecap:round;stroke-linejoin:round;stroke-opacity:1"
           d="m 218.12199,158.15391 c 0,0 1.03908,-8.83655 3.3976,-12.43275 0.41637,-0.63487 1.38394,-0.78095 1.77755,-1.43005 0.71874,-1.18527 0.37337,-2.76007 0.80867,-4.07501 0.70514,-2.13007 2.57847,-3.86092 2.88886,-6.08252 0.33543,-2.40079 -1.201,-7.17517 -1.201,-7.17517"
           id="path149039"
           sodipodi:nodetypes="caaaac" />
        <path
           style="opacity:1;fill:none;fill-opacity:1;fill-rule:nonzero;stroke:#000000;stroke-width:0.407684;stroke-linecap:round;stroke-linejoin:round;stroke-opacity:1"
           d="m 225.24466,124.65741 c 0,0 3.02266,4.6438 3.86965,7.24507 0.61185,1.8791 0.81949,5.86819 0.81949,5.86819"
           id="path149041"
           sodipodi:nodetypes="cac" />
        <path
           style="opacity:1;fill:none;fill-opacity:1;fill-rule:nonzero;stroke:#000000;stroke-width:0.407684;stroke-linecap:round;stroke-linejoin:round;stroke-opacity:1"
           d="m 227.98302,178.52599 c -0.36271,1.42466 -0.0668,3.77385 -1.49507,4.15014 -0.85989,0.22654 -1.49608,-1.01786 -2.02959,-1.7267 -0.49867,-0.66253 -0.68394,-1.50877 -1.02232,-2.26474"
           id="path149043"
           sodipodi:nodetypes="caac" />
        <path
           style="opacity:1;fill:none;fill-opacity:1;fill-rule:nonzero;stroke:#000000;stroke-width:0.407684;stroke-linecap:round;stroke-linejoin:round;stroke-opacity:1"
           d="m 220.50018,179.27345 c 0,0 -2.24825,-2.97978 -2.85373,-4.71114 -0.80487,-2.30151 -0.76585,-4.8193 -0.93198,-7.24981 -0.12412,-1.81587 -0.0471,-5.45963 -0.0471,-5.45963"
           id="path149045"
           sodipodi:nodetypes="caac" />
        <path
           style="opacity:1;fill:none;fill-opacity:1;fill-rule:nonzero;stroke:#000000;stroke-width:0.407684;stroke-linecap:round;stroke-linejoin:round;stroke-opacity:1"
           d="m 231.32664,179.92191 c 0,0 0.91846,-2.49831 0.74667,-3.76721 -0.35359,-2.61166 -2.50227,-4.65516 -3.5449,-7.07849 -0.81622,-1.89709 -2.11403,-5.82214 -2.11403,-5.82214"
           id="path149047"
           sodipodi:nodetypes="caac" />
        <path
           style="opacity:1;fill:none;fill-opacity:1;fill-rule:nonzero;stroke:#000000;stroke-width:0.407684;stroke-linecap:round;stroke-linejoin:round;stroke-opacity:1"
           d="m 225.3421,174.61414 c 0,0 0.59945,-1.71495 0.56507,-2.6018 -0.0787,-2.031 -1.75172,-5.84495 -1.75172,-5.84495"
           id="path149049"
           sodipodi:nodetypes="cac" />
        <path
           style="opacity:1;fill:none;fill-opacity:1;fill-rule:nonzero;stroke:#000000;stroke-width:0.407684;stroke-linecap:round;stroke-linejoin:round;stroke-opacity:1"
           d="m 227.49366,162.15726 c 0,0 -1.15902,-0.94097 -1.18501,-1.60351 -0.0422,-1.07467 1.02525,-1.90875 1.7127,-2.7381 0.55039,-0.664 1.48649,-1.00185 1.90203,-1.75673 0.61233,-1.11236 0.6834,-3.74433 0.6834,-3.74433"
           id="path149051"
           sodipodi:nodetypes="caaac" />
      </g>
    </g>
  </g>
</svg>
