<?xml version="1.0" encoding="UTF-8" standalone="no"?>
<!-- Created with Inkscape (http://www.inkscape.org/) -->

<svg
   width="25.046671mm"
   height="74.085243mm"
   viewBox="0 0 25.046671 74.085242"
   version="1.1"
   id="svg5"
   inkscape:version="1.2.2 (b0a8486541, 2022-12-01)"
   sodipodi:docname="fire_ext_7.svg"
   xmlns:inkscape="http://www.inkscape.org/namespaces/inkscape"
   xmlns:sodipodi="http://sodipodi.sourceforge.net/DTD/sodipodi-0.dtd"
   xmlns="http://www.w3.org/2000/svg"
   xmlns:svg="http://www.w3.org/2000/svg">
  <sodipodi:namedview
     id="namedview7"
     pagecolor="#4d4d4d"
     bordercolor="#666666"
     borderopacity="1.0"
     inkscape:pageshadow="2"
     inkscape:pageopacity="0"
     inkscape:pagecheckerboard="false"
     inkscape:document-units="mm"
     showgrid="false"
     inkscape:zoom="1.6000176"
     inkscape:cx="-267.18456"
     inkscape:cy="9.9998901"
     inkscape:window-width="1920"
     inkscape:window-height="1080"
     inkscape:window-x="0"
     inkscape:window-y="0"
     inkscape:window-maximized="1"
     inkscape:current-layer="layer1"
     inkscape:showpageshadow="2"
     inkscape:deskcolor="#4d4d4d" />
  <defs
     id="defs2" />
  <g
     inkscape:label="Layer 1"
     inkscape:groupmode="layer"
     id="layer1"
     transform="translate(-9.2838234,-97.184944)">
    <g
       id="g166920"
       transform="rotate(-48.725215,60.104823,426.48019)">
      <g
         id="g109112"
         transform="rotate(7.0858863,-44.978785,715.93648)">
        <path
           style="opacity:1;fill:#f3e17f;fill-opacity:1;fill-rule:nonzero;stroke:#000000;stroke-width:0.25;stroke-linecap:round;stroke-linejoin:round;stroke-opacity:1"
           d="m 165.44862,198.21867 c -0.5817,-4.13828 -0.86022,-8.57026 0.4826,-12.52761 1.21775,-3.58877 4.02136,-6.47331 6.56664,-9.28112 3.10164,-3.42155 10.47258,-9.07028 10.47258,-9.07028 0,0 -4.77505,4.55018 -5.94117,7.526 -0.8708,2.22221 -2.86062,6.49248 -0.56285,7.13807 3.48936,0.98038 2.60152,-6.90932 4.9158,-9.69874 3.72068,-4.48456 9.9796,-6.30382 13.86589,-10.64565 3.90574,-4.36356 7.50047,-9.39626 9.09521,-15.03117 0.96108,-3.3959 0.0788,-10.58755 0.0788,-10.58755 0,0 2.9881,15.03037 1.11093,22.19679 -1.93118,7.37263 -7.94496,13.01384 -12.19105,19.34281 -3.28211,4.89212 -8.24352,8.85453 -10.26128,14.38931 -0.66651,1.82825 0.62251,4.20547 -0.46477,5.81934 -1.92177,2.85252 -5.81493,4.16794 -9.22393,4.62489 -2.36826,0.31745 -5.24039,0.17367 -7.02788,-1.41198 -0.73058,-0.64808 -0.77958,-1.81601 -0.91552,-2.78311 z"
           id="path66422"
           sodipodi:nodetypes="aaacaaaaacaaaaaaa" />
        <path
           style="opacity:1;fill:none;fill-opacity:1;fill-rule:nonzero;stroke:#000000;stroke-width:0.25;stroke-linecap:round;stroke-linejoin:round;stroke-opacity:1"
           d="m 167.26877,201.62213 c 0,0 -0.72063,-5.33574 -0.55351,-8.00533 0.13821,-2.20778 0.60208,-4.40601 1.27987,-6.51171 0.58964,-1.83184 1.33127,-3.65038 2.40011,-5.25066 0.47334,-0.7087 1.74083,-1.87251 1.74083,-1.87251"
           id="path109091"
           sodipodi:nodetypes="caaac" />
        <path
           style="opacity:1;fill:none;fill-opacity:1;fill-rule:nonzero;stroke:#000000;stroke-width:0.25;stroke-linecap:round;stroke-linejoin:round;stroke-opacity:1"
           d="m 173.35363,202.2755 c 0,0 -2.69639,-4.39294 -3.03329,-6.87498 -0.33246,-2.44933 0.43251,-4.95039 1.07659,-7.33679 0.21403,-0.793 0.91749,-2.28694 0.91749,-2.28694"
           id="path109093"
           sodipodi:nodetypes="caac" />
        <path
           style="opacity:1;fill:none;fill-opacity:1;fill-rule:nonzero;stroke:#000000;stroke-width:0.25;stroke-linecap:round;stroke-linejoin:round;stroke-opacity:1"
           d="m 170.03985,202.23376 c 0,0 -1.27924,-2.78446 -1.5254,-4.27837 -0.24425,-1.48228 -0.1651,-3.02271 0.0715,-4.50623 0.10363,-0.6498 0.5842,-1.88562 0.5842,-1.88562"
           id="path109095"
           sodipodi:nodetypes="caac" />
        <path
           style="opacity:1;fill:none;fill-opacity:1;fill-rule:nonzero;stroke:#000000;stroke-width:0.25;stroke-linecap:round;stroke-linejoin:round;stroke-opacity:1"
           d="m 175.66818,202.01247 c 0,0 2.20822,-6.30125 2.99471,-9.54019 0.62307,-2.56596 0.84189,-5.21471 1.35784,-7.80434 0.46375,-2.32765 1.5612,-6.94694 1.5612,-6.94694"
           id="path109097"
           sodipodi:nodetypes="caac" />
        <path
           style="opacity:1;fill:none;fill-opacity:1;fill-rule:nonzero;stroke:#000000;stroke-width:0.25;stroke-linecap:round;stroke-linejoin:round;stroke-opacity:1"
           d="m 180.01867,200.13458 c 0,0 -0.29392,-2.61959 -0.19368,-3.92601 0.32132,-4.18764 1.47644,-8.27776 2.53349,-12.34251 0.71243,-2.73958 0.97725,-5.75065 2.5613,-8.09663 1.2128,-1.79616 5.01708,-4.13551 5.01708,-4.13551"
           id="path109101"
           sodipodi:nodetypes="caaac" />
        <path
           style="opacity:1;fill:none;fill-opacity:1;fill-rule:nonzero;stroke:#000000;stroke-width:0.25;stroke-linecap:round;stroke-linejoin:round;stroke-opacity:1"
           d="m 185.08943,182.31585 c 0,0 4.35141,-5.70319 6.63403,-8.46881 2.0632,-2.49977 4.65824,-4.59216 6.37887,-7.33899 1.76388,-2.81586 3.9157,-9.16681 3.9157,-9.16681"
           id="path109103"
           sodipodi:nodetypes="caac" />
      </g>
    </g>
  </g>
</svg>
