<?xml version="1.0" encoding="UTF-8" standalone="no"?>
<!-- Created with Inkscape (http://www.inkscape.org/) -->

<svg
   width="12.899288mm"
   height="44.934208mm"
   viewBox="0 0 12.899288 44.934207"
   version="1.1"
   id="svg5"
   inkscape:version="1.2.2 (b0a8486541, 2022-12-01)"
   sodipodi:docname="fire_mid_1.svg"
   xmlns:inkscape="http://www.inkscape.org/namespaces/inkscape"
   xmlns:sodipodi="http://sodipodi.sourceforge.net/DTD/sodipodi-0.dtd"
   xmlns="http://www.w3.org/2000/svg"
   xmlns:svg="http://www.w3.org/2000/svg">
  <sodipodi:namedview
     id="namedview7"
     pagecolor="#4d4d4d"
     bordercolor="#666666"
     borderopacity="1.0"
     inkscape:pageshadow="2"
     inkscape:pageopacity="0"
     inkscape:pagecheckerboard="false"
     inkscape:document-units="mm"
     showgrid="false"
     inkscape:zoom="1.6000176"
     inkscape:cx="-247.18478"
     inkscape:cy="-3.1249657"
     inkscape:window-width="1920"
     inkscape:window-height="1080"
     inkscape:window-x="0"
     inkscape:window-y="0"
     inkscape:window-maximized="1"
     inkscape:current-layer="layer1"
     inkscape:showpageshadow="2"
     inkscape:deskcolor="#4d4d4d" />
  <defs
     id="defs2" />
  <g
     inkscape:label="Layer 1"
     inkscape:groupmode="layer"
     id="layer1"
     transform="translate(3.5061972,-116.7726)">
    <g
       id="g166920"
       transform="rotate(-28.825222,-12.974031,627.14894)">
      <g
         id="g114919"
         transform="matrix(0.59096045,-0.07047417,0.0705849,0.59188893,112.57372,119.47793)"
         style="stroke-width:1.67894">
        <path
           style="opacity:1;fill:#f3ac3f;fill-opacity:1;fill-rule:nonzero;stroke:#000000;stroke-width:0.419734;stroke-linecap:round;stroke-linejoin:round;stroke-opacity:1"
           d="m 165.44862,198.21867 c -0.5817,-4.13828 -0.86022,-8.57026 0.4826,-12.52761 1.21775,-3.58877 4.02136,-6.47331 6.56664,-9.28112 3.10164,-3.42155 10.47258,-9.07028 10.47258,-9.07028 0,0 -4.77505,4.55018 -5.94117,7.526 -0.8708,2.22221 -2.86062,6.49248 -0.56285,7.13807 3.48936,0.98038 2.60152,-6.90932 4.9158,-9.69874 3.72068,-4.48456 9.9796,-6.30382 13.86589,-10.64565 3.90574,-4.36356 7.50047,-9.39626 9.09521,-15.03117 0.96108,-3.3959 0.0788,-10.58755 0.0788,-10.58755 0,0 2.9881,15.03037 1.11093,22.19679 -1.93118,7.37263 -7.94496,13.01384 -12.19105,19.34281 -3.28211,4.89212 -8.24352,8.85453 -10.26128,14.38931 -0.66651,1.82825 0.62251,4.20547 -0.46477,5.81934 -1.92177,2.85252 -5.81493,4.16794 -9.22393,4.62489 -2.36826,0.31745 -5.24039,0.17367 -7.02788,-1.41198 -0.73058,-0.64808 -0.77958,-1.81601 -0.91552,-2.78311 z"
           id="path114905"
           sodipodi:nodetypes="aaacaaaaacaaaaaaa" />
        <path
           style="opacity:1;fill:none;fill-opacity:1;fill-rule:nonzero;stroke:#000000;stroke-width:0.419734;stroke-linecap:round;stroke-linejoin:round;stroke-opacity:1"
           d="m 169.63496,200.60896 c 0,0 -2.02052,-3.67596 -2.26476,-5.70786 -0.39123,-3.2548 0.23459,-6.66026 1.35797,-9.74057 1.33382,-3.65731 6.21323,-9.8925 6.21323,-9.8925"
           id="path122521"
           sodipodi:nodetypes="caac" />
        <path
           style="opacity:1;fill:none;fill-opacity:1;fill-rule:nonzero;stroke:#000000;stroke-width:0.419734;stroke-linecap:round;stroke-linejoin:round;stroke-opacity:1"
           d="m 170.98417,202.34883 c 0,0 0.86141,-3.89639 0.93862,-5.87945 0.0857,-2.20041 -0.12057,-4.42131 -0.53113,-6.58489 -0.20006,-1.05428 0.13915,-3.0376 -0.9347,-3.08086 -0.90807,-0.0366 -0.99805,2.53321 -0.99805,2.53321"
           id="path122523"
           sodipodi:nodetypes="caaac" />
        <path
           style="opacity:1;fill:none;fill-opacity:1;fill-rule:nonzero;stroke:#000000;stroke-width:0.419734;stroke-linecap:round;stroke-linejoin:round;stroke-opacity:1"
           d="m 174.01559,201.90483 c 0,0 0.0326,-3.96801 0,-5.95162 -0.0528,-3.21585 -1.83055,-6.8045 -0.31698,-9.64365 0.60661,-1.13788 2.22521,-1.31296 3.28211,-2.05326 0.83531,-0.58509 2.41111,-1.88302 2.41111,-1.88302"
           id="path122525"
           sodipodi:nodetypes="caaac" />
        <path
           style="opacity:1;fill:none;fill-opacity:1;fill-rule:nonzero;stroke:#000000;stroke-width:0.419734;stroke-linecap:round;stroke-linejoin:round;stroke-opacity:1"
           d="m 176.4728,201.40811 c 0,0 -0.30536,-4.22474 -0.11678,-6.32501 0.17802,-1.98264 0.37877,-4.02979 1.17214,-5.85599 0.93407,-2.15008 3.27345,-3.52314 4.09891,-5.71707 0.83391,-2.2164 0.69193,-7.06922 0.69193,-7.06922"
           id="path122527"
           sodipodi:nodetypes="caaac" />
        <path
           style="opacity:1;fill:none;fill-opacity:1;fill-rule:nonzero;stroke:#000000;stroke-width:0.419734;stroke-linecap:round;stroke-linejoin:round;stroke-opacity:1"
           d="m 180.55922,199.09653 c 0,0 -1.18542,-2.20902 -1.20802,-3.41653 -0.0537,-2.8679 1.33003,-5.62517 2.56342,-8.21578 2.12107,-4.45507 5.36597,-8.28646 8.19045,-12.33365 2.78411,-3.98934 6.22064,-7.545 8.62683,-11.77231 1.62859,-2.86119 3.86822,-9.0861 3.86822,-9.0861"
           id="path122529"
           sodipodi:nodetypes="caaaac" />
        <path
           style="opacity:1;fill:none;fill-opacity:1;fill-rule:nonzero;stroke:#000000;stroke-width:0.419734;stroke-linecap:round;stroke-linejoin:round;stroke-opacity:1"
           d="m 185.06838,177.99142 c 0,0 -0.72649,-2.3436 -0.4323,-3.47237 0.61188,-2.3477 2.51022,-4.23974 4.31089,-5.86844 1.59524,-1.44289 3.94306,-1.86156 5.55793,-3.28251 1.43387,-1.26169 3.51631,-4.52183 3.51631,-4.52183"
           id="path122531"
           sodipodi:nodetypes="caaac" />
        <path
           style="opacity:1;fill:none;fill-opacity:1;fill-rule:nonzero;stroke:#000000;stroke-width:0.419734;stroke-linecap:round;stroke-linejoin:round;stroke-opacity:1"
           d="m 187.6475,176.14209 c 0,0 0.1679,-2.69058 0.99369,-3.64033 0.54264,-0.6241 1.84551,-0.27835 2.28037,-0.98157 0.3456,-0.55887 -0.51083,-1.44378 -0.11341,-1.96719 0.39552,-0.52091 1.91848,-0.42026 1.91848,-0.42026"
           id="path122533"
           sodipodi:nodetypes="caaac" />
        <path
           style="opacity:1;fill:none;fill-opacity:1;fill-rule:nonzero;stroke:#000000;stroke-width:0.419734;stroke-linecap:round;stroke-linejoin:round;stroke-opacity:1"
           d="m 181.8021,195.84885 c 0,0 -0.22404,-4.14351 0.47796,-6.03628 1.75817,-4.74044 6.43597,-7.86435 8.95341,-12.25019 0.59165,-1.03076 1.42421,-3.26814 1.42421,-3.26814"
           id="path122535"
           sodipodi:nodetypes="caac" />
        <path
           style="opacity:1;fill:none;fill-opacity:1;fill-rule:nonzero;stroke:#000000;stroke-width:0.419734;stroke-linecap:round;stroke-linejoin:round;stroke-opacity:1"
           d="m 194.84478,173.24304 c 0,0 -0.82417,0.43148 -1.04358,0.15693 -0.51957,-0.65014 0.40844,-1.6604 0.91154,-2.32333 1.15855,-1.52661 3.38346,-1.97673 4.59087,-3.46512 2.42117,-2.98462 3.87856,-6.73015 4.89531,-10.43434 0.67098,-2.4445 0.73692,-7.56823 0.73692,-7.56823"
           id="path122537"
           sodipodi:nodetypes="caaaac" />
      </g>
    </g>
  </g>
</svg>
