<?xml version="1.0" encoding="UTF-8" standalone="no"?>
<!-- Created with Inkscape (http://www.inkscape.org/) -->

<svg
   width="18.981897mm"
   height="67.786407mm"
   viewBox="0 0 18.981897 67.786407"
   version="1.1"
   id="svg5"
   inkscape:version="1.2.2 (b0a8486541, 2022-12-01)"
   sodipodi:docname="fire_ext_6.svg"
   xmlns:inkscape="http://www.inkscape.org/namespaces/inkscape"
   xmlns:sodipodi="http://sodipodi.sourceforge.net/DTD/sodipodi-0.dtd"
   xmlns="http://www.w3.org/2000/svg"
   xmlns:svg="http://www.w3.org/2000/svg">
  <sodipodi:namedview
     id="namedview7"
     pagecolor="#4d4d4d"
     bordercolor="#666666"
     borderopacity="1.0"
     inkscape:pageshadow="2"
     inkscape:pageopacity="0"
     inkscape:pagecheckerboard="false"
     inkscape:document-units="mm"
     showgrid="false"
     inkscape:zoom="1.6000176"
     inkscape:cx="-42.81203"
     inkscape:cy="122.49865"
     inkscape:window-width="1920"
     inkscape:window-height="1080"
     inkscape:window-x="0"
     inkscape:window-y="0"
     inkscape:window-maximized="1"
     inkscape:current-layer="layer1"
     inkscape:showpageshadow="2"
     inkscape:deskcolor="#4d4d4d" />
  <defs
     id="defs2" />
  <g
     inkscape:label="Layer 1"
     inkscape:groupmode="layer"
     id="layer1"
     transform="translate(21.141555,-89.396581)">
    <g
       id="g166920"
       transform="translate(-233.47975,-67.146562)">
      <g
         id="g112960"
         transform="rotate(0.0073057,-314800.69,-21277.509)"
         style="display:inline">
        <path
           style="opacity:1;fill:#e5ca62;fill-opacity:1;fill-rule:nonzero;stroke:#000000;stroke-width:0.25;stroke-linecap:round;stroke-linejoin:round;stroke-opacity:1"
           d="m 217.76793,178.19081 c -2.27674,-3.6033 -2.61482,-8.26634 -2.55886,-12.52828 0.0771,-5.87595 2.20725,-11.57156 3.98018,-17.17419 1.65596,-5.23299 5.83051,-9.78242 6.18736,-15.25956 0.37466,-5.75045 -4.3624,-16.72848 -4.3624,-16.72848 0,0 7.38954,9.1696 9.10233,14.66093 2.27623,7.29778 1.89541,15.30037 1.12504,22.90599 -0.38012,3.75275 -3.03267,7.19598 -2.8102,10.96137 0.28792,4.8731 6.77895,9.01261 5.28209,13.65905 -0.99917,3.10154 -4.92824,5.45364 -8.18494,5.34489 -3.23604,-0.10806 -6.03109,-3.10449 -7.7606,-5.84172 z"
           id="path66418"
           sodipodi:nodetypes="aaaacaaaaaa" />
        <path
           style="opacity:1;fill:none;fill-opacity:1;fill-rule:nonzero;stroke:#000000;stroke-width:0.25;stroke-linecap:round;stroke-linejoin:round;stroke-opacity:1"
           d="m 230.07484,181.05737 c 0,0 1.22788,-2.71982 1.06029,-4.1318 -0.3266,-2.75169 -3.139,-4.67848 -3.89376,-7.34471 -0.87379,-3.08675 -1.40789,-6.495 -0.61794,-9.60426 0.27761,-1.09266 1.80184,-2.86219 1.80184,-2.86219"
           id="path112947"
           sodipodi:nodetypes="caaac" />
        <path
           style="opacity:1;fill:none;fill-opacity:1;fill-rule:nonzero;stroke:#000000;stroke-width:0.25;stroke-linecap:round;stroke-linejoin:round;stroke-opacity:1"
           d="m 226.67836,181.49142 c 0,0 -3.52812,-1.22938 -4.77152,-2.5316 -2.76838,-2.89933 -4.63892,-6.89522 -5.13985,-10.87254 -0.47884,-3.80193 0.92316,-7.66774 2.18271,-11.28679 1.11771,-3.21152 3.44703,-5.89297 4.70005,-9.05415 1.67674,-4.23015 3.71933,-13.13459 3.71933,-13.13459"
           id="path112949"
           sodipodi:nodetypes="caaaac" />
        <path
           style="opacity:1;fill:none;fill-opacity:1;fill-rule:nonzero;stroke:#000000;stroke-width:0.25;stroke-linecap:round;stroke-linejoin:round;stroke-opacity:1"
           d="m 227.67732,177.15085 c 0,0 -0.50903,1.37264 -1.10403,1.40626 -1.33307,0.0753 -2.19811,-1.66657 -2.8127,-2.85191 -2.45097,-4.72714 -3.39455,-10.42648 -2.83131,-15.72137 0.35608,-3.34743 3.84077,-9.34009 3.84077,-9.34009"
           id="path112951"
           sodipodi:nodetypes="caaac" />
        <path
           style="opacity:1;fill:none;fill-opacity:1;fill-rule:nonzero;stroke:#000000;stroke-width:0.25;stroke-linecap:round;stroke-linejoin:round;stroke-opacity:1"
           d="m 225.81362,172.12417 c 0,0 -1.69865,-5.12007 -1.65896,-7.76726 0.0505,-3.36644 1.56486,-6.54965 2.40488,-9.80999 0.74643,-2.89708 1.94768,-5.69862 2.34132,-8.6643 0.18504,-1.39411 0,-4.21901 0,-4.21901"
           id="path112953"
           sodipodi:nodetypes="caaac" />
      </g>
    </g>
  </g>
</svg>
