<?xml version="1.0" encoding="UTF-8" standalone="no"?>
<!-- Created with Inkscape (http://www.inkscape.org/) -->

<svg
   width="23.797268mm"
   height="16.489983mm"
   viewBox="0 0 23.797267 16.489983"
   version="1.1"
   id="svg5"
   inkscape:version="1.2.2 (b0a8486541, 2022-12-01)"
   sodipodi:docname="dialogue_tree.svg"
   xmlns:inkscape="http://www.inkscape.org/namespaces/inkscape"
   xmlns:sodipodi="http://sodipodi.sourceforge.net/DTD/sodipodi-0.dtd"
   xmlns="http://www.w3.org/2000/svg"
   xmlns:svg="http://www.w3.org/2000/svg">
  <sodipodi:namedview
     id="namedview7"
     pagecolor="#4d4d4d"
     bordercolor="#666666"
     borderopacity="1.0"
     inkscape:pageshadow="2"
     inkscape:pageopacity="0"
     inkscape:pagecheckerboard="false"
     inkscape:document-units="mm"
     showgrid="false"
     inkscape:zoom="0.56569164"
     inkscape:cx="-129.04557"
     inkscape:cy="22.980718"
     inkscape:window-width="956"
     inkscape:window-height="1037"
     inkscape:window-x="960"
     inkscape:window-y="0"
     inkscape:window-maximized="1"
     inkscape:current-layer="layer1"
     inkscape:showpageshadow="2"
     inkscape:deskcolor="#4d4d4d" />
  <defs
     id="defs2" />
  <g
     inkscape:label="Layer 1"
     inkscape:groupmode="layer"
     id="layer1"
     transform="translate(31.187032,-142.6065)">
    <g
       id="g782990"
       transform="translate(-34.922801,158.66211)">
      <path
         style="opacity:1;fill:#b0a693;fill-opacity:1;fill-rule:nonzero;stroke:#000000;stroke-width:0.25;stroke-linecap:round;stroke-linejoin:round;stroke-dasharray:none;stroke-opacity:1"
         d="m 7.5717393,-5.6885042 -3.7109744,-4.9408068 2.7949462,-2.919995 8.3537889,-2.381307 4.148402,0.460238 1.217302,1.874967 1.623397,-1.580832 3.66032,0.362522 1.749118,4.024659 -1.73457,2.1748638 -0.678075,2.828417 0.186777,2.8765519 -3.017013,0.1419294 -2.917751,-2.3593624 -2.013573,2.2506972 -3.324747,0.1127536 -1.586135,-2.9793752 -1.285583,2.9849943 1.004132,3.06698154 -3.5560481,-2.73481764 z"
         id="path756730"
         sodipodi:nodetypes="ccccccccccccccccccccc" />
      <g
         id="g770926"
         transform="translate(3.3298482)">
        <path
           style="opacity:1;fill:#bbdfa0;fill-opacity:1;fill-rule:nonzero;stroke:#000000;stroke-width:0.25;stroke-linecap:round;stroke-linejoin:round;stroke-dasharray:none;stroke-opacity:1"
           d="m 11.174599,-8.2498886 c 0,0 -1.3955495,0.5894707 -1.8982811,0.1993125 C 8.852809,-8.3792514 9.041107,-9.6420784 9.041107,-9.6420784 c 0,0 -0.3107882,-0.068982 -0.424358,-0.1707563 -0.3194329,-0.2862613 -0.6851005,-0.7122143 -0.6081097,-1.1343063 0.062936,-0.345041 0.7924173,-0.691774 0.7924173,-0.691774 0,0 -0.3714144,-1.167903 -0.2169058,-1.727187 0.09784,-0.354158 0.3341901,-0.742148 0.6792618,-0.867867 0.3528712,-0.128559 0.7830584,0.03496 1.1023174,0.232816 0.129261,0.08011 0.283165,0.357799 0.283165,0.357799 0,0 0.719106,-0.691451 1.179197,-0.831096 0.620574,-0.188354 1.38459,-0.278739 1.944907,0.04793 0.34578,0.201594 0.61751,1.030187 0.61751,1.030187 0,0 0.711596,-0.08951 0.910237,0.144997 0.350019,0.413221 -0.01107,1.624953 -0.01107,1.624953 0,0 0.63983,0.242902 0.687938,0.528045 0.108249,0.641613 -1.072365,1.6307524 -1.072365,1.6307524 0,0 0.75913,0.3358252 0.727705,0.6624338 -0.06093,0.6332396 -1.296476,0.9385317 -1.629868,0.9914533 -0.06589,0.010459 -0.987564,-0.2242898 -0.987564,-0.2242898"
           id="path768064"
           sodipodi:nodetypes="cacaacaaacaacacacasc" />
        <path
           style="opacity:1;fill:#b0a693;fill-opacity:1;fill-rule:nonzero;stroke:#000000;stroke-width:0.25;stroke-linecap:round;stroke-linejoin:round;stroke-dasharray:none;stroke-opacity:1"
           d="m 11.174599,-10.196006 v 6.0769658 h 1.840928 v -4.9517602"
           id="path765297" />
        <path
           style="opacity:1;fill:#b0a693;fill-opacity:1;fill-rule:nonzero;stroke:#000000;stroke-width:0.25;stroke-linecap:round;stroke-linejoin:round;stroke-dasharray:none;stroke-opacity:1"
           d="m 11.595185,-4.6057061 -0.0028,-5.4165659"
           id="path765299" />
        <path
           style="opacity:1;fill:#b0a693;fill-opacity:1;fill-rule:nonzero;stroke:#000000;stroke-width:0.25;stroke-linecap:round;stroke-linejoin:round;stroke-dasharray:none;stroke-opacity:1"
           d="m 12.080245,-9.7041514 -0.05541,1.3601565 c 0,0 0.541461,0.8742562 0.53979,1.3629347 -0.0015,0.4351758 -0.488979,1.2103955 -0.488979,1.2103955 l -0.03709,1.1940788"
           id="path765301"
           sodipodi:nodetypes="ccscc" />
        <path
           style="opacity:1;fill:#b0a693;fill-opacity:1;fill-rule:nonzero;stroke:#000000;stroke-width:0.25;stroke-linecap:round;stroke-linejoin:round;stroke-dasharray:none;stroke-opacity:1"
           d="m 12.611345,-4.5278285 -0.0096,-1.447078"
           id="path765303" />
        <path
           style="opacity:1;fill:#b0a693;fill-opacity:1;fill-rule:nonzero;stroke:#000000;stroke-width:0.25;stroke-linecap:round;stroke-linejoin:round;stroke-dasharray:none;stroke-opacity:1"
           d="M 12.593832,-8.3239197 V -10.300361"
           id="path765305"
           sodipodi:nodetypes="cc" />
        <path
           style="opacity:1;fill:#b0a693;fill-opacity:1;fill-rule:nonzero;stroke:#000000;stroke-width:0.25;stroke-linecap:round;stroke-linejoin:round;stroke-dasharray:none;stroke-opacity:1"
           d="m 12.203192,-6.9248771 -0.191222,0.4674384 c -0.139193,-0.4254284 -0.101125,-0.842662 -0.0385,-1.2464758 l 0.212074,0.2645887"
           id="path765307"
           sodipodi:nodetypes="cccc" />
        <path
           style="opacity:1;fill:none;fill-opacity:1;fill-rule:nonzero;stroke:#000000;stroke-width:0.25;stroke-linecap:round;stroke-linejoin:round;stroke-dasharray:none;stroke-opacity:1"
           d="m 10.112554,-9.1883477 c 0,0 -0.3929823,-0.2383936 -0.3311696,-0.400112 0.084731,-0.2216797 0.5054856,-0.2358173 0.7040516,-0.1058442 0.196106,0.1283633 0.26545,0.4598909 0.182415,0.679071 -0.113632,0.2999448 -0.487432,0.5895763 -0.8027152,0.5306234 -0.2227356,-0.041648 -0.3933213,-0.5544453 -0.3933213,-0.5544453"
           id="path768066"
           sodipodi:nodetypes="caaaac" />
        <path
           style="opacity:1;fill:none;fill-opacity:1;fill-rule:nonzero;stroke:#000000;stroke-width:0.25;stroke-linecap:round;stroke-linejoin:round;stroke-dasharray:none;stroke-opacity:1"
           d="m 10.152212,-10.763315 c 0,0 -0.2138387,0.513303 -0.4467385,0.608708 -0.2291295,0.09386 -0.5301133,0.02306 -0.7333282,-0.118412 -0.147214,-0.102485 -0.279476,-0.289654 -0.2648547,-0.468431 0.024039,-0.29393 0.2602905,-0.673815 0.5548025,-0.689167 0.207648,-0.01082 0.4387041,0.23467 0.439569,0.442598 4.023e-4,0.09672 -0.2027424,0.207565 -0.2027424,0.207565"
           id="path768070"
           sodipodi:nodetypes="caaaaac" />
        <path
           style="opacity:1;fill:none;fill-opacity:1;fill-rule:nonzero;stroke:#000000;stroke-width:0.25;stroke-linecap:round;stroke-linejoin:round;stroke-dasharray:none;stroke-opacity:1"
           d="m 10.145336,-11.606972 c 0,0 -0.8963858,-0.366238 -1.0689016,-0.770067 -0.155814,-0.364733 -0.1535713,-0.941968 0.1648885,-1.178382 0.1835315,-0.136248 0.4785212,-0.0068 0.6775535,0.105576 0.1979176,0.111769 0.3967396,0.299207 0.4378336,0.522757 0.03162,0.172002 -0.01078,0.427507 -0.171811,0.495722 -0.162629,0.06889 -0.3511883,-0.103182 -0.4803383,-0.223658 -0.1182153,-0.110276 -0.2347459,-0.4244 -0.2347459,-0.4244"
           id="path768072"
           sodipodi:nodetypes="caaaaaac" />
        <path
           style="opacity:1;fill:none;fill-opacity:1;fill-rule:nonzero;stroke:#000000;stroke-width:0.25;stroke-linecap:round;stroke-linejoin:round;stroke-dasharray:none;stroke-opacity:1"
           d="m 12.00724,-11.855039 c 0,0 -0.676468,0.09407 -0.86752,-0.127102 -0.281194,-0.325519 -0.175685,-0.898041 4.89e-4,-1.290464 0.139557,-0.310859 0.430083,-0.609933 0.763635,-0.679591 0.240393,-0.0502 0.546682,0.03705 0.700377,0.228587 0.190255,0.2371 0.253293,0.652282 0.08843,0.907691 -0.160291,0.248328 -0.610434,0.47168 -0.839632,0.285057 -0.177134,-0.14423 0.08423,-0.680082 0.08423,-0.680082"
           id="path768074"
           sodipodi:nodetypes="caaaaaac" />
        <path
           style="opacity:1;fill:none;fill-opacity:1;fill-rule:nonzero;stroke:#000000;stroke-width:0.25;stroke-linecap:round;stroke-linejoin:round;stroke-dasharray:none;stroke-opacity:1"
           d="m 13.382559,-13.881577 c 0,0 0.106363,0.700441 0.363648,0.893131 0.299368,0.224207 0.885657,-0.180751 1.11628,0.113703 0.22634,0.288985 0.131862,0.860277 -0.154139,1.090376 -0.312265,0.251229 -0.897062,0.173109 -1.198931,-0.09052 -0.203089,-0.177362 -0.381714,-0.625447 -0.168937,-0.791062 0.198714,-0.154669 0.554045,0.114787 0.67745,0.334288 0.05376,0.09563 -0.02895,0.327847 -0.02895,0.327847"
           id="path768076"
           sodipodi:nodetypes="caaaaaac" />
        <path
           style="opacity:1;fill:none;fill-opacity:1;fill-rule:nonzero;stroke:#000000;stroke-width:0.25;stroke-linecap:round;stroke-linejoin:round;stroke-dasharray:none;stroke-opacity:1"
           d="m 11.663225,-11.049453 c 0,0 -0.796936,-0.510491 -1.017969,-0.24081 -0.131494,0.160436 0.08489,0.453505 0.259379,0.565682 0.377115,0.242443 0.936699,0.187703 1.344971,0.0025 0.341937,-0.155131 0.660099,-0.482185 0.740326,-0.848996 0.0404,-0.184724 -0.160299,-0.544152 -0.160299,-0.544152"
           id="path768078"
           sodipodi:nodetypes="caaaac" />
        <path
           style="opacity:1;fill:none;fill-opacity:1;fill-rule:nonzero;stroke:#000000;stroke-width:0.25;stroke-linecap:round;stroke-linejoin:round;stroke-dasharray:none;stroke-opacity:1"
           d="m 14.395255,-9.9087287 c 0,0 0.598811,-0.6924293 0.412753,-1.0020863 -0.166426,-0.276984 -0.664792,-0.214988 -0.964762,-0.09484 -0.272298,0.109064 -0.563119,0.373725 -0.574188,0.666844 -0.0094,0.247842 0.194244,0.6171453 0.441586,0.5988485 0.29471,-0.021801 0.415435,-0.7831835 0.415435,-0.7831835"
           id="path768080"
           sodipodi:nodetypes="caaaac" />
        <path
           style="opacity:1;fill:none;fill-opacity:1;fill-rule:nonzero;stroke:#000000;stroke-width:0.25;stroke-linecap:round;stroke-linejoin:round;stroke-dasharray:none;stroke-opacity:1"
           d="m 14.339067,-9.2741267 c 0,0 0.682607,0.2679619 0.630167,0.539454 -0.07473,0.3869016 -0.748371,0.5107694 -1.119749,0.3790266 -0.20576,-0.072992 -0.395091,-0.3405293 -0.349367,-0.5540108 0.03217,-0.1501989 0.231527,-0.2744337 0.383887,-0.2549164 0.144494,0.01851 0.291373,0.325716 0.291373,0.325716"
           id="path768082"
           sodipodi:nodetypes="caaaac" />
      </g>
      <g
         id="g773728"
         transform="matrix(0.26466391,-0.99812792,0.99666176,0.26532336,13.911862,5.8275804)"
         style="stroke-width:0.968996">
        <path
           style="fill:#574636;fill-opacity:1;stroke:#000000;stroke-width:0.242249;stroke-linecap:round;stroke-linejoin:round;stroke-dasharray:none;stroke-opacity:1"
           d="m 8.9710565,-6.312619 4.5485965,-5.675565 c 0.264176,0.02615 0.397149,0.168014 0.473531,0.359784 L 9.3658601,-5.918244 C 9.1224539,-5.976228 8.9725671,-6.0956886 8.9710565,-6.312619 Z"
           id="path69741-9"
           sodipodi:nodetypes="ccccc" />
        <path
           style="fill:#a19b91;fill-opacity:1;stroke:#000000;stroke-width:0.242249;stroke-linecap:round;stroke-linejoin:round;stroke-dasharray:none;stroke-opacity:1"
           d="m 13.168375,-10.174508 c -0.379208,-0.07622 -0.505219,-0.205076 -0.801138,-0.500347 l 0.669419,-0.90229 c 0.353607,0.101311 0.461946,0.228667 0.744607,0.508866 l 1.882385,0.374262 c 0,0 -0.09899,0.8575752 -0.311017,1.133979 -0.268148,0.3496427 -1.15183,0.6604522 -1.15183,0.6604522 z"
           id="path69743-3"
           sodipodi:nodetypes="cccccscc" />
        <path
           style="fill:#ada79f;fill-opacity:1;stroke:none;stroke-width:0.242249;stroke-linecap:round;stroke-linejoin:round;stroke-dasharray:none;stroke-opacity:1"
           d="m 14.041111,-9.3975735 c 0,0 0.431618,-0.3350337 0.614794,-0.5359203 0.174983,-0.1919002 0.455727,-0.6319122 0.455727,-0.6319122 l 0.393402,0.05411 c 0,0 -0.100121,0.6467089 -0.298832,0.8874023 -0.21798,0.2640444 -0.893776,0.5062362 -0.893776,0.5062362 z"
           id="path69745-3"
           sodipodi:nodetypes="caccacc" />
      </g>
      <g
         id="g777411"
         transform="translate(-0.39438044,-0.48977865)">
        <path
           style="opacity:1;fill:#d1d194;fill-opacity:1;fill-rule:nonzero;stroke:#000000;stroke-width:0.25;stroke-linecap:round;stroke-linejoin:round;stroke-dasharray:none;stroke-opacity:1"
           d="m 22.031561,-8.9031975 -1.014829,-1.7441255 2.666955,-3.001493 2.931581,3.061655 -2.279882,2.6525106 -0.06263,1.9854491 -0.943668,-0.025777 0.02708,-2.2862437 1.957483,-2.141228 -1.755871,-1.873158 -1.539815,1.689192 0.687061,1.1299831 z"
           id="path773730"
           sodipodi:nodetypes="ccccccccccccc" />
        <path
           style="opacity:1;fill:#d1d194;fill-opacity:1;fill-rule:nonzero;stroke:#000000;stroke-width:0.25;stroke-linecap:round;stroke-linejoin:round;stroke-dasharray:none;stroke-opacity:1"
           d="m 23.98062,-3.139483 -0.918036,-0.9795573 0.852481,-0.9974045 0.789011,0.9974046 z"
           id="path776502"
           sodipodi:nodetypes="ccccc" />
        <path
           style="opacity:1;fill:none;fill-opacity:1;fill-rule:nonzero;stroke:#000000;stroke-width:0.25;stroke-linecap:round;stroke-linejoin:round;stroke-dasharray:none;stroke-opacity:1"
           d="m 23.711198,-6.3345405 0.05152,-1.7804583 2.197786,-2.3460642 -2.292676,-2.56427 -2.154706,2.369031 0.567219,0.9807089"
           id="path776504" />
        <path
           style="opacity:1;fill:#d1d194;fill-opacity:1;fill-rule:nonzero;stroke:#000000;stroke-width:0.25;stroke-linecap:round;stroke-linejoin:round;stroke-dasharray:none;stroke-opacity:1"
           d="m 23.961674,-4.3198551 0.214471,0.2008149 -0.256365,0.3675529 -0.232556,-0.3675529"
           id="path777405" />
      </g>
    </g>
  </g>
</svg>
