<?xml version="1.0" encoding="UTF-8" standalone="no"?>
<!-- Created with Inkscape (http://www.inkscape.org/) -->

<svg
   width="21.234783mm"
   height="20.014004mm"
   viewBox="0 0 21.234783 20.014004"
   version="1.1"
   id="svg5"
   inkscape:version="1.2.2 (b0a8486541, 2022-12-01)"
   sodipodi:docname="dialogue_church.svg"
   xmlns:inkscape="http://www.inkscape.org/namespaces/inkscape"
   xmlns:sodipodi="http://sodipodi.sourceforge.net/DTD/sodipodi-0.dtd"
   xmlns="http://www.w3.org/2000/svg"
   xmlns:svg="http://www.w3.org/2000/svg">
  <sodipodi:namedview
     id="namedview7"
     pagecolor="#4d4d4d"
     bordercolor="#666666"
     borderopacity="1.0"
     inkscape:pageshadow="2"
     inkscape:pageopacity="0"
     inkscape:pagecheckerboard="false"
     inkscape:document-units="mm"
     showgrid="false"
     inkscape:zoom="0.56569164"
     inkscape:cx="-208.59421"
     inkscape:cy="-17.677475"
     inkscape:window-width="956"
     inkscape:window-height="1037"
     inkscape:window-x="960"
     inkscape:window-y="0"
     inkscape:window-maximized="1"
     inkscape:current-layer="layer1"
     inkscape:showpageshadow="2"
     inkscape:deskcolor="#4d4d4d" />
  <defs
     id="defs2" />
  <g
     inkscape:label="Layer 1"
     inkscape:groupmode="layer"
     id="layer1"
     transform="translate(9.6819582,-153.22607)">
    <g
       id="g808396"
       transform="matrix(0.82693458,0,0,0.82683053,-8.2040921,174.58577)"
       style="stroke-width:1.20936">
      <path
         style="opacity:1;fill:#b0a693;fill-opacity:1;fill-rule:nonzero;stroke:#000000;stroke-width:0.30234;stroke-linecap:round;stroke-linejoin:round;stroke-dasharray:none;stroke-opacity:1"
         d="m 18.698438,-5.1257347 -3.759918,-2.9105618 -1.250638,1.8195327 -4.1010894,0.666607 1.2709064,3.7714887 -4.3764588,-3.959244 -4.2436775,-0.591628 -3.8735555,-6.8730349 1.8438589,-10.356189 10.0928969,-1.843802 3.581556,3.163213 1.14803,-3.442701 8.710236,0.485485 -1.955528,13.031272 0.712139,3.9606137 z"
         id="path808310"
         sodipodi:nodetypes="cccccccccccccccc" />
      <g
         id="g808320"
         transform="matrix(1.1411768,-0.11137067,0.11167893,1.1359246,-4.7876334,0.66076479)"
         style="stroke-width:1.05714">
        <path
           style="fill:#d1d194;fill-opacity:1;fill-rule:nonzero;stroke:#000000;stroke-width:0.264284;stroke-linecap:round;stroke-linejoin:round;stroke-dasharray:none;stroke-opacity:1"
           d="m 21.227588,-5.1978318 -1.110682,-1.7307886 1.561418,-1.2655652 0.911357,1.7218122 z"
           id="path808312"
           sodipodi:nodetypes="ccccc" />
        <path
           style="fill:#d1d194;fill-opacity:1;fill-rule:nonzero;stroke:#000000;stroke-width:0.264284;stroke-linecap:round;stroke-linejoin:round;stroke-dasharray:none;stroke-opacity:1"
           d="m 21.527128,-6.9812328 0.267267,0.3621228 -0.488353,0.482433 -0.248167,-0.6183268"
           id="path808314" />
        <path
           style="opacity:1;fill:#d1d194;fill-opacity:1;fill-rule:nonzero;stroke:#000000;stroke-width:0.264284;stroke-linecap:round;stroke-linejoin:round;stroke-dasharray:none;stroke-opacity:1"
           d="m 21.034227,-9.6503669 -0.671576,-10.2016491 4.513966,0.529233 -2.427997,9.9735363 z"
           id="path808316" />
        <path
           style="fill:none;fill-opacity:1;fill-rule:nonzero;stroke:#000000;stroke-width:0.264284;stroke-linecap:round;stroke-linejoin:round;stroke-dasharray:none;stroke-opacity:1"
           d="m 21.89637,-10.317411 -0.310719,-8.22653 2.155479,0.27394 -1.186582,4.941782 0.0341,-4.31211"
           id="path808318"
           sodipodi:nodetypes="ccccc" />
      </g>
      <path
         id="path216146-3"
         style="fill:#e6d199;fill-opacity:1;stroke:#000000;stroke-width:0.30234;stroke-linecap:round;stroke-linejoin:round;stroke-dasharray:none;stroke-opacity:1"
         d="m 7.8786924,-22.221877 a 6.7862877,6.7862877 0 0 0 -6.7868957,6.786872 6.7862877,6.7862877 0 0 0 6.7868957,6.7855679 6.7862877,6.7862877 0 0 0 6.7855446,-6.7855679 6.7862877,6.7862877 0 0 0 -6.7855446,-6.786872 z m 1.3468057,2.613179 a 4.3851985,4.3851985 0 0 1 2.7965369,2.738487 H 9.2254981 Z m -2.7675112,0.0291 v 2.709464 H 3.737955 a 4.3851985,4.3851985 0 0 1 2.7200319,-2.709464 z m -2.7530122,5.476975 h 2.7530122 v 2.81106 a 4.3851985,4.3851985 0 0 1 -2.7530122,-2.811056 z m 5.5205234,0 h 2.8255599 a 4.3851985,4.3851985 0 0 1 -2.8255599,2.836128 z" />
    </g>
  </g>
</svg>
