<?xml version="1.0" encoding="UTF-8" standalone="no"?>
<!-- Created with Inkscape (http://www.inkscape.org/) -->

<svg
   width="10.148183mm"
   height="14.696579mm"
   viewBox="0 0 10.148183 14.696579"
   version="1.1"
   id="svg5"
   inkscape:version="1.2.2 (b0a8486541, 2022-12-01)"
   sodipodi:docname="drop_of_blood.svg"
   xmlns:inkscape="http://www.inkscape.org/namespaces/inkscape"
   xmlns:sodipodi="http://sodipodi.sourceforge.net/DTD/sodipodi-0.dtd"
   xmlns="http://www.w3.org/2000/svg"
   xmlns:svg="http://www.w3.org/2000/svg">
  <sodipodi:namedview
     id="namedview7"
     pagecolor="#4d4d4d"
     bordercolor="#666666"
     borderopacity="1.0"
     inkscape:pageshadow="2"
     inkscape:pageopacity="0"
     inkscape:pagecheckerboard="false"
     inkscape:document-units="mm"
     showgrid="false"
     inkscape:zoom="0.56569164"
     inkscape:cx="-279.30411"
     inkscape:cy="53.032426"
     inkscape:window-width="956"
     inkscape:window-height="1037"
     inkscape:window-x="960"
     inkscape:window-y="0"
     inkscape:window-maximized="1"
     inkscape:current-layer="layer1"
     inkscape:showpageshadow="2"
     inkscape:deskcolor="#4d4d4d" />
  <defs
     id="defs2" />
  <g
     inkscape:label="Layer 1"
     inkscape:groupmode="layer"
     id="layer1"
     transform="translate(-8.8318475,-134.98807)">
    <g
       id="g652353"
       transform="matrix(0.70338915,0,0,0.7050108,59.119895,-61.290817)"
       style="stroke-width:1.42005">
      <path
         style="opacity:1;fill:#b0a693;fill-opacity:1;fill-rule:nonzero;stroke:#000000;stroke-width:0.355013;stroke-linecap:round;stroke-linejoin:round;stroke-opacity:1"
         d="m -63.002944,299.0739 -7.70483,-3.78005 -0.60864,-6.11236 3.870349,-4.99025 3.072225,-5.60824 3.334441,5.19898 3.26918,4.74853 0.526345,5.45591 z"
         id="path643707"
         sodipodi:nodetypes="ccccccccc" />
      <g
         id="g643642"
         transform="translate(-11.683696,2.8080785)"
         style="stroke-width:1.42005">
        <g
           id="g643640"
           transform="translate(2.7227031,-6.8022044)"
           style="stroke-width:1.42005">
          <path
             style="opacity:1;fill:#8a4242;fill-opacity:1;fill-rule:nonzero;stroke:#000000;stroke-width:0.355013;stroke-linecap:round;stroke-linejoin:round;stroke-opacity:1"
             d="m -55.092809,285.84061 c -2.158785,6.08992 -5.550614,7.09888 -4.477645,10.86681 0.553023,1.94204 2.895429,3.64429 4.912226,3.54488 1.821367,-0.0898 3.693616,-1.8444 4.099874,-3.62215 0.869116,-3.80318 -2.423244,-4.55824 -4.534455,-10.78954 z"
             id="path643616"
             sodipodi:nodetypes="caaac" />
          <path
             style="opacity:1;fill:#9b4b4b;fill-opacity:1;fill-rule:nonzero;stroke:none;stroke-width:0.355013;stroke-linecap:round;stroke-linejoin:round;stroke-opacity:1"
             d="m -56.028759,291.02834 c -2.122582,1.42146 -2.820627,3.05605 -2.470929,4.83052 0.244199,1.23914 1.618091,2.52089 2.876296,2.46634 1.130579,-0.049 2.241333,-1.30537 2.385727,-2.43168 0.237746,-1.85447 -1.173705,-2.04372 -2.791094,-4.86518 z"
             id="path643618"
             sodipodi:nodetypes="caaac" />
          <path
             style="opacity:1;fill:none;fill-opacity:1;fill-rule:nonzero;stroke:#000000;stroke-width:0.355013;stroke-linecap:round;stroke-linejoin:round;stroke-opacity:1"
             d="m -53.487037,299.25162 c 0,0 0.951199,-0.55427 1.311157,-0.95921 0.437539,-0.49223 0.77038,-1.09356 0.972438,-1.72097 0.125244,-0.38889 0.133259,-1.21868 0.133259,-1.21868"
             id="path643620"
             sodipodi:nodetypes="caac" />
          <path
             style="opacity:1;fill:none;fill-opacity:1;fill-rule:nonzero;stroke:#000000;stroke-width:0.355013;stroke-linecap:round;stroke-linejoin:round;stroke-opacity:1"
             d="m -54.154587,299.03858 c 0,0 0.905066,-0.39346 1.268323,-0.71658 0.441549,-0.39279 0.80157,-0.8941 1.048026,-1.43262 0.152766,-0.3338 0.248137,-1.07363 0.248137,-1.07363"
             id="path643622"
             sodipodi:nodetypes="caac" />
          <path
             style="opacity:1;fill:none;fill-opacity:1;fill-rule:nonzero;stroke:#000000;stroke-width:0.355013;stroke-linecap:round;stroke-linejoin:round;stroke-opacity:1"
             d="m -53.888128,298.31858 c 0,0 0.745262,-0.43786 1.027286,-0.75775 0.342811,-0.38885 0.60359,-0.86388 0.761902,-1.35952 0.09813,-0.30721 0.104408,-0.96272 0.104408,-0.96272"
             id="path643624"
             sodipodi:nodetypes="caac" />
          <path
             style="opacity:1;fill:none;fill-opacity:1;fill-rule:nonzero;stroke:#000000;stroke-width:0.355013;stroke-linecap:round;stroke-linejoin:round;stroke-opacity:1"
             d="m -55.026727,298.15096 c 0,0 0.680975,-0.11757 0.982759,-0.27816 0.36683,-0.19522 0.69712,-0.47865 0.956888,-0.80678 0.161014,-0.20338 0.353108,-0.69513 0.353108,-0.69513"
             id="path643626"
             sodipodi:nodetypes="caac" />
          <path
             style="opacity:1;fill:none;fill-opacity:1;fill-rule:nonzero;stroke:#000000;stroke-width:0.355013;stroke-linecap:round;stroke-linejoin:round;stroke-opacity:1"
             d="m -54.107803,297.3693 c 0,0 0.66785,-0.54923 0.896542,-0.90937 0.277983,-0.43778 0.461507,-0.94783 0.54061,-1.46218 0.04904,-0.3188 -0.04695,-0.96724 -0.04695,-0.96724"
             id="path643628"
             sodipodi:nodetypes="caac" />
          <path
             style="opacity:1;fill:none;fill-opacity:1;fill-rule:nonzero;stroke:#000000;stroke-width:0.355013;stroke-linecap:round;stroke-linejoin:round;stroke-opacity:1"
             d="m -59.019444,295.26937 c 0,0 -0.0049,-0.86467 0.125721,-1.2708 0.158769,-0.49368 0.433506,-0.96096 0.77833,-1.35072 0.213719,-0.24158 0.773604,-0.58249 0.773604,-0.58249"
             id="path643630"
             sodipodi:nodetypes="caac" />
          <path
             style="opacity:1;fill:none;fill-opacity:1;fill-rule:nonzero;stroke:#000000;stroke-width:0.355013;stroke-linecap:round;stroke-linejoin:round;stroke-opacity:1"
             d="m -58.458786,295.14335 c 0,0 -0.0853,-0.32826 -0.08004,-0.49399 0.0064,-0.20145 0.055,-0.40295 0.134999,-0.58106 0.04957,-0.11044 0.207709,-0.28863 0.207709,-0.28863"
             id="path643632"
             sodipodi:nodetypes="caac" />
          <path
             style="opacity:1;fill:none;fill-opacity:1;fill-rule:nonzero;stroke:#000000;stroke-width:0.355013;stroke-linecap:round;stroke-linejoin:round;stroke-opacity:1"
             d="m -53.00472,291.05544 c 0,0 -0.730677,-0.84465 -1.014108,-1.32239 -0.274658,-0.46296 -0.653623,-1.47671 -0.653623,-1.47671"
             id="path643634"
             sodipodi:nodetypes="cac" />
          <path
             style="opacity:1;fill:none;fill-opacity:1;fill-rule:nonzero;stroke:#000000;stroke-width:0.355013;stroke-linecap:round;stroke-linejoin:round;stroke-opacity:1"
             d="m -53.042742,291.68706 c 0,0 -0.662669,-0.67589 -0.928295,-1.06553 -0.257404,-0.37758 -0.633987,-1.21697 -0.633987,-1.21697"
             id="path643636"
             sodipodi:nodetypes="cac" />
          <path
             style="opacity:1;fill:none;fill-opacity:1;fill-rule:nonzero;stroke:#000000;stroke-width:0.355013;stroke-linecap:round;stroke-linejoin:round;stroke-opacity:1"
             d="m -53.507865,291.73034 c 0,0 -0.477213,-0.43554 -0.673887,-0.69179 -0.190586,-0.24832 -0.482436,-0.80906 -0.482436,-0.80906"
             id="path643638"
             sodipodi:nodetypes="cac" />
        </g>
      </g>
      <path
         style="opacity:0.5;fill:#b0a693;fill-opacity:1;fill-rule:nonzero;stroke:#000000;stroke-width:0.355013;stroke-linecap:round;stroke-linejoin:round;stroke-opacity:1"
         d="m -63.002944,299.0739 -7.70483,-3.78005 -0.60864,-6.11236 3.870349,-4.99025 3.072225,-5.60824 3.334441,5.19898 3.26918,4.74853 0.526345,5.45591 z"
         id="path649827"
         sodipodi:nodetypes="ccccccccc" />
    </g>
  </g>
</svg>
