<?xml version="1.0" encoding="UTF-8" standalone="no"?>
<!-- Created with Inkscape (http://www.inkscape.org/) -->

<svg
   width="4.5208631mm"
   height="54.149296mm"
   viewBox="0 0 4.5208631 54.149296"
   version="1.1"
   id="svg5"
   inkscape:version="1.2.2 (b0a8486541, 2022-12-01)"
   sodipodi:docname="scratch_big.svg"
   xmlns:inkscape="http://www.inkscape.org/namespaces/inkscape"
   xmlns:sodipodi="http://sodipodi.sourceforge.net/DTD/sodipodi-0.dtd"
   xmlns="http://www.w3.org/2000/svg"
   xmlns:svg="http://www.w3.org/2000/svg">
  <sodipodi:namedview
     id="namedview7"
     pagecolor="#4d4d4d"
     bordercolor="#666666"
     borderopacity="1.0"
     inkscape:pageshadow="2"
     inkscape:pageopacity="0"
     inkscape:pagecheckerboard="false"
     inkscape:document-units="mm"
     showgrid="false"
     inkscape:zoom="0.56569164"
     inkscape:cx="-183.84574"
     inkscape:cy="79.548639"
     inkscape:window-width="956"
     inkscape:window-height="1037"
     inkscape:window-x="960"
     inkscape:window-y="0"
     inkscape:window-maximized="1"
     inkscape:current-layer="layer1"
     inkscape:showpageshadow="2"
     inkscape:deskcolor="#4d4d4d" />
  <defs
     id="defs2" />
  <g
     inkscape:label="Layer 1"
     inkscape:groupmode="layer"
     id="layer1"
     transform="translate(16.22086,-127.73953)">
    <g
       id="g676950"
       transform="translate(112.20157,137.91707)">
      <path
         style="opacity:1;fill:#c27070;fill-opacity:1;fill-rule:nonzero;stroke:#000000;stroke-width:0.25;stroke-linecap:round;stroke-linejoin:round;stroke-opacity:1"
         d="m -126.71166,43.846776 -0.82865,-2.969051 0.46611,-1.240427 -0.72685,-8.290963 0.64891,0.356771 -0.91011,-6.051057 1.17437,0.456135 -1.07297,-4.842912 1.00864,1.101502 -0.54295,-7.463728 0.67542,0.181855 -0.39248,-4.285799 0.51377,0.270989 -0.30446,-3.2349259 -0.85431,-2.5578726 0.76823,0.4667396 0.29085,-4.07788 -0.74255,-3.088842 0.73628,0.72185701 -1.49304,-4.79685901 1.30739,1.661033 0.0458,-1.870154 0.6654,-4.3457821 0.70054,3.0867111 0.0375,3.220654 0.4357,-0.846981 -0.47937,3.296623 0.56251,1.84030301 0.99544,-0.960718 -1.57874,3.37658699 -0.0195,4.668269 0.70471,-0.2742248 -0.89463,2.7419057 0.0733,4.336323 0.63495,-1.180551 -0.64452,3.793243 0.14104,4.70202 0.37273,-0.722966 -0.48671,2.812194 0.38627,1.313551 0.78668,-0.972529 -1.26272,5.084228 0.39165,2.729597 -0.26165,2.443788 -0.56792,5.265439 0.46589,2.432112 z"
         id="path665624"
         sodipodi:nodetypes="ccccccccccccccccccccccccccccccccccccccccccccccc" />
      <path
         style="opacity:1;fill:#c270a7;fill-opacity:1;fill-rule:nonzero;stroke:none;stroke-width:0.25;stroke-linecap:round;stroke-linejoin:round;stroke-opacity:1"
         d="m -126.61732,42.270442 -0.30176,-1.457557 0.24354,-0.275702 0.39149,0.790065 z"
         id="path671785" />
      <path
         style="opacity:1;fill:#c270a7;fill-opacity:1;fill-rule:nonzero;stroke:none;stroke-width:0.25;stroke-linecap:round;stroke-linejoin:round;stroke-opacity:1"
         d="m -126.70972,38.414095 -0.3773,-6.014217 0.63367,-0.0096 -1.03802,-5.771954 1.11213,-0.155816 -0.81664,-3.739533 0.49153,0.08478 0.40362,-2.122573 -0.41047,-4.159561 -0.28567,-1.005444 0.49738,-0.07156 -0.16635,-3.928938 0.29223,0.383423 -0.16721,-4.9981071 -0.50102,-0.5814943 0.38606,-0.158766 0.27932,-5.52761857 -0.56224,-0.81678276 0.50094,0.10501312 -0.21022,-1.47626139 -0.69179,-2.0062573 0.53391,0.1922136 0.37626,-2.65738 0.28671,-1.8451761 0.22081,1.4522673 -0.43736,3.4855328 0.46506,-0.085279 -0.22036,0.6769446 0.30983,3.3549767 0.41693,-0.13781911 -0.67389,1.69946101 -0.0259,5.8841238 0.44442,-0.3738357 -0.5271,1.8911718 0.0327,5.5808216 0.41955,-0.661778 -0.43813,2.057828 0.20864,3.900814 -0.24648,1.614954 0.36592,0.179848 -0.45837,1.235495 0.38654,1.539086 0.54546,0.339953 -0.93924,2.318303 0.29266,4.23631 -0.44146,0.854617 z"
         id="path671787"
         sodipodi:nodetypes="ccccccccccccccccccccccccccccccccccccccccccccccc" />
      <path
         style="opacity:1;fill:none;fill-opacity:1;fill-rule:nonzero;stroke:#000000;stroke-width:0.25;stroke-linecap:round;stroke-linejoin:round;stroke-opacity:1"
         d="m -126.64335,42.683976 0.28153,-0.936901 -0.35666,-1.407345 0.79485,-8.212553"
         id="path674322" />
      <path
         style="opacity:1;fill:none;fill-opacity:1;fill-rule:nonzero;stroke:#000000;stroke-width:0.25;stroke-linecap:round;stroke-linejoin:round;stroke-opacity:1"
         d="m -126.82687,41.633932 -0.24536,-0.827823"
         id="path674324" />
      <path
         style="opacity:1;fill:none;fill-opacity:1;fill-rule:nonzero;stroke:#000000;stroke-width:0.25;stroke-linecap:round;stroke-linejoin:round;stroke-opacity:1"
         d="m -127.1783,32.310145 0.29387,4.435176 0.61234,-8.033221 0.92198,-3.043045"
         id="path674326" />
      <path
         style="opacity:1;fill:none;fill-opacity:1;fill-rule:nonzero;stroke:#000000;stroke-width:0.25;stroke-linecap:round;stroke-linejoin:round;stroke-opacity:1"
         d="m -125.93024,31.487396 -0.10951,-1.331494"
         id="path674328" />
      <path
         style="opacity:1;fill:none;fill-opacity:1;fill-rule:nonzero;stroke:#000000;stroke-width:0.25;stroke-linecap:round;stroke-linejoin:round;stroke-opacity:1"
         d="m -126.90166,30.866112 -0.53861,-4.358669 0.52011,0.09751"
         id="path674330" />
      <path
         style="opacity:1;fill:none;fill-opacity:1;fill-rule:nonzero;stroke:#000000;stroke-width:0.25;stroke-linecap:round;stroke-linejoin:round;stroke-opacity:1"
         d="m -127.00262,27.088664 0.28135,1.713709 0.81678,-2.999698 -0.11315,-1.56837"
         id="path674332" />
      <path
         style="opacity:1;fill:none;fill-opacity:1;fill-rule:nonzero;stroke:#000000;stroke-width:0.25;stroke-linecap:round;stroke-linejoin:round;stroke-opacity:1"
         d="m -126.41636,25.950181 -0.87246,-3.48052"
         id="path674334" />
      <path
         style="opacity:1;fill:none;fill-opacity:1;fill-rule:nonzero;stroke:#000000;stroke-width:0.25;stroke-linecap:round;stroke-linejoin:round;stroke-opacity:1"
         d="m -126.67814,22.86275 0.19263,1.11937 0.74524,-1.805164"
         id="path674336" />
      <path
         style="opacity:1;fill:none;fill-opacity:1;fill-rule:nonzero;stroke:#000000;stroke-width:0.25;stroke-linecap:round;stroke-linejoin:round;stroke-opacity:1"
         d="m -126.53146,22.286427 0.4702,-1.912432 -0.0769,-3.188058 -0.98569,-1.818643"
         id="path674338" />
      <path
         style="opacity:1;fill:none;fill-opacity:1;fill-rule:nonzero;stroke:#000000;stroke-width:0.25;stroke-linecap:round;stroke-linejoin:round;stroke-opacity:1"
         d="m -126.38602,20.101628 -0.32715,0.74408 -0.29951,-4.462619"
         id="path674340"
         sodipodi:nodetypes="ccc" />
      <path
         style="opacity:1;fill:none;fill-opacity:1;fill-rule:nonzero;stroke:#000000;stroke-width:0.25;stroke-linecap:round;stroke-linejoin:round;stroke-opacity:1"
         d="m -126.39843,13.855742 -0.024,1.698816 0.30973,0.474133 0.4593,-1.156904"
         id="path674342" />
      <path
         style="opacity:1;fill:none;fill-opacity:1;fill-rule:nonzero;stroke:#000000;stroke-width:0.25;stroke-linecap:round;stroke-linejoin:round;stroke-opacity:1"
         d="m -126.0871,14.239534 -0.24456,-1.778333 -0.50434,-1.105657"
         id="path674344" />
      <path
         style="opacity:1;fill:none;fill-opacity:1;fill-rule:nonzero;stroke:#000000;stroke-width:0.25;stroke-linecap:round;stroke-linejoin:round;stroke-opacity:1"
         d="m -126.72799,12.501745 0.1147,0.67775"
         id="path674346" />
      <path
         style="opacity:1;fill:none;fill-opacity:1;fill-rule:nonzero;stroke:#000000;stroke-width:0.25;stroke-linecap:round;stroke-linejoin:round;stroke-opacity:1"
         d="m -126.2338,11.386859 0.10994,-2.2846948 0.51656,-1.0654731"
         id="path674348" />
      <path
         style="opacity:1;fill:none;fill-opacity:1;fill-rule:nonzero;stroke:#000000;stroke-width:0.25;stroke-linecap:round;stroke-linejoin:round;stroke-opacity:1"
         d="m -126.47989,8.5817928 -0.13738,-1.3243255 -0.52609,-1.1292319"
         id="path674350" />
      <path
         style="opacity:1;fill:none;fill-opacity:1;fill-rule:nonzero;stroke:#000000;stroke-width:0.25;stroke-linecap:round;stroke-linejoin:round;stroke-opacity:1"
         d="m -126.0925,7.7395817 0.038,-5.3163858 0.99903,-1.49800889"
         id="path674352" />
      <path
         style="opacity:1;fill:none;fill-opacity:1;fill-rule:nonzero;stroke:#000000;stroke-width:0.25;stroke-linecap:round;stroke-linejoin:round;stroke-opacity:1"
         d="m -126.55907,5.719242 0.13984,-4.1423778 0.74384,-0.91254577"
         id="path674354" />
      <path
         style="opacity:1;fill:none;fill-opacity:1;fill-rule:nonzero;stroke:#000000;stroke-width:0.25;stroke-linecap:round;stroke-linejoin:round;stroke-opacity:1"
         d="m -126.93999,-0.44674026 0.39684,1.28161731 0.89253,-0.97570315 0.21795,0.52442559"
         id="path674356" />
      <path
         style="opacity:1;fill:none;fill-opacity:1;fill-rule:nonzero;stroke:#000000;stroke-width:0.25;stroke-linecap:round;stroke-linejoin:round;stroke-opacity:1"
         d="m -126.44914,-0.2060414 0.43121,-0.48782683 -1.45591,-3.25132077"
         id="path674358" />
      <path
         style="opacity:1;fill:none;fill-opacity:1;fill-rule:nonzero;stroke:#000000;stroke-width:0.25;stroke-linecap:round;stroke-linejoin:round;stroke-opacity:1"
         d="m -126.72092,-3.1172975 0.69925,1.6068612 0.31967,-1.7771961"
         id="path674360" />
      <path
         style="opacity:1;fill:none;fill-opacity:1;fill-rule:nonzero;stroke:#000000;stroke-width:0.25;stroke-linecap:round;stroke-linejoin:round;stroke-opacity:1"
         d="m -126.18066,-2.8750637 0.24929,-3.601499 -0.31801,-1.6798228"
         id="path674362" />
      <path
         style="opacity:1;fill:none;fill-opacity:1;fill-rule:nonzero;stroke:#000000;stroke-width:0.25;stroke-linecap:round;stroke-linejoin:round;stroke-opacity:1"
         d="m -126.41234,-6.5493559 -0.1867,1.9345904 0.18753,0.7814569 -0.22796,0.2248577"
         id="path674364" />
      <path
         style="opacity:1;fill:none;fill-opacity:1;fill-rule:nonzero;stroke:#000000;stroke-width:0.25;stroke-linecap:round;stroke-linejoin:round;stroke-opacity:1"
         d="m -126.45882,18.701143 -0.0895,-1.574256"
         id="path674366" />
    </g>
  </g>
</svg>
