<?xml version="1.0" encoding="UTF-8" standalone="no"?>
<!-- Created with Inkscape (http://www.inkscape.org/) -->

<svg
   width="4.8099251mm"
   height="42.310593mm"
   viewBox="0 0 4.8099251 42.310593"
   version="1.1"
   id="svg5"
   inkscape:version="1.2.2 (b0a8486541, 2022-12-01)"
   sodipodi:docname="scratch_small.svg"
   xmlns:inkscape="http://www.inkscape.org/namespaces/inkscape"
   xmlns:sodipodi="http://sodipodi.sourceforge.net/DTD/sodipodi-0.dtd"
   xmlns="http://www.w3.org/2000/svg"
   xmlns:svg="http://www.w3.org/2000/svg">
  <sodipodi:namedview
     id="namedview7"
     pagecolor="#4d4d4d"
     bordercolor="#666666"
     borderopacity="1.0"
     inkscape:pageshadow="2"
     inkscape:pageopacity="0"
     inkscape:pagecheckerboard="false"
     inkscape:document-units="mm"
     showgrid="false"
     inkscape:zoom="0.56569164"
     inkscape:cx="-83.084134"
     inkscape:cy="68.942154"
     inkscape:window-width="956"
     inkscape:window-height="1037"
     inkscape:window-x="960"
     inkscape:window-y="0"
     inkscape:window-maximized="1"
     inkscape:current-layer="layer1"
     inkscape:showpageshadow="2"
     inkscape:deskcolor="#4d4d4d" />
  <defs
     id="defs2" />
  <g
     inkscape:label="Layer 1"
     inkscape:groupmode="layer"
     id="layer1"
     transform="translate(42.914196,-130.31532)">
    <g
       id="g676971"
       transform="translate(93.133843,135.76914)">
      <g
         id="g671779">
        <path
           style="opacity:1;fill:#c27070;fill-opacity:1;fill-rule:nonzero;stroke:#000000;stroke-width:0.25;stroke-linecap:round;stroke-linejoin:round;stroke-opacity:1"
           d="m -133.71181,36.731811 -1.24358,-5.460911 0.57067,0.582199 -0.46269,-2.785332 -0.76224,-3.878543 0.92317,0.804769 0.30739,-3.41535 -1.54396,-5.429159 1.27879,1.15045 -0.9453,-5.432948 0.83931,0.372998 -0.80475,-4.4098595 0.7576,1.0758838 0.33717,-1.8745869 -1.14525,-6.3565605 0.90045,1.2384258 0.2996,-1.274022 -0.29031,-3.3527285 0.77127,-3.6154318 0.3179,3.6319547 0.45625,2.7083406 -0.043,1.4770461 0.64998,-0.7563297 -0.67247,4.9837518 0.32973,1.5194811 0.70818,-0.8979391 -1.03587,7.6883531 1.34062,6.649359 -1.00831,-0.795489 0.17433,3.736109 0.54287,1.186724 0.80117,-0.563588 -1.70353,3.168634 0.26163,2.526457 0.80069,-0.432312 -0.85558,2.870357 z"
           id="path665622"
           sodipodi:nodetypes="ccccccccccccccccccccccccccccccccccccc" />
        <path
           style="opacity:1;fill:#c270a7;fill-opacity:1;fill-rule:nonzero;stroke:none;stroke-width:0.25;stroke-linecap:round;stroke-linejoin:round;stroke-opacity:1"
           d="m -133.69299,33.448525 -0.2282,-1.063117 0.0661,-0.876861 -0.77057,-4.787633 0.77699,-0.766744 -0.15103,-5.34376 -0.92061,-1.590287 1.24428,-0.287027 -0.63292,-4.490318 0.30252,-0.301305 -0.33413,-3.020503 0.477,-1.1223492 -0.71799,-5.5718556 0.70883,-1.343865 -0.0507,-2.96465358 0.53865,3.40345918 -0.42209,2.521367 0.56972,3.6421155 -0.0817,1.7945707 -0.37428,3.82946 0.53566,4.369182 -0.46907,0.411481 0.59,6.413583 -0.82868,1.113359 0.51841,4.108059 z"
           id="path670485" />
        <path
           style="opacity:1;fill:none;fill-opacity:1;fill-rule:nonzero;stroke:#000000;stroke-width:0.25;stroke-linecap:round;stroke-linejoin:round;stroke-opacity:1"
           d="m -133.72809,33.957573 -0.44651,-1.617866 0.6136,-0.371319 -1.26352,-5.480971"
           id="path671729" />
        <path
           style="opacity:1;fill:none;fill-opacity:1;fill-rule:nonzero;stroke:#000000;stroke-width:0.25;stroke-linecap:round;stroke-linejoin:round;stroke-opacity:1"
           d="m -133.53007,32.653701 0.9293,-1.35151 -0.62166,0.116337 -0.52113,-3.980405 1.1003,-1.18323"
           id="path671731" />
        <path
           style="opacity:1;fill:none;fill-opacity:1;fill-rule:nonzero;stroke:#000000;stroke-width:0.25;stroke-linecap:round;stroke-linejoin:round;stroke-opacity:1"
           d="m -134.1078,26.212653 0.68176,-1.518992 -0.49889,-3.145943 -1.17124,-2.839344"
           id="path671733" />
        <path
           style="opacity:1;fill:none;fill-opacity:1;fill-rule:nonzero;stroke:#000000;stroke-width:0.25;stroke-linecap:round;stroke-linejoin:round;stroke-opacity:1"
           d="m -133.6118,20.850354 0.029,-1.531947 0.79576,0.774374 -1.39784,-4.080022 0.41186,-0.900111 -0.98874,-4.729525"
           id="path671735" />
        <path
           style="opacity:1;fill:none;fill-opacity:1;fill-rule:nonzero;stroke:#000000;stroke-width:0.25;stroke-linecap:round;stroke-linejoin:round;stroke-opacity:1"
           d="m -134.12547,18.435818 -0.72902,-3.603743 0.3845,-0.306206 -0.53738,-0.75887"
           id="path671737" />
        <path
           style="opacity:1;fill:none;fill-opacity:1;fill-rule:nonzero;stroke:#000000;stroke-width:0.25;stroke-linecap:round;stroke-linejoin:round;stroke-opacity:1"
           d="m -133.44101,12.966814 c 0.0222,-0.155569 0.74425,-3.9996148 0.74425,-3.9996148 l -1.08641,2.1925868 0.10244,-2.2142993"
           id="path671739" />
        <path
           style="opacity:1;fill:none;fill-opacity:1;fill-rule:nonzero;stroke:#000000;stroke-width:0.25;stroke-linecap:round;stroke-linejoin:round;stroke-opacity:1"
           d="m -133.17232,8.6624479 -1.2412,-2.6990529 0.14034,-1.8772778 -0.64724,-0.7899418"
           id="path671741" />
        <path
           style="opacity:1;fill:none;fill-opacity:1;fill-rule:nonzero;stroke:#000000;stroke-width:0.25;stroke-linecap:round;stroke-linejoin:round;stroke-opacity:1"
           d="m -133.84429,6.0356156 c 0.0536,-0.1594252 0.60157,-2.7656911 0.60157,-2.7656911"
           id="path671743" />
        <path
           style="opacity:1;fill:none;fill-opacity:1;fill-rule:nonzero;stroke:#000000;stroke-width:0.25;stroke-linecap:round;stroke-linejoin:round;stroke-opacity:1"
           d="m -134.39222,2.9518887 0.88479,-1.99485406 -0.73931,-2.78605924 0.18659,-1.164783"
           id="path671745" />
        <path
           style="opacity:1;fill:none;fill-opacity:1;fill-rule:nonzero;stroke:#000000;stroke-width:0.25;stroke-linecap:round;stroke-linejoin:round;stroke-opacity:1"
           d="m -133.98167,0.90556763 -0.27687,-0.80992582 -0.0419,-0.83046067"
           id="path671747" />
        <path
           style="opacity:1;fill:none;fill-opacity:1;fill-rule:nonzero;stroke:#000000;stroke-width:0.25;stroke-linecap:round;stroke-linejoin:round;stroke-opacity:1"
           d="m -133.86637,3.851699 -0.12195,-0.5455478 0.39611,-0.6483273"
           id="path671749" />
        <path
           style="opacity:1;fill:none;fill-opacity:1;fill-rule:nonzero;stroke:#000000;stroke-width:0.25;stroke-linecap:round;stroke-linejoin:round;stroke-opacity:1"
           d="m -133.86706,12.231585 0.33517,1.935698"
           id="path671751" />
        <path
           style="opacity:1;fill:none;fill-opacity:1;fill-rule:nonzero;stroke:#000000;stroke-width:0.25;stroke-linecap:round;stroke-linejoin:round;stroke-opacity:1"
           d="m -133.70958,16.218582 0.70825,1.64208"
           id="path671753" />
        <path
           style="opacity:1;fill:none;fill-opacity:1;fill-rule:nonzero;stroke:#000000;stroke-width:0.25;stroke-linecap:round;stroke-linejoin:round;stroke-opacity:1"
           d="m -134.60329,18.739091 0.55811,0.862075 0.0677,-0.521658"
           id="path671755" />
        <path
           style="opacity:1;fill:none;fill-opacity:1;fill-rule:nonzero;stroke:#000000;stroke-width:0.25;stroke-linecap:round;stroke-linejoin:round;stroke-opacity:1"
           d="m -133.6668,26.491219 0.83052,-1.157396"
           id="path671757" />
        <path
           style="opacity:1;fill:none;fill-opacity:1;fill-rule:nonzero;stroke:#000000;stroke-width:0.25;stroke-linecap:round;stroke-linejoin:round;stroke-opacity:1"
           d="m -134.17999,25.052632 0.24153,-0.43678 -0.17044,-1.131426"
           id="path671759"
           sodipodi:nodetypes="ccc" />
      </g>
    </g>
  </g>
</svg>
