<?xml version="1.0" encoding="UTF-8" standalone="no"?>
<!-- Created with Inkscape (http://www.inkscape.org/) -->

<svg
   sodipodi:docname="exit_hover.svg"
   inkscape:version="1.2.2 (b0a8486541, 2022-12-01)"
   id="svg5"
   version="1.1"
   viewBox="0 0 128.42563 89.053812"
   height="89.053802mm"
   width="128.42563mm"
   xmlns:inkscape="http://www.inkscape.org/namespaces/inkscape"
   xmlns:sodipodi="http://sodipodi.sourceforge.net/DTD/sodipodi-0.dtd"
   xmlns="http://www.w3.org/2000/svg"
   xmlns:svg="http://www.w3.org/2000/svg">
  <sodipodi:namedview
     id="namedview7"
     pagecolor="#4d4d4d"
     bordercolor="#666666"
     borderopacity="1.0"
     inkscape:pageshadow="2"
     inkscape:pageopacity="0"
     inkscape:pagecheckerboard="false"
     inkscape:document-units="mm"
     showgrid="false"
     inkscape:zoom="0.5"
     inkscape:cx="183"
     inkscape:cy="-134"
     inkscape:window-width="1916"
     inkscape:window-height="1037"
     inkscape:window-x="0"
     inkscape:window-y="0"
     inkscape:window-maximized="1"
     inkscape:current-layer="g3289"
     inkscape:showpageshadow="2"
     inkscape:deskcolor="#4d4d4d"
     showguides="true" />
  <defs
     id="defs2" />
  <g
     inkscape:label="Layer 1"
     inkscape:groupmode="layer"
     id="layer1"
     transform="translate(22.364019,-101.64808)">
    <g
       id="g6162"
       transform="matrix(2.68947,0,0,2.71307,65.8385,-42.9467)"
       style="stroke-width:0.3702">
      <g
         id="g7440">
        <g
           id="g3289"
           transform="translate(0.152752,55.7311)">
          <path
             style="fill:none;stroke:#000000;stroke-width:0.1851;stroke-linecap:round;stroke-linejoin:bevel;stroke-dasharray:none"
             d="m -29.98875,2.4598173 -2.404141,2.3832302 m -0.121829,1.1632884 2.151855,-2.1331384 m -0.09175,1.1334749 -1.934733,1.9179056 m 0.20705,0.83727 1.861368,-1.8451788 m 0.212887,0.8314832 -1.842527,1.8265014 m 0.237621,0.8069645 1.838768,-1.8227753 m 0.252083,0.7926287 -1.789619,1.7740533 m 0.349191,0.696365 1.765706,-1.7503483 m 0.365756,0.6799435 -1.759773,1.7444658 m 0.367665,0.678052 1.763414,-1.748076 m 0.347289,0.698251 -1.776823,1.761368 m 0.260035,0.784745 1.801604,-1.785934 m 0.147233,0.896567 -1.81227,1.796507 m 0.02298,1.019735 1.82302,-1.807166 m -0.09961,1.141257 -1.816083,1.800288 m -0.214587,1.255239 1.790679,-1.775104 m -0.40684,1.44582 -1.758848,1.74355 m -0.747469,1.783487 1.386427,-1.374368 m -1.05301,2.086369 -1.8952,1.878716 m -0.294473,1.334431 2.073704,-2.055668 m 0.240111,0.804496 -2.230308,2.210909 M -10.005541,4.5433097 -9.7019511,4.24236 m -20.3982869,20.220868 -2.321009,2.300821 M -10.009791,5.5900409 -9.6075207,5.1912691 M -29.534455,24.944884 -31.925606,27.315237 M -9.8991697,6.5229003 -9.4903852,6.1176714 m -19.3800408,19.2114766 -2.45295,2.431616 M -9.7927276,7.4599027 -9.4830733,7.1529417 M -28.101925,25.609851 -30.626276,28.112245 M -9.8031568,8.5127598 -9.4832678,8.1956531 m -17.7539042,17.5994849 -2.602945,2.580306 m 0.885385,0.164835 2.694222,-2.670789 m 1.109054,-0.05689 -2.815683,2.791193 m 1.110772,-0.05859 3.402529,-3.372935 m 1.319455,-0.26546 -3.108889,3.081849 m 1.507207,-0.451579 2.320774,-2.300588 m 0.567194,0.480257 -2.087933,2.069773 m 0.556761,0.4906 3.104463,-3.07746 m 0.638674,0.409399 -2.874596,2.849593 m 1.499078,-0.443521 1.865487,-1.849261 M 2.9817188,6.2642702 2.2581062,6.981589 m -21.8087622,21.619075 2.122601,-2.104139 M 2.9607831,7.3275424 2.4255282,7.8581418 M -18.96267,29.060311 l 2.316276,-2.296129 m 0.841841,0.207999 -2.421558,2.400496 m 0.798189,0.251272 2.522031,-2.500095 m 0.949963,0.100819 -2.622213,2.599405 M 4.7513389,9.7226352 4.9439282,9.5317209 M -12.96219,27.282097 -15.675373,29.971681 M 4.6347893,10.88069 5.3340239,10.187537 M -11.927969,27.29939 -14.724438,30.071535 M 3.582545,12.9663 5.459618,11.105554 m -16.307874,16.166032 -2.883758,2.858676 M 3.3878946,14.201776 5.3675591,12.23933 M -9.7052945,27.181084 -12.706846,30.156529 M 3.4331753,15.199408 4.4572426,14.184248 m -12.9519332,12.83928 -3.1434884,3.116148 M 3.7992822,15.879004 4.0293206,15.650967 m -11.2418944,11.144115 -3.3013972,3.272683 m 1.184134,-0.131317 3.4763612,-3.446124 m 1.4504594,-0.395325 -3.6710142,3.639084 m 1.3254844,-0.271437 4.1135458,-4.077767 m 0.2121036,0.83226 -2.927025,2.901566 m 1.4727764,-0.417448 2.1682891,-2.14943 m 0.9420971,0.108616 -1.5618515,1.548267 m 0.2136233,0.830753 2.57044144,-2.548084 m 1.45982256,-0.404607 -3.3035259,3.274793 m 0.95211765,0.09868 4.36377355,-4.325818 m 0.4047373,0.641301 -3.552858,3.521956 m 1.442221,-0.387158 2.5871518,-2.564649 m 0.5126383,0.534339 -0.8849562,0.877259 m 0.5640588,0.483366 0.9886749,-0.980076 m 7.5555332,-6.447299 -0.377714,0.374429 m -7.7506967,7.683284 1.4649053,-1.452165 m 7.0467924,-5.942982 -0.651012,0.645351 m -7.3679714,7.303886 2.0651857,-2.047224 m 6.2394367,-5.142649 -0.935956,0.927817 M 6.4691194,29.912687 9.3067753,27.09971 m 5.1437537,-4.056496 -1.410253,1.397988 M 7.2329752,30.19799 10.917169,26.545842 m 3.703357,-2.628626 -6.4347323,6.378765 m 1.1510358,-0.09851 5.3736465,-5.326908 m -0.03744,1.079631 -3.94362,3.909321 m 1.65116,-0.59428 2.007211,-1.989753"
             id="path3559" />
          <path
             id="path2871"
             style="fill:#a770c2;fill-opacity:1;stroke:#000000;stroke-width:0.1851;stroke-linecap:round;stroke-linejoin:round;stroke-opacity:1"
             d="m -14.526507,-2.342987 c 0.47523,0.4945534 0.928965,2.41472369 0.07209,2.62222251 -0.317326,0.076843 -0.106152,-0.81833186 -0.42796,-0.87391781 -1.974414,-0.3410405 -2.305182,3.9774442 -4.300349,4.1654751 -1.245891,0.1174168 -2.940303,-1.8507362 -3.13172,-2.0529293 -0.497813,1.9607044 -0.06656,-1.26534895 -1.100524,-1.3422209 0.377399,0.74976946 0.216775,1.6887034 -0.367045,2.101685 -0.876634,0.6201106 -2.353682,0.1634002 -3.189659,-0.5096233 -0.860655,-0.6928909 -1.41756,-0.92964419 -1.191631,-3.0784013 -1.971022,1.88597764 -2.100439,4.2220122 -2.100439,4.2220122 -0.277718,1.7112768 0.310111,3.7024337 0.70816,5.5121342 0.435211,1.9786536 2.210036,3.6373466 1.826884,5.7992316 -0.195696,2.21507 -0.822733,4.448041 -2.276005,6.176619 -1.001094,1.413334 -1.13349,3.732801 0.640103,4.618471 1.601649,0.922134 3.722908,1.122697 5.426834,0.398407 1.260374,-1.362623 2.573945,0.13783 3.741987,0.269977 1.518423,-1.47684 2.416279,1.547146 4.226708,1.217439 4.122915,0.777648 8.4697431,0.269894 12.3851034,-1.166596 1.3602821,-1.42698 0.9060239,1.408961 2.5287111,0.882375 1.78631378,0.06917 3.4574378,-0.75058 4.8976532,-1.55837 0.8726222,1.408974 2.3027345,2.814099 4.173075,2.281035 C 9.8010513,26.894114 12.29366,26.606496 12.957582,24.583045 13.792596,21.774681 12.910602,17.919434 9.9249315,16.782737 8.0877379,16.364646 6.157384,16.574299 4.3099925,16.225981 2.1245698,14.916576 4.0806477,12.177779 4.6574224,10.479159 5.175948,8.8411054 5.6954899,6.6161705 4.0858338,5.3967153 3.9873034,4.9095771 5.0714563,8.2565548 3.3621201,7.5051926 2.952618,5.8217723 2.1143743,4.3299223 0.37806839,3.7940262 -0.46313757,3.9938695 -1.0004744,2.7619219 -1.7765428,2.8657403 -2.0994181,2.9089329 -2.2173896,3.5331874 -2.5376122,3.4736724 -2.9822821,3.3910283 -2.2171599,1.1336803 -3.2141968,2.3073149 -4.1682667,3.430372 -5.6719896,1.2814028 -6.9780237,1.2024753 -7.3225669,1.1816535 -7.0439218,3.0090566 -7.9993176,1.3722162 -8.4184379,0.53929274 -6.8510371,-1.6916907 -8.1536024,0.01913428 -10.062953,2.0478125 -9.3113826,4.9783856 -9.4752712,7.4799769 -8.911572,9.2266637 -10.68039,10.590749 -11.665874,8.7012695 -13.102878,7.1421308 -12.562075,5.0595097 -12.420728,3.204488 c -0.571283,-1.9310386 -0.360291,-4.15617809 -2.105771,-5.5474721 z"
             sodipodi:nodetypes="aaaaacaacsaaaaaacaaacaaaaaaaaasaaaaaaaa" />
          <path
             style="fill:#c270a7;fill-opacity:1;stroke:none;stroke-width:0.1851;stroke-linecap:round;stroke-linejoin:round"
             d="m -22.553051,23.992643 c -0.93064,0.06431 -1.672187,0.926914 -2.599502,1.027939 -0.832075,0.09065 -1.708821,-0.07293 -2.478921,-0.39819 -0.862991,-0.364492 -2.055741,-0.766981 -2.24897,-1.676935 -0.242651,-1.142697 1.371595,-1.94282 1.728125,-3.055792 0.891244,-2.782175 1.242812,-5.808735 0.917233,-8.709923 -0.141896,-1.264416 -0.873634,-2.394384 -1.231565,-3.616119 -0.35299,-1.204873 -1.397077,-2.501917 -0.901421,-3.656362 0.292979,-0.682386 1.194237,-1.168265 1.940623,-1.117685 0.659474,0.04469 0.924302,1.041318 1.563128,1.209662 0.555886,0.146487 1.133527,-0.274231 1.707915,-0.244103 1.152959,0.06048 2.202678,0.871424 3.356963,0.845884 1.464534,-0.03241 2.857707,-0.694437 4.206699,-1.260563 0.732049,-0.307216 1.298198,-1.265339 2.08439,-1.148707 0.49977,0.07414 0.858638,0.619649 1.051319,1.082744 0.469622,1.128705 -0.252487,2.481211 0.05942,3.662354 0.264296,1.000846 0.636815,2.133878 1.489993,2.729723 0.815128,0.569271 2.1917334,1.085195 2.9565144,0.450975 0.797507,-0.661358 -0.09611,-2.074964 0.07748,-3.091223 0.221101,-1.294373 0.134697,-2.989718 1.2144,-3.749899 0.6642001,-0.46764 1.6685213,-0.189102 2.4432748,0.06062 1.0238217,0.330003 1.5884237,1.703448 2.658831,1.817602 0.6480849,0.06912 1.158081,-0.768054 1.8090963,-0.735868 0.8047628,0.03979 1.6572665,0.481728 2.1339408,1.12572 0.3474973,0.469472 0.2657567,1.137774 0.3229133,1.717305 0.032386,0.328369 -0.1900059,0.726489 0.010615,0.989748 0.3980035,0.522269 1.501209,0.03477 1.8995682,0.556767 0.2581168,0.338231 0.097128,0.855946 0.015378,1.272243 -0.1591052,0.810217 -0.7346293,1.490874 -0.9647193,2.28416 -0.2619474,0.903122 -0.7972843,1.902319 -0.4627343,2.781564 0.3691247,0.970112 1.4697623,1.554718 2.428,1.970285 1.4850691,0.644042 3.3733064,-0.06536 4.8161246,0.667004 1.0986862,0.557683 2.1824622,1.487679 2.5594922,2.652807 0.393069,1.214696 0.06776,2.667914 -0.547551,3.788298 -0.392381,0.71446 -1.109536,1.266766 -1.8573026,1.601849 -1.0912779,0.489014 -2.4294882,0.861505 -3.5610136,0.472632 -0.77239,-0.265448 -0.9430351,-1.458338 -1.7077075,-1.744903 -1.0568199,-0.396049 -2.2509857,0.201721 -3.3792366,0.260686 -0.8643335,0.04517 -1.9423979,0.634162 -2.5956068,0.07124 -0.3090813,-0.26636 0.2350321,-1.04098 -0.1371785,-1.210341 -0.8309504,-0.378094 -1.4022412,1.23565 -2.2664927,1.531422 -3.6816127,1.259953 -7.8050817,1.331146 -11.6586277,0.77045 -1.183751,-0.172237 -2.167253,-1.178356 -3.361688,-1.246893 -0.462486,-0.02654 -0.905887,0.464169 -1.349148,0.330694 -0.307182,-0.0925 -0.372442,-0.543354 -0.648413,-0.705963 -0.44065,-0.259643 -0.982263,-0.398247 -1.493638,-0.362908 z"
             id="path2789"
             sodipodi:nodetypes="aaaaaaaaaaaaaaaaaaaaaaaaaaaaaaaaaaaaaaaaaaaaaa" />
          <path
             style="fill:#c27070;fill-opacity:1;stroke:none;stroke-width:0.1851;stroke-linecap:round;stroke-linejoin:round"
             d="M 10.205011,24.360384 C 9.3349917,25.156461 7.9515402,25.486927 6.782356,25.301868 5.9198587,25.165351 5.4368354,24.114404 4.6012049,23.862472 c -1.7313878,-0.521991 -3.8467313,0.853656 -5.429046,-0.01692 -0.2426535,-0.133506 -0.183496,-0.600579 -0.4426456,-0.699014 -0.8384233,-0.318465 -1.7110213,0.551648 -2.5898792,0.733816 -1.8043448,0.374002 -3.6406117,0.62159 -5.4806367,0.731585 -2.7256544,0.162937 -5.4764344,0.183483 -8.1910814,-0.108736 -1.407433,-0.151503 -2.753538,-0.688111 -4.159962,-0.848564 -2.062709,-0.235327 -4.965443,1.472982 -6.226833,-0.16192 -0.617516,-0.80037 0.579579,-1.939338 0.721073,-2.937155 0.5464,-3.853227 1.391155,-7.879416 0.47779,-11.663719 -0.264979,-1.097874 -1.600768,-1.828316 -1.668561,-2.955174 -0.02172,-0.361055 0.118124,-0.796101 0.417306,-1.00314 1.042236,-0.721244 2.539207,-0.14735 3.810276,-0.148223 1.844898,-0.0013 3.710714,0.50687 5.530735,0.207543 1.351521,-0.222276 2.603595,-2.052132 3.836802,-1.460592 0.919611,0.441115 0.624529,1.928715 0.913906,2.899967 0.401409,1.347272 0.09452,3.112069 1.140434,4.059959 0.536227,0.485972 1.41709,0.39411 2.143631,0.39113 0.9751594,-0.004 2.3061844,0.238281 2.8726914,-0.548554 0.5689145,-0.790179 -0.517651,-1.918438 -0.412147,-2.883581 0.128523,-1.175721 0.17245,-2.816007 1.2494853,-3.324575 1.0316848,-0.487154 2.2662525,0.50681 3.2486848,1.08543 0.3811255,0.22447 0.5350525,0.848024 0.9757365,0.895866 0.6863498,0.07451 1.1024826,-1.115403 1.7882925,-1.036156 0.8336013,0.09632 1.5290223,0.942115 1.8231672,1.721288 0.2692748,0.713293 -0.7167899,1.697754 -0.2153936,2.274812 0.4579425,0.527047 1.630057,-0.399835 2.1019081,0.115015 0.3390542,0.369952 0.071929,1.016237 -0.061486,1.498253 -0.210671,0.761138 -0.8783567,1.336372 -1.1344717,2.083691 -0.2510885,0.732652 -0.6125897,1.555145 -0.3732609,2.291655 0.3426584,1.054496 1.3972002,1.802395 2.3658431,2.354958 1.4445643,0.824053 3.3185095,0.575986 4.8359378,1.259345 0.9308014,0.419177 2.1032515,0.789428 2.5383535,1.706521 0.352193,0.742342 -0.05391,1.649783 -0.237047,2.449786 -0.121496,0.53073 -0.162382,1.164182 -0.565796,1.533311 z"
             id="path768"
             sodipodi:nodetypes="aaaaaaaaaaaaaaaaaaaaaaaaaaaaaaaaaaaaaa" />
          <g
             id="g684"
             style="stroke-width:0.3702"
             transform="translate(2.7290384,-29.467795)">
            <path
               style="fill:#9d847b;fill-opacity:1;stroke:#000000;stroke-width:0.1851;stroke-linecap:round;stroke-linejoin:round;stroke-dasharray:none;stroke-opacity:1"
               d="m 3.0656189,51.805656 -2.15004605,-0.812311 -0.03577,-0.928968 0.96716305,-1.878933 2.537289,0.774788 0.1836,0.747252 -0.814733,1.874989 z"
               id="path3336" />
            <path
               style="fill:none;stroke:#000000;stroke-width:0.1851;stroke-linecap:round;stroke-linejoin:round"
               d="m 3.6898787,49.891965 -0.8511139,1.171472 -1.2590707,-0.633384 0.2170621,-1.108634 0.733478,-0.352224 0.4418911,0.697616 -0.31566,0.569821"
               id="path680" />
          </g>
          <g
             id="g602"
             style="stroke-width:0.3702"
             transform="translate(2.7290384,-29.467795)">
            <path
               style="fill:#9d847b;fill-opacity:1;stroke:#000000;stroke-width:0.1851;stroke-linecap:round;stroke-linejoin:round;stroke-dasharray:none;stroke-opacity:1"
               d="m -2.3714651,47.595644 1.44743995,-1.232947 1.255033,1.51558 -2.58614395,2.748809 -2.101384,0.191328 -1.675048,-2.585373 -0.140138,-6.889588 -1.530964,-0.798837 -0.01218,-1.268792 2.101937,-0.96318 1.328944,-2.504324 1.116377,-0.0089 0.188347,3.465593 2.29587395,-0.02731 0.05611,1.288715 -2.36593895,0.796954 0.102072,6.512274 z"
               id="path3332" />
            <path
               style="fill:none;stroke:#000000;stroke-width:0.1851;stroke-linecap:round;stroke-linejoin:round"
               d="m -1.3217309,47.926921 -1.7342566,1.693019 -1.1286113,-0.323311 -0.6485261,-8.792481 -1.01712,-0.773956 1.4297816,-0.528858"
               id="path589"
               sodipodi:nodetypes="cccccc" />
            <path
               style="fill:none;stroke:#000000;stroke-width:0.1851;stroke-linecap:round;stroke-linejoin:round"
               d="m -1.6849672,40.055176 c 0,0 -2.0226414,0.382102 -2.0226414,0.292194 0,-0.08991 -0.1657287,-3.449913 -0.1657287,-3.449913"
               id="path597" />
          </g>
          <g
             id="g520"
             style="stroke-width:0.3702"
             transform="translate(2.7290384,-29.467795)">
            <path
               style="fill:#a5938d;fill-opacity:1;stroke:#000000;stroke-width:0.1851;stroke-linecap:round;stroke-linejoin:round;stroke-dasharray:none;stroke-opacity:1"
               d="m -29.92879,52.314761 1.535378,-2.060486 0.06197,-13.127155 -1.676611,-2.003426 8.586644,-0.111711 3.542482,-0.851087 1.018381,5.441658 -0.919108,0.08688 -2.756028,-3.279125 -4.154389,-0.0254 -0.667661,0.677202 -0.0065,4.681246 0.589253,0.819517 3.288348,-0.01475 1.890296,-1.592097 0.07191,4.367905 -1.978058,-1.462543 -3.078841,-0.05462 -0.980207,0.723332 0.20797,5.88412 0.660719,0.719911 4.937531,-0.05045 2.652629,-4.284679 1.039029,0.167812 -0.848867,6.312089 -1.974447,-0.997052 z"
               id="path3323" />
            <path
               style="fill:none;stroke:#000000;stroke-width:0.1851;stroke-linecap:round;stroke-linejoin:round"
               d="m -16.920213,48.265549 -2.450074,3.487215 -6.298578,0.12621 -2.596617,-0.19283 1.521397,-0.629076 -0.188655,-14.182457 c 0,0 -1.211177,-0.957005 -0.9946,-0.930169 0.216575,0.02684 8.805136,-0.479997 8.805136,-0.479997 l 1.310527,2.761418"
               id="path466" />
            <path
               style="fill:none;stroke:#000000;stroke-width:0.1851;stroke-linecap:round;stroke-linejoin:round"
               d="m -20.345628,42.742504 0.07202,1.12739 -0.953277,-0.798702 -4.288901,0.15107"
               id="path468" />
          </g>
          <g
             id="g587"
             style="stroke-width:0.3702"
             transform="translate(2.7290384,-29.467795)">
            <path
               id="path3327"
               style="fill:#a5938d;fill-opacity:1;stroke:#000000;stroke-width:0.1851;stroke-linecap:round;stroke-linejoin:round;stroke-dasharray:none;stroke-opacity:1"
               d="m -8.9433421,34.601391 -1.1110719,1.879112 0.2046139,1.012906 1.911319,0.793888 0.913744,-0.169587 0.844496,-1.587775 0.02294,-0.878687 -1.886327,-0.930188 z m 2.469459,5.140498 -4.2792479,1.764134 1.5900729,1.046206 -0.06978,7.567414 -1.4328359,1.547716 6.0031269,0.01775 -1.560394,-1.612743 z" />
            <path
               style="fill:none;stroke:#000000;stroke-width:0.1851;stroke-linecap:round;stroke-linejoin:round"
               d="m -8.9969162,51.03923 2.438734,-0.117536 -1.2552409,-0.469426 -0.110105,-9.111814 -1.0311172,0.386838"
               id="path580" />
            <path
               style="fill:none;stroke:#000000;stroke-width:0.1851;stroke-linecap:round;stroke-linejoin:round"
               d="m -7.3880801,35.970739 -1.2348009,-0.269412 -0.271029,1.127131 1.2641863,0.642196 0.5003863,-0.636175 -0.5042535,-0.19266"
               id="path582" />
          </g>
          <g
             id="g578"
             style="stroke-width:0.3702"
             transform="translate(2.7290384,-29.467795)">
            <path
               style="fill:#9d847b;fill-opacity:1;stroke:#000000;stroke-width:0.1851;stroke-linecap:round;stroke-linejoin:round;stroke-dasharray:none;stroke-opacity:1"
               d="m -20.253788,53.206919 5.363652,-0.08273 -0.765343,-1.382712 1.464049,-2.573258 1.530624,2.262041 -0.664553,1.812855 5.0995879,-0.216047 -4.9209589,-5.726752 4.9991129,-5.099795 -5.1975259,-0.12362 0.748375,1.714294 -1.595534,2.199325 -1.548492,-2.233966 0.901205,-1.701837 -5.461846,0.0086 5.004792,5.916238 z"
               id="path3325" />
            <path
               style="fill:none;stroke:#000000;stroke-width:0.1851;stroke-linecap:round;stroke-linejoin:round"
               d="m -18.838841,42.660073 2.532287,0.07137 -1.49345,0.556457 3.574275,4.410495 -4.040147,4.821257 1.754395,0.01253"
               id="path522" />
            <path
               style="fill:none;stroke:#000000;stroke-width:0.1851;stroke-linecap:round;stroke-linejoin:round"
               d="m -9.7593575,52.557874 c -0.1118267,-0.01929 -2.3970215,0.05835 -2.2826175,-0.01991 0.114403,-0.07826 1.29758,-0.942245 1.29758,-0.942245 l -3.431215,-4.591535 4.2363633,-4.073235 -1.9746573,-0.0707"
               id="path524" />
          </g>
          <g
             id="g678"
             style="stroke-width:0.3702"
             transform="translate(2.7290384,-29.467795)">
            <path
               style="fill:#a5938d;fill-opacity:1;stroke:#000000;stroke-width:0.1851;stroke-linecap:round;stroke-linejoin:round;stroke-dasharray:none;stroke-opacity:1"
               d="m -0.27192515,52.464085 -2.15004695,-0.812312 -0.03576,-0.928968 0.967164,-1.87893 2.537287,0.774788 0.183602,0.747252 -0.81473605,1.874988 z"
               id="path3334" />
            <path
               style="fill:none;stroke:#000000;stroke-width:0.1851;stroke-linecap:round;stroke-linejoin:round"
               d="m -0.98128571,49.749521 1.490063,0.663003 -0.52422025,1.294246 -1.30301494,-0.44078 0.67760556,-0.390478"
               id="path674" />
          </g>
          <g
             id="g690"
             style="stroke-width:0.3702"
             transform="translate(2.7290384,-29.467795)">
            <path
               style="fill:#a5938d;fill-opacity:1;stroke:#000000;stroke-width:0.1851;stroke-linecap:round;stroke-linejoin:round;stroke-dasharray:none;stroke-opacity:1"
               d="m 5.7724619,53.01515 -2.150047,-0.812311 -0.03576,-0.928969 0.967164,-1.878928 2.537287,0.774788 0.183602,0.747251 -0.814735,1.874988 z"
               id="path6095" />
            <path
               style="fill:none;stroke:#000000;stroke-width:0.1851;stroke-linecap:round;stroke-linejoin:round"
               d="m 6.715338,50.94806 -0.5516794,1.405288 -1.2462265,-0.05098 -0.6887084,-0.540389 0.295592,-1.177772 0.3698187,-0.295774 0.936964,0.214389"
               id="path686" />
          </g>
          <path
             style="fill:#c270a7;fill-opacity:1;stroke:none;stroke-width:0.1851;stroke-linecap:round;stroke-linejoin:round"
             d="m -18.758582,20.539982 c -0.710631,0.122742 -1.596301,0.06331 -2.120529,-0.42787 -0.945922,-0.886293 -1.33146,-2.497622 -0.993077,-3.743521 0.164862,-0.60701 0.711451,-1.271436 1.342185,-1.336514 1.152586,-0.118921 1.872051,1.373451 2.907471,1.889262 0.390355,0.194462 1.065041,0.04612 1.230658,0.446868 0.345735,0.836587 -0.559849,1.779943 -1.170416,2.451512 -0.312348,0.343554 -0.736665,0.640875 -1.196292,0.720263 z"
             id="path2093"
             sodipodi:nodetypes="aaaaaaaa" />
          <path
             style="fill:#c270a7;fill-opacity:1;stroke:none;stroke-width:0.1851;stroke-linecap:round;stroke-linejoin:round"
             d="m -18.73514,11.488926 c -0.449306,0.105515 -0.786148,0.57422 -1.247301,0.597328 -0.314059,0.01574 -0.680886,-0.08396 -0.886501,-0.319813 -0.622541,-0.714098 -0.850359,-1.86873 -0.577512,-2.772956 0.142535,-0.472369 0.570513,-0.933061 1.054559,-1.04644 0.985145,-0.230753 2.063403,0.360421 2.880895,0.952223 0.706969,0.511793 2.015985,1.36751 1.549611,2.10191 -0.247837,0.39027 -0.930852,-0.399326 -1.372064,-0.253129 -0.315695,0.104606 -0.370898,0.594724 -0.674536,0.729928 -0.221127,0.09846 -0.491268,-0.04445 -0.727151,0.01095 z"
             id="path2787"
             sodipodi:nodetypes="aaaaaaaaaa" />
          <path
             style="fill:none;fill-opacity:1;stroke:#000000;stroke-width:0.1851;stroke-linecap:round;stroke-linejoin:bevel;stroke-dasharray:none;stroke-opacity:1"
             d="m -22.328603,23.795534 c 0,0 -1.88738,0.836349 -2.888543,0.817713 -1.235319,-0.023 -2.907442,-0.07916 -3.523404,-1.140892 -0.332703,-0.573478 0.03568,-1.399558 0.419805,-1.940535 0.290875,-0.409652 1.026731,-0.363735 1.288178,-0.792439 1.488235,-2.440313 0.610021,-5.680981 0.621843,-8.532554 0.0044,-1.073003 0.15656,-2.201916 -0.207361,-3.2124659 -0.414629,-1.1513582 -2.054612,-1.7625169 -2.15533,-2.9809572 -0.06489,-0.7849853 1.135071,-1.3353861 1.054672,-2.1189596 -0.0577,-0.5623975 -0.866676,-0.8034514 -1.050371,-1.3386185 -0.247252,-0.7203314 0.01183,-2.28263665 0.01183,-2.28263665"
             id="path3707"
             sodipodi:nodetypes="caaaaaaaaac" />
          <path
             style="fill:none;fill-opacity:1;stroke:#000000;stroke-width:0.1851;stroke-linecap:round;stroke-linejoin:bevel;stroke-dasharray:none;stroke-opacity:1"
             d="m -13.717965,4.4274762 c 0,0 -0.331216,3.9292107 0.691891,5.4560626 0.614143,0.9165262 1.779143,1.5483422 2.884415,1.6493002 1.0910339,0.09966 2.5190436,-0.163647 3.0994292,-1.084872 C -6.824923,10.103044 -6.9145952,9.5433372 -7.18325,9.2360083 -7.3418277,9.0546026 -7.7297135,9.2361448 -7.8857244,9.052565 -8.8935366,7.8666606 -8.378248,5.9665835 -8.2932512,4.4182417 -8.2709774,4.0124917 -7.9643506,3.6189362 -8.0541464,3.2224555 -8.1403193,2.8419715 -8.6894163,2.6665385 -8.7564336,2.2822838 -8.8026197,2.0174681 -8.5199864,1.510874 -8.5199864,1.510874"
             id="path3711"
             sodipodi:nodetypes="caaaaaaaac" />
          <path
             style="fill:none;fill-opacity:1;stroke:#000000;stroke-width:0.1851;stroke-linecap:round;stroke-linejoin:bevel;stroke-dasharray:none;stroke-opacity:1"
             d="m -18.01539,9.2621636 c 0,0 -1.465406,-0.5345743 -2.071007,-0.1994211 -0.423921,0.2346073 -0.7784,0.8349978 -0.640886,1.2965755 0.108388,0.363814 0.603439,0.624128 0.984172,0.585941 0.407586,-0.04088 0.905484,-0.823756 0.905484,-0.823756"
             id="path3713"
             sodipodi:nodetypes="caaac" />
          <path
             style="fill:none;fill-opacity:1;stroke:#000000;stroke-width:0.1851;stroke-linecap:round;stroke-linejoin:bevel;stroke-dasharray:none;stroke-opacity:1"
             d="m -20.7768,16.956132 c 0,0 1.02695,-0.904598 1.63051,-0.820402 0.911711,0.127182 1.985884,0.952984 2.02231,1.864955 0.03618,0.905939 -0.961012,1.81231 -1.854881,2.004278 -0.541032,0.116192 -1.329866,-0.131534 -1.528518,-0.643752 -0.134904,-0.347845 0.11067,-0.922985 0.47525,-1.013888 0.346851,-0.08648 0.858699,0.637741 0.858699,0.637741"
             id="path3715"
             sodipodi:nodetypes="caaaaac" />
          <path
             style="fill:none;fill-opacity:1;stroke:#000000;stroke-width:0.1851;stroke-linecap:round;stroke-linejoin:bevel;stroke-dasharray:none;stroke-opacity:1"
             d="m -6.4424793,2.0653976 c 0,0 0.7244779,0.5007287 0.760112,0.8870872 0.031741,0.3441529 -0.7013616,0.6028706 -0.5213021,0.8987953 0.4607542,0.7572417 1.8835457,-0.5058359 2.6744746,-0.096813 0.5815807,0.3007598 0.4203909,1.5259833 1.0662634,1.6395975 0.5281976,0.092914 0.7477102,-0.9594844 1.2841554,-0.9615861 0.9343654,-0.00366 1.72827959,0.8888709 2.2499914,1.6572856 0.4558181,0.6713617 0.097276,1.7232356 0.6131162,2.3504638 C 2.0642204,8.9021472 2.703233,9.2559099 3.3037472,9.2273671 3.7661528,9.2053887 4.222229,8.882555 4.4865043,8.5057704 4.6856809,8.2217989 4.6903776,7.4880419 4.6903776,7.4880419"
             id="path3717"
             sodipodi:nodetypes="caaaaaaaaac" />
          <path
             style="fill:none;fill-opacity:1;stroke:#000000;stroke-width:0.1851;stroke-linecap:round;stroke-linejoin:bevel;stroke-dasharray:none;stroke-opacity:1"
             d="m 2.7137783,13.192824 c 0,0 -0.3929586,-0.74529 -0.7359345,-0.717645 -0.4777926,0.03851 -0.7475983,0.686306 -0.8488168,1.150792 -0.1651517,0.757871 -0.00311,1.666871 0.4796031,2.276951 0.6617256,0.836329 1.889814,1.024401 2.9014535,1.376615 1.8712373,0.651493 4.381796,-0.04044 5.7943924,1.33958 1.222169,1.193984 1.772783,3.33457 1.242202,4.952217 -0.447585,1.364606 -1.9517467,2.316928 -3.3259456,2.767817 -0.5917515,0.19416 -1.480516,0.375559 -1.8667082,-0.109458 -0.387176,-0.486253 -0.2588179,-1.614294 0.3270088,-1.829937 0.4325427,-0.159219 1.0725036,0.867461 1.0725036,0.867461"
             id="path3719"
             sodipodi:nodetypes="caaaaaaaaac" />
          <path
             style="fill:none;fill-opacity:1;stroke:#000000;stroke-width:0.1851;stroke-linecap:round;stroke-linejoin:bevel;stroke-dasharray:none;stroke-opacity:1"
             d="m -20.227954,24.093111 c 0,0 1.825133,0.170346 2.71564,0.374052 1.513779,0.346281 2.881127,1.322196 4.430613,1.433663 1.777059,0.127838 3.4908581,-0.767266 5.2675708,-0.899744 0.6772665,-0.0505 1.3693773,0.16444 2.0371117,0.04136 1.202387,-0.22163 2.1872921,-1.561139 3.3960366,-1.376595 1.055738,0.161184 1.40206152,1.914755 2.46375234,2.031349 0.78605712,0.08632 1.93699166,-0.30716 2.11196426,-1.071719 0.075271,-0.328904 -0.2954855,-0.699878 -0.6189067,-0.80455 -0.4692046,-0.151853 -1.41967975,0.417148 -1.41967975,0.417148"
             id="path3721"
             sodipodi:nodetypes="caaaaaaaac" />
          <path
             style="fill:none;fill-opacity:1;stroke:#000000;stroke-width:0.1851;stroke-linecap:round;stroke-linejoin:bevel;stroke-dasharray:none;stroke-opacity:1"
             d="m 5.3248234,23.154663 c 0,0 -1.2105244,-0.0978 -1.6811869,0.211884 -0.2044116,0.134499 -0.4659135,0.407788 -0.3690907,0.631256 0.3022778,0.697661 1.6570352,1.026583 2.2351527,0.528497 0.1627981,-0.140261 0.1063062,-0.503591 -0.060953,-0.638596 -0.2849116,-0.229969 -1.0956116,0.119654 -1.0956116,0.119654"
             id="path3723"
             sodipodi:nodetypes="caaaac" />
          <path
             style="fill:none;fill-opacity:1;stroke:#000000;stroke-width:0.1851;stroke-linecap:round;stroke-linejoin:bevel;stroke-dasharray:none;stroke-opacity:1"
             d="m -26.050478,3.313683 c 0,0 -0.736346,0.7474773 -0.551071,1.1200608 0.352358,0.7085853 1.552469,0.5759596 2.34264,0.4732739 0.651828,-0.084707 1.594638,-0.2417604 1.765677,-0.8710046 0.10579,-0.3891967 -0.562584,-0.6212906 -0.671203,-1.0097208 -0.06683,-0.2390009 0.03138,-0.7433903 0.03138,-0.7433903"
             id="path3988"
             sodipodi:nodetypes="caaaac" />
          <path
             style="fill:none;fill-opacity:1;stroke:#000000;stroke-width:0.1851;stroke-linecap:round;stroke-linejoin:bevel;stroke-dasharray:none;stroke-opacity:1"
             d="m -21.62079,3.2012092 c 0,0 1.342483,1.2387125 2.197733,1.3725179 0.924076,0.1445734 2.055692,-0.032867 2.719906,-0.6859276 0.554966,-0.5456469 0.199849,-1.5804811 0.596748,-2.2480007 0.228486,-0.3842754 0.530087,-0.86320755 0.975762,-0.92471724 0.421556,-0.0581809 0.732368,0.74485864 1.128875,0.59149074 0.351774,-0.1360652 0.378329,-1.05848071 0.378329,-1.05848071"
             id="path3990"
             sodipodi:nodetypes="caaaaac" />
          <path
             style="fill:none;fill-opacity:1;stroke:#000000;stroke-width:0.1851;stroke-linecap:round;stroke-linejoin:bevel;stroke-dasharray:none;stroke-opacity:1"
             d="m -14.807558,3.6218845 c 0,0 -0.468574,-0.5632945 -0.364287,-0.8548351 0.124107,-0.3469495 0.639552,-0.6588594 0.983182,-0.5193116 0.398871,0.1619813 0.386609,1.2232521 0.386609,1.2232521"
             id="path3992"
             sodipodi:nodetypes="caac" />
        </g>
      </g>
    </g>
  </g>
</svg>
