<?xml version="1.0" encoding="UTF-8" standalone="no"?>
<!-- Created with Inkscape (http://www.inkscape.org/) -->

<svg
   sodipodi:docname="exit.svg"
   inkscape:version="1.2.2 (b0a8486541, 2022-12-01)"
   id="svg5"
   version="1.1"
   viewBox="0 0 128.42781 80.07573"
   height="80.075722mm"
   width="128.42781mm"
   xmlns:inkscape="http://www.inkscape.org/namespaces/inkscape"
   xmlns:sodipodi="http://sodipodi.sourceforge.net/DTD/sodipodi-0.dtd"
   xmlns="http://www.w3.org/2000/svg"
   xmlns:svg="http://www.w3.org/2000/svg">
  <sodipodi:namedview
     id="namedview7"
     pagecolor="#4d4d4d"
     bordercolor="#666666"
     borderopacity="1.0"
     inkscape:pageshadow="2"
     inkscape:pageopacity="0"
     inkscape:pagecheckerboard="false"
     inkscape:document-units="mm"
     showgrid="false"
     inkscape:zoom="0.40000439"
     inkscape:cx="288.74683"
     inkscape:cy="167.49816"
     inkscape:window-width="1916"
     inkscape:window-height="1037"
     inkscape:window-x="0"
     inkscape:window-y="0"
     inkscape:window-maximized="1"
     inkscape:current-layer="g3289"
     inkscape:showpageshadow="2"
     inkscape:deskcolor="#4d4d4d"
     showguides="true" />
  <defs
     id="defs2" />
  <g
     inkscape:label="Layer 1"
     inkscape:groupmode="layer"
     id="layer1"
     transform="translate(22.365096,-110.62507)">
    <g
       id="g6162"
       transform="matrix(2.68947,0,0,2.71307,65.8385,-42.9467)"
       style="stroke-width:0.3702">
      <g
         id="g7440">
        <g
           id="g3289"
           transform="translate(0.152752,55.7311)">
          <path
             style="fill:#a770c2;fill-opacity:1;stroke:#000000;stroke-width:0.1851;stroke-linecap:round;stroke-linejoin:round;stroke-opacity:1"
             d="m -22.654889,24.841075 c -0.743864,0.09011 -1.325132,0.765993 -2.065734,0.879475 -1.35348,0.207394 -2.842454,0.160966 -4.088571,-0.402309 -0.752469,-0.340134 -1.491934,-0.92926 -1.803945,-1.688489 -0.270899,-0.65919 -0.108852,-1.448817 0.08695,-2.133632 0.358246,-1.252961 1.508124,-2.172905 1.930903,-3.405943 0.617891,-1.802084 1.071525,-3.764231 0.822509,-5.651491 -0.21852,-1.656136 -1.548521,-2.995087 -1.984226,-4.608518 -0.364243,-1.348805 -0.979403,-2.844282 -0.50473,-4.158907 0.335312,-0.928657 1.180787,-1.851478 2.15619,-2.046311 0.70125,-0.140072 1.404828,0.373763 2.003935,0.761245 0.276069,0.178552 0.394057,0.565123 0.695867,0.696515 0.656114,0.285636 1.436202,7.5e-5 2.148289,0.07965 1.10453,0.123431 2.171562,0.735971 3.276365,0.614963 2.263341,-0.247901 4.147952,-3.493812 6.272727,-2.682045 0.698251,0.266766 0.736697,1.30857 0.931492,2.0248 0.39263,1.443635 -0.243649,3.134156 0.44645,4.463661 0.482994,0.930508 1.383081,2.404741 2.3826284,2.068141 0.810817,-0.273045 0.390279,-1.655916 0.501961,-2.497541 0.202323,-1.524688 -0.8094824,-3.530901 0.301956,-4.603748 0.790258,-0.762819 2.2234844,-0.332303 3.3066373,-0.125697 0.9207862,0.175635 1.808584,0.591139 2.5702441,1.133294 0.2918767,0.20776 0.3835009,0.691749 0.7299217,0.786363 0.5896461,0.161043 1.1474007,-0.540826 1.7586148,-0.518844 1.1101317,0.03993 2.4777533,0.268624 3.1168383,1.169337 0.5569985,0.785022 -0.5840327,2.152891 0.049256,2.878857 0.4102531,0.470291 1.4168526,-0.142488 1.8570346,0.300413 0.607392,0.611145 0.4948428,1.695731 0.3799536,2.546061 -0.1274726,0.943464 -1.0058276,1.675306 -1.1566154,2.615385 -0.1335322,0.8325 -0.3202764,1.890661 0.2490673,2.516793 0.6580763,0.723715 1.9205105,0.418869 2.8890421,0.584767 1.2439163,0.213068 2.6326525,-0.05632 3.7495782,0.526783 0.990926,0.517322 1.861029,1.421542 2.270743,2.454784 0.717774,1.810131 0.955325,4.113949 0.04085,5.834725 -0.383451,0.721542 -1.275635,1.081143 -2.045159,1.369586 C 9.1621597,27.170444 7.470878,27.672746 5.9783951,27.219803 5.333299,27.024027 4.9165777,26.38539 4.4608631,25.892247 4.2262337,25.638347 4.1824419,25.130821 3.8423234,25.060924 3.2823261,24.94584 2.9069389,25.753348 2.3589373,25.915538 c -1.5307676,0.453054 -3.4997524,1.195182 -4.7856758,0.255521 -0.2342434,-0.171168 0.049468,-0.714806 -0.213066,-0.839257 -0.4212389,-0.199684 -0.8257288,0.445431 -1.2720024,0.581563 -2.6467847,0.807377 -5.4259997,1.382762 -8.1950881,1.351914 -2.042736,-0.02276 -4.217753,-0.180672 -6.021319,-1.131724 -0.40439,-0.213242 -0.517862,-0.87796 -0.966813,-0.967987 -0.524146,-0.105106 -0.951379,0.66285 -1.483097,0.606367 -0.45751,-0.0486 -0.708924,-0.607232 -1.135617,-0.777934 -0.294801,-0.117938 -0.625593,-0.191151 -0.941148,-0.152926 z"
             id="path2871"
             sodipodi:nodetypes="aaaaaaaaaaaaaaaaaaaaaaaaaaaaaaaaaaaaaaaaaaaaaaaa" />
          <path
             style="fill:#c270a7;fill-opacity:1;stroke:none;stroke-width:0.1851;stroke-linecap:round;stroke-linejoin:round"
             d="m -22.553051,23.992643 c -0.93064,0.06431 -1.672187,0.926914 -2.599502,1.027939 -0.832075,0.09065 -1.708821,-0.07293 -2.478921,-0.39819 -0.862991,-0.364492 -2.055741,-0.766981 -2.24897,-1.676935 -0.242651,-1.142697 1.371595,-1.94282 1.728125,-3.055792 0.891244,-2.782175 1.242812,-5.808735 0.917233,-8.709923 -0.141896,-1.264416 -0.873634,-2.394384 -1.231565,-3.616119 -0.35299,-1.204873 -1.397077,-2.501917 -0.901421,-3.656362 0.292979,-0.682386 1.194237,-1.168265 1.940623,-1.117685 0.659474,0.04469 0.924302,1.041318 1.563128,1.209662 0.555886,0.146487 1.133527,-0.274231 1.707915,-0.244103 1.152959,0.06048 2.202678,0.871424 3.356963,0.845884 1.464534,-0.03241 2.857707,-0.694437 4.206699,-1.260563 0.732049,-0.307216 1.298198,-1.265339 2.08439,-1.148707 0.49977,0.07414 0.858638,0.619649 1.051319,1.082744 0.469622,1.128705 -0.252487,2.481211 0.05942,3.662354 0.264296,1.000846 0.636815,2.133878 1.489993,2.729723 0.815128,0.569271 2.1917334,1.085195 2.9565144,0.450975 0.797507,-0.661358 -0.09611,-2.074964 0.07748,-3.091223 0.221101,-1.294373 0.134697,-2.989718 1.2144,-3.749899 0.6642001,-0.46764 1.6685213,-0.189102 2.4432748,0.06062 1.0238217,0.330003 1.5884237,1.703448 2.658831,1.817602 0.6480849,0.06912 1.158081,-0.768054 1.8090963,-0.735868 0.8047628,0.03979 1.6572665,0.481728 2.1339408,1.12572 0.3474973,0.469472 0.2657567,1.137774 0.3229133,1.717305 0.032386,0.328369 -0.1900059,0.726489 0.010615,0.989748 0.3980035,0.522269 1.501209,0.03477 1.8995682,0.556767 0.2581168,0.338231 0.097128,0.855946 0.015378,1.272243 -0.1591052,0.810217 -0.7346293,1.490874 -0.9647193,2.28416 -0.2619474,0.903122 -0.7972843,1.902319 -0.4627343,2.781564 0.3691247,0.970112 1.4697623,1.554718 2.428,1.970285 1.4850691,0.644042 3.3733064,-0.06536 4.8161246,0.667004 1.0986862,0.557683 2.1824622,1.487679 2.5594922,2.652807 0.393069,1.214696 0.06776,2.667914 -0.547551,3.788298 -0.392381,0.71446 -1.109536,1.266766 -1.8573026,1.601849 -1.0912779,0.489014 -2.4294882,0.861505 -3.5610136,0.472632 -0.77239,-0.265448 -0.9430351,-1.458338 -1.7077075,-1.744903 -1.0568199,-0.396049 -2.2509857,0.201721 -3.3792366,0.260686 -0.8643335,0.04517 -1.9423979,0.634162 -2.5956068,0.07124 -0.3090813,-0.26636 0.2350321,-1.04098 -0.1371785,-1.210341 -0.8309504,-0.378094 -1.4022412,1.23565 -2.2664927,1.531422 -3.6816127,1.259953 -7.8050817,1.331146 -11.6586277,0.77045 -1.183751,-0.172237 -2.167253,-1.178356 -3.361688,-1.246893 -0.462486,-0.02654 -0.905887,0.464169 -1.349148,0.330694 -0.307182,-0.0925 -0.372442,-0.543354 -0.648413,-0.705963 -0.44065,-0.259643 -0.982263,-0.398247 -1.493638,-0.362908 z"
             id="path2789"
             sodipodi:nodetypes="aaaaaaaaaaaaaaaaaaaaaaaaaaaaaaaaaaaaaaaaaaaaaa" />
          <path
             style="fill:#c27070;fill-opacity:1;stroke:none;stroke-width:0.1851;stroke-linecap:round;stroke-linejoin:round"
             d="M 10.205011,24.360384 C 9.3349917,25.156461 7.9515402,25.486927 6.782356,25.301868 5.9198587,25.165351 5.4368354,24.114404 4.6012049,23.862472 c -1.7313878,-0.521991 -3.8467313,0.853656 -5.429046,-0.01692 -0.2426535,-0.133506 -0.183496,-0.600579 -0.4426456,-0.699014 -0.8384233,-0.318465 -1.7110213,0.551648 -2.5898792,0.733816 -1.8043448,0.374002 -3.6406117,0.62159 -5.4806367,0.731585 -2.7256544,0.162937 -5.4764344,0.183483 -8.1910814,-0.108736 -1.407433,-0.151503 -2.753538,-0.688111 -4.159962,-0.848564 -2.062709,-0.235327 -4.965443,1.472982 -6.226833,-0.16192 -0.617516,-0.80037 0.579579,-1.939338 0.721073,-2.937155 0.5464,-3.853227 1.391155,-7.879416 0.47779,-11.663719 -0.264979,-1.097874 -1.600768,-1.828316 -1.668561,-2.955174 -0.02172,-0.361055 0.118124,-0.796101 0.417306,-1.00314 1.042236,-0.721244 2.539207,-0.14735 3.810276,-0.148223 1.844898,-0.0013 3.710714,0.50687 5.530735,0.207543 1.351521,-0.222276 2.603595,-2.052132 3.836802,-1.460592 0.919611,0.441115 0.624529,1.928715 0.913906,2.899967 0.401409,1.347272 0.09452,3.112069 1.140434,4.059959 0.536227,0.485972 1.41709,0.39411 2.143631,0.39113 0.9751594,-0.004 2.3061844,0.238281 2.8726914,-0.548554 0.5689145,-0.790179 -0.517651,-1.918438 -0.412147,-2.883581 0.128523,-1.175721 0.17245,-2.816007 1.2494853,-3.324575 1.0316848,-0.487154 2.2662525,0.50681 3.2486848,1.08543 0.3811255,0.22447 0.5350525,0.848024 0.9757365,0.895866 0.6863498,0.07451 1.1024826,-1.115403 1.7882925,-1.036156 0.8336013,0.09632 1.5290223,0.942115 1.8231672,1.721288 0.2692748,0.713293 -0.7167899,1.697754 -0.2153936,2.274812 0.4579425,0.527047 1.630057,-0.399835 2.1019081,0.115015 0.3390542,0.369952 0.071929,1.016237 -0.061486,1.498253 -0.210671,0.761138 -0.8783567,1.336372 -1.1344717,2.083691 -0.2510885,0.732652 -0.6125897,1.555145 -0.3732609,2.291655 0.3426584,1.054496 1.3972002,1.802395 2.3658431,2.354958 1.4445643,0.824053 3.3185095,0.575986 4.8359378,1.259345 0.9308014,0.419177 2.1032515,0.789428 2.5383535,1.706521 0.352193,0.742342 -0.05391,1.649783 -0.237047,2.449786 -0.121496,0.53073 -0.162382,1.164182 -0.565796,1.533311 z"
             id="path768"
             sodipodi:nodetypes="aaaaaaaaaaaaaaaaaaaaaaaaaaaaaaaaaaaaaa" />
          <g
             id="g684"
             style="stroke-width:0.3702"
             transform="translate(2.7290384,-29.467795)">
            <path
               style="fill:#9d847b;fill-opacity:1;stroke:#000000;stroke-width:0.1851;stroke-linecap:round;stroke-linejoin:round;stroke-dasharray:none;stroke-opacity:1"
               d="m 3.0656189,51.805656 -2.15004605,-0.812311 -0.03577,-0.928968 0.96716305,-1.878933 2.537289,0.774788 0.1836,0.747252 -0.814733,1.874989 z"
               id="path3336" />
            <path
               style="fill:none;stroke:#000000;stroke-width:0.1851;stroke-linecap:round;stroke-linejoin:round"
               d="m 3.6898787,49.891965 -0.8511139,1.171472 -1.2590707,-0.633384 0.2170621,-1.108634 0.733478,-0.352224 0.4418911,0.697616 -0.31566,0.569821"
               id="path680" />
          </g>
          <g
             id="g602"
             style="stroke-width:0.3702"
             transform="translate(2.7290384,-29.467795)">
            <path
               style="fill:#9d847b;fill-opacity:1;stroke:#000000;stroke-width:0.1851;stroke-linecap:round;stroke-linejoin:round;stroke-dasharray:none;stroke-opacity:1"
               d="m -2.3714651,47.595644 1.44743995,-1.232947 1.255033,1.51558 -2.58614395,2.748809 -2.101384,0.191328 -1.675048,-2.585373 -0.140138,-6.889588 -1.530964,-0.798837 -0.01218,-1.268792 2.101937,-0.96318 1.328944,-2.504324 1.116377,-0.0089 0.188347,3.465593 2.29587395,-0.02731 0.05611,1.288715 -2.36593895,0.796954 0.102072,6.512274 z"
               id="path3332" />
            <path
               style="fill:none;stroke:#000000;stroke-width:0.1851;stroke-linecap:round;stroke-linejoin:round"
               d="m -1.3217309,47.926921 -1.7342566,1.693019 -1.1286113,-0.323311 -0.6485261,-8.792481 -1.01712,-0.773956 1.4297816,-0.528858"
               id="path589"
               sodipodi:nodetypes="cccccc" />
            <path
               style="fill:none;stroke:#000000;stroke-width:0.1851;stroke-linecap:round;stroke-linejoin:round"
               d="m -1.6849672,40.055176 c 0,0 -2.0226414,0.382102 -2.0226414,0.292194 0,-0.08991 -0.1657287,-3.449913 -0.1657287,-3.449913"
               id="path597" />
          </g>
          <g
             id="g520"
             style="stroke-width:0.3702"
             transform="translate(2.7290384,-29.467795)">
            <path
               style="fill:#a5938d;fill-opacity:1;stroke:#000000;stroke-width:0.1851;stroke-linecap:round;stroke-linejoin:round;stroke-dasharray:none;stroke-opacity:1"
               d="m -29.92879,52.314761 1.535378,-2.060486 0.06197,-13.127155 -1.676611,-2.003426 8.586644,-0.111711 3.542482,-0.851087 1.018381,5.441658 -0.919108,0.08688 -2.756028,-3.279125 -4.154389,-0.0254 -0.667661,0.677202 -0.0065,4.681246 0.589253,0.819517 3.288348,-0.01475 1.890296,-1.592097 0.07191,4.367905 -1.978058,-1.462543 -3.078841,-0.05462 -0.980207,0.723332 0.20797,5.88412 0.660719,0.719911 4.937531,-0.05045 2.652629,-4.284679 1.039029,0.167812 -0.848867,6.312089 -1.974447,-0.997052 z"
               id="path3323" />
            <path
               style="fill:none;stroke:#000000;stroke-width:0.1851;stroke-linecap:round;stroke-linejoin:round"
               d="m -16.920213,48.265549 -2.450074,3.487215 -6.298578,0.12621 -2.596617,-0.19283 1.521397,-0.629076 -0.188655,-14.182457 c 0,0 -1.211177,-0.957005 -0.9946,-0.930169 0.216575,0.02684 8.805136,-0.479997 8.805136,-0.479997 l 1.310527,2.761418"
               id="path466" />
            <path
               style="fill:none;stroke:#000000;stroke-width:0.1851;stroke-linecap:round;stroke-linejoin:round"
               d="m -20.345628,42.742504 0.07202,1.12739 -0.953277,-0.798702 -4.288901,0.15107"
               id="path468" />
          </g>
          <g
             id="g587"
             style="stroke-width:0.3702"
             transform="translate(2.7290384,-29.467795)">
            <path
               id="path3327"
               style="fill:#a5938d;fill-opacity:1;stroke:#000000;stroke-width:0.1851;stroke-linecap:round;stroke-linejoin:round;stroke-dasharray:none;stroke-opacity:1"
               d="m -8.9433421,34.601391 -1.1110719,1.879112 0.2046139,1.012906 1.911319,0.793888 0.913744,-0.169587 0.844496,-1.587775 0.02294,-0.878687 -1.886327,-0.930188 z m 2.469459,5.140498 -4.2792479,1.764134 1.5900729,1.046206 -0.06978,7.567414 -1.4328359,1.547716 6.0031269,0.01775 -1.560394,-1.612743 z" />
            <path
               style="fill:none;stroke:#000000;stroke-width:0.1851;stroke-linecap:round;stroke-linejoin:round"
               d="m -8.9969162,51.03923 2.438734,-0.117536 -1.2552409,-0.469426 -0.110105,-9.111814 -1.0311172,0.386838"
               id="path580" />
            <path
               style="fill:none;stroke:#000000;stroke-width:0.1851;stroke-linecap:round;stroke-linejoin:round"
               d="m -7.3880801,35.970739 -1.2348009,-0.269412 -0.271029,1.127131 1.2641863,0.642196 0.5003863,-0.636175 -0.5042535,-0.19266"
               id="path582" />
          </g>
          <g
             id="g578"
             style="stroke-width:0.3702"
             transform="translate(2.7290384,-29.467795)">
            <path
               style="fill:#9d847b;fill-opacity:1;stroke:#000000;stroke-width:0.1851;stroke-linecap:round;stroke-linejoin:round;stroke-dasharray:none;stroke-opacity:1"
               d="m -20.253788,53.206919 5.363652,-0.08273 -0.765343,-1.382712 1.464049,-2.573258 1.530624,2.262041 -0.664553,1.812855 5.0995879,-0.216047 -4.9209589,-5.726752 4.9991129,-5.099795 -5.1975259,-0.12362 0.748375,1.714294 -1.595534,2.199325 -1.548492,-2.233966 0.901205,-1.701837 -5.461846,0.0086 5.004792,5.916238 z"
               id="path3325" />
            <path
               style="fill:none;stroke:#000000;stroke-width:0.1851;stroke-linecap:round;stroke-linejoin:round"
               d="m -18.838841,42.660073 2.532287,0.07137 -1.49345,0.556457 3.574275,4.410495 -4.040147,4.821257 1.754395,0.01253"
               id="path522" />
            <path
               style="fill:none;stroke:#000000;stroke-width:0.1851;stroke-linecap:round;stroke-linejoin:round"
               d="m -9.7593575,52.557874 c -0.1118267,-0.01929 -2.3970215,0.05835 -2.2826175,-0.01991 0.114403,-0.07826 1.29758,-0.942245 1.29758,-0.942245 l -3.431215,-4.591535 4.2363633,-4.073235 -1.9746573,-0.0707"
               id="path524" />
          </g>
          <g
             id="g678"
             style="stroke-width:0.3702"
             transform="translate(2.7290384,-29.467795)">
            <path
               style="fill:#a5938d;fill-opacity:1;stroke:#000000;stroke-width:0.1851;stroke-linecap:round;stroke-linejoin:round;stroke-dasharray:none;stroke-opacity:1"
               d="m -0.27192515,52.464085 -2.15004695,-0.812312 -0.03576,-0.928968 0.967164,-1.87893 2.537287,0.774788 0.183602,0.747252 -0.81473605,1.874988 z"
               id="path3334" />
            <path
               style="fill:none;stroke:#000000;stroke-width:0.1851;stroke-linecap:round;stroke-linejoin:round"
               d="m -0.98128571,49.749521 1.490063,0.663003 -0.52422025,1.294246 -1.30301494,-0.44078 0.67760556,-0.390478"
               id="path674" />
          </g>
          <g
             id="g690"
             style="stroke-width:0.3702"
             transform="translate(2.7290384,-29.467795)">
            <path
               style="fill:#a5938d;fill-opacity:1;stroke:#000000;stroke-width:0.1851;stroke-linecap:round;stroke-linejoin:round;stroke-dasharray:none;stroke-opacity:1"
               d="m 5.7724619,53.01515 -2.150047,-0.812311 -0.03576,-0.928969 0.967164,-1.878928 2.537287,0.774788 0.183602,0.747251 -0.814735,1.874988 z"
               id="path6095" />
            <path
               style="fill:none;stroke:#000000;stroke-width:0.1851;stroke-linecap:round;stroke-linejoin:round"
               d="m 6.715338,50.94806 -0.5516794,1.405288 -1.2462265,-0.05098 -0.6887084,-0.540389 0.295592,-1.177772 0.3698187,-0.295774 0.936964,0.214389"
               id="path686" />
          </g>
          <path
             style="fill:#c270a7;fill-opacity:1;stroke:none;stroke-width:0.1851;stroke-linecap:round;stroke-linejoin:round"
             d="m -18.758582,20.539982 c -0.710631,0.122742 -1.596301,0.06331 -2.120529,-0.42787 -0.945922,-0.886293 -1.33146,-2.497622 -0.993077,-3.743521 0.164862,-0.60701 0.711451,-1.271436 1.342185,-1.336514 1.152586,-0.118921 1.872051,1.373451 2.907471,1.889262 0.390355,0.194462 1.065041,0.04612 1.230658,0.446868 0.345735,0.836587 -0.559849,1.779943 -1.170416,2.451512 -0.312348,0.343554 -0.736665,0.640875 -1.196292,0.720263 z"
             id="path2093"
             sodipodi:nodetypes="aaaaaaaa" />
          <path
             style="fill:#c270a7;fill-opacity:1;stroke:none;stroke-width:0.1851;stroke-linecap:round;stroke-linejoin:round"
             d="m -18.73514,11.488926 c -0.449306,0.105515 -0.786148,0.57422 -1.247301,0.597328 -0.314059,0.01574 -0.680886,-0.08396 -0.886501,-0.319813 -0.622541,-0.714098 -0.850359,-1.86873 -0.577512,-2.772956 0.142535,-0.472369 0.570513,-0.933061 1.054559,-1.04644 0.985145,-0.230753 2.063403,0.360421 2.880895,0.952223 0.706969,0.511793 2.015985,1.36751 1.549611,2.10191 -0.247837,0.39027 -0.930852,-0.399326 -1.372064,-0.253129 -0.315695,0.104606 -0.370898,0.594724 -0.674536,0.729928 -0.221127,0.09846 -0.491268,-0.04445 -0.727151,0.01095 z"
             id="path2787"
             sodipodi:nodetypes="aaaaaaaaaa" />
          <g
             id="g3561">
            <path
               style="fill:none;stroke:#000000;stroke-width:0.5;stroke-linecap:round;stroke-linejoin:bevel;stroke-dasharray:none"
               d="m 2.31604,4.304334 -6.465873,6.465873 m -0.327656,3.156084 5.787356,-5.787356 m -0.246771,3.075198 -5.203414,5.203414 m 0.556855,2.271573 5.006101,-5.006101 m 0.572553,2.255873 -4.955428,4.955428 m 0.639075,2.189352 4.945319,-4.945319 m 0.67797,2.150458 -4.813132,4.813132 m 0.939139,1.889288 4.748819,-4.748819 m 0.983691,1.844735 -4.732861,4.732861 m 0.988824,1.839603 4.742656,-4.742656 M 7.093286,27.81136 2.314569,32.590077 M 3.013927,34.719146 7.859293,29.87378 M 8.255271,32.306229 3.38122,37.18028 m 0.061814,2.766613 4.902968,-4.902968 m -0.267885,3.096312 -4.884308,4.884308 m -0.577126,3.405554 4.815984,-4.815984 m -1.094185,3.922612 -4.730375,4.730375 m -2.010299,4.838726 3.728758,-3.728758 m -2.832041,5.660468 -5.09709,5.09709 m -0.791979,3.620406 5.577172,-5.577172 m 0.645774,2.182654 -5.998354,5.998354 M 56.060348,9.956997 56.876846,9.140499 M 2.016195,64.001149 -4.226097,70.243441 M 56.048918,12.796853 57.130814,11.714957 M 3.537853,65.307918 -2.893083,71.738854 M 56.346432,15.327767 57.445847,14.228352 M 5.323744,66.350454 -1.273401,72.947599 M 56.632705,17.869921 57.465512,17.037114 M 7.390606,67.11202 0.601432,73.901194 M 56.604656,20.726397 57.464989,19.866064 M 9.716336,67.614717 2.715784,74.615269 m 2.381219,0.447209 7.246038,-7.246038 m 2.982772,-0.154345 -7.572704,7.572704 m 2.987391,-0.158965 9.151013,-9.151013 m 3.548639,-0.720212 -8.361275,8.361275 m 4.053594,-1.225166 6.241659,-6.241659 m 1.525453,1.302973 -5.61544,5.61544 m 1.497394,1.331034 8.34937,-8.34937 m 1.717696,1.110731 -7.731148,7.731148 m 4.031731,-1.203304 5.017177,-5.017177 m 56.822876,-53.994449 -1.946137,1.946137 m -58.654087,58.654087 5.70868,-5.70868 m 54.835238,-52.006811 -1.439554,1.439554 m -57.522991,57.522992 6.229563,-6.229563 m 2.26411,0.564317 -6.512715,6.512715 m 2.146706,0.681721 6.782935,-6.782935 m 2.5549,0.273527 -7.052371,7.052371 m 57.365069,-54.536642 0.517964,-0.517964 m -48.15803,48.15803 -7.297033,7.297033 M 95.435128,27.150759 97.315701,25.270186 M 50.890029,71.695858 43.369001,79.216886 M 92.605145,32.809169 97.653483,27.760831 M 53.79389,71.620424 46.038098,79.376216 m 46.04354,-43.215113 5.324255,-5.324255 M 56.867854,71.374887 48.795261,79.44748 m 43.408158,-40.579731 2.754202,-2.754202 m -34.83388,34.83388 -8.454329,8.454329 M 93.188054,40.711541 93.806736,40.092859 M 63.57196,70.327636 54.692939,79.206657 m 3.184698,-0.356271 9.349581,-9.349581 M 71.12819,68.42826 61.255095,78.301355 M 64.81995,77.564927 75.883222,66.501655 m 0.570447,2.25798 -7.872156,7.872156 m 3.960993,-1.132566 5.831556,-5.831556 m 2.533745,0.294682 -4.200558,4.200558 m 0.574534,2.253893 6.913134,-6.913134 m 3.926154,-1.097727 -8.884745,8.884745 m 2.560695,0.267732 11.736253,-11.736253 m 1.08853,1.739897 -9.555317,9.555317 m 3.878815,-1.050388 6.958076,-6.958076 m 1.378727,1.449701 -2.380066,2.380066 m 1.517021,1.311406 2.659015,-2.659015 m 20.320405,-17.491982 -1.01585,1.015853 m -20.845294,20.845295 3.939824,-3.939826 m 18.95216,-16.123733 -1.75088,1.750883 M 98.862478,77.463525 104.41674,71.90926 m 16.7808,-13.952372 -2.51723,2.517236 m -18.3118,18.3118 7.6318,-7.631806 m 13.83399,-11.005561 -3.79284,3.79284 m -15.61858,15.618575 9.90854,-9.908537 m 9.96008,-7.131649 -17.30604,17.306042 m 3.09568,-0.267261 14.45228,-14.452281 m -0.10069,2.929117 -10.60626,10.606266 m 4.44075,-1.612324 5.39834,-5.398342"
               transform="matrix(0.37182,0,0,0.368586,-30.8499,0.8733)"
               id="path3559" />
            <path
               style="fill:none;fill-opacity:1;stroke:#000000;stroke-width:0.1851;stroke-linecap:round;stroke-linejoin:bevel;stroke-dasharray:none;stroke-opacity:1"
               d="m -22.328603,23.795534 c 0,0 -1.88738,0.836349 -2.888543,0.817713 -1.235319,-0.023 -2.907442,-0.07916 -3.523404,-1.140892 -0.332703,-0.573478 0.03568,-1.399558 0.419805,-1.940535 0.290875,-0.409652 1.026731,-0.363735 1.288178,-0.792439 1.488235,-2.440313 0.610021,-5.680981 0.621843,-8.532554 0.0044,-1.073003 0.15656,-2.201916 -0.207361,-3.2124659 -0.414629,-1.1513582 -2.054612,-1.7625169 -2.15533,-2.9809572 -0.06489,-0.7849853 1.054672,-2.1189596 1.054672,-2.1189596"
               id="path3707"
               sodipodi:nodetypes="caaaaaaac" />
            <path
               style="fill:none;fill-opacity:1;stroke:#000000;stroke-width:0.1851;stroke-linecap:round;stroke-linejoin:bevel;stroke-dasharray:none;stroke-opacity:1"
               d="m -24.331166,3.8620582 c 0,0 -1.656195,0.0058 -1.577701,0.55329 0.173081,1.2072169 2.454314,0.2400288 3.68401,0.2108496 2.24969,-0.053382 4.618878,0.1105563 6.713442,-0.7049713 0.540673,-0.2105134 1.297414,-0.4680715 1.394661,-1.0357743 0.05143,-0.3002302 -0.211573,-0.7039541 -0.51382,-0.7584181 -0.268481,-0.048379 -0.666389,0.4713631 -0.666389,0.4713631"
               id="path3709"
               sodipodi:nodetypes="caaaaac" />
            <path
               style="fill:none;fill-opacity:1;stroke:#000000;stroke-width:0.1851;stroke-linecap:round;stroke-linejoin:bevel;stroke-dasharray:none;stroke-opacity:1"
               d="m -13.717965,4.4274762 c 0,0 -0.331216,3.9292107 0.691891,5.4560626 0.614143,0.9165262 1.779143,1.5483422 2.884415,1.6493002 1.0910339,0.09966 2.5190436,-0.163647 3.0994292,-1.084872 C -6.824923,10.103044 -6.9145952,9.5433372 -7.18325,9.2360083 -7.3418277,9.0546026 -7.7297135,9.2361448 -7.8857244,9.052565 -8.8935366,7.8666606 -8.8947078,5.8496667 -8.2932512,4.4182417 c 0.270746,-0.6443567 0.9333146,-1.4802902 1.6231313,-1.3402025 0.3720847,0.075563 0.5182301,1.0059409 0.5182301,1.0059409"
               id="path3711"
               sodipodi:nodetypes="caaaaaaac" />
            <path
               style="fill:none;fill-opacity:1;stroke:#000000;stroke-width:0.1851;stroke-linecap:round;stroke-linejoin:bevel;stroke-dasharray:none;stroke-opacity:1"
               d="m -18.01539,9.2621636 c 0,0 -1.465406,-0.5345743 -2.071007,-0.1994211 -0.423921,0.2346073 -0.7784,0.8349978 -0.640886,1.2965755 0.108388,0.363814 0.603439,0.624128 0.984172,0.585941 0.407586,-0.04088 0.905484,-0.823756 0.905484,-0.823756"
               id="path3713"
               sodipodi:nodetypes="caaac" />
          </g>
          <path
             style="fill:none;fill-opacity:1;stroke:#000000;stroke-width:0.1851;stroke-linecap:round;stroke-linejoin:bevel;stroke-dasharray:none;stroke-opacity:1"
             d="m -20.7768,16.956132 c 0,0 1.02695,-0.904598 1.63051,-0.820402 0.911711,0.127182 1.985884,0.952984 2.02231,1.864955 0.03618,0.905939 -0.961012,1.81231 -1.854881,2.004278 -0.541032,0.116192 -1.329866,-0.131534 -1.528518,-0.643752 -0.134904,-0.347845 0.11067,-0.922985 0.47525,-1.013888 0.346851,-0.08648 0.858699,0.637741 0.858699,0.637741"
             id="path3715"
             sodipodi:nodetypes="caaaaac" />
          <path
             style="fill:none;fill-opacity:1;stroke:#000000;stroke-width:0.1851;stroke-linecap:round;stroke-linejoin:bevel;stroke-dasharray:none;stroke-opacity:1"
             d="m -3.8742471,4.499544 c 0,0 0.527523,0.9919987 1.0172991,1.1337131 0.6558884,0.1897782 1.2926031,-0.6224595 1.97229575,-0.5533656 0.73125677,0.074336 1.52704201,0.4180161 1.95586765,1.0098722 0.5258333,0.725744 -0.18343908,1.9827156 0.4178068,2.6484337 0.4181414,0.4629791 1.814725,0.4891697 1.814725,0.4891697"
             id="path3717"
             sodipodi:nodetypes="caaaac" />
          <path
             style="fill:none;fill-opacity:1;stroke:#000000;stroke-width:0.1851;stroke-linecap:round;stroke-linejoin:bevel;stroke-dasharray:none;stroke-opacity:1"
             d="m 2.7137783,13.192824 c 0,0 -0.3929586,-0.74529 -0.7359345,-0.717645 -0.4777926,0.03851 -0.7475983,0.686306 -0.8488168,1.150792 -0.1651517,0.757871 -0.00311,1.666871 0.4796031,2.276951 0.6617256,0.836329 1.889814,1.024401 2.9014535,1.376615 1.8712373,0.651493 4.381796,-0.04044 5.7943924,1.33958 1.222169,1.193984 1.772783,3.33457 1.242202,4.952217 -0.447585,1.364606 -1.9517467,2.316928 -3.3259456,2.767817 -0.5917515,0.19416 -1.480516,0.375559 -1.8667082,-0.109458 -0.387176,-0.486253 -0.2588179,-1.614294 0.3270088,-1.829937 0.4325427,-0.159219 1.0725036,0.867461 1.0725036,0.867461"
             id="path3719"
             sodipodi:nodetypes="caaaaaaaaac" />
          <path
             style="fill:none;fill-opacity:1;stroke:#000000;stroke-width:0.1851;stroke-linecap:round;stroke-linejoin:bevel;stroke-dasharray:none;stroke-opacity:1"
             d="m -20.227954,24.093111 c 0,0 1.825133,0.170346 2.71564,0.374052 1.513779,0.346281 2.881127,1.322196 4.430613,1.433663 1.777059,0.127838 3.4908581,-0.767266 5.2675708,-0.899744 0.6772665,-0.0505 1.3693773,0.16444 2.0371117,0.04136 1.202387,-0.22163 2.1872921,-1.561139 3.3960366,-1.376595 1.055738,0.161184 1.40206152,1.914755 2.46375234,2.031349 0.78605712,0.08632 1.93699166,-0.30716 2.11196426,-1.071719 0.075271,-0.328904 -0.2954855,-0.699878 -0.6189067,-0.80455 -0.4692046,-0.151853 -1.41967975,0.417148 -1.41967975,0.417148"
             id="path3721"
             sodipodi:nodetypes="caaaaaaaac" />
          <path
             style="fill:none;fill-opacity:1;stroke:#000000;stroke-width:0.1851;stroke-linecap:round;stroke-linejoin:bevel;stroke-dasharray:none;stroke-opacity:1"
             d="m 5.3248234,23.154663 c 0,0 -1.2105244,-0.0978 -1.6811869,0.211884 -0.2044116,0.134499 -0.4659135,0.407788 -0.3690907,0.631256 0.3022778,0.697661 1.6570352,1.026583 2.2351527,0.528497 0.1627981,-0.140261 0.1063062,-0.503591 -0.060953,-0.638596 -0.2849116,-0.229969 -1.0956116,0.119654 -1.0956116,0.119654"
             id="path3723"
             sodipodi:nodetypes="caaaac" />
        </g>
      </g>
    </g>
  </g>
</svg>
