<?xml version="1.0" encoding="UTF-8" standalone="no"?>
<!-- Created with Inkscape (http://www.inkscape.org/) -->

<svg
   width="263.3204mm"
   height="124.79329mm"
   viewBox="0 0 263.3204 124.7933"
   version="1.1"
   id="svg5"
   inkscape:version="1.2.2 (b0a8486541, 2022-12-01)"
   sodipodi:docname="play_again_hover.svg"
   xmlns:inkscape="http://www.inkscape.org/namespaces/inkscape"
   xmlns:sodipodi="http://sodipodi.sourceforge.net/DTD/sodipodi-0.dtd"
   xmlns="http://www.w3.org/2000/svg"
   xmlns:svg="http://www.w3.org/2000/svg">
  <sodipodi:namedview
     id="namedview7"
     pagecolor="#4d4d4d"
     bordercolor="#666666"
     borderopacity="1.0"
     inkscape:pageshadow="2"
     inkscape:pageopacity="0"
     inkscape:pagecheckerboard="false"
     inkscape:document-units="mm"
     showgrid="false"
     inkscape:zoom="0.4000044"
     inkscape:cx="831.24086"
     inkscape:cy="232.49744"
     inkscape:window-width="1916"
     inkscape:window-height="1037"
     inkscape:window-x="0"
     inkscape:window-y="0"
     inkscape:window-maximized="1"
     inkscape:current-layer="g7440"
     inkscape:showpageshadow="2"
     inkscape:deskcolor="#4d4d4d"
     showguides="true" />
  <defs
     id="defs2" />
  <g
     inkscape:label="Layer 1"
     inkscape:groupmode="layer"
     id="layer1"
     transform="translate(86.004929,-83.12451)">
    <g
       id="g6162"
       transform="matrix(2.68947,0,0,2.71307,65.8385,-42.9467)"
       style="stroke-width:0.3702">
      <g
         id="g7440">
        <path
           style="fill:none;stroke:#000000;stroke-width:0.1851;stroke-linecap:round;stroke-linejoin:round;stroke-dasharray:none"
           d="m -51.891305,56.362564 -2.514741,2.492873 m -0.756104,1.792046 3.683301,-3.651268 m -0.625353,1.662434 -3.390016,3.360531 m -0.149331,1.190551 3.265253,-3.236856 m -0.109144,1.150715 -3.195563,3.167768 m 0.05773,0.985293 3.129717,-3.102495 m 0.120239,0.923322 -3.021755,2.995477 m 0.340617,0.704861 2.970195,-2.944357 m 0.372563,0.673193 -2.948075,2.922434 m 0.413345,0.63277 2.944602,-2.918991 m 0.410512,0.635578 -2.946086,2.920462 m 0.373132,0.672629 2.9629,-2.937129 m 0.318371,0.726921 -2.985157,2.959189 m 0.137953,0.905764 3.011351,-2.985156 m -0.287521,1.327536 -3.067935,3.041255 m -1.722831,2.750363 3.139577,-3.112271 m -0.511282,1.549355 -3.120845,3.093701 m -0.440663,1.47935 3.140284,-3.112971 m -0.237322,1.277773 -3.184958,3.15726 m -0.0516,1.093669 3.239895,-3.211715 m 0.208896,0.835441 -3.297639,3.268956 m 0.325927,0.719428 3.347484,-3.318372 m 0.508211,0.538729 -3.394586,3.365061 m 0.577098,0.470441 3.435572,-3.405691 m 0.709005,0.339678 -3.473557,3.443345 m 0.748101,0.300925 3.512115,-3.481567 m 0.835156,0.214627 -3.538343,3.507568 m 0.854692,0.195262 3.554305,-3.523391 m 0.883162,0.167039 -3.558708,3.527755 m 0.88314,0.167058 3.577685,-3.546567 m 1.010722,0.04059 -3.664386,3.632515 m 1.022348,0.02904 3.75623,-3.723555 m 1.201748,-0.14878 -3.829913,3.796602 m 1.205556,-0.15255 3.860172,-3.826597 m 1.209924,-0.156882 -3.832274,3.798942 m 1.213658,-0.160585 3.744082,-3.711517 m 1.003858,0.04739 -3.615518,3.584075 m 1.032139,0.01935 3.481938,-3.451653 m 0.783343,0.265986 -3.342327,3.313261 m 0.827984,0.221734 3.188267,-3.160537 m 0.592417,0.455255 -3.066377,3.039707 m 0.627018,0.420955 2.978572,-2.952669 m 0.506118,0.540808 -2.918393,2.893005 m 0.521024,0.526028 2.897021,-2.871823 m 0.508962,0.537984 -2.900854,2.875624 m 0.497952,0.548898 2.931786,-2.90629 m 0.580411,0.467161 -2.999282,2.973192 m 0.533204,0.513952 3.116863,-3.089753 m 0.725529,0.323298 -3.255808,3.227494 m 0.653912,0.394294 3.378431,-3.349049 m 0.822209,0.227461 -3.476591,3.446353 m 0.773155,0.27609 3.564244,-3.533244 m 0.891145,0.159123 -3.637876,3.606238 m 0.855484,0.194473 3.69534,-3.663199 m 0.927546,0.123041 -3.737419,3.704912 m 0.908453,0.141965 3.805384,-3.772283 m 1.037214,0.01434 -3.926226,3.892077 m 0.955459,0.09537 4.037032,-4.001919 m 7.71744,-6.607796 -0.709779,0.703605 m -10.03296,9.945696 4.047733,-4.012527 m 8.539452,-7.422662 -3.321698,3.292807 m -8.205134,8.133772 4.016094,-3.981164 m 8.762381,-7.643648 -5.002213,4.958702 m -6.727183,6.668671 4.121468,-4.085621 m 8.648109,-7.53037 -4.163714,4.127499 m -7.591795,7.52576 5.48961,-5.441859 m 7.158747,-6.053962 -3.522269,3.491629 m -8.071967,8.001759 3.937168,-3.90292 m 8.4316956,-7.315842 -3.1098056,3.082757 m -8.037269,7.967366 2.258985,-2.239337 m 9.5274973,-8.402113 -2.7415253,2.71768 m 0.879767,0.170405 2.3287828,-2.308528 m 0.3431378,0.702363 -1.9004836,1.883957 m 0.6481566,0.400001 1.5276708,-1.514387 m 0.2641484,0.780669 -1.304932,1.293582 m 0.3639894,0.681696 1.2477759,-1.236927 m 0.3988848,0.647104 -1.3604671,1.348638 m 0.2659852,0.778848 1.6263072,-1.612166 m 0.6173922,0.430498 -1.9615996,1.944538 m 0.3501689,0.695393 2.2729059,-2.253133 m 0.7059933,0.342663 -2.5172326,2.495338 m 0.5827498,0.464839 2.6845664,-2.661217 m 0.7858379,0.263513 -2.8371949,2.812522 m 0.6811371,0.367307 2.9775494,-2.951656 m 0.85197722,0.197953 -3.10891712,3.081877 m 0.7574977,0.29161 3.23113438,-3.203034 m 0.89303728,0.157253 -3.33183816,3.302859 m 0.8274706,0.222246 3.4101545,-3.380497 m 0.9119927,0.138455 -3.46863069,3.438465 m 0.88058502,0.169594 3.48770507,-3.457373 m 0.8948369,0.155466 -3.4904603,3.460101 M 1.9744517,91.579401 5.463157,88.12104 M 6.4036236,88.231273 2.88579,91.718509 m 8.885104,-7.765307 3.457989,-3.427909 M 7.4316539,88.2547 3.7910601,91.863629 m 7.4028319,-6.295921 5.643354,-5.594273 m -8.1728043,8.10172 -3.978738,3.944131 M 5.584177,92.171148 18.205347,79.65975 M 38.424818,60.658663 38.003743,61.076075 M 6.5091982,92.296692 19.428519,79.48974 M 39.000388,61.130622 38.27013,61.854525 m -22.916319,22.717002 5.193704,-5.148534 m -7.670955,7.604235 -5.392301,5.3454 m 30.995759,-29.683646 0.996708,-0.988039 m -17.897184,17.741518 -4.414994,4.376594 m -8.5799361,8.50531 3.6877031,-3.655628 M 39.88877,62.334999 38.63941,63.573496 M 18.644455,83.39454 22.544293,79.528622 m -10.98646,10.890902 -1.494742,1.481741 m 28.68353,-27.391527 1.504417,-1.491336 m -16.802851,16.656707 -3.497134,3.466714 m 18.859379,-17.652826 1.749109,-1.733895 m -16.263708,16.12225 -3.160381,3.132893 M 38.830715,66.51141 40.81243,64.546928 m -15.721925,15.58518 -2.862746,2.83785 m 16.5991,-15.412206 2.184421,-2.16542 m -15.176812,15.044803 -2.586119,2.56363 M 38.801669,68.62524 41.162097,66.285342 M 26.394143,80.924848 24.20557,83.094389 m 14.557113,-13.387983 2.505651,-2.483857 m -14.5308,14.404415 -1.632071,1.617875 M 38.511608,70.997817 41.332164,68.20179 M 27.113477,82.296806 25.952432,83.447753 M 37.994856,72.55259 41.356875,69.219813 M 27.702682,82.75525 26.74967,83.699972 M 37.680007,73.907221 41.349948,70.2692 m -12.976596,12.863732 -0.8739,0.866295 m 10.169158,-9.038193 3.660691,-3.628847 m -12.240705,12.134238 -0.957239,0.948914 m 9.644676,-8.51827 3.518581,-3.487977 m -11.441757,11.342239 -1.343798,1.332107 m 9.414371,-8.289964 3.215272,-3.18731 m -10.464063,10.373049 -1.83115,1.815224 m 9.230189,-8.107389 2.594066,-2.571503 m -9.098618,9.019481 -2.226882,2.207513 m 8.846929,-7.727461 2.033116,-2.015432 m -7.653833,7.587262 -2.576367,2.553958 m 8.199252,-7.085421 1.908608,-1.892003 m -6.36306,6.307715 -3.052218,3.025671 m 7.094623,-5.9904 2.377249,-2.356573 m -4.749409,4.708104 -3.986732,3.952056 m 0.784403,0.26494 8.084597,-8.01428 m 0.151398,0.892439 -7.392968,7.328666 m 0.919411,0.131102 6.62179,-6.564196 m 0.09748,0.945887 -5.690192,5.640701 m 1.216845,-0.163741 4.439144,-4.400534 m -0.50704,1.54515 -2.12542,2.106929"
           id="path8111" />
        <path
           id="path7030"
           style="fill:#a770c2;fill-opacity:1;stroke:#000000;stroke-width:0.1851;stroke-linecap:round;stroke-linejoin:round;stroke-dasharray:none;stroke-opacity:1"
           d="m -41.063015,46.560634 c -0.769441,4.024984 -6.722014,3.231713 -8.405128,7.084993 -2.034833,3.018962 -4.136735,7.040148 -2.34295,10.648886 3.628134,3.278711 0.147432,6.756979 -0.898715,10.236906 -2.217113,4.664444 3.261282,6.689049 6.915524,6.653496 3.553431,0.05086 8.0096,-2.01199 10.791155,1.198748 2.11173,3.151759 5.855521,4.256933 9.472866,4.45682 3.213339,0.10162 8.452658,1.030227 8.824094,-3.54301 0.306452,-3.831746 5.502342,-5.157581 8.2395921,-3.044881 0.9766451,4.334876 4.7660588,6.767109 9.08270553,7.042333 3.15819537,0.16675 6.88022087,2.122947 9.65745237,-0.185215 1.557915,-2.603289 1.939565,-6.428093 5.690472,-6.908279 3.344853,-1.082188 7.411151,-1.349595 10.432009,0.651466 1.074621,2.812515 4.732807,3.573938 7.433676,3.164255 3.701431,-0.611698 5.198927,-4.652527 3.941533,-7.887964 -0.55668,-3.621396 1.835863,-6.968753 1.001621,-10.680038 0.15538,-4.320906 -3.016851,-7.566198 -4.132179,-11.54951 -0.737191,-1.394826 -1.933956,-4.014146 -1.158732,-0.965012 0.658582,4.443479 -4.715674,6.672195 -8.211742,7.224373 -4.952639,-0.343693 -4.358473,-7.239201 -8.236922,-8.653162 1.869025,0.651039 2.72175,6.409565 0.131486,3.294147 -0.374588,-1.544868 -2.185914,-5.126528 -1.39697,-1.50894 -0.153941,3.205304 -3.893538,6.279251 -6.9711361,6.472649 C 5.1324623,59.800206 6.6735504,55.6831 6.5955,54.05204 5.0840013,56.057584 4.1759534,59.374144 0.75315363,59.479674 -3.0082044,59.773946 -6.866004,59.7645 -10.590923,59.131583 c -2.125966,-0.189324 -1.206018,-3.209376 -2.502864,-0.457133 -2.365106,2.047642 -3.916029,-1.653461 -4.860666,-1.885093 -0.207458,4.27633 -7.050241,5.122804 -8.291206,1.067375 -1.152467,-2.967681 1.677261,-5.446539 1.384063,-8.287181 0.280019,-2.159191 -2.86918,-3.408157 -3.724701,-2.648967 4.978247,2.003663 -0.121549,6.450739 -3.255129,7.075683 -3.311485,0.685916 -10.179919,2.339062 -10.70727,-2.396332 -0.02656,-2.001386 2.688681,-2.985692 1.485681,-5.039301 z"
           sodipodi:nodetypes="cssscsscssssssssssssssssssscsscssc" />
        <path
           style="fill:#c270a7;fill-opacity:1;stroke:none;stroke-width:0.1851;stroke-linecap:round;stroke-linejoin:round;stroke-dasharray:none;stroke-opacity:1"
           d="m -26.853151,85.219945 c -1.925893,-0.584269 -2.894218,-2.842993 -4.643818,-3.831987 -2.222253,-1.25617 -4.715548,-2.082952 -7.229296,-2.553444 -2.277796,-0.426329 -4.645703,0.02927 -6.950794,-0.21328 -1.313627,-0.138225 -2.986133,0.241434 -3.898597,-0.705489 -0.880928,-0.914196 -0.654937,-2.501858 -0.514068,-3.758378 0.213506,-1.90443 2.024753,-3.471616 2.021786,-5.387769 -0.0027,-1.775631 -1.478422,-3.258567 -1.888971,-4.986932 -0.310397,-1.306733 -0.66144,-2.685154 -0.418997,-4.005937 0.216339,-1.178573 0.610631,-2.556512 1.620172,-3.214927 0.905209,-0.59037 3.225388,-4.707737 4.362168,-4.608362 0.813018,0.07107 1.986462,4.031652 2.761248,4.015964 2.798425,-0.05666 4.58958,0.800752 6.839252,0.410149 1.761882,-0.30591 3.82864,-0.999555 5.416378,-1.715594 0.411064,-0.185382 1.628261,-1.054276 2.449584,-2.051166 0.552218,-0.670261 0.761428,-1.481158 1.043068,-1.869885 0.546308,-0.754028 -0.997549,3.471077 -1.54836,4.506926 -0.983595,1.849736 -0.71803,3.44261 0.340428,4.86115 1.487297,1.993266 4.127383,1.552738 6.619887,0.995079 0.647041,-0.144765 1.25811,-0.397586 1.85158,-0.559678 0.431443,-0.117839 1.122886,-3.101421 1.277059,-1.786369 0.06531,0.557051 0.551796,1.737738 0.826848,1.795124 0.829078,0.172979 1.884784,-0.212373 2.942862,-0.243376 0.303899,-0.0089 1.172346,-1.136331 1.167291,-0.894482 -0.0098,0.466527 0.873256,0.962883 1.338651,1.044409 0.928457,0.162643 2.4344325,0.36212 2.9206572,0.404987 2.7660945,0.243864 5.660825,0.06178 8.49074095,0.120576 0.57315188,0.01191 2.51669665,-0.705765 3.00339215,-1.019607 0.689283,-0.44448 1.6284137,-1.508919 2.1232714,-2.636471 0.1416415,-0.322736 0.227313,3.591581 0.5795644,3.634693 2.3324701,0.285471 3.4212345,0.951392 5.6406349,0.33177 1.534508,-0.428411 3.033574,-2.690812 3.591005,-3.502659 0.108301,-0.157731 1.000541,-2.963873 1.017252,-3.160556 0.02547,-0.299735 0.572105,3.067153 0.734666,3.200499 0.298143,0.24456 1.247523,-0.255897 1.693597,-0.664122 0.470083,-0.430196 0.689925,-1.791661 0.84611,-1.707767 0.168751,0.09064 0.0052,2.317718 0.551189,3.288034 0.548336,0.974552 1.616242,1.689128 2.543548,2.202131 0.823185,0.455402 1.342967,1.512153 2.272284,1.669054 0.817802,0.138073 1.629224,-0.374442 2.377357,-0.729791 0.967489,-0.45954 1.651868,-1.443743 2.66832,-1.783922 0.933108,-0.312286 2.522952,-1.263062 3.109946,-2.110284 0.541884,-0.782112 1.010854,-4.193578 1.12742,-3.402764 0.170408,1.15609 1.359696,3.297652 1.804777,5.450421 0.267382,1.293274 0.593632,3.180957 0.689649,4.280195 0.16237,1.858879 -0.542519,3.699857 -0.613563,5.564362 -0.114112,2.994778 1.197387,6.123105 0.302568,8.985736 -0.447102,1.430329 -1.216668,3.269546 -2.685675,3.61837 -2.382252,0.56568 -4.174454,-2.742635 -6.564543,-3.274842 -1.651511,-0.367746 -3.389235,-0.01163 -5.076488,0.122427 -3.297952,0.262024 -6.918332,-0.218912 -9.83443,1.330412 -1.828768,0.971625 -2.22518,3.78163 -4.115733,4.62912 -2.3135167,1.037094 -5.1375669,0.548964 -7.61721343,0.0076 -1.76691607,-0.385758 -3.57300327,-1.07155 -4.92329187,-2.265292 -1.1263143,-0.995735 -1.0515869,-3.086625 -2.361818,-3.829006 -2.7088242,-1.53483 -6.5845097,-1.568161 -9.3589947,-0.153276 -1.986816,1.013202 -1.883113,4.342541 -3.806917,5.468919 -1.994581,1.167819 -4.699548,1.361312 -6.914643,0.689307 z"
           id="path6524"
           sodipodi:nodetypes="aaaaaaaaasssssssssssssssssssssssssasasaasssssaaaaaaaaaaaaa" />
        <path
           style="fill:#c27070;fill-opacity:1;stroke:none;stroke-width:0.1851;stroke-linecap:round;stroke-linejoin:round;stroke-dasharray:none;stroke-opacity:1"
           d="m -27.17998,83.604052 c -1.241851,-0.695367 -1.390697,-2.593612 -2.566548,-3.393826 -3.11025,-2.11665 -7.16779,-2.447612 -10.890447,-3.054401 -2.254093,-0.367414 -4.763388,0.592853 -6.844446,-0.341028 -0.697711,-0.3131 -1.533346,-0.877549 -1.600833,-1.633805 -0.08747,-0.98014 1.364905,-1.508536 1.667537,-2.445656 0.742036,-2.297761 0.75646,-4.890521 0.184483,-7.235578 -0.349737,-1.433892 -2.633449,-2.492898 -2.139341,-3.884419 0.148221,-0.417424 1.024391,-0.120475 1.236544,-0.509836 0.556619,-1.021552 -1.370247,-2.50712 -0.650346,-3.422952 0.605349,-0.770103 2.461557,-2.607616 3.565431,-2.445923 0.732373,0.107276 2.186905,2.219595 2.840322,2.218617 2.744402,-0.0041 4.475718,0.424517 6.719537,0.402415 1.054308,-0.01038 2.087919,-0.34159 3.188556,-0.57705 0.79877,-0.170882 2.46692,-1.568532 2.986909,-1.012059 0.432186,0.46251 -0.946367,2.390548 -1.244069,3.076253 -0.553841,1.275676 0.360561,1.83653 1.191833,2.671155 0.447995,0.449802 1.255749,-0.254562 1.89315,-0.271981 2.450264,-0.06696 4.880062,0.825333 7.324609,0.646488 1.312339,-0.09601 2.52409,-0.846747 3.838167,-0.91555 1.728188,-0.09049 3.419629,0.575326 5.147573,0.670262 2.7048192,0.148607 5.4180344,-0.255144 8.1253059,-0.160068 1.9015396,0.06678 4.10876072,0.351029 5.8981739,-0.292137 0.4170498,-0.1499 1.9253358,-1.461349 2.1834506,-1.687494 0.4831083,-0.423271 -0.3350101,1.426712 -0.1162586,1.935296 0.3656321,0.850073 2.2933969,0.55359 3.2200798,0.595266 1.4389667,0.06471 2.5857154,0.179278 3.8363844,-0.08671 0.823216,-0.175076 1.665302,-0.458157 2.326577,-0.974768 0.821994,-0.64217 0.861701,-2.207122 1.86444,-2.504247 1.484426,-0.439854 3.092217,0.714214 4.35964,1.597552 0.7141,0.497697 0.950661,1.519886 1.685677,1.986702 0.881623,0.559926 1.983101,0.774599 3.028917,0.824854 1.271355,0.06109 2.586444,-0.162848 3.762701,-0.644991 1.295111,-0.53086 2.059671,-2.15183 3.439022,-2.39763 0.957727,-0.170667 2.217248,-0.01861 2.823203,0.736146 0.702331,0.874798 0.124091,2.23464 0.104341,3.352501 -0.06124,3.466151 -0.687521,6.910815 -0.690535,10.377496 -9.49e-4,1.092116 0.595891,2.245993 0.211857,3.269609 -0.403758,1.076187 -1.287077,2.301259 -2.434536,2.457862 -1.159771,0.158283 -1.985752,-1.241223 -3.046319,-1.732654 -1.284444,-0.595169 -2.579887,-1.316916 -3.990348,-1.460122 -1.957148,-0.198712 -3.873253,0.742512 -5.836345,0.871307 -2.275644,0.1493 -4.592152,-0.494338 -6.840842,-0.117342 -0.753655,0.126351 -1.572689,0.290419 -2.152173,0.78452 -1.3128814,1.119438 -1.090774,3.518444 -2.5019559,4.513433 -1.4128404,0.996159 -3.3941958,0.852341 -5.1279293,0.862978 -1.4230146,0.0087 -2.99962623,0.07319 -4.2174264,-0.656616 -0.9343157,-0.55992 -1.4951309,-1.623834 -1.953584,-2.606074 -0.5667875,-1.214346 0.1247787,-3.055917 -0.9137909,-3.910541 -1.6626423,-1.368165 -4.3327029,-0.0059 -6.4766875,-0.272988 -2.035557,-0.253569 -4.141912,-2.069536 -6.022644,-1.257054 -1.690885,0.730467 -1.811205,3.190972 -2.851183,4.701045 -0.912837,1.325462 -1.478311,3.178471 -2.965289,3.813207 -1.409519,0.601672 -3.244333,0.288733 -4.580544,-0.45947 z"
           id="path6522"
           sodipodi:nodetypes="aaaaaaaaassssssssaaaasssssaaaaaaaaaaaaaaaaaaaaaaaaaaaaa" />
        <g
           id="g6429">
          <path
             style="fill:#a5938d;fill-opacity:1;stroke:#000000;stroke-width:0.1851;stroke-linecap:round;stroke-linejoin:round;stroke-dasharray:none;stroke-opacity:1"
             d="m 18.316177,76.344468 1.348671,-1.634187 -0.287922,-7.242998 -1.207141,-1.15673 4.129395,-1.935253 -0.248121,2.683938 2.690169,-2.599976 4.389946,0.684612 0.966756,2.040253 0.19201,7.781296 1.249739,1.467206 -5.15111,0.163204 0.923041,-1.443439 -0.233584,-6.78197 -1.232156,-0.669593 -1.37222,0.144829 -1.809869,2.068161 -0.07453,4.835031 1.370152,1.747234 z"
             id="path3314"
             sodipodi:nodetypes="cccccccccccccccccccc" />
          <path
             style="fill:none;fill-opacity:1;stroke:#000000;stroke-width:0.1851;stroke-linecap:round;stroke-linejoin:round;stroke-dasharray:none;stroke-opacity:1"
             d="m 22.472699,75.967749 -2.292907,-0.204968 1.145532,-0.971583 -0.333925,-8.459979 -1.283564,0.300184"
             id="path6418" />
          <path
             style="fill:none;fill-opacity:1;stroke:#000000;stroke-width:0.1851;stroke-linecap:round;stroke-linejoin:round;stroke-dasharray:none;stroke-opacity:1"
             d="m 22.298396,68.671877 2.875184,-2.565682 3.230608,0.678115 0.372625,8.268651 -0.822904,0.660226 1.98246,0.02818"
             id="path6420" />
        </g>
        <g
           id="g6348">
          <path
             id="path3264"
             style="fill:#a5938d;fill-opacity:1;stroke:#000000;stroke-width:0.1851;stroke-linecap:round;stroke-linejoin:round;stroke-dasharray:none;stroke-opacity:1"
             d="m 10.618889,63.891564 -3.5625735,2.106331 2.065507,2.034502 1.1751215,-0.84336 1.702739,0.187586 0.203088,1.635042 -2.8194655,0.05323 -2.852539,0.739489 -1.198894,3.115573 1.682585,2.905765 1.177189,0.628902 2.7972455,0.141594 1.99626,-0.957564 1.311548,0.774113 0.654224,0.113171 2.054655,-1.617989 -0.315743,-1.620573 -1.426786,0.38654 0.35605,-6.773747 -1.104842,-2.304252 z m 1.357539,7.37061 0.31316,1.64486 -0.923975,1.398365 -1.4231685,0.1788 -0.818555,-1.067635 0.612882,-1.755448 z" />
          <path
             style="fill:none;fill-opacity:1;stroke:#000000;stroke-width:0.1851;stroke-linecap:round;stroke-linejoin:round;stroke-dasharray:none;stroke-opacity:1"
             d="m 9.1027458,66.731046 1.8691922,-1.3278 2.578551,0.592785 0.662704,2.547379 -0.369832,4.875031 0.451055,1.523601 1.279241,-0.466753"
             id="path6326" />
          <path
             style="fill:none;fill-opacity:1;stroke:#000000;stroke-width:0.1851;stroke-linecap:round;stroke-linejoin:round;stroke-dasharray:none;stroke-opacity:1"
             d="m 12.297103,74.312495 -1.248346,1.12929 -1.8807052,-0.04431 -1.1298919,-1.581867 -0.095837,-2.241996 1.7637431,-1.448558 3.577784,-0.0087"
             id="path6328" />
        </g>
        <g
           id="g6305">
          <path
             id="path3244"
             style="fill:#a5938d;fill-opacity:1;stroke:#000000;stroke-width:0.1851;stroke-linecap:round;stroke-linejoin:round;stroke-dasharray:none;stroke-opacity:1"
             d="m -28.591684,63.42018 -4.365108,1.363741 2.194181,2.657719 1.162203,-1.047998 1.233517,-0.251147 0.677478,0.202054 0.351916,1.593702 -5.481836,1.348238 -1.064534,3.386356 1.945618,3.091284 3.225126,0.543637 2.04897,-1.969906 1.296045,1.87172 1.067635,-0.155546 1.673283,-1.699121 -0.15813,-1.497583 -1.313615,0.61805 0.347783,-7.16287 -0.983919,-2.097546 z m 1.055233,6.487976 -0.03256,2.544031 -0.992188,1.09244 -1.301212,-0.09819 -0.733805,-0.959114 0.951879,-1.648995 z" />
          <path
             style="fill:none;fill-opacity:1;stroke:#000000;stroke-width:0.1851;stroke-linecap:round;stroke-linejoin:round;stroke-dasharray:none;stroke-opacity:1"
             d="m -30.467041,65.681393 1.904698,-0.919043 2.784465,0.917201 0.09504,6.458084 0.997155,2.833632 1.162941,-0.651565"
             id="path6298" />
          <path
             style="fill:none;fill-opacity:1;stroke:#000000;stroke-width:0.1851;stroke-linecap:round;stroke-linejoin:round;stroke-dasharray:none;stroke-opacity:1"
             d="m -26.787197,73.267648 -2.334994,1.894094 -2.491596,-1.139771 -0.0895,-3.513222 4.940423,-1.737884"
             id="path6300" />
        </g>
        <g
           id="g6292">
          <path
             id="path592"
             style="fill:#a5938d;fill-opacity:1;stroke:#000000;stroke-width:0.1851;stroke-linecap:round;stroke-linejoin:round;stroke-dasharray:none;stroke-opacity:1"
             d="m -39.877693,58.47246 -7.858952,0.05219 1.686719,1.88309 -0.03979,13.342338 -1.659847,1.859318 6.194454,-0.10232 -1.602486,-1.704805 -0.06563,-5.833236 3.280936,1.026811 4.455025,-2.007629 1.594218,-4.294312 -1.727026,-3.498494 z m -2.14819,2.051038 2.193665,0.155029 1.043864,1.090373 1.121895,1.211812 -0.837623,2.420216 -2.103537,1.061383 -2.417413,-0.824631 -0.006,-4.334902 z"
             sodipodi:nodetypes="cccccccccccccccccccccc" />
          <path
             style="fill:none;fill-opacity:1;stroke:#000000;stroke-width:0.1851;stroke-linecap:round;stroke-linejoin:round;stroke-dasharray:none;stroke-opacity:1"
             d="m -45.731136,74.805633 1.684157,0.0431 -0.809427,-1.469782 0.210975,-13.239561 -1.47443,-0.858502"
             id="path6283" />
          <path
             style="fill:none;fill-opacity:1;stroke:#000000;stroke-width:0.1851;stroke-linecap:round;stroke-linejoin:round;stroke-dasharray:none;stroke-opacity:1"
             d="m -43.383142,59.789088 2.939469,-0.345041 3.819309,1.894392 0.523368,3.18176 -1.678347,2.402552 -2.181357,0.811997 -3.670358,-1.036073"
             id="path6285" />
        </g>
        <g
           id="g6296">
          <path
             style="fill:#9d847b;fill-opacity:1;stroke:#000000;stroke-width:0.1851;stroke-linecap:round;stroke-linejoin:round;stroke-dasharray:none;stroke-opacity:1"
             d="m -36.975326,76.725369 1.81751,-1.587675 -0.314059,-13.412712 -1.568623,-1.123003 4.369507,-1.884481 0.265003,16.350802 1.342834,1.635254 z"
             id="path3242" />
          <path
             style="fill:none;fill-opacity:1;stroke:#000000;stroke-width:0.1851;stroke-linecap:round;stroke-linejoin:round;stroke-dasharray:none;stroke-opacity:1"
             d="m -35.12636,60.77126 1.749514,-1.002151 -0.703985,1.853107 0.150693,13.531202 -0.765581,0.730337 1.474761,-0.07935"
             id="path6287" />
        </g>
        <g
           id="g6314">
          <path
             style="fill:#9d847b;fill-opacity:1;stroke:#000000;stroke-width:0.1851;stroke-linecap:round;stroke-linejoin:round;stroke-dasharray:none;stroke-opacity:1"
             d="m -25.283791,66.979583 -1.585066,-1.812732 6.203654,0.123443 -1.620454,1.824733 2.362877,6.358585 3.317751,-6.355033 -1.761138,-1.954497 5.209217,0.154843 -1.489491,1.632464 -8.572227,16.341752 -3.266371,-0.229387 5.03229,-8.257624 z"
             id="path3249" />
          <path
             style="fill:none;fill-opacity:1;stroke:#000000;stroke-width:0.1851;stroke-linecap:round;stroke-linejoin:round;stroke-dasharray:none;stroke-opacity:1"
             d="m -22.411632,65.972398 -2.575749,-0.140775 1.29476,0.987944 3.438894,8.134366 -3.795161,7.45935"
             id="path6307" />
          <path
             style="fill:none;fill-opacity:1;stroke:#000000;stroke-width:0.1851;stroke-linecap:round;stroke-linejoin:round;stroke-dasharray:none;stroke-opacity:1"
             d="m -19.329096,74.118795 3.833448,-7.256432 0.823356,-0.799371 -1.709139,-0.08994"
             id="path6309" />
        </g>
        <g
           id="g6337">
          <path
             id="path3251"
             style="fill:#a5938d;fill-opacity:1;stroke:#000000;stroke-width:0.1851;stroke-linecap:round;stroke-linejoin:round;stroke-dasharray:none;stroke-opacity:1"
             d="m -6.3761055,63.10069 -3.5625737,2.106331 2.065507,2.034502 1.1751217,-0.84336 1.702739,0.187586 0.203088,1.635042 -2.8194659,0.05323 -2.8525386,0.739489 -1.198894,3.115573 1.6825849,2.905765 1.1771891,0.628902 2.7972455,0.141594 1.9962601,-0.957564 1.311548,0.774113 0.6542239,0.113171 2.05465505,-1.617989 -0.315743,-1.620573 -1.42678605,0.38654 0.35605,-6.773747 -1.1048419,-2.304252 z m 1.357539,7.37061 0.31316,1.64486 -0.923975,1.398365 -1.423169,0.1788 -0.8185546,-1.067635 0.6128824,-1.755448 z" />
          <path
             style="fill:none;fill-opacity:1;stroke:#000000;stroke-width:0.1851;stroke-linecap:round;stroke-linejoin:round;stroke-dasharray:none;stroke-opacity:1"
             d="m -8.0453906,65.812887 1.9601639,-1.288749 2.9924995,1.370978 0.3321131,8.056986 0.7109684,0.551277 0.7990676,-0.699544"
             id="path6316" />
          <path
             style="fill:none;fill-opacity:1;stroke:#000000;stroke-width:0.1851;stroke-linecap:round;stroke-linejoin:round;stroke-dasharray:none;stroke-opacity:1"
             d="m -4.2650917,69.273095 -4.2264425,0.689154 -1.0644216,2.923829 1.8246319,2.080561 2.8945627,-0.555132 1.2372967,-1.558972"
             id="path6318" />
        </g>
        <g
           id="g6343">
          <path
             id="path3256"
             style="fill:#9d847b;fill-opacity:1;stroke:#000000;stroke-width:0.1851;stroke-linecap:round;stroke-linejoin:round;stroke-dasharray:none;stroke-opacity:1"
             d="m 2.6996501,64.110456 -3.14502797,0.822688 -1.82779503,2.300118 -0.330213,2.373499 1.64382803,2.43241 1.878955,0.613399 -1.900143,1.617472 1.242302,1.209229 -2.87682703,2.477368 0.029455,2.161108 1.98127503,2.453597 4.55165997,0.571542 2.5957071,-0.312643 2.040702,-2.287199 0.255282,-2.865975 -2.672188,-2.79156 -2.7512541,-0.84646 0.4377,-0.774113 2.8907791,-1.595769 1.139466,-2.601391 -0.14056,-2.027783 1.916162,0.186552 -1.033529,-2.854607 -2.75177,0.673861 z m 0.135909,2.210717 1.7668171,1.789039 -0.4283981,1.948201 -0.95343,0.997355 -0.901754,0.02119 -1.180289,-0.91364 L 0.62794213,68.489519 1.4139401,66.32686 Z m -0.654224,10.430888 1.885156,0.684196 1.3037971,1.751831 -0.167432,0.932243 -1.1926921,0.847494 -1.855701,-0.588078 -1.27950797,-1.133264 -0.189653,-0.999423 z" />
          <path
             style="fill:none;fill-opacity:1;stroke:#000000;stroke-width:0.1851;stroke-linecap:round;stroke-linejoin:round;stroke-dasharray:none;stroke-opacity:1"
             d="m 7.9236631,65.783138 -2.4226805,1.084035 -3.2521674,-1.879131 -3.12387206,1.832924 0.24855408,3.373813 2.09014828,1.774245 1.1411748,1.121861 -0.083836,2.202845 2.8203131,1.575394 0.8994895,1.804015 -0.5363078,2.645696 -1.9010064,0.73199 -3.04588615,-1.053835"
             id="path6320" />
          <path
             style="fill:none;fill-opacity:1;stroke:#000000;stroke-width:0.1851;stroke-linecap:round;stroke-linejoin:round;stroke-dasharray:none;stroke-opacity:1"
             d="M -0.81065098,79.58458 -0.2628675,77.919705 1.3520272,75.834311 0.84333998,74.469757"
             id="path6322" />
          <path
             style="fill:none;fill-opacity:1;stroke:#000000;stroke-width:0.1851;stroke-linecap:round;stroke-linejoin:round;stroke-dasharray:none;stroke-opacity:1"
             d="M 3.7227298,72.198966 5.4666222,70.854603 6.1771391,67.899426"
             id="path6324" />
        </g>
        <g
           id="g6353">
          <path
             id="path3312"
             style="fill:#9d847b;fill-opacity:1;stroke:#000000;stroke-width:0.1851;stroke-linecap:round;stroke-linejoin:round;stroke-dasharray:none;stroke-opacity:1"
             d="m 16.857425,60.19609 -1.147734,1.939933 0.01085,1.030945 2.541446,0.82734 1.114144,-1.731161 0.0088,-1.100191 -1.904276,-0.855762 z m 2.1177,5.135604 -4.185791,2.024682 1.628841,1.192176 -0.04237,6.94893 -1.241785,1.759582 5.498889,-0.141593 -1.324984,-1.305864 z" />
          <path
             style="fill:none;fill-opacity:1;stroke:#000000;stroke-width:0.1851;stroke-linecap:round;stroke-linejoin:round;stroke-dasharray:none;stroke-opacity:1"
             d="m 18.859132,76.201279 -2.009326,0.147874 c 0,0 1.126058,-0.820295 1.16131,-0.989221 0.03525,-0.168927 -0.336653,-7.560494 -0.336653,-7.560494 l -1.041326,-0.321386 1.44228,-0.991017"
             id="path6330" />
          <path
             style="fill:none;fill-opacity:1;stroke:#000000;stroke-width:0.1851;stroke-linecap:round;stroke-linejoin:round;stroke-dasharray:none;stroke-opacity:1"
             d="m 17.486161,61.22327 1.039995,0.737061 -0.641393,1.130592 -0.947063,-0.50255 0.229939,-0.607159"
             id="path6332" />
        </g>
        <g
           id="g6434">
          <path
             id="path3319"
             style="fill:#9d847b;fill-opacity:1;stroke:#000000;stroke-width:0.1851;stroke-linecap:round;stroke-linejoin:round;stroke-dasharray:none;stroke-opacity:1"
             d="m 33.450459,61.763718 -1.983342,0.159163 -0.84801,1.316199 0.754476,10.461894 1.306897,0.280086 1.727543,-7.548376 -0.02636,-3.654041 z m -1.41025,13.529923 -0.824756,0.206706 -0.982886,1.915129 0.336414,0.839225 1.860868,0.91984 0.805636,-0.257348 0.84801,-1.733228 -0.04082,-1.019576 z" />
          <path
             style="fill:none;fill-opacity:1;stroke:#000000;stroke-width:0.1851;stroke-linecap:round;stroke-linejoin:round;stroke-dasharray:none;stroke-opacity:1"
             d="m 31.615118,63.744891 0.768275,-0.579005 0.977446,1.102724 -1.02376,3.222262 -0.335913,5.065229"
             id="path6422" />
          <path
             style="fill:none;fill-opacity:1;stroke:#000000;stroke-width:0.1851;stroke-linecap:round;stroke-linejoin:round;stroke-dasharray:none;stroke-opacity:1"
             d="m 31.502735,77.591329 0.978729,0.479785 0.649347,-1.137371 -1.08522,-0.625109 -0.03036,0.605087"
             id="path6424" />
        </g>
        <path
           style="fill:none;fill-opacity:1;stroke:#000000;stroke-width:0.1851;stroke-linecap:round;stroke-linejoin:round;stroke-dasharray:none;stroke-opacity:1"
           d="m -30.140597,78.644649 c 0,0 1.597734,-0.923913 2.307895,-0.573824 0.549102,0.270692 0.858278,1.086052 0.719963,1.678306 -0.253163,1.084023 -1.461842,1.895309 -2.545521,2.185258 -1.057473,0.282937 -2.248201,-0.12048 -3.228987,-0.603857 -1.503436,-0.740963 -2.335659,-2.429227 -3.732185,-3.353181 -0.838751,-0.554925 -2.298267,-0.378859 -2.736107,-1.279345 -0.670707,-1.379413 1.064496,-4.471018 1.064496,-4.471018"
           id="path8581"
           sodipodi:nodetypes="caaaaaac" />
        <path
           style="fill:none;fill-opacity:1;stroke:#000000;stroke-width:0.1851;stroke-linecap:round;stroke-linejoin:round;stroke-dasharray:none;stroke-opacity:1"
           d="m -42.266439,76.999016 c 0,0 2.442475,0.538463 2.319813,1.433526 -0.131043,0.95622 -1.827812,0.785673 -2.800647,0.82056 -2.126239,0.07625 -4.505074,-0.123635 -6.235853,-1.350294 -0.650957,-0.461355 -1.178734,-1.244994 -1.243461,-2.03565 -0.135878,-1.659774 1.526295,-3.006961 1.881069,-4.63463 0.449482,-2.06218 0.984974,-4.334548 0.274914,-6.323434 -0.386724,-1.083219 -1.954812,-1.487539 -2.301765,-2.583914 -0.263673,-0.833209 0.0026,-1.781881 0.304336,-2.602306 0.344776,-0.937494 1.455327,-1.521718 1.664434,-2.497801 0.146641,-0.684498 -0.348358,-2.070692 -0.348358,-2.070692"
           id="path8583"
           sodipodi:nodetypes="caaaaaaaaac" />
        <path
           style="fill:none;fill-opacity:1;stroke:#000000;stroke-width:0.1851;stroke-linecap:round;stroke-linejoin:round;stroke-dasharray:none;stroke-opacity:1"
           d="m 27.931516,61.398135 c 0,0 0.401072,-0.461651 0.658514,-0.419521 0.423824,0.06936 0.799667,0.573593 0.802667,0.999406 0.0037,0.525644 -0.488932,1.033632 -0.973432,1.24727 -1.459699,0.643648 -3.358494,0.36709 -4.779217,-0.357207 -0.58191,-0.296663 -0.833493,-1.000266 -1.258676,-1.493331 -0.549935,-0.637735 -1.233752,-1.176585 -1.671419,-1.894681 -0.285545,-0.468505 -0.46163,-1.00116 -0.59661,-1.53193 -0.149986,-0.589767 -0.230346,-1.810313 -0.230346,-1.810313 l -0.738238,-2.173262"
           id="path8642"
           sodipodi:nodetypes="caaaaaaac" />
        <path
           style="fill:none;fill-opacity:1;stroke:#000000;stroke-width:0.1851;stroke-linecap:round;stroke-linejoin:round;stroke-dasharray:none;stroke-opacity:1"
           d="m 31.347124,59.73423 c 0,0 -0.660831,0.609415 -0.501887,0.92062 0.225778,0.442063 1.00754,0.350234 1.485265,0.20448 0.75756,-0.231131 0.971724,-1.550334 1.76375,-1.580972 1.211133,-0.04685 2.70633,1.012593 2.878894,2.201865 0.08301,0.572083 -0.921248,0.834877 -1.027565,1.403157 -0.236334,1.263246 0.941804,2.440332 1.004028,3.723637 0.116782,2.408523 -1.153986,4.724628 -1.199538,7.135509 -0.0372,1.968957 1.118943,3.923145 0.758835,5.859823 -0.133273,0.716748 -0.477364,1.460549 -1.042373,1.926893 -0.958628,0.791227 -2.630006,1.951798 -3.563793,1.131898 -0.463059,-0.406583 -0.14025,-1.431235 0.348708,-1.806842 0.33634,-0.258369 1.273966,0.07998 1.273966,0.07998"
           id="path8644"
           sodipodi:nodetypes="caaaaaaaaaaac" />
        <path
           style="fill:none;fill-opacity:1;stroke:#000000;stroke-width:0.1851;stroke-linecap:round;stroke-linejoin:round;stroke-dasharray:none;stroke-opacity:1"
           d="m -28.081855,82.717128 c 0,0 -0.289069,1.566969 0.214166,2.029217 1.436099,1.319132 4.140373,1.070676 5.871219,0.163577 1.5963,-0.836587 1.761088,-3.150929 2.923384,-4.52074 1.223557,-1.44201 3.471606,-2.081475 4.202617,-3.820852 0.563453,-1.340686 -0.42788,-2.923795 -0.171802,-4.353823 0.139535,-0.779213 0.121869,-2.079497 0.911588,-2.195486 0.717662,-0.105406 1.282048,0.958254 1.376416,1.671329 0.08619,0.651299 -0.817427,1.796331 -0.817427,1.796331"
           id="path8646"
           sodipodi:nodetypes="caaaaaaac" />
        <path
           style="fill:none;fill-opacity:1;stroke:#000000;stroke-width:0.1851;stroke-linecap:round;stroke-linejoin:round;stroke-dasharray:none;stroke-opacity:1"
           d="m -12.073878,76.1551 c 0.194471,0.323476 1.156675,1.967106 2.1591293,2.289409 1.3676456,0.439717 2.7981232,-0.882951 4.2342679,-0.814978 0.255518,0.01209 0.568096,0.02417 0.7359955,0.215492 1.1989471,1.366181 -0.4012803,4.017222 0.8098849,5.372771 2.6463186,2.961788 7.6619318,4.087102 11.541792,3.15903 1.12217,-0.268426 2.0051659,-1.313709 2.5505291,-2.32229 0.7666143,-1.417757 -0.082038,-3.390415 0.7575043,-4.76698 0.347648,-0.570025 0.950976,-1.108289 1.617527,-1.192549 0.509156,-0.06436 1.292722,0.08322 1.426652,0.574411 0.143922,0.527834 -0.515703,1.057492 -1.010636,1.298838 -0.256787,0.125218 -0.858523,4.57e-4 -0.858523,4.57e-4"
           id="path8648"
           sodipodi:nodetypes="caaaaaaaaaac" />
        <path
           style="fill:none;fill-opacity:1;stroke:#000000;stroke-width:0.1851;stroke-linecap:round;stroke-linejoin:round;stroke-dasharray:none;stroke-opacity:1"
           d="m 16.80245,78.476083 c 0,0 1.834596,-0.02032 2.750671,-0.06421 1.735948,-0.08316 3.793234,0.634522 5.200023,-0.377138 0.540208,-0.388478 0.677781,-1.180022 0.758673,-1.836721 0.172002,-1.396353 -0.617772,-4.175505 -0.617772,-4.175505"
           id="path8650"
           sodipodi:nodetypes="caaac" />
        <path
           style="fill:none;fill-opacity:1;stroke:#000000;stroke-width:0.1851;stroke-linecap:round;stroke-linejoin:round;stroke-dasharray:none;stroke-opacity:1"
           d="m 28.552614,78.291997 c 0,0 -1.185414,0.0718 -1.351622,0.5219 -0.384768,1.041967 0.590727,2.450895 1.602645,2.925169 0.483141,0.226442 1.228764,0.10396 1.574425,-0.300078 0.332311,-0.388434 0.488569,-1.279231 0.03992,-1.527424 -0.289446,-0.160122 -0.832492,0.53913 -0.832492,0.53913"
           id="path8652"
           sodipodi:nodetypes="caaaac" />
        <path
           style="fill:none;fill-opacity:1;stroke:#000000;stroke-width:0.1851;stroke-linecap:round;stroke-linejoin:round;stroke-dasharray:none;stroke-opacity:1"
           d="m 18.937314,56.260808 c 0,0 -0.0093,1.628912 -0.626512,1.81935 -0.763932,0.235701 -1.549406,-0.718869 -1.927578,-1.417798 -0.348047,-0.643254 -0.0549,-1.459355 -0.115233,-2.186841 -0.03771,-0.454658 -0.154126,-1.360021 -0.154126,-1.360021"
           id="path9290"
           sodipodi:nodetypes="caaac" />
        <path
           style="fill:none;fill-opacity:1;stroke:#000000;stroke-width:0.1851;stroke-linecap:round;stroke-linejoin:round;stroke-dasharray:none;stroke-opacity:1"
           d="m 13.88817,58.791492 c 0,0 0.653689,-1.047298 1.099836,-0.890496 0.538127,0.189128 0.537943,1.12889 0.347814,1.662568 -0.382405,1.073381 -1.577293,1.795398 -2.662806,2.166777 -1.919371,0.65666 -4.3322127,0.870859 -6.0898275,-0.136948 -0.7286618,-0.417811 -1.1153795,-1.328922 -1.308461,-2.14113 -0.183314,-0.77112 0.195903,-2.368781 0.195903,-2.368781"
           id="path9292"
           sodipodi:nodetypes="caaaaac" />
        <path
           style="fill:none;fill-opacity:1;stroke:#000000;stroke-width:0.1851;stroke-linecap:round;stroke-linejoin:round;stroke-dasharray:none;stroke-opacity:1"
           d="m 4.2334754,59.694498 c 0,0 -1.7969913,1.915278 -2.9990548,2.30717 -2.2993893,0.749639 -4.8589056,0.131403 -7.2594666,-0.176318 -1.9742403,-0.253072 -4.327513,-0.04941 -5.811071,-1.365208 -0.383849,-0.340444 -0.520728,-1.442133 -0.520728,-1.442133"
           id="path9294"
           sodipodi:nodetypes="caaac" />
        <path
           style="fill:none;fill-opacity:1;stroke:#000000;stroke-width:0.1851;stroke-linecap:round;stroke-linejoin:round;stroke-dasharray:none;stroke-opacity:1"
           d="m -11.837718,64.432491 c 0,0 -0.282183,-1.756891 -0.924078,-2.265379 -0.94104,-0.745461 -2.614396,0.15409 -3.56656,-0.577359 -0.559256,-0.429619 -0.702386,-1.241194 -0.854107,-1.92625 -0.09889,-0.446513 -0.02505,-1.371218 -0.02505,-1.371218"
           id="path9296"
           sodipodi:nodetypes="caaac" />
        <path
           style="fill:none;fill-opacity:1;stroke:#000000;stroke-width:0.1851;stroke-linecap:round;stroke-linejoin:round;stroke-dasharray:none;stroke-opacity:1"
           d="m -18.815823,61.013415 c 0,0 -0.913725,0.924201 -1.515024,1.088176 -2.372689,0.647036 -5.160727,0.45047 -7.352541,-0.658565 -1.16394,-0.588941 -2.449491,-1.640096 -2.576179,-2.929426 -0.156095,-1.588607 1.622773,-2.757454 2.411848,-4.148772 0.60927,-1.074282 1.374708,-2.081406 1.793149,-3.241924 0.205447,-0.569792 0.336872,-1.784306 0.336872,-1.784306"
           id="path9298"
           sodipodi:nodetypes="caaaaac" />
        <path
           style="fill:none;fill-opacity:1;stroke:#000000;stroke-width:0.1851;stroke-linecap:round;stroke-linejoin:round;stroke-dasharray:none;stroke-opacity:1"
           d="m -30.864217,55.802747 c 0,0 -3.856278,1.665229 -5.914032,1.802229 -2.788018,0.185619 -5.815524,-0.03427 -8.27025,-1.357729 -0.93644,-0.50488 -2.283339,-1.295116 -2.153155,-2.343915 0.07319,-0.58965 0.914929,-0.844843 1.496688,-0.987565 0.378016,-0.09274 0.821897,0.305706 1.162181,0.117998 0.899187,-0.496012 0.781218,-1.902288 1.351517,-2.751377 0.220868,-0.328839 0.789858,-0.88971 0.789858,-0.88971"
           id="path9302"
           sodipodi:nodetypes="caaaaaac" />
      </g>
    </g>
  </g>
</svg>
