<?xml version="1.0" encoding="UTF-8" standalone="no"?>
<!-- Created with Inkscape (http://www.inkscape.org/) -->

<svg
   width="182.77805mm"
   height="134.48706mm"
   viewBox="0 0 182.77805 134.48706"
   version="1.1"
   id="svg5"
   inkscape:version="1.2.2 (b0a8486541, 2022-12-01)"
   sodipodi:docname="remaining_exorcist_count.svg"
   xmlns:inkscape="http://www.inkscape.org/namespaces/inkscape"
   xmlns:sodipodi="http://sodipodi.sourceforge.net/DTD/sodipodi-0.dtd"
   xmlns="http://www.w3.org/2000/svg"
   xmlns:svg="http://www.w3.org/2000/svg">
  <sodipodi:namedview
     id="namedview7"
     pagecolor="#4d4d4d"
     bordercolor="#666666"
     borderopacity="1.0"
     inkscape:pageshadow="2"
     inkscape:pageopacity="0"
     inkscape:pagecheckerboard="false"
     inkscape:document-units="mm"
     showgrid="false"
     inkscape:zoom="0.56569164"
     inkscape:cx="455.19499"
     inkscape:cy="279.30411"
     inkscape:window-width="956"
     inkscape:window-height="1037"
     inkscape:window-x="960"
     inkscape:window-y="0"
     inkscape:window-maximized="1"
     inkscape:current-layer="layer1"
     inkscape:showpageshadow="2"
     inkscape:deskcolor="#4d4d4d" />
  <defs
     id="defs2" />
  <g
     inkscape:label="Layer 1"
     inkscape:groupmode="layer"
     id="layer1"
     transform="translate(108.69454,-74.942297)">
    <g
       id="g1486615"
       transform="translate(-197.58865,69.480335)">
      <g
         id="g1507305"
         transform="translate(4.3441608,50.419682)">
        <path
           style="opacity:1;fill:#b0a693;fill-opacity:1;stroke:#000000;stroke-width:0.25;stroke-linecap:round;stroke-linejoin:round;stroke-opacity:1"
           d="M 267.203,89.404348 212.09062,58.275696 188.9159,35.100105 160.17097,26.843067 153.30774,8.9767061 118.61822,-1.7762187 105.89836,-28.157384 84.674927,-44.83272 H 266.71454 Z"
           id="path1416083"
           sodipodi:nodetypes="cccccccccc" />
        <path
           id="path1493382"
           style="fill:#b4aa98;fill-opacity:1;stroke:none;stroke-width:0.25;stroke-linecap:round;stroke-linejoin:round;stroke-opacity:1"
           d="m 131.19007,-44.832595 -11.03654,9.280571 -4.17494,7.374227 13.44156,16.844966 28.47424,5.8523256 17.80319,-3.175293 -1.34447,-9.5896286 10.51295,2.06119 11.67971,-2.525404 -8.40304,22.0071964 11.82608,19.0962376 30.54129,37.254574 26.57874,0.113688 9.94461,-16.979326 -0.31884,-87.615324 z"
           sodipodi:nodetypes="cccccccccccccccc" />
        <path
           id="path1507219"
           style="opacity:1;fill:#b8af9e;fill-opacity:1;stroke:none;stroke-width:0.25;stroke-linecap:round;stroke-linejoin:round;stroke-opacity:1"
           d="m 151.36248,-44.832595 -3.72122,3.925859 -10.97452,8.770007 6.28695,6.648173 14.40842,5.362464 22.35006,-14.14384 -2.65204,-6.957715 1.38286,-3.604948 z m 44.36835,0 10.15545,16.867705 6.25182,15.079699 -1.45935,24.763346 32.74374,4.240052 11.85923,-44.933175 -5.48598,-16.017627 z" />
        <g
           id="g1444355"
           transform="matrix(1.2183978,0,0,1.2176106,394.59888,23.385058)"
           style="stroke-width:0.821016">
          <path
             style="fill:#caadae;fill-opacity:1;stroke:#000000;stroke-width:0.205252;stroke-linecap:round;stroke-linejoin:round;stroke-dasharray:none;stroke-opacity:1"
             d="m -122.40315,7.8831763 c 0,0 1.12656,1.0038261 1.67481,0.735349 1.01493,-0.4970136 0.77274,-2.1406245 0.76091,-3.2522383 -0.0113,-1.0596943 -0.20695,-2.191834 -0.79123,-3.0813655 -0.27774,-0.4218301 -0.69042,-0.948843 -1.20269,-0.936352 -0.57957,0.014274 -0.64137,0.8452375 -0.64137,0.8452375"
             id="path189768-6"
             sodipodi:nodetypes="caaasc" />
          <path
             style="fill:#caadae;fill-opacity:1;stroke:#000000;stroke-width:0.205252;stroke-linecap:round;stroke-linejoin:round;stroke-dasharray:none;stroke-opacity:1"
             d="m -143.06056,8.9069589 c 0,0 -1.02276,1.1103381 -1.59463,0.897401 -1.05871,-0.3942438 -0.97866,-2.0538473 -1.07576,-3.1612212 -0.093,-1.0556342 -0.01,-2.2016607 0.48557,-3.1446429 0.23495,-0.4472486 0.59411,-1.0125071 1.10515,-1.0507268 0.57801,-0.044274 0.72104,0.7776894 0.72104,0.7776894"
             id="path189774-9"
             sodipodi:nodetypes="caaasc" />
          <path
             style="fill:#caadae;fill-opacity:1;stroke:#000000;stroke-width:0.205252;stroke-linecap:round;stroke-linejoin:round;stroke-dasharray:none;stroke-opacity:1"
             d="m -143.95362,2.7194756 2.11174,13.2908444 4.48951,3.67602 4.53799,2.564548 7.97794,-5.48101 3.22378,-14.2127956"
             id="path189770-70" />
          <path
             style="fill:#caadae;fill-opacity:1;stroke:#000000;stroke-width:0.205252;stroke-linecap:round;stroke-linejoin:round;stroke-dasharray:none;stroke-opacity:1"
             d="m -133.37937,8.2624963 -0.21857,2.0031557 c 0,0 -1.01882,0.701377 -0.9844,1.222593 0.0267,0.398749 0.55161,0.584482 0.8696,0.827629 0.4516,0.345274 0.89052,0.917681 1.45889,0.884321 0.57631,-0.03438 0.92633,-0.689332 1.36508,-1.063703 0.23304,-0.198818 0.65782,-0.321587 0.67182,-0.626936 0.023,-0.501994 -1.0056,-1.125093 -1.0056,-1.125093 l -0.24479,-1.7312455 1.35084,-0.066956"
             id="path189816-0"
             sodipodi:nodetypes="ccaaaaaccc" />
          <path
             style="fill:#caadae;fill-opacity:1;stroke:#000000;stroke-width:0.205252;stroke-linecap:round;stroke-linejoin:round;stroke-dasharray:none;stroke-opacity:1"
             d="m -131.17121,9.3773063 2.02536,-0.1004671"
             id="path189818-5"
             sodipodi:nodetypes="cc" />
          <path
             style="fill:#caadae;fill-opacity:1;stroke:#000000;stroke-width:0.205252;stroke-linecap:round;stroke-linejoin:round;stroke-dasharray:none;stroke-opacity:1"
             d="m -130.84931,10.58846 1.87016,-0.09261"
             id="path189820-2"
             sodipodi:nodetypes="cc" />
          <path
             style="fill:#caadae;fill-opacity:1;stroke:#000000;stroke-width:0.205252;stroke-linecap:round;stroke-linejoin:round;stroke-dasharray:none;stroke-opacity:1"
             d="m -130.12907,11.711867 2.00534,-0.09948"
             id="path189822-5"
             sodipodi:nodetypes="cc" />
          <path
             style="fill:#caadae;fill-opacity:1;stroke:#000000;stroke-width:0.205252;stroke-linecap:round;stroke-linejoin:round;stroke-dasharray:none;stroke-opacity:1"
             d="m -132.1335,13.18628 1.07416,-0.05332"
             id="path189824-1"
             sodipodi:nodetypes="cc" />
          <path
             style="fill:#caadae;fill-opacity:1;stroke:#000000;stroke-width:0.205252;stroke-linecap:round;stroke-linejoin:round;stroke-dasharray:none;stroke-opacity:1"
             d="m -131.18452,12.487368 1.82389,-0.09027"
             id="path189826-5"
             sodipodi:nodetypes="cc" />
          <path
             style="fill:#caadae;fill-opacity:1;stroke:#000000;stroke-width:0.205252;stroke-linecap:round;stroke-linejoin:round;stroke-dasharray:none;stroke-opacity:1"
             d="m -131.11074,9.9936415 1.87016,-0.09261"
             id="path189828-1"
             sodipodi:nodetypes="cc" />
          <path
             style="fill:none;fill-opacity:1;stroke:#000000;stroke-width:0.205252;stroke-linecap:round;stroke-linejoin:round;stroke-dasharray:none;stroke-opacity:1"
             d="m -133.53985,9.3994196 c 0,0 -1.62149,1.5042424 -2.17924,2.4528414 -0.51881,0.882371 -1.17969,2.833746 -1.17969,2.833746"
             id="path189842-15"
             sodipodi:nodetypes="csc" />
          <path
             style="fill:none;fill-opacity:1;stroke:#000000;stroke-width:0.205252;stroke-linecap:round;stroke-linejoin:round;stroke-dasharray:none;stroke-opacity:1"
             d="m -131.2263,9.609285 c 0,0 1.87807,1.009612 2.52533,1.819262 0.73923,0.924695 1.38818,3.266563 1.38818,3.266563"
             id="path189844-8"
             sodipodi:nodetypes="csc" />
          <path
             style="fill:#d2e0e0;fill-opacity:1;stroke:#000000;stroke-width:0.205252;stroke-linecap:round;stroke-linejoin:round;stroke-dasharray:none;stroke-opacity:1"
             d="m -144.95992,3.2054088 3.64434,-37.9997238 8.19075,-10.899688 9.23778,10.279114 3.09965,38.0357551 c 0,0 -8.6304,1.0028555 -13.18449,1.1327948 -3.27812,0.093398 -10.98802,-0.5481317 -10.98802,-0.5481317 z"
             id="path200060-8"
             sodipodi:nodetypes="cccccsc" />
          <path
             style="fill:#ed7878;fill-opacity:1;stroke:#000000;stroke-width:0.205252;stroke-linecap:round;stroke-linejoin:round;stroke-dasharray:none;stroke-opacity:1"
             d="m -139.84528,19.314004 0.30581,-1.303492"
             id="path235338-62" />
          <path
             style="fill:#ed7878;fill-opacity:1;stroke:#000000;stroke-width:0.205252;stroke-linecap:round;stroke-linejoin:round;stroke-dasharray:none;stroke-opacity:1"
             d="m -138.97519,20.43905 0.38495,-1.649076"
             id="path235340-5"
             sodipodi:nodetypes="cc" />
          <path
             style="fill:#ed7878;fill-opacity:1;stroke:#000000;stroke-width:0.205252;stroke-linecap:round;stroke-linejoin:round;stroke-dasharray:none;stroke-opacity:1"
             d="m -140.65138,18.063744 0.17041,-0.822797"
             id="path235342-1"
             sodipodi:nodetypes="cc" />
          <path
             style="fill:#ed7878;fill-opacity:1;stroke:#000000;stroke-width:0.205252;stroke-linecap:round;stroke-linejoin:round;stroke-dasharray:none;stroke-opacity:1"
             d="m -138.00198,21.482434 0.44123,-1.794742"
             id="path235344-0"
             sodipodi:nodetypes="cc" />
          <path
             style="fill:#ed7878;fill-opacity:1;stroke:#000000;stroke-width:0.205252;stroke-linecap:round;stroke-linejoin:round;stroke-dasharray:none;stroke-opacity:1"
             d="m -137.0688,22.326692 0.4962,-2.090377"
             id="path235346-0"
             sodipodi:nodetypes="cc" />
          <path
             style="fill:#ed7878;fill-opacity:1;stroke:#000000;stroke-width:0.205252;stroke-linecap:round;stroke-linejoin:round;stroke-dasharray:none;stroke-opacity:1"
             d="m -135.83765,23.027877 0.49622,-2.090379"
             id="path235348-0"
             sodipodi:nodetypes="cc" />
          <path
             style="fill:#ed7878;fill-opacity:1;stroke:#000000;stroke-width:0.205252;stroke-linecap:round;stroke-linejoin:round;stroke-dasharray:none;stroke-opacity:1"
             d="m -134.78924,23.662371 0.49623,-2.090379"
             id="path235350-8"
             sodipodi:nodetypes="cc" />
          <path
             style="fill:#ed7878;fill-opacity:1;stroke:#000000;stroke-width:0.205252;stroke-linecap:round;stroke-linejoin:round;stroke-dasharray:none;stroke-opacity:1"
             d="m -133.40856,23.955387 0.40354,-1.764703"
             id="path235352-28"
             sodipodi:nodetypes="cc" />
          <path
             style="fill:#ed7878;fill-opacity:1;stroke:#000000;stroke-width:0.205252;stroke-linecap:round;stroke-linejoin:round;stroke-dasharray:none;stroke-opacity:1"
             d="m -132.01854,23.869335 0.53947,-2.359161"
             id="path235354-87"
             sodipodi:nodetypes="cc" />
          <path
             style="fill:#ed7878;fill-opacity:1;stroke:#000000;stroke-width:0.205252;stroke-linecap:round;stroke-linejoin:round;stroke-dasharray:none;stroke-opacity:1"
             d="m -130.66271,23.745865 0.66316,-3.347094"
             id="path235356-0"
             sodipodi:nodetypes="cc" />
          <path
             style="fill:#ed7878;fill-opacity:1;stroke:#000000;stroke-width:0.205252;stroke-linecap:round;stroke-linejoin:round;stroke-dasharray:none;stroke-opacity:1"
             d="m -129.27304,23.427873 0.82548,-4.011249"
             id="path235358-1"
             sodipodi:nodetypes="cc" />
          <path
             style="fill:#ed7878;fill-opacity:1;stroke:#000000;stroke-width:0.205252;stroke-linecap:round;stroke-linejoin:round;stroke-dasharray:none;stroke-opacity:1"
             d="m -127.49014,22.582639 0.81798,-4.511163"
             id="path235360-5"
             sodipodi:nodetypes="cc" />
          <path
             style="fill:#ed7878;fill-opacity:1;stroke:#000000;stroke-width:0.205252;stroke-linecap:round;stroke-linejoin:round;stroke-dasharray:none;stroke-opacity:1"
             d="m -126.07025,21.465605 0.81529,-4.315646"
             id="path235362-0"
             sodipodi:nodetypes="cc" />
          <path
             id="path30183-6-7"
             style="fill:#e6d199;fill-opacity:1;stroke:#000000;stroke-width:0.205252;stroke-linecap:round;stroke-linejoin:round;stroke-dasharray:none;stroke-opacity:1"
             d="m -115.07999,22.409855 -2.66227,-21.50675081 c 4.76986,-1.36227067 7.8628,-5.94586959 7.32392,-10.85369659 -0.61437,-5.5642256 -5.64502,-9.5750666 -11.23639,-8.9584636 -0.50514,0.05544 -1.00541,0.148255 -1.49666,0.277927 v 1.4e-5 c -4.87146,1.289356 -8.06636,5.929689 -7.51488,10.9146971 0.54561,4.9102776 4.5692,8.71040728 9.52493,8.9960513 l 2.54169,18.0102196 m -4.74102,-34.042764 0.44457,4.02262 -4.05752,0.447131 c 0.45084,-1.962637 1.78311,-3.610842 3.61304,-4.469763 z m 4.12422,-0.498566 c 2.02419,0.412265 3.73538,1.746982 4.62104,3.604377 l -4.17176,0.460796 z m -7.33333,9.0825554 4.10764,-0.4536323 0.46059,4.174275 c -2.02841,-0.4519584 -3.72206,-1.8314072 -4.56816,-3.7206565 z m 8.23571,-0.9081451 4.21573,-0.4658635 c -0.42104,2.0682992 -1.81721,3.8090373 -3.75063,4.6763317 z"
             sodipodi:nodetypes="ccccccccccccccccccccccccccc" />
          <path
             style="fill:none;fill-opacity:1;stroke:#000000;stroke-width:0.205252;stroke-linecap:round;stroke-linejoin:round;stroke-dasharray:none;stroke-opacity:1"
             d="m -144.84897,2.0486366 c 0.54891,0.3352391 1.67855,0.479566 3.04589,0.2930574"
             id="path239606-2"
             sodipodi:nodetypes="cc" />
          <path
             style="fill:none;fill-opacity:1;stroke:#000000;stroke-width:0.205252;stroke-linecap:round;stroke-linejoin:round;stroke-dasharray:none;stroke-opacity:1"
             d="m -144.73503,0.86043096 c 2.15201,0.94968894 4.68325,0.51791014 6.7978,0.32741604"
             id="path239608-3"
             sodipodi:nodetypes="cc" />
          <path
             style="fill:none;fill-opacity:1;stroke:#000000;stroke-width:0.205252;stroke-linecap:round;stroke-linejoin:round;stroke-dasharray:none;stroke-opacity:1"
             d="m -144.41942,-1.5176597 c 1.63876,0.4877712 3.45701,0.4860059 5.27994,0.471506"
             id="path239610-6"
             sodipodi:nodetypes="cc" />
          <path
             style="fill:none;fill-opacity:1;stroke:#000000;stroke-width:0.205252;stroke-linecap:round;stroke-linejoin:round;stroke-dasharray:none;stroke-opacity:1"
             d="m -144.47451,-0.39794706 c 0.67341,0.3154522 1.42747,0.6429724 2.25248,0.40132904"
             id="path239612-0"
             sodipodi:nodetypes="cc" />
          <path
             style="fill:none;fill-opacity:1;stroke:#000000;stroke-width:0.205252;stroke-linecap:round;stroke-linejoin:round;stroke-dasharray:none;stroke-opacity:1"
             d="m -144.31343,-2.8854824 c 1.35788,0.3213425 2.75016,0.5469037 4.26972,0.4182715"
             id="path239614-9"
             sodipodi:nodetypes="cc" />
          <path
             style="fill:none;fill-opacity:1;stroke:#000000;stroke-width:0.205252;stroke-linecap:round;stroke-linejoin:round;stroke-dasharray:none;stroke-opacity:1"
             d="m -144.18775,-4.230599 c 1.01708,0.3178376 2.06239,0.5096927 3.17774,0.3891482"
             id="path239616-0"
             sodipodi:nodetypes="cc" />
          <path
             style="fill:none;fill-opacity:1;stroke:#000000;stroke-width:0.205252;stroke-linecap:round;stroke-linejoin:round;stroke-dasharray:none;stroke-opacity:1"
             d="m -144.0215,-5.8754239 c 2.15344,0.4670748 4.50247,0.3677551 6.80867,0.3924283"
             id="path239618-7"
             sodipodi:nodetypes="cc" />
          <path
             style="fill:none;fill-opacity:1;stroke:#000000;stroke-width:0.205252;stroke-linecap:round;stroke-linejoin:round;stroke-dasharray:none;stroke-opacity:1"
             d="m -143.91193,-7.1340426 c 1.24813,0.196921 2.58103,0.2949618 3.98006,0.3158332"
             id="path239620-0"
             sodipodi:nodetypes="cc" />
          <path
             style="fill:none;fill-opacity:1;stroke:#000000;stroke-width:0.205252;stroke-linecap:round;stroke-linejoin:round;stroke-dasharray:none;stroke-opacity:1"
             d="m -143.74593,-8.7016995 c 0.65115,0.2968929 1.40762,0.3359766 2.22563,0.2244282"
             id="path239622-2"
             sodipodi:nodetypes="cc" />
          <path
             style="fill:none;fill-opacity:1;stroke:#000000;stroke-width:0.205252;stroke-linecap:round;stroke-linejoin:round;stroke-dasharray:none;stroke-opacity:1"
             d="m -143.6927,-10.007874 c 1.32444,0.4338569 2.78521,0.4441635 4.26683,0.3896643"
             id="path239624-0"
             sodipodi:nodetypes="cc" />
          <path
             style="fill:none;fill-opacity:1;stroke:#000000;stroke-width:0.205252;stroke-linecap:round;stroke-linejoin:round;stroke-dasharray:none;stroke-opacity:1"
             d="m -143.48522,-12.171342 c 2.41752,0.507378 4.97986,0.469892 7.503,0.579997"
             id="path239626-0"
             sodipodi:nodetypes="cc" />
          <path
             style="fill:none;fill-opacity:1;stroke:#000000;stroke-width:0.205252;stroke-linecap:round;stroke-linejoin:round;stroke-dasharray:none;stroke-opacity:1"
             d="m -143.37419,-13.329071 c 1.34155,0.233348 2.68371,0.448161 4.03859,0.277295"
             id="path239628-0"
             sodipodi:nodetypes="cc" />
          <path
             style="fill:none;fill-opacity:1;stroke:#000000;stroke-width:0.205252;stroke-linecap:round;stroke-linejoin:round;stroke-dasharray:none;stroke-opacity:1"
             d="m -143.57193,-11.26717 c 0.87108,0.225401 1.75427,0.414299 2.74193,0.288438"
             id="path239630-4"
             sodipodi:nodetypes="cc" />
          <path
             style="fill:none;fill-opacity:1;stroke:#000000;stroke-width:0.205252;stroke-linecap:round;stroke-linejoin:round;stroke-dasharray:none;stroke-opacity:1"
             d="m -143.26704,-14.44629 c 0.81404,0.183691 1.61592,0.395296 2.5859,0.22058"
             id="path239632-0"
             sodipodi:nodetypes="cc" />
          <path
             style="fill:none;fill-opacity:1;stroke:#000000;stroke-width:0.205252;stroke-linecap:round;stroke-linejoin:round;stroke-dasharray:none;stroke-opacity:1"
             d="m -143.13775,-15.794449 c 2.25915,0.665379 4.69785,0.677943 7.18779,0.574566"
             id="path239634-81"
             sodipodi:nodetypes="cc" />
          <path
             style="fill:none;fill-opacity:1;stroke:#000000;stroke-width:0.205252;stroke-linecap:round;stroke-linejoin:round;stroke-dasharray:none;stroke-opacity:1"
             d="m -143.002,-17.209871 c 1.32759,0.295693 2.61583,0.751453 4.11984,0.329455"
             id="path239636-1"
             sodipodi:nodetypes="cc" />
          <path
             style="fill:none;fill-opacity:1;stroke:#000000;stroke-width:0.205252;stroke-linecap:round;stroke-linejoin:round;stroke-dasharray:none;stroke-opacity:1"
             d="m -142.86122,-18.678019 c 2.18514,0.51343 4.35049,0.601002 6.50647,0.486899"
             id="path239638-9"
             sodipodi:nodetypes="cc" />
          <path
             style="fill:none;fill-opacity:1;stroke:#000000;stroke-width:0.205252;stroke-linecap:round;stroke-linejoin:round;stroke-dasharray:none;stroke-opacity:1"
             d="m -142.62352,-21.156297 c 0.94968,0.328461 1.8905,0.457606 2.8155,0.22979"
             id="path239640-9"
             sodipodi:nodetypes="cc" />
          <path
             style="fill:none;fill-opacity:1;stroke:#000000;stroke-width:0.205252;stroke-linecap:round;stroke-linejoin:round;stroke-dasharray:none;stroke-opacity:1"
             d="m -142.37458,-23.752124 c 1.29371,0.432033 2.59813,0.327794 3.90054,0.324539"
             id="path239642-3"
             sodipodi:nodetypes="cc" />
          <path
             style="fill:none;fill-opacity:1;stroke:#000000;stroke-width:0.205252;stroke-linecap:round;stroke-linejoin:round;stroke-dasharray:none;stroke-opacity:1"
             d="m -142.22359,-25.326567 c 2.25805,0.841642 4.56786,0.569998 6.86641,0.540355"
             id="path239644-9"
             sodipodi:nodetypes="cc" />
          <path
             style="fill:none;fill-opacity:1;stroke:#000000;stroke-width:0.205252;stroke-linecap:round;stroke-linejoin:round;stroke-dasharray:none;stroke-opacity:1"
             d="m -142.08398,-26.782091 c 1.66981,0.500533 3.28645,0.456133 4.90317,0.412459"
             id="path239646-9"
             sodipodi:nodetypes="cc" />
          <path
             style="fill:none;fill-opacity:1;stroke:#000000;stroke-width:0.205252;stroke-linecap:round;stroke-linejoin:round;stroke-dasharray:none;stroke-opacity:1"
             d="m -141.9745,-27.923696 c 0.78465,0.224885 1.53341,0.262306 2.26383,0.179977"
             id="path239648-1"
             sodipodi:nodetypes="cc" />
          <path
             style="fill:none;fill-opacity:1;stroke:#000000;stroke-width:0.205252;stroke-linecap:round;stroke-linejoin:round;stroke-dasharray:none;stroke-opacity:1"
             d="m -141.86471,-29.068562 c 1.10706,0.325801 2.32748,0.277725 3.52648,0.300273"
             id="path239650-2"
             sodipodi:nodetypes="cc" />
          <path
             style="fill:none;fill-opacity:1;stroke:#000000;stroke-width:0.205252;stroke-linecap:round;stroke-linejoin:round;stroke-dasharray:none;stroke-opacity:1"
             d="m -140.0902,11.702352 c 0,0 1.22284,1.209038 1.27493,1.996007 0.0485,0.722508 -0.91877,1.971616 -0.91877,1.971616"
             id="path248369-6"
             sodipodi:nodetypes="cac" />
          <path
             style="fill:none;fill-opacity:1;stroke:#000000;stroke-width:0.205252;stroke-linecap:round;stroke-linejoin:round;stroke-dasharray:none;stroke-opacity:1"
             d="m -125.68056,10.897139 c 0,0 -0.9659,1.422727 -0.86481,2.204912 0.0921,0.718252 1.28279,1.756676 1.28279,1.756676"
             id="path248371-4"
             sodipodi:nodetypes="cac" />
          <path
             style="fill:none;fill-opacity:1;stroke:#000000;stroke-width:0.205252;stroke-linecap:round;stroke-linejoin:round;stroke-opacity:1"
             d="m -127.46754,-14.754408 c 0,0 2.28949,-2.246602 3.75197,-2.789157 1.51602,-0.562406 3.24979,-0.639524 4.84003,-0.347151 0.99728,0.183353 2.75552,1.282365 2.75552,1.282365"
             id="path691157-7"
             sodipodi:nodetypes="caac" />
          <path
             style="fill:none;fill-opacity:1;stroke:#000000;stroke-width:0.205252;stroke-linecap:round;stroke-linejoin:round;stroke-opacity:1"
             d="m -124.57323,-15.522661 c 0,0 1.15064,-0.836749 1.81658,-1.054104 0.89574,-0.29236 1.8708,-0.350081 2.81169,-0.297367 0.63023,0.03531 1.84846,0.408243 1.84846,0.408243"
             id="path691159-9"
             sodipodi:nodetypes="caac" />
          <path
             style="fill:none;fill-opacity:1;stroke:#000000;stroke-width:0.205252;stroke-linecap:round;stroke-linejoin:round;stroke-opacity:1"
             d="m -121.10506,-2.7188 -0.3157,-3.2336492"
             id="path691167-3" />
          <path
             style="fill:none;fill-opacity:1;stroke:#000000;stroke-width:0.205252;stroke-linecap:round;stroke-linejoin:round;stroke-opacity:1"
             d="m -120.28125,-4.0737575 -0.26678,-2.732518"
             id="path691169-2" />
          <path
             style="fill:none;fill-opacity:1;stroke:#000000;stroke-width:0.205252;stroke-linecap:round;stroke-linejoin:round;stroke-opacity:1"
             d="m -117.37964,-0.19320302 c 0,0 2.03376,-0.97650838 2.842,-1.73601718 0.96246,-0.9044234 1.70192,-2.0533718 2.26792,-3.2441028 0.25345,-0.5332075 0.48422,-1.7024938 0.48422,-1.7024938"
             id="path691171-8"
             sodipodi:nodetypes="caac" />
          <path
             style="fill:none;fill-opacity:1;stroke:#000000;stroke-width:0.205252;stroke-linecap:round;stroke-linejoin:round;stroke-opacity:1"
             d="m -116.32566,-1.8758159 c 0,0 1.63475,-1.0802908 2.22538,-1.8386739 0.61978,-0.7958258 1.29477,-2.7316905 1.29477,-2.7316905"
             id="path691173-7"
             sodipodi:nodetypes="cac" />
          <path
             style="fill:none;fill-opacity:1;stroke:#000000;stroke-width:0.205252;stroke-linecap:round;stroke-linejoin:round;stroke-opacity:1"
             d="m -123.55043,-0.23200719 c 0,0 -2.83737,-1.30668721 -3.85973,-2.42901801 -0.92671,-1.0173198 -1.49395,-2.3563115 -1.85985,-3.6806337 -0.31775,-1.1495927 -0.25435,-3.5684775 -0.25435,-3.5684775"
             id="path691175-5"
             sodipodi:nodetypes="caac" />
          <path
             style="fill:none;fill-opacity:1;stroke:#000000;stroke-width:0.205252;stroke-linecap:round;stroke-linejoin:round;stroke-opacity:1"
             d="m -125.10589,-2.611379 c 0,0 -1.12291,-0.5791734 -1.5451,-1.0311607 -0.70048,-0.7498895 -1.52789,-2.6691113 -1.52789,-2.6691113"
             id="path691177-6"
             sodipodi:nodetypes="cac" />
          <path
             style="fill:none;fill-opacity:1;stroke:#000000;stroke-width:0.205252;stroke-linecap:round;stroke-linejoin:round;stroke-opacity:1"
             d="m -117.38703,12.72611 -1.3617,-11.175374"
             id="path696128-0" />
          <path
             style="fill:none;fill-opacity:1;stroke:#000000;stroke-width:0.205252;stroke-linecap:round;stroke-linejoin:round;stroke-opacity:1"
             d="m -118.5967,10.701846 -0.93506,-6.3106372"
             id="path696130-4" />
          <path
             style="opacity:1;fill:#b0a693;fill-opacity:1;stroke:#000000;stroke-width:0.205252;stroke-linecap:round;stroke-linejoin:round;stroke-opacity:1"
             d="m -117.9416,16.00556 1.08778,11.141737"
             id="path1430773" />
          <path
             style="opacity:1;fill:#b0a693;fill-opacity:1;stroke:#000000;stroke-width:0.205252;stroke-linecap:round;stroke-linejoin:round;stroke-opacity:1"
             d="m -116.37323,22.952745 -0.83783,-8.581616"
             id="path1430775" />
          <path
             style="opacity:1;fill:#b0a693;fill-opacity:1;stroke:#000000;stroke-width:0.205252;stroke-linecap:round;stroke-linejoin:round;stroke-opacity:1"
             d="m -118.40464,14.50089 -0.21322,-2.183938"
             id="path1430777" />
          <path
             style="opacity:1;fill:#c98383;fill-opacity:1;stroke:#000000;stroke-width:0.205254;stroke-linecap:round;stroke-linejoin:round;stroke-opacity:1"
             d="m -136.42615,15.886371 c 0,0 -0.0718,1.445343 0.22771,2.072298 0.32071,0.671219 0.8575,1.379108 1.57258,1.58288 0.40187,0.11452 0.89398,-0.02811 1.21955,-0.290201 0.29399,-0.236669 0.45061,-0.64495 0.49167,-1.020275 0.0623,-0.569238 -0.29667,-1.107801 -0.39347,-1.672189 -0.0733,-0.427268 -0.14098,-1.29287 -0.14098,-1.29287"
             id="path1550874"
             sodipodi:nodetypes="caaaaac" />
          <path
             style="fill:none;fill-opacity:1;stroke:#000000;stroke-width:0.205252;stroke-linecap:round;stroke-linejoin:round;stroke-dasharray:none;stroke-opacity:1"
             d="m -138.05503,16.418587 c 0,0 3.30116,-1.22417 5.01162,-1.134881 0.23684,0.01236 0.43686,0.242557 0.67383,0.228542 0.21057,-0.01081 0.36145,-0.246943 0.57065,-0.272148 1.5108,-0.182019 4.46944,0.930386 4.46944,0.930386"
             id="path189872-3"
             sodipodi:nodetypes="caaac" />
          <path
             style="opacity:1;fill:#c98383;fill-opacity:1;stroke:#000000;stroke-width:0.205254;stroke-linecap:round;stroke-linejoin:round;stroke-opacity:1"
             d="m -134.11713,19.030205 c 0,0 0.0217,-0.824809 -0.14534,-1.186551 -0.1101,-0.238485 -0.41407,-0.345968 -0.53314,-0.580097 -0.0814,-0.160003 -0.10584,-0.528075 -0.10584,-0.528075"
             id="path1557928"
             sodipodi:nodetypes="caac" />
        </g>
        <path
           style="opacity:1;fill:none;fill-opacity:1;stroke:#000000;stroke-width:0.25;stroke-linecap:round;stroke-linejoin:round;stroke-opacity:1"
           d="M 267.203,89.404348 212.09062,58.275696 188.9159,35.100105 160.17097,26.843067 153.30774,8.9767061 118.61822,-1.7762187 105.89836,-28.157384 84.674927,-44.83272 H 266.71454 Z"
           id="path1507224"
           sodipodi:nodetypes="cccccccccc" />
        <g
           id="g1550745"
           transform="translate(-1.539679,-0.44248381)">
          <g
             id="g1550723"
             transform="translate(-0.21760601,0.48648127)">
            <path
               style="opacity:1;fill:#8a4242;fill-opacity:1;stroke:#000000;stroke-width:0.25;stroke-linecap:round;stroke-linejoin:round;stroke-opacity:1"
               d="m 222.46686,33.980192 c 0,0 3.01385,-1.857878 4.31936,-3.038845 1.39032,-1.25768 3.67972,-4.253516 3.67972,-4.253516 l 0.17677,0.49702 1.42494,0.225981 c 0,0 -2.51151,2.934607 -3.89925,4.273552 -1.2964,1.250823 -4.12006,3.497444 -4.12006,3.497444 l -0.34047,-0.353113 z"
               id="path1528600"
               sodipodi:nodetypes="cacccaccc" />
            <path
               style="opacity:1;fill:none;fill-opacity:1;stroke:#000000;stroke-width:0.25;stroke-linecap:round;stroke-linejoin:round;stroke-opacity:1"
               d="m 224.27113,34.234602 2.85549,-2.317406 0.67924,-0.973296"
               id="path1528811"
               sodipodi:nodetypes="ccc" />
            <path
               style="opacity:1;fill:none;fill-opacity:1;stroke:#000000;stroke-width:0.25;stroke-linecap:round;stroke-linejoin:round;stroke-opacity:1"
               d="m 226.24781,32.06785 2.4552,-2.490153"
               id="path1528813"
               sodipodi:nodetypes="cc" />
            <path
               style="opacity:1;fill:none;fill-opacity:1;stroke:#000000;stroke-width:0.25;stroke-linecap:round;stroke-linejoin:round;stroke-opacity:1"
               d="m 228.83411,30.176 2.29124,-2.174505 -0.81465,-0.04289 0.13962,-0.256117"
               id="path1528815"
               sodipodi:nodetypes="cccc" />
          </g>
          <g
             id="g1550733"
             transform="matrix(0.99947053,-0.03253713,-0.03253713,-0.99947053,0.90925389,69.734394)">
            <path
               style="opacity:1;fill:#8a4242;fill-opacity:1;stroke:#000000;stroke-width:0.25;stroke-linecap:round;stroke-linejoin:round;stroke-opacity:1"
               d="m 222.46686,33.980192 c 0,0 3.01385,-1.857878 4.31936,-3.038845 1.39032,-1.25768 3.67972,-4.253516 3.67972,-4.253516 l 0.17677,0.49702 1.42494,0.225981 c 0,0 -2.51151,2.934607 -3.89925,4.273552 -1.2964,1.250823 -4.12006,3.497444 -4.12006,3.497444 l -0.34047,-0.353113 z"
               id="path1550725"
               sodipodi:nodetypes="cacccaccc" />
            <path
               style="opacity:1;fill:none;fill-opacity:1;stroke:#000000;stroke-width:0.25;stroke-linecap:round;stroke-linejoin:round;stroke-opacity:1"
               d="m 224.27113,34.234602 2.85549,-2.317406 0.67924,-0.973296"
               id="path1550727"
               sodipodi:nodetypes="ccc" />
            <path
               style="opacity:1;fill:none;fill-opacity:1;stroke:#000000;stroke-width:0.25;stroke-linecap:round;stroke-linejoin:round;stroke-opacity:1"
               d="m 226.24781,32.06785 2.4552,-2.490153"
               id="path1550729"
               sodipodi:nodetypes="cc" />
            <path
               style="opacity:1;fill:none;fill-opacity:1;stroke:#000000;stroke-width:0.25;stroke-linecap:round;stroke-linejoin:round;stroke-opacity:1"
               d="m 228.83411,30.176 2.29124,-2.174505 -0.81465,-0.04289 0.13962,-0.256117"
               id="path1550731"
               sodipodi:nodetypes="cccc" />
          </g>
        </g>
        <g
           id="g1550767"
           transform="translate(11.696555,-1.4301618)">
          <g
             id="g1550755"
             transform="translate(-0.21760601,0.48648127)">
            <path
               style="opacity:1;fill:#8a4242;fill-opacity:1;stroke:#000000;stroke-width:0.25;stroke-linecap:round;stroke-linejoin:round;stroke-opacity:1"
               d="m 222.46686,33.980192 c 0,0 3.01385,-1.857878 4.31936,-3.038845 1.39032,-1.25768 3.67972,-4.253516 3.67972,-4.253516 l 0.17677,0.49702 1.42494,0.225981 c 0,0 -2.51151,2.934607 -3.89925,4.273552 -1.2964,1.250823 -4.12006,3.497444 -4.12006,3.497444 l -0.34047,-0.353113 z"
               id="path1550747"
               sodipodi:nodetypes="cacccaccc" />
            <path
               style="opacity:1;fill:none;fill-opacity:1;stroke:#000000;stroke-width:0.25;stroke-linecap:round;stroke-linejoin:round;stroke-opacity:1"
               d="m 224.27113,34.234602 2.85549,-2.317406 0.67924,-0.973296"
               id="path1550749"
               sodipodi:nodetypes="ccc" />
            <path
               style="opacity:1;fill:none;fill-opacity:1;stroke:#000000;stroke-width:0.25;stroke-linecap:round;stroke-linejoin:round;stroke-opacity:1"
               d="m 226.24781,32.06785 2.4552,-2.490153"
               id="path1550751"
               sodipodi:nodetypes="cc" />
            <path
               style="opacity:1;fill:none;fill-opacity:1;stroke:#000000;stroke-width:0.25;stroke-linecap:round;stroke-linejoin:round;stroke-opacity:1"
               d="m 228.83411,30.176 2.29124,-2.174505 -0.81465,-0.04289 0.13962,-0.256117"
               id="path1550753"
               sodipodi:nodetypes="cccc" />
          </g>
          <g
             id="g1550765"
             transform="matrix(0.99947053,-0.03253713,-0.03253713,-0.99947053,0.90925389,69.734394)">
            <path
               style="opacity:1;fill:#8a4242;fill-opacity:1;stroke:#000000;stroke-width:0.25;stroke-linecap:round;stroke-linejoin:round;stroke-opacity:1"
               d="m 222.46686,33.980192 c 0,0 3.01385,-1.857878 4.31936,-3.038845 1.39032,-1.25768 3.67972,-4.253516 3.67972,-4.253516 l 0.17677,0.49702 1.42494,0.225981 c 0,0 -2.51151,2.934607 -3.89925,4.273552 -1.2964,1.250823 -4.12006,3.497444 -4.12006,3.497444 l -0.34047,-0.353113 z"
               id="path1550757"
               sodipodi:nodetypes="cacccaccc" />
            <path
               style="opacity:1;fill:none;fill-opacity:1;stroke:#000000;stroke-width:0.25;stroke-linecap:round;stroke-linejoin:round;stroke-opacity:1"
               d="m 224.27113,34.234602 2.85549,-2.317406 0.67924,-0.973296"
               id="path1550759"
               sodipodi:nodetypes="ccc" />
            <path
               style="opacity:1;fill:none;fill-opacity:1;stroke:#000000;stroke-width:0.25;stroke-linecap:round;stroke-linejoin:round;stroke-opacity:1"
               d="m 226.24781,32.06785 2.4552,-2.490153"
               id="path1550761"
               sodipodi:nodetypes="cc" />
            <path
               style="opacity:1;fill:none;fill-opacity:1;stroke:#000000;stroke-width:0.25;stroke-linecap:round;stroke-linejoin:round;stroke-opacity:1"
               d="m 228.83411,30.176 2.29124,-2.174505 -0.81465,-0.04289 0.13962,-0.256117"
               id="path1550763"
               sodipodi:nodetypes="cccc" />
          </g>
        </g>
      </g>
    </g>
  </g>
</svg>
