<?xml version="1.0" encoding="UTF-8" standalone="no"?>
<!-- Created with Inkscape (http://www.inkscape.org/) -->

<svg
   sodipodi:docname="victory.svg"
   inkscape:version="1.2.2 (b0a8486541, 2022-12-01)"
   id="svg5"
   version="1.1"
   viewBox="0 0 205.96902 153.37885"
   height="153.37885mm"
   width="205.96902mm"
   xmlns:inkscape="http://www.inkscape.org/namespaces/inkscape"
   xmlns:sodipodi="http://sodipodi.sourceforge.net/DTD/sodipodi-0.dtd"
   xmlns="http://www.w3.org/2000/svg"
   xmlns:svg="http://www.w3.org/2000/svg">
  <sodipodi:namedview
     id="namedview7"
     pagecolor="#4d4d4d"
     bordercolor="#666666"
     borderopacity="1.0"
     inkscape:pageshadow="2"
     inkscape:pageopacity="0"
     inkscape:pagecheckerboard="false"
     inkscape:document-units="mm"
     showgrid="false"
     inkscape:zoom="1.6000176"
     inkscape:cx="559.05636"
     inkscape:cy="518.11931"
     inkscape:window-width="1916"
     inkscape:window-height="1037"
     inkscape:window-x="0"
     inkscape:window-y="0"
     inkscape:window-maximized="1"
     inkscape:current-layer="layer1"
     inkscape:showpageshadow="2"
     inkscape:deskcolor="#4d4d4d"
     showguides="true" />
  <defs
     id="defs2" />
  <g
     inkscape:label="Layer 1"
     inkscape:groupmode="layer"
     id="layer1"
     transform="translate(54.5538, -83.8182)">
    <path
       style="fill:none;stroke:#000000;stroke-width:0.5;stroke-linecap:round;stroke-linejoin:round;stroke-dasharray:none"
       d="m -45.072683,86.964355 -3.93324,3.93324 m -2.957338,5.785765 6.581497,-6.581497 m -0.309082,3.137509 -7.494855,7.494858 m -0.633293,3.46172 7.819066,-7.819069 m 0.385171,2.443256 -8.505837,8.505833 m -0.07239,2.90082 9.409495,-9.40949 m 0.942473,1.88595 -10.253624,10.25363 m 0.358291,2.47013 10.977553,-10.97755 m 1.029853,1.79858 -11.35999,11.35998 m 19.425928,-16.5975 0.57824,-0.57824 m -9.431781,9.43179 -9.618548,9.61854 m 19.610494,-16.78206 1.21489,-1.21489 m -11.190135,11.19013 -8.435314,8.43532 m 19.341012,-16.51259 1.992507,-1.99251 m -11.758102,11.7581 -8.250265,8.25027 m 18.717966,-15.88954 2.775463,-2.77546 m -12.103061,12.10306 -8.015831,8.01583 m 18.977576,-16.14915 2.340269,-2.34027 m -12.161912,12.16191 -7.816474,7.81648 m 19.490217,-16.66179 1.649715,-1.64972 m -12.183355,12.18336 -7.732329,7.73233 m 20.886297,-18.05787 0.376528,-0.37653 m -12.49939,12.49939 -7.698789,7.69879 m 28.654659,-25.82623 1.886624,-1.88663 m -21.825031,21.82503 -7.733931,7.73393 m 26.022229,-23.1938 4.369877,-4.36987 m -21.640713,21.64071 -7.841613,7.84161 m 26.462058,-23.63363 3.792799,-3.7928 m -21.395781,21.39578 -8.043334,8.04334 M 4.842316,90.789471 5.810477,89.82131 m -17.590328,17.59033 -3.123501,3.1235 m -26.279192,26.27919 8.344064,-8.34406 M 6.062067,92.398147 4.333785,94.126429 m -16.29065,16.290651 0.723464,-0.72346 m -20.635463,20.63546 -8.715966,8.71596 M 3.747143,97.541498 6.313658,94.974983 m -37.61781,37.617807 -8.827118,8.82712 M 3.007274,101.10979 6.565249,97.551819 m -37.304688,37.304691 -9.032513,9.03251 m 41.440027,-38.6116 5.148764,-5.14876 m -36.991566,36.99156 -9.318945,9.31895 m 39.285258,-36.45683 7.247718,-7.24772 m -36.649318,36.64932 -9.64713,9.64713 m 57.111063,-54.28264 0.511103,-0.511103 m -11.591054,11.591053 -7.645726,7.64573 m -38.145749,38.14575 9.972205,-9.97221 M 19.914151,95.516626 18.648099,96.782678 M -0.970319,116.4011 7.315716,108.11506 m -35.796305,35.79631 -10.24994,10.24994 M 19.234448,99.024756 21.370055,96.889149 M 7.51502,110.74418 l -8.41531,8.41531 m -37.458312,37.45832 10.442726,-10.44273 m 50.591342,-47.762915 -3.543468,3.543465 m -19.660041,19.66004 7.847696,-7.84769 m -34.670817,34.67081 -10.548671,10.54868 m 52.886592,-50.05817 8.516314,-8.51631 m -16.378785,16.37878 -7.208217,7.20822 m -37.328301,37.3283 10.366995,-10.367 m 50.621111,-47.79268 -5.531277,5.53128 m -16.490761,16.49076 5.375083,-5.37508 m -33.721479,33.72147 -10.132069,10.13207 m 0.46021,2.36822 9.924536,-9.92454 m 0.252678,2.57575 -9.722429,9.72243 m 0.459624,2.36881 9.515482,-9.51549 m 0.252677,2.57575 -9.3024,9.3024 m 67.367686,-64.53925 0.703123,-0.70313 m -58.276065,58.27607 -9.327911,9.32791 m 69.526003,-66.69758 3.834392,-3.83439 m -63.375446,63.37545 -9.484185,9.48418 m 74.022853,-71.19442 2.697524,-2.69753 m -66.579155,66.57916 -9.610275,9.61027 m 0.56534,2.26309 9.701973,-9.70197 m 0.657038,2.17139 -9.75483,9.75483 m 0.646837,2.18159 9.76503,-9.76504 m 0.657038,2.17139 -9.716715,9.71672 m 0.765308,2.06312 9.608444,-9.60845 m 0.657038,2.17139 -9.444563,9.44457 m 0.877658,1.95077 9.223943,-9.22395 m 1.216804,1.61163 -9.496272,9.49627 m 1.027246,1.80118 9.944904,-9.9449 m 1.475879,1.35254 -10.344889,10.34489 m 1.163557,1.66487 10.65721,-10.65721 m 1.475879,1.35255 -10.798053,10.79805 m 1.539641,1.28879 10.73429,-10.73429 m 1.475879,1.35255 -10.545241,10.54524 m 71.989144,-69.16072 2.18308,-2.18308 M -7.828215,196.7981 -18.087654,207.05754 M 51.27689,140.52142 53.9511,137.8472 m -60.303436,60.30345 -9.934712,9.93471 m 67.695718,-64.8673 2.07473,-2.07473 m -58.359858,58.35986 -9.616517,9.61652 m 65.918865,-63.09044 1.03266,-1.03266 m -55.859129,55.85913 -9.364845,9.36485 m 1.963242,0.86518 11.24928,-11.24928 m 4.680216,-1.85179 -12.467248,12.46725 m 5.489385,-2.66096 10.440568,-10.44056 m 2.575522,0.2529 -9.325014,9.32502 m 2.968662,-0.14024 8.931874,-8.93187 m 2.575522,0.2529 -8.76287,8.76287 m 2.607391,0.22104 8.731001,-8.731 m 2.575521,0.2529 -8.801756,8.80176 m 2.464897,0.36353 8.912382,-8.91238 m 2.575521,0.2529 -9.058087,9.05809 m 2.435157,0.39327 9.198451,-9.19845 m 2.575522,0.2529 -9.328406,9.32841 m 2.50556,0.32287 9.398368,-9.39837 m 2.728412,0.10001 -9.538869,9.53887 m 2.709285,0.11915 9.812471,-9.81248 m 2.982886,-0.15446 -10.025692,10.0257 m 2.769665,0.0588 10.238915,-10.23891 m 60.75797,-57.92955 -0.52176,0.52176 M 38.576128,209.79072 49.0052,199.36166 m 58.57995,-55.75153 -1.68688,1.68688 M 41.407231,209.78805 51.98808,199.2072 m 56.32013,-53.4917 -3.74098,3.74098 m -60.271664,60.27166 10.675404,-10.6754 m 53.7609,-50.93248 -5.40667,5.40667 m -56.05807,56.05808 10.68673,-10.68673 m 50.74346,-47.91504 -4.07405,4.07405 M 50.35542,209.32514 63.88066,195.7999 m 44.48542,-41.65699 -1.17518,1.17518 M 53.62548,208.8835 70.14302,192.36597 m 2.18824,0.64019 -15.14955,15.14954 m 5.90219,-3.07376 11.23024,-11.23024 m 42.15761,-39.32918 -1.44449,1.44449 m -46.11107,46.11107 7.05919,-7.05919 m 41.1382,-38.30977 -0.6581,0.6581 m -44.56721,44.56721 5.2113,-5.2113 m 1.12418,1.70424 -4.38422,4.38422 m 1.42288,1.40555 4.4359,-4.4359 m 2.89578,-0.0674 -6.11016,6.11016 m 55.60842,-52.77999 0.48706,-0.48707 m -47.08954,47.08955 -7.77108,7.77108 m 56.08966,-53.26124 1.22184,-1.22184 m -46.64464,46.64465 -9.22443,9.22442 m 55.81325,-52.98482 1.97343,-1.97343 m -46.17835,46.17835 -9.66094,9.66094 m 55.03086,-52.20243 2.22824,-2.22824 m -46.33654,46.33653 -8.32732,8.32733 m 53.40234,-50.57391 2.40592,-2.40592 m -46.21932,46.21931 -6.52333,6.52334 m 50.81509,-47.98667 2.8784,-2.8784 m -46.45058,46.45058 -4.19594,4.19594 m 49.02861,-46.20018 2.47372,-2.47372 m -47.70696,47.70695 -1.29065,1.29065 m 49.38506,-46.55663 0.45398,-0.45398 m -3.24154,6.06997 -10.02429,10.02429 m -1.7854,4.61382 16.55481,-16.5548 m 1.05124,1.77718 -19.39144,19.39145 m -1.7854,4.61383 23.45339,-23.45339 m -52.84893,52.84892 -2.25362,2.25362 m 50.61893,-47.7905 8.51508,-8.51508 m -11.73317,11.73317 -17.53708,17.53708 m -31.28909,31.28908 5.29986,-5.29985 m 55.21752,-52.38909 -3.92184,3.92184 m -28.65868,28.65868 16.26568,-16.26569 m -37.28178,37.28178 -6.30339,6.30339 m 23.88659,-21.05816 17.5475,-17.5475 m -31.46135,31.46136 -8.86511,8.8651 m 19.34606,-16.51763 19.24148,-19.24148 m -24.05816,24.05816 -13.12112,13.12113 m 1.65976,1.16866 33.54118,-33.54118 m -2.32579,5.15422 -29.27015,29.27015 m 2.24631,0.58211 24.74616,-24.74616 m -2.46815,5.29658 -19.68814,19.68814 m 3.16271,-0.33428 13.0363,-13.0363 m -6.33647,9.16489 -1.11836,1.11836"
       id="path7812" />
    <path
       style="fill:#a770c2;fill-opacity:1;stroke:#000000;stroke-width:0.499999;stroke-linecap:round;stroke-linejoin:bevel"
       d="m -6.31551,200.28318 c -3.42017,-2.09388 -7.42854,-3.76271 -9.77283,-7.01637 -8.06152,-11.18866 -9.22873,-26.0606 -12.24924,-39.51611 -1.41288,-6.29397 -0.9491,-12.95703 -2.7206,-19.15962 -0.87449,-3.06188 -2.21706,-6.00977 -3.85467,-8.74072 -1.95417,-3.25888 -5.53293,-5.47993 -7.034,-8.97076 -1.02516,-2.38407 -1.1646,-5.10614 -1.14211,-7.70119 0.0332,-3.8289 0.59309,-7.72629 1.88186,-11.331925 1.54958,-4.335342 6.88674,-11.972459 6.88674,-11.972459 l -1.2125,12.30443 c 0,0 1.87289,5.588574 4.0022,7.424414 2.22233,1.91603 5.65381,4.30114 8.27918,2.99068 0.97021,-0.48429 1.08698,-2.03311 0.95585,-3.10953 -0.27227,-2.23511 -3.47678,-5.791399 -3.47678,-5.791399 0,0 4.17656,2.105139 5.91992,3.627119 1.70656,1.48984 2.50086,3.88637 4.30024,5.26267 1.02448,0.7836 2.30056,1.95957 3.53278,1.57851 1.6555,-0.51197 1.94161,-2.88199 2.72062,-4.42989 0.91747,-1.82306 2.281,-5.68197 2.281,-5.68197 0,0 3.26525,6.8362 3.40098,10.51863 0.0644,1.74716 -0.58399,3.47605 -1.24186,5.0959 -1.03908,2.55847 -5.32113,4.61087 -4.206,7.13712 1.27629,2.89136 6.12155,2.07863 9.27936,1.94767 2.00317,-0.0831 4.65748,-0.0467 5.7639,-1.71866 0.78695,-1.1892 -0.41934,-2.82649 -0.4774,-4.25132 -0.10627,-2.6083 -0.25243,-5.26378 0.2379,-7.82777 0.55782,-2.91687 2.27787,-5.50477 3.03428,-8.37655 1.32356,-5.025024 2.59982,-15.370918 2.59982,-15.370918 0,0 1.01427,10.271881 1.50469,15.409438 0.17375,1.82022 -0.95921,4.37251 0.50941,5.46178 2.17409,1.61252 5.83332,0.0543 7.95618,-1.62506 1.60147,-1.26695 2.43552,-3.52166 2.5743,-5.55899 0.15971,-2.344626 -2.06772,-6.740151 -2.06772,-6.740151 0,0 4.43424,3.141115 5.65623,5.459048 1.04081,1.974243 -0.24793,4.834143 1.11421,6.602043 1.1973,1.55396 3.40155,2.50898 5.36152,2.42663 1.94275,-0.0816 3.29846,-2.0962 5.09396,-2.84265 2.46094,-1.02308 7.68622,-2.20178 7.68622,-2.20178 0,0 -3.08314,3.20361 -4.17341,5.11508 -1.80472,3.16409 -2.15903,6.99005 -3.7712,10.25646 -1.05106,2.12954 -2.84885,3.848 -3.81222,6.01863 -1.77304,3.99492 -3.53515,8.2637 -3.50739,12.63433 0.0205,3.2234 0.86216,6.6396 2.7049,9.28439 1.61119,2.31246 4.01232,4.58894 6.7959,5.03045 2.68283,0.42554 5.55096,-0.95998 7.72872,-2.58359 1.95373,-1.4566 3.43615,-3.6696 4.20088,-5.98349 0.73358,-2.21967 -0.27292,-4.71823 0.18419,-7.01085 0.52282,-2.62212 2.88073,-7.48604 2.88073,-7.48604 0,0 -0.33438,4.88316 0.54799,7.07938 1.06996,2.66316 3.69618,4.39348 5.4594,6.65803 1.78816,2.29658 2.53206,5.83435 5.18894,7.02291 3.66076,1.63765 7.97407,-1.32989 11.97889,-1.1193 3.57027,0.18774 6.94508,2.29648 10.51554,2.11234 2.17987,-0.11243 4.30499,-0.95917 6.25334,-1.94328 2.21452,-1.11856 4.69497,-2.29728 5.99588,-4.40985 1.2878,-2.09129 1.22658,-7.26521 1.22658,-7.26521 0,0 1.89865,4.06329 2.25035,6.24919 0.33532,2.08415 0.0536,4.23138 -0.16841,6.33063 -0.16138,1.52592 -1.80126,3.32719 -0.84285,4.52548 0.93814,1.17293 3.17704,0.87447 4.50267,0.1684 1.62388,-0.86492 1.06886,-4.77866 2.90668,-4.69225 1.23922,0.0583 1.02043,2.26753 1.65442,3.33391 0.76793,1.29164 1.48477,2.67184 2.59044,3.68945 1.39657,1.28535 3.1759,2.11473 4.91507,2.87485 2.23514,0.97687 4.56345,2.18186 7.0021,2.12639 0.73746,-0.0168 1.56547,-0.21602 2.08603,-0.73865 1.11868,-1.12312 1.65682,-2.90633 1.56955,-4.48912 -0.10453,-1.89571 -1.31903,-3.61951 -2.45957,-5.13732 -1.00369,-1.33568 -3.74011,-3.33679 -3.74011,-3.33679 0,0 4.13351,0.29479 5.6893,1.48715 2.90564,2.22688 3.80148,6.26662 5.44412,9.53826 0.67997,1.35428 0.60714,3.25787 1.82043,4.1658 0.71508,0.53512 1.77022,0.43316 2.65814,0.33681 1.05834,-0.11484 3.00848,-1.07168 3.00848,-1.07168 0,0 0.31725,3.70445 -0.74467,5.02215 -1.40255,1.74036 -4.41259,1.13091 -6.27248,2.37057 -2.20443,1.4693 -3.98699,3.57493 -5.45415,5.7808 -3.70356,5.56831 -5.29281,12.28571 -8.13528,18.33905 -3.25427,6.93031 -5.92391,14.23032 -10.20721,20.57638 -2.42629,3.59475 -4.68148,7.96546 -8.64682,9.72181 -3.26309,1.4453 -7.47274,1.4044 -10.70597,-0.10652 -2.39166,-1.11765 -4.74675,-3.4141 -5.14098,-6.02446 -0.5675,-3.75762 4.05946,-6.69746 4.50933,-10.47097 0.2402,-2.01484 0.45199,-4.60988 -1.02586,-6.00027 -3.16428,-2.97701 -8.99624,0.37549 -12.95719,-1.40947 -3.0396,-1.36977 -4.11122,-6.16666 -7.39683,-6.73252 -4.901,-0.84408 -8.90815,4.66942 -13.75732,5.77303 -7.99706,1.82002 -16.37363,1.39675 -24.57359,1.23545 -8.83613,-0.17382 -17.63733,-3.46527 -26.40725,-2.37167 -3.70013,0.46141 -6.83474,3.96387 -10.55461,3.70614 -1.08172,-0.0749 -1.9665,-0.92453 -2.89126,-1.49069 z"
       id="path4427"
       sodipodi:nodetypes="aaaaaaaaccaaacaaaacaaaaaaaacaaaacaaaacaaaaaaaaacaaaaaaacaaaaaaaaaaaacaaaacaaaaaaaaaaaaaaaaa" />
    <path
       style="fill:#c270a7;fill-opacity:1;stroke:none;stroke-width:0.499999;stroke-linecap:round;stroke-linejoin:bevel"
       d="m 2.96267,196.58038 c -2.03266,0.90008 -4.21418,2.60174 -6.35792,2.01334 -4.35451,-1.1952 -6.73202,-6.21482 -9.01737,-10.10935 -5.57047,-9.49279 -7.55633,-20.68595 -10.79224,-31.20602 -2.79995,-9.10275 -3.77376,-18.79722 -7.45141,-27.58212 -2.00506,-4.78954 -6.34947,-8.48008 -7.86221,-13.44712 -0.5888,-1.93332 -0.32042,-4.03105 -0.37678,-6.05125 -0.0704,-2.52279 0.0485,-7.57114 0.0485,-7.57114 0,0 2.04297,5.37869 4.19025,7.08831 1.60507,1.27791 3.81395,1.8841 5.86552,1.86531 2.82201,-0.0258 6.2194,-0.53996 8.0199,-2.71312 0.74109,-0.89449 0.48349,-3.45111 0.48349,-3.45111 0,0 0.9087,2.48163 1.88231,3.28429 2.4297,2.00308 5.91447,3.91558 8.94154,3.04806 1.31487,-0.37683 1.32847,-3.70144 2.59307,-3.18023 2.13151,0.87851 0.20212,4.75145 -0.6756,6.88329 -1.20052,2.91588 -6.02,4.1832 -5.97265,7.33619 0.0374,2.48637 2.74027,4.37674 4.8815,5.64109 2.0986,1.23917 4.71471,1.51918 7.15185,1.51923 2.49007,5e-5 5.08773,-0.42309 7.30724,-1.55193 1.69121,-0.86015 3.59389,-2.01749 4.23505,-3.80325 0.90885,-2.53133 -0.96159,-5.29976 -1.20297,-7.97845 -0.16677,-1.85067 -0.36732,-3.72456 -0.16771,-5.57198 0.25172,-2.32974 1.7075,-6.81939 1.7075,-6.81939 0,0 -0.0131,4.87067 1.67083,6.18308 1.8958,1.47753 4.82326,0.41091 7.20965,0.12402 1.70617,-0.20511 3.77672,-0.0876 4.98672,-1.30784 1.71238,-1.7269 1.79123,-7.07256 1.79123,-7.07256 0,0 0.36412,5.4143 2.01689,7.33918 0.63597,0.74068 1.71228,1.02755 2.67419,1.19428 1.46799,0.25444 3.02452,0.0686 4.45648,-0.3428 2.23349,-0.64165 6.17484,-3.23622 6.17484,-3.23622 0,0 -2.26459,5.69867 -3.75195,8.36999 -1.75578,3.15341 -4.62015,5.66206 -6.06612,8.96901 -1.47044,3.36291 -2.28397,7.05819 -2.5074,10.72172 -0.17557,2.87869 0.0514,5.85544 0.93182,8.60182 0.99317,3.09809 2.27005,6.44374 4.78632,8.506 1.94655,1.59532 4.66469,2.22992 7.17912,2.33821 2.57857,0.11105 5.35037,-0.39149 7.54113,-1.75602 1.79479,-1.1179 2.9696,-3.07296 4.01558,-4.9106 1.00076,-1.75821 1.48099,-3.76941 2.07804,-5.70237 0.2912,-0.9428 0.7315,-2.86842 0.7315,-2.86842 0,0 2.11937,2.78999 3.09974,4.24075 1.67351,2.47647 2.28293,5.91201 4.74292,7.60966 1.51021,1.04221 3.56639,1.10924 5.40077,1.06487 2.35839,-0.057 4.5142,-1.56531 6.86925,-1.7031 3.40708,-0.19934 6.77374,0.84197 10.15735,1.28816 2.35565,0.31064 4.69622,1.18498 7.06225,0.96699 1.64735,-0.15178 3.22769,-0.82845 4.7113,-1.56036 1.4272,-0.70408 3.94907,-2.68302 3.94907,-2.68302 0,0 -1.50131,2.72929 -1.29329,4.1695 0.21859,1.51344 1.19523,3.0961 2.54332,3.81787 1.60471,0.85918 3.70129,0.46656 5.46072,0 0.82436,-0.2186 1.37546,-1.36829 2.22237,-1.26778 1.21887,0.14466 1.68635,1.80544 2.6825,2.52255 2.60563,1.87573 5.43844,3.54345 8.48378,4.56012 2.16056,0.72129 4.60519,1.7811 6.75535,1.0294 1.56723,-0.54791 2.66705,-2.15721 3.38387,-3.65473 0.77905,-1.62752 0.78723,-5.35556 0.78723,-5.35556 0,0 1.04594,6.41648 2.87458,8.96803 1.06656,1.4882 4.41453,3.26846 4.41453,3.26846 0,0 -4.15203,0.29978 -5.79764,1.41784 -3.65881,2.48586 -5.37854,7.04455 -7.67896,10.82271 -5.49964,9.03246 -9.64281,18.82436 -14.55846,28.18747 -2.3691,4.51254 -3.0877,10.47598 -7.19783,13.4897 -2.02902,1.48776 -4.92619,1.72271 -7.41964,1.38644 -2.08836,-0.28164 -4.68676,-0.90987 -5.68464,-2.76589 -1.4553,-2.70681 0.25526,-6.21828 1.20749,-9.14026 0.8693,-2.66754 2.97975,-4.78832 4.02575,-7.39165 0.61484,-1.53025 2.31794,-3.47863 1.29761,-4.77424 -0.74895,-0.951 -2.4371,0.3101 -3.63001,0.10448 -3.38449,-0.58339 -6.19473,-3.32401 -9.60537,-3.72734 -1.75823,-0.20793 -3.55025,1.16071 -5.26332,0.71349 -2.31127,-0.6034 -3.49599,-3.45084 -5.72448,-4.311 -1.78507,-0.68901 -3.83702,-0.88252 -5.7164,-0.52315 -2.10219,0.40196 -3.70394,2.20471 -5.72712,2.90291 -2.38061,0.82154 -5.07313,0.53177 -7.41125,1.46742 -1.54425,0.61797 -2.63993,2.13247 -4.21219,2.67524 -3.92696,1.35566 -8.291,1.82945 -12.40211,1.23151 -4.02328,-0.58516 -7.33843,-3.66052 -11.29099,-4.61266 -3.92254,-0.94492 -8.02593,-1.00398 -12.06062,-1.02694 -2.40299,-0.0137 -4.89411,-0.18099 -7.1896,0.52985 -2.06956,0.64087 -3.63657,2.39193 -5.61756,3.26913 z"
       id="path5833"
       sodipodi:nodetypes="aaaaaaacaaacaaaaaaaaaaacaaacaaacaaaaaaaaacaaaaaaacaaaaaaaacacaaaaaaaaaaaaaaaaaaaaaa" />
    <path
       id="path6548"
       style="fill:#c27070;fill-opacity:1;stroke:none;stroke-width:0.499999;stroke-linecap:round;stroke-linejoin:bevel"
       d="m -37.6618,108.14271 c 0,0 -0.69318,2.65616 -0.60358,4.00234 0.0943,1.416 0.52939,2.83083 1.18753,4.08812 1.48818,2.84299 4.40678,4.72848 6.06629,7.475 2.54868,4.21811 4.20341,8.935 5.82962,13.58728 3.65961,10.46948 5.32778,21.55353 8.78654,32.09106 1.90238,5.79581 3.75608,11.66763 6.56756,17.08113 1.71884,3.30963 2.66548,10.37636 6.23321,9.29039 0.94415,-0.98616 2.80099,0.26658 4.09174,-0.17828 3.3615,-1.15856 5.23091,-5.33491 8.67958,-6.20014 2.66822,-0.66942 5.4387,0.89989 8.18503,1.05885 2.16517,0.12532 4.37194,-0.47393 6.50554,-0.0847 2.28154,0.41616 4.28768,1.77612 6.47713,2.54093 1.31848,0.46057 2.68495,0.77516 4.00492,1.23145 2.11765,0.73203 4.05041,2.13082 6.273,2.41432 3.2557,0.41528 6.76931,0.18346 9.78287,-1.11673 1.65368,-0.71347 2.39992,-2.9804 4.12894,-3.48454 0.92867,-0.27077 1.91206,0.46313 2.87631,0.38603 2.09235,-0.16731 4.2494,-0.70496 6.02806,-1.81953 1.09274,-0.68475 1.38877,-2.46686 2.62155,-2.84531 2.65918,-0.81633 5.36849,1.52391 8.12353,1.9079 2.52847,0.35242 5.10773,0.12932 7.6507,0.3545 0.91553,0.0811 1.89347,-0.0128 2.7342,0.35863 1.23166,0.54409 1.85653,2.05601 3.08508,2.60708 2.58024,1.15738 5.57417,1.06532 8.39897,1.19837 1.79789,0.0847 3.79645,-1.08696 5.39347,-0.25683 0.92081,0.47864 1.60073,1.59458 1.66553,2.63033 0.17876,2.85598 -2.26635,5.26561 -3.65249,7.76904 -1.98404,3.58327 -6.01205,6.28633 -6.65024,10.33218 -0.20925,1.32657 0.13963,2.89071 1.03198,3.89434 1.12591,1.26632 3.04295,1.68854 4.72788,1.8681 1.94704,0.2075 4.22968,0.21709 5.79551,-0.95859 1.94501,-1.46039 2.1287,-4.37414 3.15123,-6.581 2.13071,-4.5986 4.12484,-9.2595 6.21615,-13.87615 2.03277,-4.48741 3.91786,-9.04713 6.15467,-13.43639 1.87435,-3.67802 3.78568,-7.35688 6.0787,-10.78953 1.68927,-2.52885 3.22859,-5.31246 5.62808,-7.18095 1.39144,-1.08352 4.83691,-2.14406 4.83691,-2.14406 0,0 -1.97231,-0.87504 -2.47427,-1.75235 -0.65562,-1.14585 -0.33589,-3.94652 -0.33589,-3.94652 0,0 -0.21561,1.70611 -0.62994,2.43499 -0.51027,0.89764 -1.224,1.81006 -2.17971,2.2009 -2.77954,1.13667 -6.00998,0.0436 -9.00824,-0.12454 -1.52276,-0.0854 -3.4761,0.63123 -4.55321,-0.44855 -0.64919,-0.6508 0.19153,-1.94667 -0.26406,-2.74506 -0.78998,-1.38438 -2.6568,-1.77616 -3.8654,-2.81533 -0.56641,-0.48701 -1.57562,-1.59318 -1.57562,-1.59318 0,0 -0.86317,0.43838 -1.31723,0.60255 -1.44818,0.52359 -3.05642,0.57271 -4.45864,1.20922 -1.24078,0.56323 -2.04267,2.34641 -3.40289,2.2655 -0.39094,-0.0232 -0.6917,-0.4269 -0.89401,-0.76223 -0.55256,-0.91585 0.0384,-2.36088 -0.70383,-3.13107 -0.74178,-0.76972 -2.60977,0.13158 -3.10058,-0.81804 -0.40027,-0.77443 0.91777,-2.44895 0.91777,-2.44895 0,0 -3.28038,2.1155 -5.14594,2.22364 -1.94682,0.11284 -3.70962,-1.21679 -5.60276,-1.68465 -3.82952,-0.94641 -7.67068,-2.29237 -11.61531,-2.26395 -3.40142,0.0245 -6.58564,2.06366 -9.98699,2.09652 -1.62868,0.0157 -3.61902,0.20931 -4.80074,-0.91158 -1.37608,-1.30522 -0.26042,-3.97699 -1.35444,-5.52627 -0.55051,-0.7796 -1.83881,-0.79526 -2.39262,-1.57252 -0.65625,-0.92103 -0.8356,-3.28817 -0.8356,-3.28817 0,0 -0.65843,2.30357 -1.10175,3.41426 -0.98634,2.47115 -1.52391,5.36452 -3.45353,7.19646 -2.34132,2.22281 -5.7418,3.2727 -8.93744,3.73156 -4.00525,0.5751 -8.92064,1.20985 -12.06541,-1.33636 -2.25739,-1.82771 -2.24675,-5.40896 -2.73989,-8.27132 -0.29423,-1.7078 0.40714,-3.54397 -0.1111,-5.19762 -0.33055,-1.05474 -1.63078,-1.67614 -1.834,-2.76262 -1.02788,-5.49548 1.29942,-11.28588 3.59875,-16.38195 1.21544,-2.69381 3.74596,-4.60267 5.23379,-7.15615 0.63902,-1.09672 1.56528,-3.47111 1.56528,-3.47111 0,0 -2.30536,-0.43402 -3.47318,-0.46715 -1.74203,-0.0494 -3.66412,1.2001 -5.21312,0.40152 -0.80178,-0.41335 -1.39526,-2.3182 -1.39526,-2.3182 0,0 -0.2333,2.01427 -0.9741,2.53421 -1.36674,0.95928 -3.33972,0.0421 -5.00848,0.10077 -2.51765,0.0884 -5.13938,1.11744 -7.54786,0.37879 -1.17119,-0.35919 -2.93626,-2.2102 -2.93626,-2.2102 0,0 0.57625,3.22009 0.96997,4.80642 0.62304,2.51031 2.4,4.86218 2.19987,7.44089 -0.22637,2.91677 -1.68425,5.86765 -3.7574,7.93182 -2.04298,2.03415 -5.00743,3.09149 -7.83208,3.66851 -3.5583,0.72689 -7.64146,1.24502 -10.88874,-0.38137 -3.17744,-1.59142 -5.51509,-4.95179 -6.68021,-8.30906 -0.56502,-1.62807 -0.64962,-3.59346 0.047,-5.16971 0.9393,-2.12529 3.51319,-3.05297 5.11183,-4.73924 0.90776,-0.95753 2.53266,-3.04219 2.53266,-3.04219 0,0 -2.84399,1.28997 -4.35374,1.25418 -1.4734,-0.0349 -2.91831,-0.67161 -4.18579,-1.42368 -1.15642,-0.68618 -2.97036,-2.73007 -2.97036,-2.73007 0,0 -1.17872,2.25523 -2.24638,2.78898 -1.98066,0.99018 -4.43013,0.38704 -6.63887,0.22892 -2.45234,-0.17556 -5.23792,0.0961 -7.26054,-1.30173 -1.15731,-0.79981 -2.16524,-3.62251 -2.16524,-3.62251 z m 44.06553,30.71802 c 0.58099,0.007 1.09425,0.16752 1.46296,0.60668 2.03053,2.41849 -0.92958,6.27465 -1.88929,9.28316 -0.79121,2.48028 -2.24571,4.70486 -3.16208,7.14168 -0.575,1.52905 -1.46038,4.67827 -1.46038,4.67827 0,0 -4.48956,-8.54998 -5.34489,-13.22814 -0.30987,-1.69483 -0.87765,-3.75958 0.11524,-5.16764 1.38566,-1.96507 4.38008,-2.10568 6.7386,-2.57349 1.07379,-0.21298 2.43068,-0.75455 3.53984,-0.74052 z" />
    <path
       style="fill:#a5938d;fill-opacity:1;stroke:#000000;stroke-width:0.499999;stroke-linecap:round;stroke-linejoin:bevel"
       d="m 95.71774,171.44812 -4.91701,-5.5621 17.33088,-0.14605 -5.01017,5.90632 7.92815,13.06213 7.98075,-13.49084 -3.71799,-4.97448 15.99909,-0.47851 -5.9494,5.7464 -22.38651,46.83177 -5.84796,0.43777 -3.58105,-2.78762 13.46956,-20.97863 z"
       id="path1107" />
    <path
       style="fill:none;fill-opacity:0.5;stroke:#000000;stroke-width:0.499999;stroke-linecap:round;stroke-linejoin:bevel"
       d="m 101.77788,167.6705 -5.46332,0.38698 4.04365,3.52339 10.06107,20.98406 -10.73869,22.82"
       id="path1109" />
    <path
       style="fill:none;fill-opacity:0.5;stroke:#000000;stroke-width:0.499999;stroke-linecap:round;stroke-linejoin:bevel"
       d="m 113.02248,189.00329 9.47146,-18.81932 4.5586,-2.11596 -6.662,-0.29685"
       id="path1111" />
    <path
       id="path1094-6"
       style="fill:#a5938d;fill-opacity:1;stroke:#000000;stroke-width:0.499999;stroke-linecap:round;stroke-linejoin:bevel"
       d="m 75.09469,153.21211 -7.25124,2.94297 -5.3635,9.65471 0.0574,10.7518 4.11912,10.25157 7.80521,1.64641 4.87361,0.90485 7.58351,-2.4231 5.55574,-8.98602 0.43304,-11.66905 -5.10356,-10.30067 -7.45226,-2.53111 z m 3.21065,6.61562 3.34967,2.08669 2.75177,8.94312 -3.1472,10.18756 -4.07561,1.39572 -3.36724,-1.52343 -2.08566,-8.66768 2.2102,-10.00094 z"
       sodipodi:nodetypes="cccccccccccccccccccccc" />
    <path
       style="fill:none;fill-opacity:0.5;stroke:#000000;stroke-width:0.499999;stroke-linecap:round;stroke-linejoin:bevel"
       d="m 71.7113,184.18505 -4.97536,-8.51028 2.80207,-15.22532 8.77294,-4.05759 8.60742,4.71322 1.93786,16.51103 -8.01773,8.14978 z"
       id="path1101-7" />
    <path
       style="fill:#9d847b;fill-opacity:1;stroke:#000000;stroke-width:0.499999;stroke-linecap:round;stroke-linejoin:bevel"
       d="m 50.79027,163.50134 -4.52326,-2.99529 -0.28204,-2.67321 7.18253,-3.20633 2.91437,-6.84321 h 3.07461 l -0.25564,10.47385 7.50569,-0.23835 -0.39679,2.3117 -7.14693,3.33777 -0.27974,18.18191 2.63095,1.39562 4.32499,-3.20555 3.28311,3.44708 -5.90902,5.35239 -4.51092,2.6945 -1.78661,-0.11693 -5.29828,-8.1378 z"
       id="path1086" />
    <path
       style="fill:none;fill-opacity:0.5;stroke:#000000;stroke-width:0.499999;stroke-linecap:round;stroke-linejoin:bevel"
       d="m 65.13883,184.19812 -7.26318,3.25361 -4.0128,-9.28195 0.72042,-16.50888 -5.7437,-1.88495"
       id="path1088" />
    <path
       style="fill:none;fill-opacity:0.5;stroke:#000000;stroke-width:0.499999;stroke-linecap:round;stroke-linejoin:bevel"
       d="m 63.70388,159.5741 -7.17161,0.76702 -0.87345,-3.25263 1.36513,-5.90345"
       id="path1090" />
    <path
       style="fill:#9d847b;fill-opacity:1;stroke:#000000;stroke-width:0.499999;stroke-linecap:round;stroke-linejoin:bevel"
       d="m 15.2586,189.41377 4.75447,-4.83338 -0.24856,-22.50672 -4.25014,-2.54944 11.35582,-4.55162 0.13427,30.08847 5.21727,4.64201 z"
       id="path1074" />
    <path
       style="fill:#9d847b;fill-opacity:1;stroke:#000000;stroke-width:0.499999;stroke-linecap:round;stroke-linejoin:bevel"
       d="m 24.71759,149.56333 -2.32502,0.22233 -5.07698,-2.34965 0.18037,-2.60887 2.45193,-4.76371 2.78441,0.002 4.3,2.24708 0.20008,2.733 z"
       id="path1076" />
    <path
       style="fill:none;fill-opacity:0.5;stroke:#000000;stroke-width:0.499999;stroke-linecap:round;stroke-linejoin:bevel"
       d="m 25.77527,187.75986 -6.02398,-0.41879 4.17057,-1.60365 -0.25768,-26.01354 -2.68429,0.65044"
       id="path1080" />
    <path
       style="fill:none;fill-opacity:0.5;stroke:#000000;stroke-width:0.499999;stroke-linecap:round;stroke-linejoin:bevel"
       d="m 22.62168,147.79297 -2.35855,-1.84718 1.58839,-4.36075 1.78466,1.47228"
       id="path1082" />
    <path
       style="fill:#a5938d;fill-opacity:1;stroke:#000000;stroke-width:0.499999;stroke-linecap:round;stroke-linejoin:bevel"
       d="m -2.7909182,194.369 -25.2473468,-71.2699 -8.799454,-9.03742 25.424768,0.85003 -8.589963,7.70238 c 0,0 20.89271821,49.68636 21.6324056,48.50544 C 2.369179,169.9386 18.956011,122.20064 18.956011,122.20064 l -6.408385,-7.81678 22.349179,0.23076 -6.43521,7.34509 c 0,0 -27.0964725,69.9078 -26.6974572,69.72853 0.3990152,-0.17928 -4.555056,2.68076 -4.555056,2.68076 z"
       id="path357"
       sodipodi:nodetypes="cccccsccccsc" />
    <path
       style="fill:none;fill-opacity:0.5;stroke:#000000;stroke-width:0.499999;stroke-linecap:round;stroke-linejoin:bevel"
       d="m -27.936992,117.40839 7.687638,0.16564 -4.332373,4.59136 24.43336458,63.22642 24.25982342,-64.36833 -4.249215,-3.73503 9.283301,-0.37625"
       id="path1072" />
    <path
       style="fill:#a5938d;fill-opacity:1;stroke:#000000;stroke-width:0.499999;stroke-linecap:round;stroke-linejoin:bevel"
       d="m 38.03078,193.74649 -7.15867,-1.73071 -4.75939,-9.28737 -0.32891,-10.60533 5.3896,-10.2756 8.65097,-2.32185 7.82389,1.10353 4.81292,4.61536 -0.22135,3.98326 -4.62982,2.93053 -2.06704,-0.22835 -0.5532,-6.52891 -5.60073,-0.83204 -4.8345,4.26962 -1.41101,8.24643 -0.008,3.41727 4.78273,9.27399 6.27745,1.94111 2.92383,-3.30443 2.75667,-4.55048 7.02492,4.57217 -5.69742,5.22804 -8.94268,1.81584 z"
       id="path1078" />
    <path
       style="fill:none;fill-opacity:0.5;stroke:#000000;stroke-width:0.499999;stroke-linecap:round;stroke-linejoin:bevel"
       d="m 48.13731,168.84869 -1.28579,-5.48589 -11.98999,-0.0764 -5.36848,9.23227 2.46054,15.65374 10.74662,5.39082 6.51863,-1.26919 2.26955,-3.42509"
       id="path1084" />
    <path
       style="fill:#9d847b;fill-opacity:1;stroke:#000000;stroke-width:0.499999;stroke-linecap:round;stroke-linejoin:bevel"
       d="m 88.38495,192.48971 4.06338,-4.38885 -0.42705,-22.17968 -6.38697,-3.02435 13.77575,-4.91005 -1.37341,11.81678 7.32588,-9.80645 4.74805,-1.98328 5.00413,2.51519 -0.13072,5.31469 -4.48618,7.49162 -2.80826,0.40468 -0.45918,-5.54399 -7.19678,4.95377 -0.0552,14.20724 4.94509,4.81756 z"
       id="path1099" />
    <path
       style="fill:none;fill-opacity:0.5;stroke:#000000;stroke-width:0.499999;stroke-linecap:round;stroke-linejoin:bevel"
       d="m 99.86259,190.83216 -6.64459,-0.0482 2.71278,-2.45138 0.13727,-25.96382 -3.29997,0.29941"
       id="path1103" />
    <path
       style="fill:none;fill-opacity:0.5;stroke:#000000;stroke-width:0.499999;stroke-linecap:round;stroke-linejoin:bevel"
       d="m 101.00832,170.25035 8.987,-8.3646 1.15281,3.61648 -1.34245,3.70227"
       id="path1105" />
    <path
       style="fill:none;fill-opacity:1;stroke:#000000;stroke-width:0.499999;stroke-linecap:round;stroke-linejoin:bevel;stroke-opacity:1"
       d="m -9.60885,188.84367 c 0,0 -4.46158,0.91889 -5.90754,-0.42534 -6.17611,-5.74159 -1.05343,-17.0103 -3.64946,-25.03344 -1.3293,-4.10825 -4.52612,-7.42278 -5.99456,-11.48337 -3.29977,-9.12465 -1.24049,-20.0827 -6.15033,-28.45176 -1.89782,-3.23493 -8.43988,-7.44088 -8.43988,-7.44088"
       id="path7370"
       sodipodi:nodetypes="caaaac" />
    <path
       style="fill:none;fill-opacity:1;stroke:#000000;stroke-width:0.499999;stroke-linecap:round;stroke-linejoin:bevel;stroke-opacity:1"
       d="m -6.99484,108.21851 c 0,0 0.21597,4.35822 -0.66454,6.26463 -1.20019,2.59855 -5.27791,3.43527 -5.91373,6.22608 -0.78842,3.46067 2.11298,6.77791 3.26522,10.13502 1.43143,4.17054 2.45869,8.53576 4.53064,12.42799 1.32594,2.49083 2.18724,7.25762 4.97885,6.8463 4.99204,-0.73553 5.64499,-9.28658 4.9939,-14.29033 -0.30689,-2.35848 -1.66212,-6.35033 -3.99918,-5.909 -3.3056,0.62424 -2.58738,6.50129 -2.21907,9.8451 0.17254,1.56635 2.01836,4.27495 2.01836,4.27495"
       id="path7372"
       sodipodi:nodetypes="caaaaaaaac" />
    <path
       style="fill:none;fill-opacity:1;stroke:#000000;stroke-width:0.499999;stroke-linecap:round;stroke-linejoin:bevel;stroke-opacity:1"
       d="m -19.90816,105.4679 c 0,0 1.88412,4.36274 0.69692,5.98123 -1.00304,1.36743 -3.30243,0.88831 -4.99693,0.95612 -3.08315,0.12339 -6.59759,0.64738 -9.20186,-1.00756 -3.10135,-1.97083 -5.12856,-5.78809 -5.74002,-9.41145 -0.4732,-2.804095 1.806,-8.33788 1.806,-8.33788"
       id="path7374"
       sodipodi:nodetypes="caaaac" />
    <path
       style="fill:none;fill-opacity:1;stroke:#000000;stroke-width:0.499999;stroke-linecap:round;stroke-linejoin:bevel;stroke-opacity:1"
       d="m 6.92004,127.55345 c 0.2821,0 2.30824,1.96142 3.48827,1.50268 2.02044,-0.78545 2.69953,-3.76389 2.66656,-5.93138 -0.0393,-2.58146 -2.88084,-4.43317 -3.38924,-6.96438 -0.63785,-3.17574 0.31688,-6.47113 0.54862,-9.70199 0.17322,-2.41501 0.62914,-7.236344 0.62914,-7.236344"
       id="path7376"
       sodipodi:nodetypes="caaaac" />
    <path
       style="fill:none;fill-opacity:1;stroke:#000000;stroke-width:0.499999;stroke-linecap:round;stroke-linejoin:bevel;stroke-opacity:1"
       d="m 14.07359,111.39039 c 0,0 6.11407,0.87651 8.37085,-0.78515 2.40698,-1.77225 3.45041,-8.27676 3.45041,-8.27676 0,0 -0.22601,7.08478 2.2574,8.84058 2.77414,1.96135 7.04656,0.46426 10.15116,-0.91565 1.46194,-0.64979 3.52307,-3.25937 3.52307,-3.25937"
       id="path7378"
       sodipodi:nodetypes="cacaac" />
    <path
       style="fill:none;fill-opacity:1;stroke:#000000;stroke-width:0.499999;stroke-linecap:round;stroke-linejoin:bevel;stroke-opacity:1"
       d="m 36.55251,117.45161 c 0,0 -6.91056,6.94396 -8.02219,11.47734 -1.40221,5.71838 1.64457,11.66234 2.27391,17.51641 0.3813,3.5468 -1.97674,8.56667 0.90953,10.66301 3.83731,2.7871 9.55039,-1.24492 13.85538,-3.23488 2.9835,-1.3791 5.83822,-3.32563 7.92894,-5.86179 1.49333,-1.81149 2.87722,-4.01539 3.02955,-6.35811 0.0978,-1.50479 -1.40072,-4.3016 -1.40072,-4.3016"
       id="path7419"
       sodipodi:nodetypes="caaaaaac" />
    <path
       style="fill:none;fill-opacity:1;stroke:#000000;stroke-width:0.499999;stroke-linecap:round;stroke-linejoin:bevel;stroke-opacity:1"
       d="m 61.13411,144.52163 c 0,0 0.68901,5.15922 1.5863,7.57948 0.36885,0.99491 0.52424,2.46996 1.53659,2.78781 2.60087,0.81658 4.65249,-3.12482 7.3331,-3.62046 3.29456,-0.60917 6.67844,0.55825 10.00785,0.93278 4.07193,0.45806 8.13394,2.2073 12.18735,1.60704 2.9281,-0.43361 6.05714,-1.51063 8.08959,-3.66259 1.31005,-1.38708 2.05933,-5.34051 2.05933,-5.34051"
       id="path7421"
       sodipodi:nodetypes="caaaaaac" />
    <path
       style="fill:none;fill-opacity:1;stroke:#000000;stroke-width:0.499999;stroke-linecap:round;stroke-linejoin:bevel;stroke-opacity:1"
       d="m 101.32029,160.19942 c 0,0 3.22007,-1.73565 4.9204,-2.39689 1.65638,-0.64416 3.91785,-0.20002 5.11136,-1.51687 0.84599,-0.93341 0.71485,-3.71101 0.71485,-3.71101"
       id="path7423"
       sodipodi:nodetypes="caac" />
    <path
       style="fill:none;fill-opacity:1;stroke:#000000;stroke-width:0.499999;stroke-linecap:round;stroke-linejoin:bevel;stroke-opacity:1"
       d="m 115.77531,158.48716 c 0,0 2.53458,3.99063 4.58009,4.88254 3.52744,1.53808 8.00227,1.56174 11.5444,0.0578 1.0872,-0.46161 2.14387,-1.42041 2.44818,-2.56167 0.74726,-2.80246 -0.68886,-5.90439 -2.08167,-8.44845 -0.38835,-0.70935 -1.67176,-1.75814 -1.67176,-1.75814"
       id="path7425"
       sodipodi:nodetypes="caaaac" />
    <path
       style="fill:none;fill-opacity:1;stroke:#000000;stroke-width:0.499999;stroke-linecap:round;stroke-linejoin:bevel;stroke-opacity:1"
       d="m 140.11944,165.34427 c 0,0 -5.47944,0.87779 -7.52767,2.55976 -3.06761,2.51907 -4.13754,6.78346 -5.95334,10.31317 -4.19201,8.1488 -7.07555,16.93548 -11.37855,25.02622 -3.23588,6.08428 -5.33903,13.43993 -10.82116,17.61552 -1.6736,1.27473 -3.98289,2.07601 -6.06217,1.75587 -2.65507,-0.4088 -6.70795,-4.46676 -6.70795,-4.46676"
       id="path7427"
       sodipodi:nodetypes="caaaaac" />
    <path
       style="fill:none;fill-opacity:1;stroke:#000000;stroke-width:0.499999;stroke-linecap:round;stroke-linejoin:bevel;stroke-opacity:1"
       d="m 96.90643,202.60668 c 0,0 3.49699,-3.88188 2.35226,-5.52319 -2.22319,-3.18759 -7.89976,1.62064 -11.64441,0.58097 -2.62897,-0.72991 -4.27243,-3.52361 -6.79466,-4.5641 -4.35697,-1.79737 -9.21109,-3.31241 -13.88223,-2.68461 -4.7998,0.64508 -8.34079,5.21656 -13.03005,6.42692 -5.65922,1.46073 -11.73255,1.67585 -17.51475,0.82338 -3.10859,-0.45829 -5.77565,-2.70781 -8.88781,-3.14119 -3.55626,-0.49522 -10.75035,0.67812 -10.75035,0.67812"
       id="path7429"
       sodipodi:nodetypes="caaaaaaac" />
    <path
       style="fill:none;fill-opacity:1;stroke:#000000;stroke-width:0.499999;stroke-linecap:round;stroke-linejoin:bevel;stroke-opacity:1"
       d="m -3.1239,197.41636 c 0,0 10.85353,-0.0901 13.44412,-3.98002 1.71597,-2.57664 -2.13651,-6.35344 -1.00043,-9.23319 1.08403,-2.74782 5.64635,-3.03066 6.71264,-5.7854 1.19935,-3.09851 -1.20141,-9.89493 -1.20141,-9.89493"
       id="path7431"
       sodipodi:nodetypes="caaac" />
  </g>
</svg>
