<?xml version="1.0" encoding="UTF-8" standalone="no"?>
<!-- Created with Inkscape (http://www.inkscape.org/) -->

<svg
   width="24.857239mm"
   height="14.712806mm"
   viewBox="0 0 24.85724 14.712805"
   version="1.1"
   id="svg5"
   inkscape:version="1.2.2 (b0a8486541, 2022-12-01)"
   sodipodi:docname="grass_1.svg"
   xmlns:inkscape="http://www.inkscape.org/namespaces/inkscape"
   xmlns:sodipodi="http://sodipodi.sourceforge.net/DTD/sodipodi-0.dtd"
   xmlns="http://www.w3.org/2000/svg"
   xmlns:svg="http://www.w3.org/2000/svg">
  <sodipodi:namedview
     id="namedview7"
     pagecolor="#4d4d4d"
     bordercolor="#666666"
     borderopacity="1.0"
     inkscape:pageshadow="2"
     inkscape:pageopacity="0"
     inkscape:pagecheckerboard="false"
     inkscape:document-units="mm"
     showgrid="false"
     inkscape:zoom="0.56569164"
     inkscape:cx="-15.909728"
     inkscape:cy="31.819456"
     inkscape:window-width="956"
     inkscape:window-height="1037"
     inkscape:window-x="960"
     inkscape:window-y="0"
     inkscape:window-maximized="1"
     inkscape:current-layer="layer1"
     inkscape:showpageshadow="2"
     inkscape:deskcolor="#4d4d4d" />
  <defs
     id="defs2" />
  <g
     inkscape:label="Layer 1"
     inkscape:groupmode="layer"
     id="layer1"
     transform="translate(60.039757,-140.48097)">
    <g
       id="g588273"
       transform="translate(93.074652,-188.61368)">
      <g
         id="g579037"
         transform="translate(4.8576238,1.1346771)">
        <path
           style="opacity:1;fill:#b0a693;fill-opacity:1;stroke:#000000;stroke-width:0.25;stroke-linecap:round;stroke-linejoin:round;stroke-opacity:1"
           d="m -154.38782,342.54778 14.49206,-0.24191 1.06214,-3.938 5.59383,-3.11283 -1.10592,-2.00107 -5.51119,0.0728 -1.46823,-3.20905 -3.55926,0.0971 -5.33182,-2.12985 -1.33327,3.26343 -6.29756,-0.26223 2.69362,6.1787 -0.91052,2.13317 z"
           id="path578638"
           sodipodi:nodetypes="cccccccccccccc" />
        <g
           id="g578636">
          <path
             style="opacity:1;fill:#bbdfa0;fill-opacity:1;stroke:#000000;stroke-width:0.25;stroke-linecap:round;stroke-linejoin:round;stroke-opacity:1"
             d="m -152.58035,340.48735 c 0,0 -0.23691,-3.85555 -1.05182,-5.55472 -0.52297,-1.09046 -2.35732,-2.75795 -2.35732,-2.75795 0,0 2.36737,1.02233 3.16888,1.97442 0.69476,0.82528 1.21812,2.99835 1.21812,2.99835 l 0.8905,2.43148"
             id="path569876"
             sodipodi:nodetypes="cacac" />
          <path
             style="opacity:1;fill:#bbdfa0;fill-opacity:1;stroke:#000000;stroke-width:0.25;stroke-linecap:round;stroke-linejoin:round;stroke-opacity:1"
             d="m -151.71515,340.31238 c 0,0 0.32352,-2.76209 0.78321,-4.06223 0.35022,-0.99056 0.83413,-1.95449 1.48125,-2.78219 0.5227,-0.66856 1.89222,-1.70331 1.89222,-1.70331 0,0 -1.29031,2.53236 -1.6894,3.88784 -0.3035,1.03082 -0.61723,2.11074 -0.52234,3.18111 0.0439,0.49483 0.49642,1.4052 0.49642,1.4052"
             id="path569872"
             sodipodi:nodetypes="caacaac" />
          <path
             style="opacity:1;fill:#bbdfa0;fill-opacity:1;stroke:#000000;stroke-width:0.25;stroke-linecap:round;stroke-linejoin:round;stroke-opacity:1"
             d="m -144.04478,340.06805 c 0,0 -0.46848,-3.83431 0.0237,-5.65338 0.31586,-1.1674 1.81623,-3.14079 1.81623,-3.14079 0,0 -2.14187,1.43597 -2.75679,2.51799 -0.53302,0.9379 -0.6523,3.16992 -0.6523,3.16992 l -0.43329,2.55291"
             id="path569316"
             sodipodi:nodetypes="cacac" />
          <path
             style="opacity:1;fill:#bbdfa0;fill-opacity:1;stroke:#000000;stroke-width:0.25;stroke-linecap:round;stroke-linejoin:round;stroke-opacity:1"
             d="m -142.18217,340.4055 c 0,0 0.38473,-1.93345 1.00179,-2.64713 1.31139,-1.51674 5.25922,-2.91941 5.25922,-2.91941 0,0 -4.11725,0.48165 -5.93958,1.38237 -0.83141,0.41094 -2.1468,1.7698 -2.1468,1.7698 l -0.82951,2.24383"
             id="path569318"
             sodipodi:nodetypes="cacacc" />
          <path
             style="opacity:1;fill:#bbdfa0;fill-opacity:1;stroke:#000000;stroke-width:0.25;stroke-linecap:round;stroke-linejoin:round;stroke-opacity:1"
             d="m -146.91344,340.11978 c 0,0 -0.16369,-3.33307 -0.55105,-4.94612 -0.42476,-1.76877 -1.92452,-5.10657 -1.92452,-5.10657 0,0 1.75952,2.11964 2.37887,3.3373 1.11581,2.19371 2.33523,7.00453 2.33523,7.00453"
             id="path569038"
             sodipodi:nodetypes="cacac" />
          <path
             style="opacity:1;fill:none;fill-opacity:1;stroke:#000000;stroke-width:0.25;stroke-linecap:round;stroke-linejoin:round;stroke-opacity:1"
             d="m -150.4814,339.87763 c 0,0 -0.0717,-1.50001 0.06,-2.23282 0.18916,-1.05286 1.03586,-3.03739 1.03586,-3.03739"
             id="path578610"
             sodipodi:nodetypes="cac" />
          <path
             style="opacity:1;fill:none;fill-opacity:1;stroke:#000000;stroke-width:0.25;stroke-linecap:round;stroke-linejoin:round;stroke-opacity:1"
             d="m -151.03616,338.73601 c 0,0 0.14094,-1.34247 0.32616,-1.98792 0.14057,-0.48985 0.61285,-1.51982 0.59014,-1.41037"
             id="path578612"
             sodipodi:nodetypes="cac" />
          <path
             style="opacity:1;fill:none;fill-opacity:1;stroke:#000000;stroke-width:0.25;stroke-linecap:round;stroke-linejoin:round;stroke-opacity:1"
             d="m -151.92102,339.35365 c 0,0 0.0179,-1.01472 -0.0635,-1.51285 -0.17839,-1.09221 -0.31101,-2.26724 -0.92341,-3.18903 -0.19123,-0.28785 -0.80625,-0.65178 -0.80625,-0.65178"
             id="path578614"
             sodipodi:nodetypes="caac" />
          <path
             style="opacity:1;fill:none;fill-opacity:1;stroke:#000000;stroke-width:0.25;stroke-linecap:round;stroke-linejoin:round;stroke-opacity:1"
             d="m -145.49679,339.9215 c 0,-0.11528 -0.59905,-2.92525 -1.06416,-4.34044 -0.26578,-0.80867 -0.98183,-2.35738 -0.98183,-2.35738"
             id="path578616"
             sodipodi:nodetypes="cac" />
          <path
             style="opacity:1;fill:none;fill-opacity:1;stroke:#000000;stroke-width:0.25;stroke-linecap:round;stroke-linejoin:round;stroke-opacity:1"
             d="m -144.67075,338.3349 c 0,0 0.0238,-1.64605 0.0823,-2.46663 0.0498,-0.69822 -0.0493,-1.44498 0.22846,-2.08751 0.16476,-0.38116 0.80916,-0.94716 0.80916,-0.94716"
             id="path578618"
             sodipodi:nodetypes="caac" />
          <path
             style="opacity:1;fill:none;fill-opacity:1;stroke:#000000;stroke-width:0.25;stroke-linecap:round;stroke-linejoin:round;stroke-opacity:1"
             d="m -142.88996,339.78833 c 0,0 0.59823,-1.94536 1.2746,-2.65821 0.60694,-0.63968 2.23321,-1.26738 2.32202,-1.26738"
             id="path578620"
             sodipodi:nodetypes="cac" />
          <path
             style="opacity:1;fill:none;fill-opacity:1;stroke:#000000;stroke-width:0.25;stroke-linecap:round;stroke-linejoin:round;stroke-opacity:1"
             d="m -143.43156,338.26214 c 0,0 0.48336,-0.67782 0.78462,-0.96118 0.35507,-0.33397 1.18731,-0.85371 1.18731,-0.85371"
             id="path578622"
             sodipodi:nodetypes="cac" />
        </g>
        <path
           style="opacity:1;fill:#b0a693;fill-opacity:1;stroke:#000000;stroke-width:0.25;stroke-linecap:round;stroke-linejoin:round;stroke-opacity:1"
           d="m -154.28704,340.2444 1.09308,-1.38547"
           id="path578985" />
        <path
           style="opacity:1;fill:#b0a693;fill-opacity:1;stroke:#000000;stroke-width:0.25;stroke-linecap:round;stroke-linejoin:round;stroke-opacity:1"
           d="m -153.99912,341.79687 0.96655,-1.264"
           id="path578987" />
        <path
           style="opacity:1;fill:#b0a693;fill-opacity:1;stroke:#000000;stroke-width:0.25;stroke-linecap:round;stroke-linejoin:round;stroke-opacity:1"
           d="m -152.83423,342.02898 c 0.0436,-0.10943 1.18965,-1.23195 1.18965,-1.23195"
           id="path578989" />
        <path
           style="opacity:1;fill:#b0a693;fill-opacity:1;stroke:#000000;stroke-width:0.25;stroke-linecap:round;stroke-linejoin:round;stroke-opacity:1"
           d="m -151.06744,341.99686 c 0.0584,-0.11318 1.04212,-1.42491 1.04212,-1.42491"
           id="path578991" />
        <path
           style="opacity:1;fill:#b0a693;fill-opacity:1;stroke:#000000;stroke-width:0.25;stroke-linecap:round;stroke-linejoin:round;stroke-opacity:1"
           d="m -149.05704,339.34836 0.57987,-0.8083"
           id="path578993" />
        <path
           style="opacity:1;fill:#b0a693;fill-opacity:1;stroke:#000000;stroke-width:0.25;stroke-linecap:round;stroke-linejoin:round;stroke-opacity:1"
           d="m -149.3015,341.98205 1.58241,-2.37985"
           id="path578995" />
        <path
           style="opacity:1;fill:#b0a693;fill-opacity:1;stroke:#000000;stroke-width:0.25;stroke-linecap:round;stroke-linejoin:round;stroke-opacity:1"
           d="m -147.59636,341.90759 0.95333,-1.28402"
           id="path578997" />
        <path
           style="opacity:1;fill:#b0a693;fill-opacity:1;stroke:#000000;stroke-width:0.25;stroke-linecap:round;stroke-linejoin:round;stroke-opacity:1"
           d="m -146.11107,341.89426 c 0.0841,-0.12208 0.75632,-1.12551 0.75632,-1.12551"
           id="path578999" />
        <path
           style="opacity:1;fill:#b0a693;fill-opacity:1;stroke:#000000;stroke-width:0.25;stroke-linecap:round;stroke-linejoin:round;stroke-opacity:1"
           d="m -144.34824,341.76855 c 0.0893,-0.0573 0.75502,-1.1807 0.75502,-1.1807"
           id="path579001" />
        <path
           style="opacity:1;fill:#b0a693;fill-opacity:1;stroke:#000000;stroke-width:0.25;stroke-linecap:round;stroke-linejoin:round;stroke-opacity:1"
           d="m -142.84595,341.90646 c 0.0897,-0.16172 0.53331,-1.06096 0.53331,-1.06096"
           id="path579003" />
        <path
           style="opacity:1;fill:#b0a693;fill-opacity:1;stroke:#000000;stroke-width:0.25;stroke-linecap:round;stroke-linejoin:round;stroke-opacity:1"
           d="m -141.59001,341.77911 c 0.0689,-0.0996 1.01911,-1.87042 1.01911,-1.87042"
           id="path579005"
           sodipodi:nodetypes="cc" />
        <path
           style="opacity:1;fill:#b0a693;fill-opacity:1;stroke:#000000;stroke-width:0.25;stroke-linecap:round;stroke-linejoin:round;stroke-opacity:1"
           d="m -141.69824,339.88827 0.51919,-0.75825"
           id="path579007" />
      </g>
      <g
         id="g579091"
         transform="translate(4.8576238,1.1346771)"
         style="opacity:0.5;fill:#b0a693;fill-opacity:1;stroke:#b0a693;stroke-opacity:1">
        <path
           style="opacity:1;fill:#b0a693;fill-opacity:1;stroke:#b0a693;stroke-width:0.25;stroke-linecap:round;stroke-linejoin:round;stroke-opacity:1"
           d="m -154.38782,342.54778 14.49206,-0.24191 1.06214,-3.938 5.59383,-3.11283 -1.10592,-2.00107 -5.51119,0.0728 -1.46823,-3.20905 -3.55926,0.0971 -5.33182,-2.12985 -1.33327,3.26343 -6.29756,-0.26223 2.69362,6.1787 -0.91052,2.13317 z"
           id="path579039"
           sodipodi:nodetypes="cccccccccccccc" />
        <g
           id="g579065"
           style="fill:#b0a693;fill-opacity:1;stroke:#b0a693;stroke-opacity:1">
          <path
             style="opacity:1;fill:#b0a693;fill-opacity:1;stroke:#b0a693;stroke-width:0.25;stroke-linecap:round;stroke-linejoin:round;stroke-opacity:1"
             d="m -152.58035,340.48735 c 0,0 -0.23691,-3.85555 -1.05182,-5.55472 -0.52297,-1.09046 -2.35732,-2.75795 -2.35732,-2.75795 0,0 2.36737,1.02233 3.16888,1.97442 0.69476,0.82528 1.21812,2.99835 1.21812,2.99835 l 0.8905,2.43148"
             id="path579041"
             sodipodi:nodetypes="cacac" />
          <path
             style="opacity:1;fill:#b0a693;fill-opacity:1;stroke:#b0a693;stroke-width:0.25;stroke-linecap:round;stroke-linejoin:round;stroke-opacity:1"
             d="m -151.71515,340.31238 c 0,0 0.32352,-2.76209 0.78321,-4.06223 0.35022,-0.99056 0.83413,-1.95449 1.48125,-2.78219 0.5227,-0.66856 1.89222,-1.70331 1.89222,-1.70331 0,0 -1.29031,2.53236 -1.6894,3.88784 -0.3035,1.03082 -0.61723,2.11074 -0.52234,3.18111 0.0439,0.49483 0.49642,1.4052 0.49642,1.4052"
             id="path579043"
             sodipodi:nodetypes="caacaac" />
          <path
             style="opacity:1;fill:#b0a693;fill-opacity:1;stroke:#b0a693;stroke-width:0.25;stroke-linecap:round;stroke-linejoin:round;stroke-opacity:1"
             d="m -144.04478,340.06805 c 0,0 -0.46848,-3.83431 0.0237,-5.65338 0.31586,-1.1674 1.81623,-3.14079 1.81623,-3.14079 0,0 -2.14187,1.43597 -2.75679,2.51799 -0.53302,0.9379 -0.6523,3.16992 -0.6523,3.16992 l -0.43329,2.55291"
             id="path579045"
             sodipodi:nodetypes="cacac" />
          <path
             style="opacity:1;fill:#b0a693;fill-opacity:1;stroke:#b0a693;stroke-width:0.25;stroke-linecap:round;stroke-linejoin:round;stroke-opacity:1"
             d="m -142.18217,340.4055 c 0,0 0.38473,-1.93345 1.00179,-2.64713 1.31139,-1.51674 5.25922,-2.91941 5.25922,-2.91941 0,0 -4.11725,0.48165 -5.93958,1.38237 -0.83141,0.41094 -2.1468,1.7698 -2.1468,1.7698 l -0.82951,2.24383"
             id="path579047"
             sodipodi:nodetypes="cacacc" />
          <path
             style="opacity:1;fill:#b0a693;fill-opacity:1;stroke:#b0a693;stroke-width:0.25;stroke-linecap:round;stroke-linejoin:round;stroke-opacity:1"
             d="m -146.91344,340.11978 c 0,0 -0.16369,-3.33307 -0.55105,-4.94612 -0.42476,-1.76877 -1.92452,-5.10657 -1.92452,-5.10657 0,0 1.75952,2.11964 2.37887,3.3373 1.11581,2.19371 2.33523,7.00453 2.33523,7.00453"
             id="path579049"
             sodipodi:nodetypes="cacac" />
          <path
             style="opacity:1;fill:#b0a693;fill-opacity:1;stroke:#b0a693;stroke-width:0.25;stroke-linecap:round;stroke-linejoin:round;stroke-opacity:1"
             d="m -150.4814,339.87763 c 0,0 -0.0717,-1.50001 0.06,-2.23282 0.18916,-1.05286 1.03586,-3.03739 1.03586,-3.03739"
             id="path579051"
             sodipodi:nodetypes="cac" />
          <path
             style="opacity:1;fill:#b0a693;fill-opacity:1;stroke:#b0a693;stroke-width:0.25;stroke-linecap:round;stroke-linejoin:round;stroke-opacity:1"
             d="m -151.03616,338.73601 c 0,0 0.14094,-1.34247 0.32616,-1.98792 0.14057,-0.48985 0.61285,-1.51982 0.59014,-1.41037"
             id="path579053"
             sodipodi:nodetypes="cac" />
          <path
             style="opacity:1;fill:#b0a693;fill-opacity:1;stroke:#b0a693;stroke-width:0.25;stroke-linecap:round;stroke-linejoin:round;stroke-opacity:1"
             d="m -151.92102,339.35365 c 0,0 0.0179,-1.01472 -0.0635,-1.51285 -0.17839,-1.09221 -0.31101,-2.26724 -0.92341,-3.18903 -0.19123,-0.28785 -0.80625,-0.65178 -0.80625,-0.65178"
             id="path579055"
             sodipodi:nodetypes="caac" />
          <path
             style="opacity:1;fill:#b0a693;fill-opacity:1;stroke:#b0a693;stroke-width:0.25;stroke-linecap:round;stroke-linejoin:round;stroke-opacity:1"
             d="m -145.49679,339.9215 c 0,-0.11528 -0.59905,-2.92525 -1.06416,-4.34044 -0.26578,-0.80867 -0.98183,-2.35738 -0.98183,-2.35738"
             id="path579057"
             sodipodi:nodetypes="cac" />
          <path
             style="opacity:1;fill:#b0a693;fill-opacity:1;stroke:#b0a693;stroke-width:0.25;stroke-linecap:round;stroke-linejoin:round;stroke-opacity:1"
             d="m -144.67075,338.3349 c 0,0 0.0238,-1.64605 0.0823,-2.46663 0.0498,-0.69822 -0.0493,-1.44498 0.22846,-2.08751 0.16476,-0.38116 0.80916,-0.94716 0.80916,-0.94716"
             id="path579059"
             sodipodi:nodetypes="caac" />
          <path
             style="opacity:1;fill:#b0a693;fill-opacity:1;stroke:#b0a693;stroke-width:0.25;stroke-linecap:round;stroke-linejoin:round;stroke-opacity:1"
             d="m -142.88996,339.78833 c 0,0 0.59823,-1.94536 1.2746,-2.65821 0.60694,-0.63968 2.23321,-1.26738 2.32202,-1.26738"
             id="path579061"
             sodipodi:nodetypes="cac" />
          <path
             style="opacity:1;fill:#b0a693;fill-opacity:1;stroke:#b0a693;stroke-width:0.25;stroke-linecap:round;stroke-linejoin:round;stroke-opacity:1"
             d="m -143.43156,338.26214 c 0,0 0.48336,-0.67782 0.78462,-0.96118 0.35507,-0.33397 1.18731,-0.85371 1.18731,-0.85371"
             id="path579063"
             sodipodi:nodetypes="cac" />
        </g>
        <path
           style="opacity:1;fill:#b0a693;fill-opacity:1;stroke:#b0a693;stroke-width:0.25;stroke-linecap:round;stroke-linejoin:round;stroke-opacity:1"
           d="m -154.28704,340.2444 1.09308,-1.38547"
           id="path579067" />
        <path
           style="opacity:1;fill:#b0a693;fill-opacity:1;stroke:#b0a693;stroke-width:0.25;stroke-linecap:round;stroke-linejoin:round;stroke-opacity:1"
           d="m -153.99912,341.79687 0.96655,-1.264"
           id="path579069" />
        <path
           style="opacity:1;fill:#b0a693;fill-opacity:1;stroke:#b0a693;stroke-width:0.25;stroke-linecap:round;stroke-linejoin:round;stroke-opacity:1"
           d="m -152.83423,342.02898 c 0.0436,-0.10943 1.18965,-1.23195 1.18965,-1.23195"
           id="path579071" />
        <path
           style="opacity:1;fill:#b0a693;fill-opacity:1;stroke:#b0a693;stroke-width:0.25;stroke-linecap:round;stroke-linejoin:round;stroke-opacity:1"
           d="m -151.06744,341.99686 c 0.0584,-0.11318 1.04212,-1.42491 1.04212,-1.42491"
           id="path579073" />
        <path
           style="opacity:1;fill:#b0a693;fill-opacity:1;stroke:#b0a693;stroke-width:0.25;stroke-linecap:round;stroke-linejoin:round;stroke-opacity:1"
           d="m -149.05704,339.34836 0.57987,-0.8083"
           id="path579075" />
        <path
           style="opacity:1;fill:#b0a693;fill-opacity:1;stroke:#b0a693;stroke-width:0.25;stroke-linecap:round;stroke-linejoin:round;stroke-opacity:1"
           d="m -149.3015,341.98205 1.58241,-2.37985"
           id="path579077" />
        <path
           style="opacity:1;fill:#b0a693;fill-opacity:1;stroke:#b0a693;stroke-width:0.25;stroke-linecap:round;stroke-linejoin:round;stroke-opacity:1"
           d="m -147.59636,341.90759 0.95333,-1.28402"
           id="path579079" />
        <path
           style="opacity:1;fill:#b0a693;fill-opacity:1;stroke:#b0a693;stroke-width:0.25;stroke-linecap:round;stroke-linejoin:round;stroke-opacity:1"
           d="m -146.11107,341.89426 c 0.0841,-0.12208 0.75632,-1.12551 0.75632,-1.12551"
           id="path579081" />
        <path
           style="opacity:1;fill:#b0a693;fill-opacity:1;stroke:#b0a693;stroke-width:0.25;stroke-linecap:round;stroke-linejoin:round;stroke-opacity:1"
           d="m -144.34824,341.76855 c 0.0893,-0.0573 0.75502,-1.1807 0.75502,-1.1807"
           id="path579083" />
        <path
           style="opacity:1;fill:#b0a693;fill-opacity:1;stroke:#b0a693;stroke-width:0.25;stroke-linecap:round;stroke-linejoin:round;stroke-opacity:1"
           d="m -142.84595,341.90646 c 0.0897,-0.16172 0.53331,-1.06096 0.53331,-1.06096"
           id="path579085" />
        <path
           style="opacity:1;fill:#b0a693;fill-opacity:1;stroke:#b0a693;stroke-width:0.25;stroke-linecap:round;stroke-linejoin:round;stroke-opacity:1"
           d="m -141.59001,341.77911 c 0.0689,-0.0996 1.01911,-1.87042 1.01911,-1.87042"
           id="path579087"
           sodipodi:nodetypes="cc" />
        <path
           style="opacity:1;fill:#b0a693;fill-opacity:1;stroke:#b0a693;stroke-width:0.25;stroke-linecap:round;stroke-linejoin:round;stroke-opacity:1"
           d="m -141.69824,339.88827 0.51919,-0.75825"
           id="path579089" />
      </g>
    </g>
  </g>
</svg>
