<?xml version="1.0" encoding="UTF-8" standalone="no"?>
<!-- Created with Inkscape (http://www.inkscape.org/) -->

<svg
   width="20.204275mm"
   height="15.353288mm"
   viewBox="0 0 20.204276 15.353287"
   version="1.1"
   id="svg5"
   inkscape:version="1.2.2 (b0a8486541, 2022-12-01)"
   sodipodi:docname="grass_0.svg"
   xmlns:inkscape="http://www.inkscape.org/namespaces/inkscape"
   xmlns:sodipodi="http://sodipodi.sourceforge.net/DTD/sodipodi-0.dtd"
   xmlns="http://www.w3.org/2000/svg"
   xmlns:svg="http://www.w3.org/2000/svg">
  <sodipodi:namedview
     id="namedview7"
     pagecolor="#4d4d4d"
     bordercolor="#666666"
     borderopacity="1.0"
     inkscape:pageshadow="2"
     inkscape:pageopacity="0"
     inkscape:pagecheckerboard="false"
     inkscape:document-units="mm"
     showgrid="false"
     inkscape:zoom="0.56569164"
     inkscape:cx="-28.28396"
     inkscape:cy="42.425941"
     inkscape:window-width="956"
     inkscape:window-height="1037"
     inkscape:window-x="960"
     inkscape:window-y="0"
     inkscape:window-maximized="1"
     inkscape:current-layer="layer1"
     inkscape:showpageshadow="2"
     inkscape:deskcolor="#4d4d4d" />
  <defs
     id="defs2" />
  <g
     inkscape:label="Layer 1"
     inkscape:groupmode="layer"
     id="layer1"
     transform="translate(56.965469,-137.54761)">
    <g
       id="g569036"
       transform="translate(152.22661,-157.15611)">
      <g
         id="g567465"
         transform="translate(-22.123874,-36.21376)">
        <path
           style="opacity:1;fill:#b0a693;fill-opacity:1;stroke:#000000;stroke-width:0.25;stroke-linecap:round;stroke-linejoin:round;stroke-opacity:1"
           d="m -179.3077,345.20475 -0.75417,-3.14467 -2.14532,-1.51562 -3.68102,-1.01148 -1.055,-2.50594 4.00603,-0.71216 1.63404,-1.02128 4.44341,0.63351 3.41471,-4.88463 3.03448,0.48032 0.78569,1.72501 -2.18145,2.4925 3.30081,-0.12332 1.51656,1.41505 -0.16237,2.56185 -3.07258,0.13069 -2.07191,1.37262 -0.52238,4.63915 -2.94314,-0.0738 -2.27433,0.48322 z"
           id="path550116"
           sodipodi:nodetypes="ccccccccccccccccccccc" />
        <g
           id="g550114"
           transform="translate(6.8364243,-1.3009588)">
          <path
             style="opacity:1;fill:#bbdfa0;fill-opacity:1;stroke:#000000;stroke-width:0.25;stroke-linecap:round;stroke-linejoin:round;stroke-opacity:1"
             d="m -184.85831,345.65079 c 0,0 -0.21746,-2.00839 -0.76826,-2.80689 -1.15493,-1.6743 -2.95699,-3.10037 -4.92961,-3.59626 -0.53136,-0.13358 -1.62811,0.22561 -1.62811,0.22561 0,0 1.29245,-0.76171 1.99555,-0.70451 1.5611,0.127 2.86714,1.31944 4.11967,2.25983 0.87231,0.65492 2.31188,2.31598 2.31188,2.31598 l 0.86623,1.52003"
             id="path540834"
             sodipodi:nodetypes="caacaac" />
          <path
             style="opacity:1;fill:#bbdfa0;fill-opacity:1;stroke:#000000;stroke-width:0.25;stroke-linecap:round;stroke-linejoin:round;stroke-opacity:1"
             d="m -183.02587,344.54605 0.0205,-0.82001 -0.17195,-2.21879 c 0,0 0.45181,-1.80087 0.91481,-2.70679 0.67935,-1.32925 1.62818,-3.55093 2.60417,-4.82456 0.57522,-0.75064 1.62347,0.28162 1.62347,0.28162 0,0 -0.91446,-0.64402 -1.46398,0.27533 -0.71264,1.19228 -1.27915,2.83272 -1.66604,3.94672 -0.18869,0.54331 -0.31689,1.12544 -0.29429,1.70014 0.0284,0.72417 0.53777,2.10663 0.53777,2.10663 l -0.10159,1.92721 0.41942,1.48499"
             id="path540832"
             sodipodi:nodetypes="csscssac" />
          <path
             style="opacity:1;fill:#bbdfa0;fill-opacity:1;stroke:#000000;stroke-width:0.25;stroke-linecap:round;stroke-linejoin:round;stroke-opacity:1"
             d="m -183.61101,345.35935 c 0,0 0.002,-2.24619 -0.41105,-3.26094 -0.41945,-1.03056 -1.20118,-1.90205 -2.01392,-2.66195 -0.60479,-0.56546 -2.07698,-1.36228 -2.07698,-1.36228 0,0 2.39935,0.44401 3.31523,1.17618 1.06237,0.84928 1.72544,2.16794 2.17762,3.45069 0.30943,0.8778 0.32002,2.77384 0.32002,2.77384"
             id="path540828"
             sodipodi:nodetypes="caacaac" />
          <path
             style="opacity:1;fill:#bbdfa0;fill-opacity:1;stroke:#000000;stroke-width:0.25;stroke-linecap:round;stroke-linejoin:round;stroke-opacity:1"
             d="m -180.64733,345.78939 c 0,0 0.29923,-3.19953 1.13409,-4.50293 0.76741,-1.19808 1.93716,-2.35965 3.32393,-2.67774 0.32957,-0.0756 0.98832,0.22849 0.98832,0.22849 0,0 -0.23526,-0.78876 -0.57294,-0.87196 -0.72453,-0.17851 -1.34309,0.31018 -2.025,0.72422 -0.81805,0.49668 -1.67936,1.00117 -2.28127,1.66374 -0.94506,1.04031 -1.68242,3.86626 -1.68242,3.86626"
             id="path540830"
             sodipodi:nodetypes="caacsssc" />
          <path
             style="opacity:1;fill:none;fill-opacity:1;stroke:#000000;stroke-width:0.25;stroke-linecap:round;stroke-linejoin:round;stroke-opacity:1"
             d="m -184.54488,344.85932 c 0,0 -0.29792,-1.65165 -0.73696,-2.34252 -0.64931,-1.02174 -2.67372,-2.45791 -2.67372,-2.45791"
             id="path540836"
             sodipodi:nodetypes="cac" />
          <path
             style="opacity:1;fill:none;fill-opacity:1;stroke:#000000;stroke-width:0.25;stroke-linecap:round;stroke-linejoin:round;stroke-opacity:1"
             d="m -184.25349,343.62839 0.30962,1.46326"
             id="path540838"
             sodipodi:nodetypes="cc" />
          <path
             style="opacity:1;fill:none;fill-opacity:1;stroke:#000000;stroke-width:0.25;stroke-linecap:round;stroke-linejoin:round;stroke-opacity:1"
             d="m -182.61993,342.90878 -0.5427,1.07968"
             id="path540840"
             sodipodi:nodetypes="cc" />
          <path
             style="opacity:1;fill:none;fill-opacity:1;stroke:#000000;stroke-width:0.25;stroke-linecap:round;stroke-linejoin:round;stroke-opacity:1"
             d="m -182.48756,344.43008 -0.62002,0.82804"
             id="path540842"
             sodipodi:nodetypes="cc" />
          <path
             style="opacity:1;fill:none;fill-opacity:1;stroke:#000000;stroke-width:0.25;stroke-linecap:round;stroke-linejoin:round;stroke-opacity:1"
             d="m -183.36129,342.82549 0.19738,-0.9801"
             id="path540844"
             sodipodi:nodetypes="cc" />
          <path
             style="opacity:1;fill:none;fill-opacity:1;stroke:#000000;stroke-width:0.25;stroke-linecap:round;stroke-linejoin:round;stroke-opacity:1"
             d="m -183.20617,343.18733 0.34706,-0.78467"
             id="path540846"
             sodipodi:nodetypes="cc" />
          <path
             style="opacity:1;fill:none;fill-opacity:1;stroke:#000000;stroke-width:0.25;stroke-linecap:round;stroke-linejoin:round;stroke-opacity:1"
             d="m -182.81186,344.34038 0.32276,-0.32422"
             id="path540848"
             sodipodi:nodetypes="cc" />
          <path
             style="opacity:1;fill:none;fill-opacity:1;stroke:#000000;stroke-width:0.25;stroke-linecap:round;stroke-linejoin:round;stroke-opacity:1"
             d="m -181.84931,342.93867 c 0.0223,-0.0858 0.24582,-0.69487 0.2654,-1.05791 0.0333,-0.61748 -0.28255,-1.21972 -0.25526,-1.8375 0.0243,-0.55068 0.23223,-1.07803 0.37106,-1.61147 0.0348,-0.13388 0.11585,-0.39852 0.11585,-0.39852"
             id="path540850"
             sodipodi:nodetypes="caaac" />
          <path
             style="opacity:1;fill:none;fill-opacity:1;stroke:#000000;stroke-width:0.25;stroke-linecap:round;stroke-linejoin:round;stroke-opacity:1"
             d="m -180.38776,342.18038 c 0.0881,-0.17841 0.1471,-1.0236 0.43093,-1.43425 0.34683,-0.50179 1.45336,-1.112 1.45336,-1.112"
             id="path540852"
             sodipodi:nodetypes="cac" />
          <path
             style="opacity:1;fill:none;fill-opacity:1;stroke:#000000;stroke-width:0.25;stroke-linecap:round;stroke-linejoin:round;stroke-opacity:1"
             d="m -176.95206,338.51805 c 0,0 0.45268,-0.22762 0.69888,-0.24382 0.12624,-0.008 0.37165,0.077 0.37165,0.077"
             id="path540854"
             sodipodi:nodetypes="cac" />
        </g>
        <path
           style="opacity:1;fill:#b0a693;fill-opacity:1;stroke:#000000;stroke-width:0.25;stroke-linecap:round;stroke-linejoin:round;stroke-opacity:1"
           d="m -178.97405,344.43979 0.33631,-0.46117"
           id="path558804" />
        <path
           style="opacity:1;fill:#b0a693;fill-opacity:1;stroke:#000000;stroke-width:0.25;stroke-linecap:round;stroke-linejoin:round;stroke-opacity:1"
           d="m -178.55311,345.07585 0.34068,-0.36015"
           id="path558806" />
        <path
           style="opacity:1;fill:#b0a693;fill-opacity:1;stroke:#000000;stroke-width:0.25;stroke-linecap:round;stroke-linejoin:round;stroke-opacity:1"
           d="m -177.9296,345.33469 c 0.0905,-0.0694 0.8622,-0.93369 0.8622,-0.93369"
           id="path558808" />
        <path
           style="opacity:1;fill:#b0a693;fill-opacity:1;stroke:#000000;stroke-width:0.25;stroke-linecap:round;stroke-linejoin:round;stroke-opacity:1"
           d="m -176.96889,345.43542 c 0.10789,-0.086 0.83445,-1.07802 0.83445,-1.07802"
           id="path558810" />
        <path
           style="opacity:1;fill:#b0a693;fill-opacity:1;stroke:#000000;stroke-width:0.25;stroke-linecap:round;stroke-linejoin:round;stroke-opacity:1"
           d="m -175.54722,345.11212 0.53825,-0.82191"
           id="path558812"
           sodipodi:nodetypes="cc" />
        <path
           style="opacity:1;fill:#b0a693;fill-opacity:1;stroke:#000000;stroke-width:0.25;stroke-linecap:round;stroke-linejoin:round;stroke-opacity:1"
           d="m -174.81891,345.25836 0.43679,-0.63924"
           id="path558814"
           sodipodi:nodetypes="cc" />
        <path
           style="opacity:1;fill:#b0a693;fill-opacity:1;stroke:#000000;stroke-width:0.25;stroke-linecap:round;stroke-linejoin:round;stroke-opacity:1"
           d="m -173.68006,345.2501 0.55033,-1.14234"
           id="path558816"
           sodipodi:nodetypes="cc" />
      </g>
      <g
         id="g567513"
         transform="translate(-22.123874,-36.21376)"
         style="opacity:0.5;fill:#b0a693;fill-opacity:1;stroke:#b0a693;stroke-opacity:1">
        <path
           style="opacity:1;fill:#b0a693;fill-opacity:1;stroke:#b0a693;stroke-width:0.25;stroke-linecap:round;stroke-linejoin:round;stroke-opacity:1"
           d="m -179.3077,345.20475 -0.75417,-3.14467 -2.14532,-1.51562 -3.68102,-1.01148 -1.055,-2.50594 4.00603,-0.71216 1.63404,-1.02128 4.44341,0.63351 3.41471,-4.88463 3.03448,0.48032 0.78569,1.72501 -2.18145,2.4925 3.30081,-0.12332 1.51656,1.41505 -0.16237,2.56185 -3.07258,0.13069 -2.07191,1.37262 -0.52238,4.63915 -2.94314,-0.0738 -2.27433,0.48322 z"
           id="path567467"
           sodipodi:nodetypes="ccccccccccccccccccccc" />
        <g
           id="g567497"
           transform="translate(6.8364243,-1.3009588)"
           style="fill:#b0a693;fill-opacity:1;stroke:#b0a693;stroke-opacity:1">
          <path
             style="opacity:1;fill:#b0a693;fill-opacity:1;stroke:#b0a693;stroke-width:0.25;stroke-linecap:round;stroke-linejoin:round;stroke-opacity:1"
             d="m -184.85831,345.65079 c 0,0 -0.21746,-2.00839 -0.76826,-2.80689 -1.15493,-1.6743 -2.95699,-3.10037 -4.92961,-3.59626 -0.53136,-0.13358 -1.62811,0.22561 -1.62811,0.22561 0,0 1.29245,-0.76171 1.99555,-0.70451 1.5611,0.127 2.86714,1.31944 4.11967,2.25983 0.87231,0.65492 2.31188,2.31598 2.31188,2.31598 l 0.86623,1.52003"
             id="path567469"
             sodipodi:nodetypes="caacaac" />
          <path
             style="opacity:1;fill:#b0a693;fill-opacity:1;stroke:#b0a693;stroke-width:0.25;stroke-linecap:round;stroke-linejoin:round;stroke-opacity:1"
             d="m -183.02587,344.54605 0.0205,-0.82001 -0.17195,-2.21879 c 0,0 0.45181,-1.80087 0.91481,-2.70679 0.67935,-1.32925 1.62818,-3.55093 2.60417,-4.82456 0.57522,-0.75064 1.62347,0.28162 1.62347,0.28162 0,0 -0.91446,-0.64402 -1.46398,0.27533 -0.71264,1.19228 -1.27915,2.83272 -1.66604,3.94672 -0.18869,0.54331 -0.31689,1.12544 -0.29429,1.70014 0.0284,0.72417 0.53777,2.10663 0.53777,2.10663 l -0.10159,1.92721 0.41942,1.48499"
             id="path567471"
             sodipodi:nodetypes="csscssac" />
          <path
             style="opacity:1;fill:#b0a693;fill-opacity:1;stroke:#b0a693;stroke-width:0.25;stroke-linecap:round;stroke-linejoin:round;stroke-opacity:1"
             d="m -183.61101,345.35935 c 0,0 0.002,-2.24619 -0.41105,-3.26094 -0.41945,-1.03056 -1.20118,-1.90205 -2.01392,-2.66195 -0.60479,-0.56546 -2.07698,-1.36228 -2.07698,-1.36228 0,0 2.39935,0.44401 3.31523,1.17618 1.06237,0.84928 1.72544,2.16794 2.17762,3.45069 0.30943,0.8778 0.32002,2.77384 0.32002,2.77384"
             id="path567473"
             sodipodi:nodetypes="caacaac" />
          <path
             style="opacity:1;fill:#b0a693;fill-opacity:1;stroke:#b0a693;stroke-width:0.25;stroke-linecap:round;stroke-linejoin:round;stroke-opacity:1"
             d="m -180.64733,345.78939 c 0,0 0.29923,-3.19953 1.13409,-4.50293 0.76741,-1.19808 1.93716,-2.35965 3.32393,-2.67774 0.32957,-0.0756 0.98832,0.22849 0.98832,0.22849 0,0 -0.23526,-0.78876 -0.57294,-0.87196 -0.72453,-0.17851 -1.34309,0.31018 -2.025,0.72422 -0.81805,0.49668 -1.67936,1.00117 -2.28127,1.66374 -0.94506,1.04031 -1.68242,3.86626 -1.68242,3.86626"
             id="path567475"
             sodipodi:nodetypes="caacsssc" />
          <path
             style="opacity:1;fill:#b0a693;fill-opacity:1;stroke:#b0a693;stroke-width:0.25;stroke-linecap:round;stroke-linejoin:round;stroke-opacity:1"
             d="m -184.54488,344.85932 c 0,0 -0.29792,-1.65165 -0.73696,-2.34252 -0.64931,-1.02174 -2.67372,-2.45791 -2.67372,-2.45791"
             id="path567477"
             sodipodi:nodetypes="cac" />
          <path
             style="opacity:1;fill:#b0a693;fill-opacity:1;stroke:#b0a693;stroke-width:0.25;stroke-linecap:round;stroke-linejoin:round;stroke-opacity:1"
             d="m -184.25349,343.62839 0.30962,1.46326"
             id="path567479"
             sodipodi:nodetypes="cc" />
          <path
             style="opacity:1;fill:#b0a693;fill-opacity:1;stroke:#b0a693;stroke-width:0.25;stroke-linecap:round;stroke-linejoin:round;stroke-opacity:1"
             d="m -182.61993,342.90878 -0.5427,1.07968"
             id="path567481"
             sodipodi:nodetypes="cc" />
          <path
             style="opacity:1;fill:#b0a693;fill-opacity:1;stroke:#b0a693;stroke-width:0.25;stroke-linecap:round;stroke-linejoin:round;stroke-opacity:1"
             d="m -182.48756,344.43008 -0.62002,0.82804"
             id="path567483"
             sodipodi:nodetypes="cc" />
          <path
             style="opacity:1;fill:#b0a693;fill-opacity:1;stroke:#b0a693;stroke-width:0.25;stroke-linecap:round;stroke-linejoin:round;stroke-opacity:1"
             d="m -183.36129,342.82549 0.19738,-0.9801"
             id="path567485"
             sodipodi:nodetypes="cc" />
          <path
             style="opacity:1;fill:#b0a693;fill-opacity:1;stroke:#b0a693;stroke-width:0.25;stroke-linecap:round;stroke-linejoin:round;stroke-opacity:1"
             d="m -183.20617,343.18733 0.34706,-0.78467"
             id="path567487"
             sodipodi:nodetypes="cc" />
          <path
             style="opacity:1;fill:#b0a693;fill-opacity:1;stroke:#b0a693;stroke-width:0.25;stroke-linecap:round;stroke-linejoin:round;stroke-opacity:1"
             d="m -182.81186,344.34038 0.32276,-0.32422"
             id="path567489"
             sodipodi:nodetypes="cc" />
          <path
             style="opacity:1;fill:#b0a693;fill-opacity:1;stroke:#b0a693;stroke-width:0.25;stroke-linecap:round;stroke-linejoin:round;stroke-opacity:1"
             d="m -181.84931,342.93867 c 0.0223,-0.0858 0.24582,-0.69487 0.2654,-1.05791 0.0333,-0.61748 -0.28255,-1.21972 -0.25526,-1.8375 0.0243,-0.55068 0.23223,-1.07803 0.37106,-1.61147 0.0348,-0.13388 0.11585,-0.39852 0.11585,-0.39852"
             id="path567491"
             sodipodi:nodetypes="caaac" />
          <path
             style="opacity:1;fill:#b0a693;fill-opacity:1;stroke:#b0a693;stroke-width:0.25;stroke-linecap:round;stroke-linejoin:round;stroke-opacity:1"
             d="m -180.38776,342.18038 c 0.0881,-0.17841 0.1471,-1.0236 0.43093,-1.43425 0.34683,-0.50179 1.45336,-1.112 1.45336,-1.112"
             id="path567493"
             sodipodi:nodetypes="cac" />
          <path
             style="opacity:1;fill:#b0a693;fill-opacity:1;stroke:#b0a693;stroke-width:0.25;stroke-linecap:round;stroke-linejoin:round;stroke-opacity:1"
             d="m -176.95206,338.51805 c 0,0 0.45268,-0.22762 0.69888,-0.24382 0.12624,-0.008 0.37165,0.077 0.37165,0.077"
             id="path567495"
             sodipodi:nodetypes="cac" />
        </g>
        <path
           style="opacity:1;fill:#b0a693;fill-opacity:1;stroke:#b0a693;stroke-width:0.25;stroke-linecap:round;stroke-linejoin:round;stroke-opacity:1"
           d="m -178.97405,344.43979 0.33631,-0.46117"
           id="path567499" />
        <path
           style="opacity:1;fill:#b0a693;fill-opacity:1;stroke:#b0a693;stroke-width:0.25;stroke-linecap:round;stroke-linejoin:round;stroke-opacity:1"
           d="m -178.55311,345.07585 0.34068,-0.36015"
           id="path567501" />
        <path
           style="opacity:1;fill:#b0a693;fill-opacity:1;stroke:#b0a693;stroke-width:0.25;stroke-linecap:round;stroke-linejoin:round;stroke-opacity:1"
           d="m -177.9296,345.33469 c 0.0905,-0.0694 0.8622,-0.93369 0.8622,-0.93369"
           id="path567503" />
        <path
           style="opacity:1;fill:#b0a693;fill-opacity:1;stroke:#b0a693;stroke-width:0.25;stroke-linecap:round;stroke-linejoin:round;stroke-opacity:1"
           d="m -176.96889,345.43542 c 0.10789,-0.086 0.83445,-1.07802 0.83445,-1.07802"
           id="path567505" />
        <path
           style="opacity:1;fill:#b0a693;fill-opacity:1;stroke:#b0a693;stroke-width:0.25;stroke-linecap:round;stroke-linejoin:round;stroke-opacity:1"
           d="m -175.54722,345.11212 0.53825,-0.82191"
           id="path567507"
           sodipodi:nodetypes="cc" />
        <path
           style="opacity:1;fill:#b0a693;fill-opacity:1;stroke:#b0a693;stroke-width:0.25;stroke-linecap:round;stroke-linejoin:round;stroke-opacity:1"
           d="m -174.81891,345.25836 0.43679,-0.63924"
           id="path567509"
           sodipodi:nodetypes="cc" />
        <path
           style="opacity:1;fill:#b0a693;fill-opacity:1;stroke:#b0a693;stroke-width:0.25;stroke-linecap:round;stroke-linejoin:round;stroke-opacity:1"
           d="m -173.68006,345.2501 0.55033,-1.14234"
           id="path567511"
           sodipodi:nodetypes="cc" />
      </g>
    </g>
  </g>
</svg>
