<?xml version="1.0" encoding="UTF-8" standalone="no"?>
<!-- Created with Inkscape (http://www.inkscape.org/) -->

<svg
   width="11.367101mm"
   height="6.9169292mm"
   viewBox="0 0 11.367101 6.9169291"
   version="1.1"
   id="svg5"
   inkscape:version="1.2.2 (b0a8486541, 2022-12-01)"
   sodipodi:docname="rock_0.svg"
   xmlns:inkscape="http://www.inkscape.org/namespaces/inkscape"
   xmlns:sodipodi="http://sodipodi.sourceforge.net/DTD/sodipodi-0.dtd"
   xmlns="http://www.w3.org/2000/svg"
   xmlns:svg="http://www.w3.org/2000/svg">
  <sodipodi:namedview
     id="namedview7"
     pagecolor="#4d4d4d"
     bordercolor="#666666"
     borderopacity="1.0"
     inkscape:pageshadow="2"
     inkscape:pageopacity="0"
     inkscape:pagecheckerboard="false"
     inkscape:document-units="mm"
     showgrid="false"
     inkscape:zoom="0.56569164"
     inkscape:cx="-54.800173"
     inkscape:cy="30.051708"
     inkscape:window-width="956"
     inkscape:window-height="1037"
     inkscape:window-x="960"
     inkscape:window-y="0"
     inkscape:window-maximized="1"
     inkscape:current-layer="layer1"
     inkscape:showpageshadow="2"
     inkscape:deskcolor="#4d4d4d" />
  <defs
     id="defs2" />
  <g
     inkscape:label="Layer 1"
     inkscape:groupmode="layer"
     id="layer1"
     transform="translate(50.559989,-140.82588)">
    <g
       id="g568956"
       transform="translate(138.94464,-177.87693)">
      <g
         id="g471629"
         transform="translate(-137.39414,94.230043)">
        <path
           style="opacity:1;fill:#b0a693;fill-opacity:1;stroke:#000000;stroke-width:0.25;stroke-linecap:round;stroke-linejoin:round;stroke-opacity:1"
           d="m -50.852562,230.50349 5.344723,0.76121 2.546223,-0.47075 1.756513,-0.92266 0.336716,-2.80646 -4.368998,-2.07814 -4.462219,-0.38892 -2.285886,2.09032 0.489916,2.3609 z"
           id="path462863"
           sodipodi:nodetypes="cccccccccc" />
        <g
           id="g462861">
          <path
             style="fill:#b3b3b3;fill-opacity:1;stroke:#000000;stroke-width:0.25;stroke-linecap:round;stroke-linejoin:round;stroke-opacity:1"
             d="m -47.041249,229.98928 c -1.188572,-0.13009 -2.795335,-0.011 -3.439415,-1.01838 -0.486506,-0.76092 -0.299825,-2.1004 0.392029,-2.68094 1.641152,-1.37709 4.512701,-0.77864 6.42435,0.1885 0.883798,0.44713 2.095992,1.38717 1.829758,2.34119 -0.248955,0.89211 -1.692813,0.78797 -2.597376,0.98694 -0.851555,0.18731 -1.742608,0.27753 -2.609346,0.18269 z"
             id="path418586"
             sodipodi:nodetypes="aaaaaaa" />
          <path
             style="opacity:1;fill:none;fill-opacity:1;stroke:#000000;stroke-width:0.25;stroke-linecap:round;stroke-linejoin:round;stroke-opacity:1"
             d="m -49.495491,229.67844 c 0,0 -0.474867,-0.70879 -0.581403,-1.11382 -0.103127,-0.39207 -0.04052,-1.21555 -0.04052,-1.21555"
             id="path462641"
             sodipodi:nodetypes="cac" />
          <path
             style="opacity:1;fill:none;fill-opacity:1;stroke:#000000;stroke-width:0.25;stroke-linecap:round;stroke-linejoin:round;stroke-opacity:1"
             d="m -48.65455,229.85573 c 0,0 -0.520495,-0.54637 -0.677262,-0.88238 -0.142058,-0.30448 -0.21844,-0.98401 -0.21844,-0.98401"
             id="path462844"
             sodipodi:nodetypes="cac" />
          <path
             style="opacity:1;fill:none;fill-opacity:1;stroke:#000000;stroke-width:0.25;stroke-linecap:round;stroke-linejoin:round;stroke-opacity:1"
             d="m -47.979106,229.91767 c 0,0 -0.70691,-0.68115 -0.881729,-1.12413 -0.102692,-0.26022 -0.07261,-0.83609 -0.07261,-0.83609"
             id="path462846"
             sodipodi:nodetypes="cac" />
          <path
             style="opacity:1;fill:none;fill-opacity:1;stroke:#000000;stroke-width:0.25;stroke-linecap:round;stroke-linejoin:round;stroke-opacity:1"
             d="m -47.547234,229.94649 c 0,0 -0.271669,-0.46437 -0.386088,-0.70742 -0.104695,-0.2224 -0.273778,-0.68472 -0.273778,-0.68472"
             id="path462848"
             sodipodi:nodetypes="cac" />
          <path
             style="opacity:1;fill:none;fill-opacity:1;stroke:#000000;stroke-width:0.25;stroke-linecap:round;stroke-linejoin:round;stroke-opacity:1"
             d="m -46.678105,230.01835 c 0,0 -0.456833,-0.49172 -0.605258,-0.78772 -0.07804,-0.15563 -0.141541,-0.50276 -0.141541,-0.50276"
             id="path462850"
             sodipodi:nodetypes="cac" />
          <path
             style="opacity:1;fill:none;fill-opacity:1;stroke:#000000;stroke-width:0.25;stroke-linecap:round;stroke-linejoin:round;stroke-opacity:1"
             d="m -46.120977,230.02451 -0.364096,-0.79065"
             id="path462852"
             sodipodi:nodetypes="cc" />
        </g>
        <path
           style="opacity:1;fill:none;fill-opacity:1;stroke:#000000;stroke-width:0.25;stroke-linecap:round;stroke-linejoin:round;stroke-opacity:1"
           d="m -49.685346,229.60761 0.637062,0.50646"
           id="path463003" />
        <path
           style="opacity:1;fill:none;fill-opacity:1;stroke:#000000;stroke-width:0.25;stroke-linecap:round;stroke-linejoin:round;stroke-opacity:1"
           d="m -48.654553,229.85573 0.479386,0.46877"
           id="path463005" />
        <path
           style="opacity:1;fill:none;fill-opacity:1;stroke:#000000;stroke-width:0.25;stroke-linecap:round;stroke-linejoin:round;stroke-opacity:1"
           d="m -47.979109,229.91767 0.526558,0.38852"
           id="path463007" />
        <path
           style="opacity:1;fill:none;fill-opacity:1;stroke:#000000;stroke-width:0.25;stroke-linecap:round;stroke-linejoin:round;stroke-opacity:1"
           d="m -47.041251,229.98927 0.410986,0.47032"
           id="path463009" />
        <path
           style="opacity:1;fill:none;fill-opacity:1;stroke:#000000;stroke-width:0.25;stroke-linecap:round;stroke-linejoin:round;stroke-opacity:1"
           d="m -46.120979,230.02451 0.523832,0.50229"
           id="path463011" />
        <path
           style="opacity:1;fill:none;fill-opacity:1;stroke:#000000;stroke-width:0.25;stroke-linecap:round;stroke-linejoin:round;stroke-opacity:1"
           d="m -45.494486,229.98191 0.647118,0.48697"
           id="path463013" />
        <path
           style="opacity:1;fill:none;fill-opacity:1;stroke:#000000;stroke-width:0.25;stroke-linecap:round;stroke-linejoin:round;stroke-opacity:1"
           d="m -44.624959,229.84721 0.495832,0.45974"
           id="path463015" />
        <path
           style="opacity:1;fill:none;fill-opacity:1;stroke:#000000;stroke-width:0.25;stroke-linecap:round;stroke-linejoin:round;stroke-opacity:1"
           d="m -43.827243,229.71183 0.53046,0.38594"
           id="path463017" />
        <path
           style="opacity:1;fill:none;fill-opacity:1;stroke:#000000;stroke-width:0.25;stroke-linecap:round;stroke-linejoin:round;stroke-opacity:1"
           d="m -42.976034,229.59139 0.607449,0.41844"
           id="path463019" />
        <path
           style="opacity:1;fill:none;fill-opacity:1;stroke:#000000;stroke-width:0.25;stroke-linecap:round;stroke-linejoin:round;stroke-opacity:1"
           d="m -42.215071,229.32022 0.421169,0.33586"
           id="path463021" />
      </g>
      <g
         id="g568390"
         transform="translate(-137.39414,94.230043)"
         style="opacity:0.5;fill:#b0a693;fill-opacity:1;stroke:#b0a693;stroke-opacity:1">
        <path
           style="opacity:1;fill:#b0a693;fill-opacity:1;stroke:#b0a693;stroke-width:0.25;stroke-linecap:round;stroke-linejoin:round;stroke-opacity:1"
           d="m -50.852562,230.50349 5.344723,0.76121 2.546223,-0.47075 1.756513,-0.92266 0.336716,-2.80646 -4.368998,-2.07814 -4.462219,-0.38892 -2.285886,2.09032 0.489916,2.3609 z"
           id="path568352"
           sodipodi:nodetypes="cccccccccc" />
        <g
           id="g568368"
           style="fill:#b0a693;fill-opacity:1;stroke:#b0a693;stroke-opacity:1">
          <path
             style="fill:#b0a693;fill-opacity:1;stroke:#b0a693;stroke-width:0.25;stroke-linecap:round;stroke-linejoin:round;stroke-opacity:1"
             d="m -47.041249,229.98928 c -1.188572,-0.13009 -2.795335,-0.011 -3.439415,-1.01838 -0.486506,-0.76092 -0.299825,-2.1004 0.392029,-2.68094 1.641152,-1.37709 4.512701,-0.77864 6.42435,0.1885 0.883798,0.44713 2.095992,1.38717 1.829758,2.34119 -0.248955,0.89211 -1.692813,0.78797 -2.597376,0.98694 -0.851555,0.18731 -1.742608,0.27753 -2.609346,0.18269 z"
             id="path568354"
             sodipodi:nodetypes="aaaaaaa" />
          <path
             style="opacity:1;fill:#b0a693;fill-opacity:1;stroke:#b0a693;stroke-width:0.25;stroke-linecap:round;stroke-linejoin:round;stroke-opacity:1"
             d="m -49.495491,229.67844 c 0,0 -0.474867,-0.70879 -0.581403,-1.11382 -0.103127,-0.39207 -0.04052,-1.21555 -0.04052,-1.21555"
             id="path568356"
             sodipodi:nodetypes="cac" />
          <path
             style="opacity:1;fill:#b0a693;fill-opacity:1;stroke:#b0a693;stroke-width:0.25;stroke-linecap:round;stroke-linejoin:round;stroke-opacity:1"
             d="m -48.65455,229.85573 c 0,0 -0.520495,-0.54637 -0.677262,-0.88238 -0.142058,-0.30448 -0.21844,-0.98401 -0.21844,-0.98401"
             id="path568358"
             sodipodi:nodetypes="cac" />
          <path
             style="opacity:1;fill:#b0a693;fill-opacity:1;stroke:#b0a693;stroke-width:0.25;stroke-linecap:round;stroke-linejoin:round;stroke-opacity:1"
             d="m -47.979106,229.91767 c 0,0 -0.70691,-0.68115 -0.881729,-1.12413 -0.102692,-0.26022 -0.07261,-0.83609 -0.07261,-0.83609"
             id="path568360"
             sodipodi:nodetypes="cac" />
          <path
             style="opacity:1;fill:#b0a693;fill-opacity:1;stroke:#b0a693;stroke-width:0.25;stroke-linecap:round;stroke-linejoin:round;stroke-opacity:1"
             d="m -47.547234,229.94649 c 0,0 -0.271669,-0.46437 -0.386088,-0.70742 -0.104695,-0.2224 -0.273778,-0.68472 -0.273778,-0.68472"
             id="path568362"
             sodipodi:nodetypes="cac" />
          <path
             style="opacity:1;fill:#b0a693;fill-opacity:1;stroke:#b0a693;stroke-width:0.25;stroke-linecap:round;stroke-linejoin:round;stroke-opacity:1"
             d="m -46.678105,230.01835 c 0,0 -0.456833,-0.49172 -0.605258,-0.78772 -0.07804,-0.15563 -0.141541,-0.50276 -0.141541,-0.50276"
             id="path568364"
             sodipodi:nodetypes="cac" />
          <path
             style="opacity:1;fill:#b0a693;fill-opacity:1;stroke:#b0a693;stroke-width:0.25;stroke-linecap:round;stroke-linejoin:round;stroke-opacity:1"
             d="m -46.120977,230.02451 -0.364096,-0.79065"
             id="path568366"
             sodipodi:nodetypes="cc" />
        </g>
        <path
           style="opacity:1;fill:#b0a693;fill-opacity:1;stroke:#b0a693;stroke-width:0.25;stroke-linecap:round;stroke-linejoin:round;stroke-opacity:1"
           d="m -49.685346,229.60761 0.637062,0.50646"
           id="path568370" />
        <path
           style="opacity:1;fill:#b0a693;fill-opacity:1;stroke:#b0a693;stroke-width:0.25;stroke-linecap:round;stroke-linejoin:round;stroke-opacity:1"
           d="m -48.654553,229.85573 0.479386,0.46877"
           id="path568372" />
        <path
           style="opacity:1;fill:#b0a693;fill-opacity:1;stroke:#b0a693;stroke-width:0.25;stroke-linecap:round;stroke-linejoin:round;stroke-opacity:1"
           d="m -47.979109,229.91767 0.526558,0.38852"
           id="path568374" />
        <path
           style="opacity:1;fill:#b0a693;fill-opacity:1;stroke:#b0a693;stroke-width:0.25;stroke-linecap:round;stroke-linejoin:round;stroke-opacity:1"
           d="m -47.041251,229.98927 0.410986,0.47032"
           id="path568376" />
        <path
           style="opacity:1;fill:#b0a693;fill-opacity:1;stroke:#b0a693;stroke-width:0.25;stroke-linecap:round;stroke-linejoin:round;stroke-opacity:1"
           d="m -46.120979,230.02451 0.523832,0.50229"
           id="path568378" />
        <path
           style="opacity:1;fill:#b0a693;fill-opacity:1;stroke:#b0a693;stroke-width:0.25;stroke-linecap:round;stroke-linejoin:round;stroke-opacity:1"
           d="m -45.494486,229.98191 0.647118,0.48697"
           id="path568380" />
        <path
           style="opacity:1;fill:#b0a693;fill-opacity:1;stroke:#b0a693;stroke-width:0.25;stroke-linecap:round;stroke-linejoin:round;stroke-opacity:1"
           d="m -44.624959,229.84721 0.495832,0.45974"
           id="path568382" />
        <path
           style="opacity:1;fill:#b0a693;fill-opacity:1;stroke:#b0a693;stroke-width:0.25;stroke-linecap:round;stroke-linejoin:round;stroke-opacity:1"
           d="m -43.827243,229.71183 0.53046,0.38594"
           id="path568384" />
        <path
           style="opacity:1;fill:#b0a693;fill-opacity:1;stroke:#b0a693;stroke-width:0.25;stroke-linecap:round;stroke-linejoin:round;stroke-opacity:1"
           d="m -42.976034,229.59139 0.607449,0.41844"
           id="path568386" />
        <path
           style="opacity:1;fill:#b0a693;fill-opacity:1;stroke:#b0a693;stroke-width:0.25;stroke-linecap:round;stroke-linejoin:round;stroke-opacity:1"
           d="m -42.215071,229.32022 0.421169,0.33586"
           id="path568388" />
      </g>
    </g>
  </g>
</svg>
