<?xml version="1.0" encoding="UTF-8" standalone="no"?>
<!-- Created with Inkscape (http://www.inkscape.org/) -->

<svg
   width="8.1685028mm"
   height="6.2277088mm"
   viewBox="0 0 8.168503 6.2277087"
   version="1.1"
   id="svg5"
   inkscape:version="1.2.2 (b0a8486541, 2022-12-01)"
   sodipodi:docname="rock_2.svg"
   xmlns:inkscape="http://www.inkscape.org/namespaces/inkscape"
   xmlns:sodipodi="http://sodipodi.sourceforge.net/DTD/sodipodi-0.dtd"
   xmlns="http://www.w3.org/2000/svg"
   xmlns:svg="http://www.w3.org/2000/svg">
  <sodipodi:namedview
     id="namedview7"
     pagecolor="#4d4d4d"
     bordercolor="#666666"
     borderopacity="1.0"
     inkscape:pageshadow="2"
     inkscape:pageopacity="0"
     inkscape:pagecheckerboard="false"
     inkscape:document-units="mm"
     showgrid="false"
     inkscape:zoom="0.56569164"
     inkscape:cx="-26.516213"
     inkscape:cy="33.587203"
     inkscape:window-width="956"
     inkscape:window-height="1037"
     inkscape:window-x="960"
     inkscape:window-y="0"
     inkscape:window-maximized="1"
     inkscape:current-layer="layer1"
     inkscape:showpageshadow="2"
     inkscape:deskcolor="#4d4d4d" />
  <defs
     id="defs2" />
  <g
     inkscape:label="Layer 1"
     inkscape:groupmode="layer"
     id="layer1"
     transform="translate(57.788128,-140.0185)">
    <g
       id="g568914"
       transform="translate(133.45892,-170.2575)">
      <g
         id="g444595"
         transform="translate(-136.25104,85.998653)">
        <path
           style="fill:#b0a693;fill-opacity:1;stroke:#000000;stroke-width:0.25;stroke-linecap:round;stroke-linejoin:round;stroke-opacity:1"
           d="m -54.871009,228.8001 1.684398,1.44415 3.106788,0.13581 3.127319,-1.88513 -0.38019,-1.96054 -3.325723,-2.13204 -3.544924,0.97759 z"
           id="path444441" />
        <g
           id="g435872"
           transform="rotate(2.4800418,-26.91646,267.05232)">
          <path
             style="fill:#b3b3b3;fill-opacity:1;stroke:#000000;stroke-width:0.25;stroke-linecap:round;stroke-linejoin:round;stroke-opacity:1"
             d="m -55.035568,228.02973 c 0.424079,-0.8089 1.445977,-1.3201 2.355887,-1.39903 0.926485,-0.0804 1.957755,0.32561 2.608256,0.9902 0.336499,0.34379 0.682718,0.92216 0.483198,1.3599 -0.428896,0.94097 -1.857916,1.04028 -2.887807,1.13357 -0.828219,0.075 -1.897918,0.14393 -2.448323,-0.47947 -0.354979,-0.40206 -0.360247,-1.13015 -0.111211,-1.60517 z"
             id="path410052"
             sodipodi:nodetypes="aaaaaaa" />
          <path
             style="fill:none;fill-opacity:1;stroke:#000000;stroke-width:0.25;stroke-linecap:round;stroke-linejoin:round;stroke-opacity:1"
             d="m -53.677244,229.68182 c 0,0 -0.420315,-0.0479 -0.597426,-0.15211 -0.144144,-0.0848 -0.286856,-0.20786 -0.344353,-0.36491 -0.08854,-0.24184 0.04211,-0.77145 0.04211,-0.77145"
             id="path435838"
             sodipodi:nodetypes="caac" />
          <path
             style="fill:none;fill-opacity:1;stroke:#000000;stroke-width:0.25;stroke-linecap:round;stroke-linejoin:round;stroke-opacity:1"
             d="m -53.250434,229.69293 c 0,0 -0.05268,-0.28675 -0.149624,-0.38414 -0.172095,-0.17288 -0.680686,-0.26869 -0.680686,-0.26869"
             id="path435840"
             sodipodi:nodetypes="cac" />
          <path
             style="fill:none;fill-opacity:1;stroke:#000000;stroke-width:0.25;stroke-linecap:round;stroke-linejoin:round;stroke-opacity:1"
             d="m -53.390507,228.7878 0.665088,0.84918"
             id="path435842"
             sodipodi:nodetypes="cc" />
          <path
             style="fill:none;fill-opacity:1;stroke:#000000;stroke-width:0.25;stroke-linecap:round;stroke-linejoin:round;stroke-opacity:1"
             d="m -52.727342,228.94535 0.398118,0.67805"
             id="path435844"
             sodipodi:nodetypes="cc" />
          <path
             style="fill:none;fill-opacity:1;stroke:#000000;stroke-width:0.25;stroke-linecap:round;stroke-linejoin:round;stroke-opacity:1"
             d="m -51.065605,229.93058 -0.907288,0.52383"
             id="path435846" />
          <path
             style="fill:none;fill-opacity:1;stroke:#000000;stroke-width:0.25;stroke-linecap:round;stroke-linejoin:round;stroke-opacity:1"
             d="m -52.156014,230.08531 -0.699299,0.40376"
             id="path435848" />
          <path
             style="fill:none;fill-opacity:1;stroke:#000000;stroke-width:0.25;stroke-linecap:round;stroke-linejoin:round;stroke-opacity:1"
             d="m -53.021159,230.15439 -0.801339,0.46266"
             id="path435850" />
          <path
             style="fill:none;fill-opacity:1;stroke:#000000;stroke-width:0.25;stroke-linecap:round;stroke-linejoin:round;stroke-opacity:1"
             d="m -53.824365,230.13413 -1.002118,0.57859"
             id="path435852" />
          <path
             style="fill:none;fill-opacity:1;stroke:#000000;stroke-width:0.25;stroke-linecap:round;stroke-linejoin:round;stroke-opacity:1"
             d="m -54.500773,229.94979 -0.473649,0.27345"
             id="path435854" />
          <path
             style="fill:none;fill-opacity:1;stroke:#000000;stroke-width:0.25;stroke-linecap:round;stroke-linejoin:round;stroke-opacity:1"
             d="m -54.92436,229.63489 -0.695714,0.40169"
             id="path435856" />
          <path
             style="fill:none;fill-opacity:1;stroke:#000000;stroke-width:0.25;stroke-linecap:round;stroke-linejoin:round;stroke-opacity:1"
             d="m -55.123118,229.29079 -0.343175,0.19812"
             id="path435858" />
        </g>
      </g>
      <g
         id="g567867"
         transform="translate(-136.25104,85.998653)"
         style="opacity:0.5;fill:#b0a693;fill-opacity:1;stroke:#b0a693;stroke-opacity:1">
        <path
           style="fill:#b0a693;fill-opacity:1;stroke:#b0a693;stroke-width:0.25;stroke-linecap:round;stroke-linejoin:round;stroke-opacity:1"
           d="m -54.871009,228.8001 1.684398,1.44415 3.106788,0.13581 3.127319,-1.88513 -0.38019,-1.96054 -3.325723,-2.13204 -3.544924,0.97759 z"
           id="path567839" />
        <g
           id="g567865"
           transform="rotate(2.4800418,-26.91646,267.05232)"
           style="fill:#b0a693;fill-opacity:1;stroke:#b0a693;stroke-opacity:1">
          <path
             style="fill:#b0a693;fill-opacity:1;stroke:#b0a693;stroke-width:0.25;stroke-linecap:round;stroke-linejoin:round;stroke-opacity:1"
             d="m -55.035568,228.02973 c 0.424079,-0.8089 1.445977,-1.3201 2.355887,-1.39903 0.926485,-0.0804 1.957755,0.32561 2.608256,0.9902 0.336499,0.34379 0.682718,0.92216 0.483198,1.3599 -0.428896,0.94097 -1.857916,1.04028 -2.887807,1.13357 -0.828219,0.075 -1.897918,0.14393 -2.448323,-0.47947 -0.354979,-0.40206 -0.360247,-1.13015 -0.111211,-1.60517 z"
             id="path567841"
             sodipodi:nodetypes="aaaaaaa" />
          <path
             style="fill:#b0a693;fill-opacity:1;stroke:#b0a693;stroke-width:0.25;stroke-linecap:round;stroke-linejoin:round;stroke-opacity:1"
             d="m -53.677244,229.68182 c 0,0 -0.420315,-0.0479 -0.597426,-0.15211 -0.144144,-0.0848 -0.286856,-0.20786 -0.344353,-0.36491 -0.08854,-0.24184 0.04211,-0.77145 0.04211,-0.77145"
             id="path567843"
             sodipodi:nodetypes="caac" />
          <path
             style="fill:#b0a693;fill-opacity:1;stroke:#b0a693;stroke-width:0.25;stroke-linecap:round;stroke-linejoin:round;stroke-opacity:1"
             d="m -53.250434,229.69293 c 0,0 -0.05268,-0.28675 -0.149624,-0.38414 -0.172095,-0.17288 -0.680686,-0.26869 -0.680686,-0.26869"
             id="path567845"
             sodipodi:nodetypes="cac" />
          <path
             style="fill:#b0a693;fill-opacity:1;stroke:#b0a693;stroke-width:0.25;stroke-linecap:round;stroke-linejoin:round;stroke-opacity:1"
             d="m -53.390507,228.7878 0.665088,0.84918"
             id="path567847"
             sodipodi:nodetypes="cc" />
          <path
             style="fill:#b0a693;fill-opacity:1;stroke:#b0a693;stroke-width:0.25;stroke-linecap:round;stroke-linejoin:round;stroke-opacity:1"
             d="m -52.727342,228.94535 0.398118,0.67805"
             id="path567849"
             sodipodi:nodetypes="cc" />
          <path
             style="fill:#b0a693;fill-opacity:1;stroke:#b0a693;stroke-width:0.25;stroke-linecap:round;stroke-linejoin:round;stroke-opacity:1"
             d="m -51.065605,229.93058 -0.907288,0.52383"
             id="path567851" />
          <path
             style="fill:#b0a693;fill-opacity:1;stroke:#b0a693;stroke-width:0.25;stroke-linecap:round;stroke-linejoin:round;stroke-opacity:1"
             d="m -52.156014,230.08531 -0.699299,0.40376"
             id="path567853" />
          <path
             style="fill:#b0a693;fill-opacity:1;stroke:#b0a693;stroke-width:0.25;stroke-linecap:round;stroke-linejoin:round;stroke-opacity:1"
             d="m -53.021159,230.15439 -0.801339,0.46266"
             id="path567855" />
          <path
             style="fill:#b0a693;fill-opacity:1;stroke:#b0a693;stroke-width:0.25;stroke-linecap:round;stroke-linejoin:round;stroke-opacity:1"
             d="m -53.824365,230.13413 -1.002118,0.57859"
             id="path567857" />
          <path
             style="fill:#b0a693;fill-opacity:1;stroke:#b0a693;stroke-width:0.25;stroke-linecap:round;stroke-linejoin:round;stroke-opacity:1"
             d="m -54.500773,229.94979 -0.473649,0.27345"
             id="path567859" />
          <path
             style="fill:#b0a693;fill-opacity:1;stroke:#b0a693;stroke-width:0.25;stroke-linecap:round;stroke-linejoin:round;stroke-opacity:1"
             d="m -54.92436,229.63489 -0.695714,0.40169"
             id="path567861" />
          <path
             style="fill:#b0a693;fill-opacity:1;stroke:#b0a693;stroke-width:0.25;stroke-linecap:round;stroke-linejoin:round;stroke-opacity:1"
             d="m -55.123118,229.29079 -0.343175,0.19812"
             id="path567863" />
        </g>
      </g>
    </g>
  </g>
</svg>
