<?xml version="1.0" encoding="UTF-8" standalone="no"?>
<!-- Created with Inkscape (http://www.inkscape.org/) -->

<svg
   width="7.2231994mm"
   height="4.7413583mm"
   viewBox="0 0 7.2231995 4.7413582"
   version="1.1"
   id="svg5"
   inkscape:version="1.2.2 (b0a8486541, 2022-12-01)"
   sodipodi:docname="rock_1.svg"
   xmlns:inkscape="http://www.inkscape.org/namespaces/inkscape"
   xmlns:sodipodi="http://sodipodi.sourceforge.net/DTD/sodipodi-0.dtd"
   xmlns="http://www.w3.org/2000/svg"
   xmlns:svg="http://www.w3.org/2000/svg">
  <sodipodi:namedview
     id="namedview7"
     pagecolor="#4d4d4d"
     bordercolor="#666666"
     borderopacity="1.0"
     inkscape:pageshadow="2"
     inkscape:pageopacity="0"
     inkscape:pagecheckerboard="false"
     inkscape:document-units="mm"
     showgrid="false"
     inkscape:zoom="0.56569164"
     inkscape:cx="-24.748465"
     inkscape:cy="35.354951"
     inkscape:window-width="956"
     inkscape:window-height="1037"
     inkscape:window-x="960"
     inkscape:window-y="0"
     inkscape:window-maximized="1"
     inkscape:current-layer="layer1"
     inkscape:showpageshadow="2"
     inkscape:deskcolor="#4d4d4d" />
  <defs
     id="defs2" />
  <g
     inkscape:label="Layer 1"
     inkscape:groupmode="layer"
     id="layer1"
     transform="translate(58.381042,-139.39063)">
    <g
       id="g568986"
       transform="translate(118.25785,-177.11194)">
      <g
         id="g497437"
         transform="translate(-137.39414,94.230043)">
        <path
           style="opacity:1;fill:#b0a693;fill-opacity:1;stroke:#000000;stroke-width:0.25;stroke-linecap:round;stroke-linejoin:round;stroke-opacity:1"
           d="m -36.622693,226.88889 -2.49706,-1.09353 0.288063,-1.77012 1.952156,-1.62771 3.18102,0.71493 1.551966,1.7863 -1.274307,1.41136 z"
           id="path480219"
           sodipodi:nodetypes="cccccccc" />
        <path
           style="fill:#b3b3b3;fill-opacity:1;stroke:#000000;stroke-width:0.25;stroke-linecap:round;stroke-linejoin:round;stroke-opacity:1"
           d="m -38.034016,225.15199 c -0.217531,-0.83462 1.045804,-1.6063 1.893953,-1.76297 0.71195,-0.13151 1.480536,0.32432 2.01358,0.81425 0.22952,0.21096 0.530363,0.54202 0.422312,0.83444 -0.222101,0.60107 -1.135925,0.68912 -1.774798,0.73864 -0.87412,0.0677 -2.333923,0.22404 -2.555047,-0.62436 z"
           id="path418588"
           sodipodi:nodetypes="aaaaaa" />
        <path
           style="opacity:1;fill:none;fill-opacity:1;stroke:#000000;stroke-width:0.25;stroke-linecap:round;stroke-linejoin:round;stroke-opacity:1"
           d="m -34.641153,225.2945 c -0.0658,0.0201 -0.686115,0.12187 -1.032849,0.15066 -0.478712,0.0397 -0.979736,0.1649 -1.440765,0.03 -0.1788,-0.0523 -0.464367,-0.311 -0.464367,-0.311"
           id="path488810"
           sodipodi:nodetypes="caac" />
        <path
           style="opacity:1;fill:none;fill-opacity:1;stroke:#000000;stroke-width:0.25;stroke-linecap:round;stroke-linejoin:round;stroke-opacity:1"
           d="m -37.17179,224.47609 c 0,0 -0.0851,0.23633 -0.03836,0.34057 0.05911,0.13185 0.216779,0.20474 0.353889,0.25035 0.242997,0.0808 0.767992,0.0204 0.767992,0.0204"
           id="path488812"
           sodipodi:nodetypes="caac" />
        <path
           style="opacity:1;fill:none;fill-opacity:1;stroke:#000000;stroke-width:0.25;stroke-linecap:round;stroke-linejoin:round;stroke-opacity:1"
           d="m -35.016367,224.04072 c 0.03825,0.0478 0.783969,0.31472 0.87998,0.67085 0.02912,0.108 -0.128436,0.31001 -0.128436,0.31001"
           id="path488814"
           sodipodi:nodetypes="cac" />
        <path
           style="opacity:1;fill:none;fill-opacity:1;stroke:#000000;stroke-width:0.25;stroke-linecap:round;stroke-linejoin:round;stroke-opacity:1"
           d="m -37.305264,225.75427 0.562711,0.64391"
           id="path497408" />
        <path
           style="opacity:1;fill:none;fill-opacity:1;stroke:#000000;stroke-width:0.25;stroke-linecap:round;stroke-linejoin:round;stroke-opacity:1"
           d="m -36.558351,225.83298 0.171781,0.35179"
           id="path497410" />
        <path
           style="opacity:1;fill:none;fill-opacity:1;stroke:#000000;stroke-width:0.25;stroke-linecap:round;stroke-linejoin:round;stroke-opacity:1"
           d="m -37.820278,225.50524 0.138369,0.45839"
           id="path497412" />
        <path
           style="opacity:1;fill:none;fill-opacity:1;stroke:#000000;stroke-width:0.25;stroke-linecap:round;stroke-linejoin:round;stroke-opacity:1"
           d="m -35.872566,225.80679 0.145367,0.35427"
           id="path497414" />
        <path
           style="opacity:1;fill:none;fill-opacity:1;stroke:#000000;stroke-width:0.25;stroke-linecap:round;stroke-linejoin:round;stroke-opacity:1"
           d="m -35.478972,225.77633 0.327808,0.35608"
           id="path497416" />
        <path
           style="opacity:1;fill:none;fill-opacity:1;stroke:#000000;stroke-width:0.25;stroke-linecap:round;stroke-linejoin:round;stroke-opacity:1"
           d="m -34.68786,225.67786 0.219406,0.36623"
           id="path497418" />
        <path
           style="opacity:1;fill:none;fill-opacity:1;stroke:#000000;stroke-width:0.25;stroke-linecap:round;stroke-linejoin:round;stroke-opacity:1"
           d="m -34.185369,225.51802 0.288928,0.36309"
           id="path497420" />
        <path
           style="opacity:1;fill:none;fill-opacity:1;stroke:#000000;stroke-width:0.25;stroke-linecap:round;stroke-linejoin:round;stroke-opacity:1"
           d="m -33.881659,225.3112 0.337341,0.35247"
           id="path497422" />
      </g>
      <g
         id="g568694"
         transform="translate(-137.39414,94.230043)"
         style="opacity:0.5;fill:#b0a693;fill-opacity:1;stroke:#b0a693;stroke-opacity:1">
        <path
           style="opacity:1;fill:#b0a693;fill-opacity:1;stroke:#b0a693;stroke-width:0.25;stroke-linecap:round;stroke-linejoin:round;stroke-opacity:1"
           d="m -36.622693,226.88889 -2.49706,-1.09353 0.288063,-1.77012 1.952156,-1.62771 3.18102,0.71493 1.551966,1.7863 -1.274307,1.41136 z"
           id="path568668"
           sodipodi:nodetypes="cccccccc" />
        <path
           style="fill:#b0a693;fill-opacity:1;stroke:#b0a693;stroke-width:0.25;stroke-linecap:round;stroke-linejoin:round;stroke-opacity:1"
           d="m -38.034016,225.15199 c -0.217531,-0.83462 1.045804,-1.6063 1.893953,-1.76297 0.71195,-0.13151 1.480536,0.32432 2.01358,0.81425 0.22952,0.21096 0.530363,0.54202 0.422312,0.83444 -0.222101,0.60107 -1.135925,0.68912 -1.774798,0.73864 -0.87412,0.0677 -2.333923,0.22404 -2.555047,-0.62436 z"
           id="path568670"
           sodipodi:nodetypes="aaaaaa" />
        <path
           style="opacity:1;fill:#b0a693;fill-opacity:1;stroke:#b0a693;stroke-width:0.25;stroke-linecap:round;stroke-linejoin:round;stroke-opacity:1"
           d="m -34.641153,225.2945 c -0.0658,0.0201 -0.686115,0.12187 -1.032849,0.15066 -0.478712,0.0397 -0.979736,0.1649 -1.440765,0.03 -0.1788,-0.0523 -0.464367,-0.311 -0.464367,-0.311"
           id="path568672"
           sodipodi:nodetypes="caac" />
        <path
           style="opacity:1;fill:#b0a693;fill-opacity:1;stroke:#b0a693;stroke-width:0.25;stroke-linecap:round;stroke-linejoin:round;stroke-opacity:1"
           d="m -37.17179,224.47609 c 0,0 -0.0851,0.23633 -0.03836,0.34057 0.05911,0.13185 0.216779,0.20474 0.353889,0.25035 0.242997,0.0808 0.767992,0.0204 0.767992,0.0204"
           id="path568674"
           sodipodi:nodetypes="caac" />
        <path
           style="opacity:1;fill:#b0a693;fill-opacity:1;stroke:#b0a693;stroke-width:0.25;stroke-linecap:round;stroke-linejoin:round;stroke-opacity:1"
           d="m -35.016367,224.04072 c 0.03825,0.0478 0.783969,0.31472 0.87998,0.67085 0.02912,0.108 -0.128436,0.31001 -0.128436,0.31001"
           id="path568676"
           sodipodi:nodetypes="cac" />
        <path
           style="opacity:1;fill:#b0a693;fill-opacity:1;stroke:#b0a693;stroke-width:0.25;stroke-linecap:round;stroke-linejoin:round;stroke-opacity:1"
           d="m -37.305264,225.75427 0.562711,0.64391"
           id="path568678" />
        <path
           style="opacity:1;fill:#b0a693;fill-opacity:1;stroke:#b0a693;stroke-width:0.25;stroke-linecap:round;stroke-linejoin:round;stroke-opacity:1"
           d="m -36.558351,225.83298 0.171781,0.35179"
           id="path568680" />
        <path
           style="opacity:1;fill:#b0a693;fill-opacity:1;stroke:#b0a693;stroke-width:0.25;stroke-linecap:round;stroke-linejoin:round;stroke-opacity:1"
           d="m -37.820278,225.50524 0.138369,0.45839"
           id="path568682" />
        <path
           style="opacity:1;fill:#b0a693;fill-opacity:1;stroke:#b0a693;stroke-width:0.25;stroke-linecap:round;stroke-linejoin:round;stroke-opacity:1"
           d="m -35.872566,225.80679 0.145367,0.35427"
           id="path568684" />
        <path
           style="opacity:1;fill:#b0a693;fill-opacity:1;stroke:#b0a693;stroke-width:0.25;stroke-linecap:round;stroke-linejoin:round;stroke-opacity:1"
           d="m -35.478972,225.77633 0.327808,0.35608"
           id="path568686" />
        <path
           style="opacity:1;fill:#b0a693;fill-opacity:1;stroke:#b0a693;stroke-width:0.25;stroke-linecap:round;stroke-linejoin:round;stroke-opacity:1"
           d="m -34.68786,225.67786 0.219406,0.36623"
           id="path568688" />
        <path
           style="opacity:1;fill:#b0a693;fill-opacity:1;stroke:#b0a693;stroke-width:0.25;stroke-linecap:round;stroke-linejoin:round;stroke-opacity:1"
           d="m -34.185369,225.51802 0.288928,0.36309"
           id="path568690" />
        <path
           style="opacity:1;fill:#b0a693;fill-opacity:1;stroke:#b0a693;stroke-width:0.25;stroke-linecap:round;stroke-linejoin:round;stroke-opacity:1"
           d="m -33.881659,225.3112 0.337341,0.35247"
           id="path568692" />
      </g>
    </g>
  </g>
</svg>
