<?xml version="1.0" encoding="UTF-8" standalone="no"?>
<!-- Created with Inkscape (http://www.inkscape.org/) -->

<svg
   width="215.11269mm"
   height="147.08031mm"
   viewBox="0 0 215.11269 147.08031"
   version="1.1"
   id="svg5"
   inkscape:version="1.2.2 (b0a8486541, 2022-12-01)"
   sodipodi:docname="scroll.svg"
   xmlns:inkscape="http://www.inkscape.org/namespaces/inkscape"
   xmlns:sodipodi="http://sodipodi.sourceforge.net/DTD/sodipodi-0.dtd"
   xmlns="http://www.w3.org/2000/svg"
   xmlns:svg="http://www.w3.org/2000/svg">
  <sodipodi:namedview
     id="namedview7"
     pagecolor="#4d4d4d"
     bordercolor="#666666"
     borderopacity="1.0"
     inkscape:pageshadow="2"
     inkscape:pageopacity="0"
     inkscape:pagecheckerboard="false"
     inkscape:document-units="mm"
     showgrid="false"
     inkscape:zoom="0.56569164"
     inkscape:cx="253.67177"
     inkscape:cy="281.07186"
     inkscape:window-width="956"
     inkscape:window-height="1037"
     inkscape:window-x="960"
     inkscape:window-y="0"
     inkscape:window-maximized="1"
     inkscape:current-layer="layer1"
     inkscape:showpageshadow="2"
     inkscape:deskcolor="#4d4d4d" />
  <defs
     id="defs2" />
  <g
     inkscape:label="Layer 1"
     inkscape:groupmode="layer"
     id="layer1"
     transform="translate(130.00673,-74.25827)">
    <g
       id="g323948"
       transform="translate(15.536774,-52.273954)">
      <g
         id="g296367"
         transform="matrix(1.5876219,0,0,1.5876219,38.42734,-34.500424)"
         style="stroke-width:0.629873">
        <path
           style="opacity:1;fill:#b7a37b;fill-opacity:1;stroke:none;stroke-width:0.157468;stroke-linecap:round;stroke-linejoin:round;stroke-dasharray:none;stroke-opacity:1"
           d="m -109.69605,193.50718 c 0,0 -1.34204,-1.64502 -1.82202,-2.58299 -0.99391,-1.94227 -1.4126,-4.12867 -2.13111,-6.18877 -0.39874,-1.14325 -1.20975,-3.425 -1.20975,-3.425 l 0.84362,-24.61747 c 0,0 0.34659,-0.63637 0.36439,-0.98645 0.0338,-0.66393 -0.64164,-1.28222 -0.49774,-1.93124 0.1911,-0.86192 1.68306,-2.04501 1.68306,-2.04501 l -2.3897,-2.1248 -0.77513,-13.18003 c 0,0 0.50922,-1.05462 0.64814,-1.61912 0.1617,-0.65709 0.20634,-2.01958 0.20634,-2.01958 l 0.83633,-0.32448 c 0,0 -0.79125,-1.46716 -1.04564,-2.256 -0.48402,-1.50093 -0.89299,-4.6461 -0.89299,-4.6461 l 0.15689,-13.20787 c 0,0 1.10141,-2.50168 2.03217,-3.46378 3.1193,-3.22434 11.37652,-7.19113 11.37652,-7.19113 0,0 7.123768,0.43278 10.690488,0.46505 4.63473,0.0419 9.265572,-0.30863 13.90028,-0.35286 11.869231,-0.11327 23.739932,0.38524 35.60861,0.22411 6.016174,-0.0817 18.04009,-0.60356 18.04009,-0.60356 0,0 1.77061,2.22334 2.99971,2.84825 0.808916,0.41128 2.67781,0.49069 2.67781,0.49069 0,0 -0.08515,-1.2079 0.19849,-1.70471 0.396781,-0.69499 1.91244,-1.4514 1.91244,-1.4514 0,0 11.8564152,-0.25282 17.78208,-0.10668 3.0441518,0.0751 6.5933218,-0.4078 9.266224,1.05099 4.215991,2.30098 8.308256,11.12303 8.308256,11.12303 l -0.2724,8.27308 c 0,0 -0.832384,0.69741 -1.30874,0.94957 -0.260331,0.13781 -0.83129,0.2997 -0.83129,0.2997 0,0 0.680629,0.39301 0.985933,0.638 0.39827,0.31961 1.091067,1.07539 1.091067,1.07539 l 0.10095,12.70922 c 0,0 -0.75572,0.9914 -0.61011,1.51644 0.06906,0.24903 0.61849,0.46747 0.61849,0.46747 0,0 -0.144485,1.06706 -0.608557,1.31324 -0.150225,0.0797 -0.604583,0.029 -0.604583,0.029 0.255955,0.77752 0.729875,1.49735 1.39363,2.16694 l 0.29342,22.77322 0.0122,12.54884 -0.84985,0.9758 c 0,0 0.876971,1.05041 1.053895,1.69307 0.24424,0.8872 -0.151995,2.64487 -0.151995,2.64487 0,0 -0.865107,1.68011 -1.5023,2.36161 -2.523358,2.69882 -8.93183,6.56361 -8.93183,6.56361 l -10.8206001,0.62262 -13.1442099,0.77004 -7.40895,-0.41993 -0.24319,-1.18532 c 0,0 -0.374549,0.0633 -0.53482,0.15731 -0.263674,0.15472 -0.65509,0.64188 -0.65509,0.64188 0,0 -5.709858,-0.42864 -8.5708,-0.48925 -6.297307,-0.13341 -18.89413,0.27693 -18.89413,0.27693 l -0.61157,-1.27656 -0.621858,1.25449 -12.864722,-0.29021 -21.90732,0.77672 c 0,0 -0.317204,-1.04437 -0.76299,-1.12409 -0.641045,-0.11464 -1.58943,1.13598 -1.58943,1.13598 l -0.90079,-2.71805 -1.87051,2.72345 c 0,0 -8.847878,0.0982 -13.271628,0.0594 -1.32466,-0.0116 -3.97318,-0.0876 -3.97318,-0.0876 z"
           id="path278159"
           sodipodi:nodetypes="caaccsscccsccsccscssscscscssccscsccscscccccscscccccscscccccscccscc" />
        <path
           style="opacity:1;fill:#a99670;fill-opacity:1;stroke:none;stroke-width:0.157468;stroke-linecap:round;stroke-linejoin:round;stroke-dasharray:none;stroke-opacity:1"
           d="m 19.355443,183.7375 c 0,0 -1.052947,1.28088 -1.799566,1.53266 -0.819891,0.27648 -1.856516,0.31339 -2.591842,-0.14264 -0.744726,-0.46186 -1.296072,-2.28726 -1.296072,-2.28726 0,0 -1.347927,0.90047 -1.51769,1.62092 -0.160766,0.68227 0.600694,2.01523 0.600694,2.01523 0,0 -0.961578,-0.35874 -1.337289,-0.11577 -0.480556,0.31077 -0.650376,1.05454 -0.566626,1.62066 0.02405,0.16254 0.300236,0.23425 0.290436,0.39826 -0.01146,0.19096 -0.294659,0.25478 -0.391189,0.41995 -0.400353,0.68501 -0.377482,1.55328 -0.721265,2.26836 -0.2798038,0.582 -1.075296,1.61147 -1.075296,1.61147 2.410433,-1.62123 4.84379,-3.01264 7.21822,-4.99479 1.480163,-1.23562 2.559956,-2.46955 3.187485,-3.94705 z"
           id="path287423"
           sodipodi:nodetypes="caaaaacacaacsc" />
        <g
           id="g315519"
           transform="translate(7.92844,9.2077)">
          <path
             style="opacity:1;fill:#9f8a60;fill-opacity:1;stroke:none;stroke-width:0.157468;stroke-linecap:round;stroke-linejoin:round;stroke-dasharray:none;stroke-opacity:1"
             d="m -118.43674,104.52783 c -0.0688,0.22928 -0.21578,0.46248 -0.42493,0.57894 -0.50552,0.28148 -1.17914,0.31168 -1.73047,0.13613 -0.22506,-0.0717 -0.45135,-0.23662 -0.54421,-0.45379 -0.12819,-0.2998 -0.0409,-0.66794 0.0661,-0.97594 0.19734,-0.56796 0.61985,-1.039 1.02028,-1.48752 0.0854,-0.0957 0.1712,-0.20564 0.29076,-0.25213 0.37235,-0.14479 0.90487,-0.30416 1.19808,-0.0328 0.6092,0.56382 0.36302,1.69208 0.12439,2.48711 z"
             id="path315515"
             sodipodi:nodetypes="aaaaaaaaa" />
          <path
             style="opacity:1;fill:#a99670;fill-opacity:1;stroke:none;stroke-width:0.157468;stroke-linecap:round;stroke-linejoin:round;stroke-dasharray:none;stroke-opacity:1"
             d="m -123.6498,103.14457 c 0,0 1.59696,-1.16535 2.53549,-1.25087 0.66582,-0.0607 1.44103,0.0912 1.92951,0.54767 0.53982,0.50446 0.74806,2.08646 0.74806,2.08646 0,0 2.15292,-3.17839 3.12859,-4.829957 1.16601,-1.97378 3.25117,-6.0604 3.25117,-6.0604 l 1.81587,-1.14781 c 0,0 -4.16094,2.09939 -6.13401,3.33311 -1.66519,1.04121 -3.35927,2.08332 -4.79568,3.4226 -0.4632,0.43188 -0.85918,0.937677 -1.20909,1.465537 -0.50556,0.76267 -1.26991,2.43366 -1.26991,2.43366 z"
             id="path313697"
             sodipodi:nodetypes="caacsccaaac" />
        </g>
        <path
           style="opacity:1;fill:#9f8a60;fill-opacity:1;stroke:none;stroke-width:0.157468;stroke-linecap:round;stroke-linejoin:round;stroke-dasharray:none;stroke-opacity:1"
           d="m 13.42073,113.85837 c 0.07496,0.21613 0.274649,0.38545 0.475616,0.49473 0.287046,0.15609 0.635767,0.19467 0.962393,0.18608 0.17223,-0.005 0.352258,-0.0388 0.50161,-0.12466 0.09381,-0.054 0.180186,-0.13497 0.226136,-0.23295 0.08698,-0.18546 0.09941,-0.40906 0.06531,-0.61104 -0.02808,-0.16635 -0.144015,-0.30513 -0.216022,-0.45769 -0.134717,-0.28543 -0.27622,-0.56775 -0.404151,-0.85629 -0.120671,-0.27216 -0.342607,-0.82481 -0.342607,-0.82481 l -1.794774,0.87318 c 0,0 0.350452,1.04587 0.526489,1.55345 z"
           id="path317462"
           sodipodi:nodetypes="saaaaaaaccs" />
        <path
           style="opacity:1;fill:#a99670;fill-opacity:1;stroke:none;stroke-width:0.157468;stroke-linecap:round;stroke-linejoin:round;stroke-dasharray:none;stroke-opacity:1"
           d="m 9.4050567,102.00978 4.0156733,11.84859 c 0,0 -0.05638,-0.32289 -0.0068,-0.47235 0.12616,-0.38035 0.418312,-0.7044 0.73227,-0.95343 0.28679,-0.22748 0.636031,-0.41732 1.000332,-0.45308 0.563438,-0.0553 1.135488,0.15893 1.653873,0.38652 0.828324,0.36367 2.243233,1.52751 2.243233,1.52751 l 0.02817,-0.21327 c 0,0 -1.939244,-3.77615 -3.110697,-5.54082 -0.877169,-1.32136 -1.813308,-2.62041 -2.919176,-3.75728 -0.627918,-0.64552 -1.316415,-1.24947 -2.086775,-1.71586 -0.480017,-0.29061 -1.5501033,-0.65653 -1.5501033,-0.65653 z"
           id="path317107"
           sodipodi:nodetypes="ccaaaaccaaac" />
        <path
           style="opacity:1;fill:#9f8a60;fill-opacity:1;stroke:none;stroke-width:0.157468;stroke-linecap:round;stroke-linejoin:round;stroke-dasharray:none;stroke-opacity:1"
           d="m -110.19184,191.6429 c 0.0505,0.15838 0.18341,0.27806 0.28891,0.40655 0.17287,0.21055 0.29379,0.54257 0.56131,0.59404 0.35159,0.0676 0.69755,-0.22463 0.97472,-0.45127 0.23468,-0.1919 0.46473,-0.43891 0.53836,-0.73298 0.0528,-0.21101 -0.0164,-0.4423 -0.0929,-0.64591 -0.0553,-0.14702 -0.12629,-0.30761 -0.25672,-0.39512 -0.40477,-0.27158 -1.43674,-0.27228 -1.43674,-0.27228 0,0 -0.47545,0.45999 -0.57689,0.76199 -0.078,0.23224 -0.0745,0.50158 -5e-5,0.73498 z"
           id="path322087"
           sodipodi:nodetypes="aaaaaaacaa" />
        <path
           style="opacity:1;fill:#a99670;fill-opacity:1;stroke:none;stroke-width:0.157468;stroke-linecap:round;stroke-linejoin:round;stroke-dasharray:none;stroke-opacity:1"
           d="m -110.24594,192.80697 c 0,0 -0.0745,-0.79752 0.0541,-1.16407 0.10829,-0.30876 0.34477,-0.56358 0.57689,-0.79419 0.20104,-0.19973 0.41533,-0.42982 0.69109,-0.49513 0.25896,-0.0613 0.7886,0.12449 0.7886,0.12449 0,0 -2.68104,-3.73976 -3.99551,-5.62796 -0.90799,-1.30431 -2.68776,-3.93789 -2.68776,-3.93789 l -0.0404,0.3982 c 0,0 1.22895,3.56535 1.81501,5.35748 0.2911,0.89016 0.51174,1.80433 0.84498,2.67959 0.23899,0.62772 0.49478,1.25356 0.82553,1.83816 0.32415,0.57293 1.12747,1.62132 1.12747,1.62132 z"
           id="path320590"
           sodipodi:nodetypes="caaacsccaaac" />
      </g>
      <path
         style="opacity:1;fill:#bda98a;fill-opacity:1;stroke:none;stroke-width:0.25;stroke-linecap:round;stroke-linejoin:round;stroke-dasharray:none;stroke-opacity:1"
         d="m -129.70092,269.65607 -9.93905,-17.53336 1.68642,-39.54349 1.55185,-7.61974 c 0,0 -3.04543,-4.44768 -3.04543,-5.72862 0,-1.28095 -0.92575,-19.02999 -0.92575,-19.02999 l 1.92804,-4.31179 -3.01345,-9.83113 0.29139,-14.05259 10.13241,-7.51608 6.53696,-11.74337 19.31133,-2.07358 99.682884,1.44381 15.4535453,3.61898 5.8108587,-5.21163 33.870752,-0.0811 7.581449,18.70135 6.454294,0.90165 0.09952,6.64152 -2.894203,4.16175 3.243649,4.50005 -0.760201,21.04419 -1.728326,3.48741 2.866064,7.24233 -2.06453,52.60171 -11.120894,10.92765 -2.930308,5.60704 -38.9429431,2.27848 -27.6452419,-2.05472 -24.000773,0.59503 -50.577025,-0.17473 -16.921681,-1.45781 z"
         id="path307112"
         sodipodi:nodetypes="ccccscccccccccccccccccccccccccccc" />
      <path
         style="opacity:1;fill:#c4b297;fill-opacity:1;stroke:none;stroke-width:0.25;stroke-linecap:round;stroke-linejoin:round;stroke-dasharray:none;stroke-opacity:1"
         d="m -122.93129,263.12182 -9.81964,-12.9605 0.92568,-39.05822 1.15644,-8.11283 -3.77929,-15.75128 1.39208,-13.07157 -4.68465,-19.998 12.71395,-8.48796 7.87014,-10.5745 108.9395431,2.88337 20.9375009,2.96241 11.469515,-6.12943 19.425327,1.02663 7.924786,14.18871 4.856793,5.84272 3.452553,23.22703 -1.608958,12.6651 1.57847,10.95187 -1.48826,41.99918 -14.539463,16.67488 -86.612022,0.88629 -66.833665,-1.2774 z"
         id="path308997"
         sodipodi:nodetypes="ccccccccccccccccccccccc" />
    </g>
  </g>
</svg>
