<?xml version="1.0" encoding="UTF-8" standalone="no"?>
<!-- Created with Inkscape (http://www.inkscape.org/) -->

<svg
   width="37.113911mm"
   height="10.497467mm"
   viewBox="0 0 37.113911 10.497467"
   version="1.1"
   id="svg412"
   xml:space="preserve"
   inkscape:version="1.2.2 (732a01da63, 2022-12-09)"
   sodipodi:docname="circle.svg"
   xmlns:inkscape="http://www.inkscape.org/namespaces/inkscape"
   xmlns:sodipodi="http://sodipodi.sourceforge.net/DTD/sodipodi-0.dtd"
   xmlns="http://www.w3.org/2000/svg"
   xmlns:svg="http://www.w3.org/2000/svg"><sodipodi:namedview
     id="namedview414"
     pagecolor="#ffffff"
     bordercolor="#666666"
     borderopacity="1.0"
     inkscape:showpageshadow="2"
     inkscape:pageopacity="0.0"
     inkscape:pagecheckerboard="0"
     inkscape:deskcolor="#d1d1d1"
     inkscape:document-units="mm"
     showgrid="false"
     inkscape:zoom="1.4142136"
     inkscape:cx="141.42136"
     inkscape:cy="48.083261"
     inkscape:window-width="2560"
     inkscape:window-height="1377"
     inkscape:window-x="-8"
     inkscape:window-y="-8"
     inkscape:window-maximized="1"
     inkscape:current-layer="layer1" /><defs
     id="defs409" /><g
     inkscape:label="Calque 1"
     inkscape:groupmode="layer"
     id="layer1"
     transform="translate(-112.95011,-45.277723)"><path
       style="fill:none;stroke:#000000;stroke-width:0.264583px;stroke-linecap:butt;stroke-linejoin:miter;stroke-opacity:1"
       d="m 116.6856,52.162267 c 0.90587,0.375807 2.49342,0.875234 3.78087,1.157485 1.35997,0.29815 2.75433,0.41558 4.13905,0.560311 1.0575,0.11053 2.11889,0.187892 3.18111,0.234968 1.21596,0.05389 2.43393,0.06328 3.65105,0.05422 1.62135,-0.01206 3.24534,-0.02127 4.86204,-0.144597 1.22871,-0.09373 2.45666,-0.231735 3.66912,-0.451861 1.03664,-0.188205 2.06606,-0.429934 3.07266,-0.741056 1.22895,-0.379846 2.62922,-0.534755 3.60764,-1.369791 0.50564,-0.43154 1.10982,-1.075735 0.9921,-1.729984 -0.0993,-0.551568 -0.81337,-0.784462 -1.29234,-1.075432 -0.66464,-0.403761 -1.41077,-0.664915 -2.15086,-0.903724 -1.35332,-0.436679 -2.76058,-0.689992 -4.15713,-0.957947 -0.6226,-0.119458 -1.24817,-0.234407 -1.87975,-0.289193 -1.17669,-0.102072 -2.36171,-0.04927 -3.5426,-0.0723 -1.1718,-0.02285 -2.34344,-0.06166 -3.51546,-0.06537 -1.38892,-0.0044 -2.78085,-0.04462 -4.16648,0.05112 -1.55933,0.107746 -3.11941,0.281523 -4.65213,0.587907 -1.94996,0.389789 -4.05736,0.543179 -5.75127,1.584793 -0.63713,0.391784 -1.50017,0.913566 -1.50811,1.661477 -0.009,0.843269 0.89283,1.55935 1.66026,1.908974 7e-5,3.2e-5 1.6e-4,-3.1e-5 2.3e-4,0 z"
       id="path2104"
       sodipodi:nodetypes="saaaaaaaaaaaaaaaaaaaas" /><path
       style="fill:none;stroke:#000000;stroke-width:0.320574px;stroke-linecap:butt;stroke-linejoin:miter;stroke-opacity:1"
       d="m 114.98272,52.997914 c 1.02142,0.489293 2.81143,1.139536 4.26307,1.50702 1.53341,0.388185 3.1056,0.541076 4.66691,0.729512 1.19238,0.143909 2.38913,0.244632 3.58682,0.305923 1.37104,0.07017 2.74435,0.08239 4.11668,0.07059 1.82814,-0.0157 3.65924,-0.0277 5.48213,-0.188263 1.38542,-0.122033 2.76996,-0.301714 4.13706,-0.588313 1.16884,-0.245037 2.32954,-0.559765 3.46452,-0.964838 1.38569,-0.494552 2.96455,-0.696239 4.06774,-1.783438 0.57013,-0.561855 1.25136,-1.400582 1.11863,-2.2524 -0.11196,-0.71813 -0.9171,-1.021351 -1.45715,-1.400188 -0.74941,-0.525689 -1.5907,-0.865705 -2.42518,-1.176628 -1.52591,-0.568546 -3.11264,-0.898354 -4.68731,-1.247227 -0.70199,-0.155531 -1.40735,-0.305191 -2.11948,-0.376522 -1.32676,-0.132895 -2.6629,-0.06415 -3.9944,-0.09414 -1.32125,-0.02975 -2.64231,-0.08029 -3.9638,-0.0851 -1.56606,-0.0058 -3.13551,-0.05809 -4.69785,0.06655 -1.75821,0.140283 -3.51726,0.366536 -5.24544,0.765442 -2.19865,0.507496 -4.57482,0.707207 -6.48475,2.063365 -0.71839,0.510093 -1.69149,1.189442 -1.70045,2.163206 -0.0101,1.097917 1.0067,2.030239 1.87199,2.485441 8e-5,4.2e-5 1.8e-4,-4e-5 2.6e-4,0 z"
       id="path2155"
       sodipodi:nodetypes="saaaaaaaaaaaaaaaaaaaas" /><path
       style="display:inline;fill:#a770c2;fill-opacity:1;stroke:#000000;stroke-width:0.206302"
       d="m 489.32566,209.48685 c -4.268,-0.0598 -4.93936,-0.0842 -9.22618,-0.33624 -4.69228,-0.27583 -8.92354,-0.68952 -16.27865,-1.59158 -8.79087,-1.07815 -12.92877,-1.9549 -19.37015,-4.1042 -3.3257,-1.10968 -7.86648,-2.88322 -9.52757,-3.72127 -1.01022,-0.50968 -2.55745,-1.61973 -3.49697,-2.50889 -3.00759,-2.84638 -3.98851,-5.99206 -2.67803,-8.5881 1.13592,-2.25025 5.11167,-5.46612 9.32636,-7.54381 3.72359,-1.8356 6.70309,-2.6979 15.32959,-4.43654 2.08947,-0.42113 4.58157,-0.93905 5.538,-1.15094 7.24865,-1.60585 15.45839,-2.67972 23.0896,-3.02022 3.11896,-0.13917 16.7989,-0.0517 24.0557,0.15383 2.76302,0.0782 7.04522,0.14384 9.516,0.14577 7.97004,0.006 11.14447,0.24411 15.65069,1.17299 2.76395,0.56973 9.26654,2.03749 11.35159,2.56226 7.81638,1.96726 13.62311,4.23215 17.84492,6.96033 0.88801,0.57384 2.05972,1.32594 2.60382,1.67131 2.8303,1.79663 3.4737,3.59677 2.29636,6.42488 -0.95695,2.2987 -3.64278,5.28473 -6.12832,6.8133 -1.77604,1.09225 -3.83533,1.91649 -7.59928,3.04167 -1.34644,0.40249 -3.94793,1.22684 -5.78109,1.83188 -3.75654,1.23985 -5.18603,1.66295 -7.99,2.36489 -6.19404,1.55061 -12.50252,2.56403 -19.83346,3.18613 -5.32493,0.45187 -8.72568,0.58201 -16.71339,0.63958 -3.58662,0.0259 -6.8037,0.0571 -7.14908,0.0694 -0.34538,0.0123 -2.51909,-0.004 -4.83046,-0.0365 z m 20.28793,-4.42474 c 12.55971,-0.61029 21.35038,-1.96221 30.81834,-4.73957 1.24867,-0.36629 3.3137,-0.93363 4.58894,-1.26074 3.25642,-0.83532 5.03506,-1.44068 6.70746,-2.28291 1.66078,-0.83638 2.76023,-1.63453 4.10121,-2.97729 1.98189,-1.98452 2.84693,-3.70122 2.74575,-5.44903 -0.0876,-1.51296 -0.90432,-2.56169 -2.83995,-3.64662 -0.57945,-0.32479 -1.65473,-0.92712 -2.38951,-1.33852 -2.81394,-1.5755 -5.67375,-2.7063 -10.04025,-3.97003 -5.23661,-1.51554 -16.71482,-3.77915 -21.2777,-4.19615 -0.63763,-0.0583 -4.50682,-0.14441 -8.59822,-0.19141 -4.0914,-0.047 -7.85192,-0.1117 -8.3567,-0.14375 -1.9085,-0.12122 -18.0624,-0.23471 -21.03211,-0.14777 -7.19829,0.21073 -14.45968,0.98742 -21.25397,2.27334 -1.23285,0.23334 -3.99346,0.73209 -6.13468,1.10835 -9.74822,1.71294 -13.25434,2.88869 -17.99807,6.03549 -2.80069,1.85786 -3.98773,3.22222 -4.36162,5.01315 -0.5035,2.41174 1.10533,5.14891 4.26501,7.25626 1.49662,0.99818 3.30022,1.76729 6.95586,2.9662 5.67796,1.86216 10.21114,2.94825 15.40917,3.69182 2.84337,0.40674 10.60662,1.22349 14.7329,1.54999 3.42582,0.27109 4.30445,0.32112 10.09567,0.57486 1.67922,0.0736 21.96005,-0.0332 23.86247,-0.12567 z"
       id="path2991"
       transform="scale(0.26458333)" /><path
       style="fill:#c270a7;fill-opacity:1;fill-rule:evenodd;stroke:none;stroke-width:0.00624999;stroke-dasharray:none;stroke-opacity:1"
       d="m 129.22038,55.09679 c -1.77294,-0.05467 -3.18094,-0.199284 -6.44095,-0.661535 -0.57299,-0.08125 -1.3469,-0.189053 -1.71979,-0.23957 -1.24998,-0.169336 -1.77808,-0.27269 -2.4613,-0.4817 -0.75612,-0.231312 -2.03353,-0.762559 -2.80556,-1.166768 -0.50719,-0.265546 -1.23542,-0.67946 -1.36426,-0.775422 -0.27084,-0.201718 -0.505,-0.573331 -0.62671,-0.994571 -0.15976,-0.552969 -0.0534,-0.957922 0.35147,-1.33884 0.1711,-0.160964 0.39461,-0.312084 0.82311,-0.556524 0.19039,-0.108614 0.43151,-0.251378 0.5358,-0.317254 0.90635,-0.572482 1.90432,-1.005819 2.98694,-1.296993 0.42139,-0.113332 0.89245,-0.221644 1.75849,-0.404328 0.43201,-0.09113 1.02733,-0.217684 1.32292,-0.281231 1.2315,-0.264748 1.48336,-0.300675 3.48919,-0.497734 0.87803,-0.08626 1.49354,-0.153319 1.99264,-0.217091 l 0.39688,-0.05071 0.66972,0.0099 c 0.36835,0.0054 0.9339,0.02138 1.25677,0.03541 0.32288,0.01405 1.15259,0.03227 1.84382,0.04052 0.69122,0.0083 1.49117,0.02371 1.77767,0.03433 0.53785,0.01998 1.63232,0.0113 2.21588,-0.01757 1.43967,-0.07119 2.75697,-0.0154 4.31602,0.182769 1.84007,0.2339 3.82849,0.682638 5.33301,1.203531 1.44839,0.501465 1.65609,0.576967 2.01744,0.733375 0.66452,0.287626 1.07546,0.547439 1.5379,0.972312 0.4643,0.426585 0.68626,0.788784 0.68626,1.119857 0,0.148902 -0.0553,0.242575 -0.28136,0.476284 -0.10555,0.109141 -0.21732,0.235643 -0.24837,0.28112 -0.0311,0.04547 -0.13368,0.238951 -0.22808,0.429948 -0.0944,0.190995 -0.20478,0.397288 -0.24531,0.458428 -0.20673,0.31189 -0.76095,0.66775 -1.44428,0.927364 -0.13188,0.0501 -0.518,0.18175 -0.85806,0.29255 -0.34005,0.110797 -0.86839,0.296577 -1.17409,0.412845 -0.70294,0.267354 -1.01926,0.370954 -1.51547,0.496335 -1.47273,0.372126 -3.16703,0.673613 -4.96865,0.884134 -1.47574,0.172437 -2.59878,0.235532 -5.17591,0.290782 -1.09572,0.0235 -3.21839,0.03258 -3.75378,0.01606 z m 3.77031,-0.39688 c 2.40946,-0.047 3.60695,-0.11093 4.97748,-0.265722 1.84895,-0.208827 3.42964,-0.478734 4.84518,-0.82733 0.50124,-0.123439 0.89746,-0.248666 1.5581,-0.492454 0.22485,-0.08297 0.69366,-0.24 1.0418,-0.348948 0.66743,-0.20887 0.95279,-0.309928 1.23479,-0.437279 0.47733,-0.215572 0.86602,-0.498213 1.0336,-0.751605 0.0398,-0.0602 0.1262,-0.21736 0.19197,-0.349239 0.19556,-0.392163 0.23619,-0.451623 0.46441,-0.679561 0.25789,-0.25757 0.3048,-0.339294 0.30282,-0.527601 -0.003,-0.309327 -0.17987,-0.624829 -0.5449,-0.973341 -0.54937,-0.524515 -1.10043,-0.852337 -1.99184,-1.184934 -0.31491,-0.117499 -1.68324,-0.574852 -2.07854,-0.694737 -1.54439,-0.468374 -3.52025,-0.855165 -5.27191,-1.032016 -1.30462,-0.131714 -2.15258,-0.157784 -3.48093,-0.107021 -0.92739,0.03544 -1.70108,0.03347 -3.12539,-0.008 -1.73404,-0.05045 -3.07197,-0.07115 -3.82819,-0.05922 -0.6976,0.01101 -0.75762,0.01532 -2.53834,0.182084 -2.28825,0.214312 -2.60569,0.256185 -3.77032,0.497329 -0.24102,0.0499 -0.76935,0.157726 -1.17409,0.239607 -1.58431,0.320516 -2.09954,0.450056 -2.84586,0.715523 -0.61883,0.220117 -1.21601,0.503192 -1.84222,0.873255 -0.14552,0.086 -0.39853,0.229303 -0.56224,0.318463 -0.54822,0.298561 -0.81782,0.49716 -0.99611,0.733761 -0.20837,0.27654 -0.27474,0.569563 -0.21134,0.933132 0.0602,0.345337 0.28194,0.796243 0.49755,1.011857 0.15966,0.159668 0.22447,0.199866 0.94592,0.586756 1.32101,0.708414 2.85559,1.311256 3.95783,1.554795 0.44263,0.0978 0.85088,0.161861 1.94944,0.305908 0.37745,0.04949 1.09927,0.146047 1.60404,0.214569 3.00055,0.407308 4.43242,0.544881 6.12676,0.588658 0.59527,0.01537 2.29832,0.0073 3.53053,-0.01672 z"
       id="path13120" /></g></svg>
