<?xml version="1.0" encoding="UTF-8" standalone="no"?>
<!-- Created with Inkscape (http://www.inkscape.org/) -->

<svg
   width="31.115566mm"
   height="24.599173mm"
   viewBox="0 0 31.115566 24.599173"
   version="1.1"
   id="svg5"
   inkscape:version="1.2.2 (b0a8486541, 2022-12-01)"
   sodipodi:docname="cloud.svg"
   xmlns:inkscape="http://www.inkscape.org/namespaces/inkscape"
   xmlns:sodipodi="http://sodipodi.sourceforge.net/DTD/sodipodi-0.dtd"
   xmlns="http://www.w3.org/2000/svg"
   xmlns:svg="http://www.w3.org/2000/svg">
  <sodipodi:namedview
     id="namedview7"
     pagecolor="#4d4d4d"
     bordercolor="#666666"
     borderopacity="1.0"
     inkscape:pageshadow="2"
     inkscape:pageopacity="0"
     inkscape:pagecheckerboard="false"
     inkscape:document-units="mm"
     showgrid="false"
     inkscape:zoom="0.56569164"
     inkscape:cx="-22.980718"
     inkscape:cy="212.1297"
     inkscape:window-width="956"
     inkscape:window-height="1037"
     inkscape:window-x="960"
     inkscape:window-y="0"
     inkscape:window-maximized="1"
     inkscape:current-layer="layer1"
     inkscape:showpageshadow="2"
     inkscape:deskcolor="#4d4d4d" />
  <defs
     id="defs2" />
  <g
     inkscape:label="Layer 1"
     inkscape:groupmode="layer"
     id="layer1"
     transform="translate(59.055421,-92.468914)">
    <g
       id="g507917"
       transform="matrix(0.7287319,-0.09405488,0.09400783,0.72836738,-89.817121,0.6353)"
       style="stroke-width:1.3613">
      <path
         style="opacity:1;fill:#a770c2;fill-opacity:1;fill-rule:nonzero;stroke:none;stroke-width:0.340325;stroke-linecap:round;stroke-linejoin:round;stroke-opacity:1"
         d="m 36.81573,162.5416 c 0,0 -4.175177,0.0155 -6.233753,-0.28268 -2.061712,-0.29858 -3.553533,-1.4564 -4.230452,-3.11809 -0.622309,-1.52764 -0.910496,-3.20302 -0.976802,-4.85121 -0.02703,-0.67187 0.238043,-2.00315 0.238043,-2.00315 0,0 -1.737242,-2.04834 -2.100386,-3.30094 -0.227198,-0.78368 -0.176738,-1.65254 0.0057,-2.44783 0.242343,-1.05643 0.758742,-2.06371 1.410427,-2.92978 0.394805,-0.52468 1.468819,-1.31265 1.468819,-1.31265 0,0 0.135983,-2.15753 0.620829,-3.08928 0.565138,-1.08605 1.567061,-1.9077 2.533742,-2.65897 0.937798,-0.72883 1.99784,-1.31912 3.106534,-1.74509 0.902921,-0.34691 1.863448,-0.64188 2.830713,-0.63843 1.500554,0.005 2.945879,0.59406 4.38421,1.02172 1.235937,0.36748 3.63497,1.32297 3.63497,1.32297 0,0 2.018265,-1.93382 3.244583,-2.56281 1.07345,-0.55058 2.275283,-0.91697 3.478987,-0.99777 1.486479,-0.0998 3.005966,0.18509 4.422413,0.64689 0.900465,0.29357 1.789806,0.71394 2.513568,1.32483 0.51552,0.43513 1.23091,1.60646 1.23091,1.60646 0,0 1.255054,-0.0823 1.80571,0.16704 1.149081,0.52029 2.10801,1.51469 2.747851,2.60175 0.594869,1.01065 0.915515,2.23566 0.8748,3.40768 -0.03433,0.98815 -0.418393,1.97202 -0.935159,2.81497 -0.177361,0.28931 -0.715372,0.72434 -0.715372,0.72434 0,0 1.426263,0.86428 1.873091,1.53711 0.615647,0.92703 0.829103,2.09406 0.950976,3.20021 0.139763,1.26852 -0.0089,2.56923 -0.265406,3.81937 -0.209168,1.01927 -0.520814,2.03878 -1.027528,2.94757 -0.517903,0.92886 -1.195694,1.79392 -2.010707,2.47712 -0.739,0.61948 -1.602343,1.13942 -2.529927,1.40298 -0.404472,0.11492 -1.260033,0.0597 -1.260033,0.0597 0,0 -0.508504,2.0047 -1.200957,2.70916 -0.775293,0.78874 -1.936279,1.13019 -3.009696,1.39659 -1.009606,0.25056 -2.092754,0.34704 -3.116472,0.16241 -0.83615,-0.1508 -1.63007,-0.54484 -2.338752,-1.01352 -0.214103,-0.14159 -0.558343,-0.53033 -0.558343,-0.53033 0,0 -1.804779,0.71581 -2.758305,0.82016 -1.319657,0.14442 -2.686161,0.0453 -3.97257,-0.28258 -1.080413,-0.27537 -2.115757,-0.76948 -3.042986,-1.38865 -0.41397,-0.27643 -1.09327,-1.01727 -1.09327,-1.01727 z"
         id="path507849"
         sodipodi:nodetypes="cssacaaacaaaaacaaaacaaaacaaaaaacaaaacaaac" />
      <path
         style="opacity:1;fill:#c270a7;fill-opacity:1;fill-rule:nonzero;stroke:none;stroke-width:0.340325;stroke-linecap:round;stroke-linejoin:round;stroke-opacity:1"
         d="m 42.058144,161.63295 c -1.170025,-0.28713 -2.479674,0.23973 -3.609867,-0.17749 -1.063913,-0.39275 -1.748669,-1.45094 -2.691635,-2.081 -0.958209,-0.64025 -2.590485,-0.64061 -3.000388,-1.71767 -0.604206,-1.58761 1.307613,-3.16198 1.62025,-4.83166 0.181469,-0.96916 -0.40806,-2.13376 0.137925,-2.95479 0.98134,-1.47571 3.04506,-2.04827 4.801716,-2.28261 1.944488,-0.25939 4.565143,-0.486 5.79161,1.04505 0.911933,1.1384 -1.080694,3.22359 -0.181525,4.3721 0.893738,1.14157 2.855568,1.21969 4.262006,0.86771 0.950646,-0.23791 1.398798,-1.41591 2.264951,-1.87429 0.827594,-0.43797 1.761915,-0.80731 2.697916,-0.78218 1.677776,0.045 3.722514,0.33534 4.753814,1.65949 1.461559,1.87659 2.222266,5.34042 0.630482,7.1079 -1.465506,1.62726 -5.089837,-1.50963 -6.56887,0.10535 -0.505954,0.55246 0.648322,1.67249 0.161184,2.24161 -1.760713,2.05703 -5.428411,1.1447 -8.094951,0.67455 -1.07535,-0.1896 -1.914148,-1.11182 -2.974618,-1.37207 z"
         id="path507851"
         sodipodi:nodetypes="aaaaaaaaaaaaaaaaaa" />
      <g
         id="g507863"
         style="fill:#c27070;fill-opacity:1;stroke-width:1.3613">
        <path
           style="opacity:1;fill:#c270a7;fill-opacity:1;fill-rule:nonzero;stroke:none;stroke-width:0.340325;stroke-linecap:round;stroke-linejoin:round;stroke-opacity:1"
           d="m 30.855762,148.22127 c -1.524995,-0.003 -3.457314,0.25591 -4.492722,-0.86371 -0.685121,-0.74084 -0.765656,-2.09445 -0.337789,-3.00833 0.656344,-1.40188 2.446258,-1.96442 3.876091,-2.5574 1.061701,-0.4403 2.548837,0.1014 3.377319,-0.69528 1.395242,-1.34168 -0.196565,-4.53233 1.392549,-5.63756 1.446308,-1.00591 3.892349,-0.52393 5.25131,0.59718 1.240014,1.02298 -0.0322,3.96838 1.445707,4.60076 1.397242,0.59787 2.782895,-1.23942 4.090052,-2.01471 0.977558,-0.5798 1.840601,-1.33516 2.788932,-1.96162 1.181306,-0.78037 2.19956,-2.35089 3.610732,-2.23667 1.925699,0.15586 3.626801,2.02247 4.372237,3.80487 0.45835,1.09595 -0.715329,2.47603 -0.222385,3.55686 0.72187,1.58278 3.162268,1.73462 4.146547,3.16901 0.604771,0.88133 0.872952,2.00913 0.900254,3.07766 0.0255,0.99809 0.122918,2.33856 -0.693003,2.91399 -2.035525,1.43555 -5.011863,-0.20726 -7.428239,-0.81166 -2.35755,-0.58968 -4.977562,-1.06888 -6.766781,-2.71341 -0.870767,-0.80035 -0.755219,-2.33555 -1.592916,-3.17045 -0.734143,-0.73169 -1.779565,-1.64572 -2.783181,-1.3867 -1.285841,0.33186 -1.166946,2.52721 -2.260659,3.28041 -2.168527,1.49339 -5.10127,1.31227 -7.67494,1.86809 -0.331287,0.0716 -0.660191,0.18923 -0.999115,0.18867 z"
           id="path507853"
           sodipodi:nodetypes="aaaaaaaaaaaaaaaaaaaaaaa" />
        <path
           style="opacity:1;fill:#c27070;fill-opacity:1;fill-rule:nonzero;stroke:none;stroke-width:0.340325;stroke-linecap:round;stroke-linejoin:round;stroke-opacity:1"
           d="m 29.50516,146.88008 c -0.791291,-0.22454 -2.10476,-0.0423 -2.321789,-0.83567 -0.360271,-1.31704 1.415123,-2.49772 2.611441,-3.15589 1.600457,-0.88052 4.254525,0.70195 5.43632,-0.69094 0.787766,-0.92848 -0.674181,-2.55823 -0.135831,-3.6504 0.503102,-1.02067 1.71164,-2.36053 2.782993,-1.97705 1.509608,0.54033 1.440573,3.04795 1.262828,4.64146 -0.171108,1.534 -1.042856,3.03627 -2.170327,4.09044 -1.276908,1.1939 -3.048974,1.95546 -4.787153,2.14154 -0.907186,0.0971 -1.800747,-0.31449 -2.678482,-0.56349 z"
           id="path507855"
           sodipodi:nodetypes="aaaaaaaaaa" />
        <path
           style="opacity:1;fill:#c27070;fill-opacity:1;fill-rule:nonzero;stroke:none;stroke-width:0.340325;stroke-linecap:round;stroke-linejoin:round;stroke-opacity:1"
           d="m 53.773021,156.01788 c -1.590252,0.49115 -0.636899,3.61271 -1.992531,4.57832 -2.005202,1.42829 -4.983424,1.20173 -7.363442,0.57216 -1.325698,-0.35068 -3.046326,-0.98214 -3.407485,-2.30502 -0.427512,-1.56593 0.577018,-3.80514 2.087486,-4.3996 1.370738,-0.53947 2.638405,1.52126 4.107421,1.63053 1.498644,0.11147 3.270545,-0.0229 4.390243,-1.02519 0.893593,-0.79992 0.0625,-3.01086 1.199617,-3.39209 1.176981,-0.3946 2.627387,0.9081 3.107077,2.05304 0.423733,1.01138 0.374253,2.79315 -0.632248,3.22834 -0.540686,0.23378 -0.933308,-1.11432 -1.496138,-0.94049 z"
           id="path507857"
           sodipodi:nodetypes="aaaaaaaaaaa" />
        <path
           style="opacity:1;fill:#c27070;fill-opacity:1;fill-rule:nonzero;stroke:none;stroke-width:0.340325;stroke-linecap:round;stroke-linejoin:round;stroke-opacity:1"
           d="m 59.624419,149.31712 c -1.232184,2.47542 -5.643142,0.0455 -8.248517,-0.88077 -1.765003,-0.62751 -4.00815,-1.32811 -4.710485,-3.06469 -0.737435,-1.82337 -0.108115,-4.39732 1.318439,-5.75137 1.635536,-1.55241 4.941931,-2.62203 6.663729,-1.16588 1.513901,1.28032 -1.184267,4.33014 -0.03812,5.948 1.051799,1.48468 4.633031,0.0361 5.161016,1.77736 0.221001,0.72882 -1.422528,1.05788 -1.383266,1.81846 0.03108,0.60198 1.505814,0.77926 1.237204,1.31889 z"
           id="path507859"
           sodipodi:nodetypes="aaaaaaaaa" />
        <path
           style="opacity:1;fill:#c27070;fill-opacity:1;fill-rule:nonzero;stroke:none;stroke-width:0.340325;stroke-linecap:round;stroke-linejoin:round;stroke-opacity:1"
           d="m 35.758137,158.35367 c -1.272064,-0.49482 -0.857126,-2.64551 -0.828171,-4.01012 0.0313,-1.47508 0.01218,-3.27294 1.078279,-4.29287 0.999883,-0.95658 2.686878,-0.73234 4.06704,-0.83219 1.222613,-0.0884 2.969056,-0.79372 3.671368,0.21095 0.603968,0.86399 0.01774,2.53461 -0.914097,3.02749 -1.447475,0.76561 -3.348209,-2.4166 -4.68643,-1.47293 -0.435241,0.30692 0.304132,1.20844 -0.06054,1.59657 -0.399148,0.42482 -1.438177,-0.32379 -1.739975,0.17492 -0.745975,1.23269 2.012647,2.62659 1.612093,4.01063 -0.251372,0.86857 -1.356862,1.91535 -2.199563,1.58755 z"
           id="path507861"
           sodipodi:nodetypes="aaaaaaaaaaa" />
      </g>
      <path
         style="opacity:1;fill:none;fill-opacity:1;fill-rule:nonzero;stroke:#000000;stroke-width:0.340325;stroke-linecap:round;stroke-linejoin:round;stroke-opacity:1"
         d="m 36.815731,162.5416 c 0,0 -6.704158,0.56091 -8.990632,-1.43458 -2.067694,-1.80455 -2.672557,-5.15078 -2.38532,-7.88011 0.149766,-1.42308 0.857279,-3.00311 2.07179,-3.75977 1.253822,-0.78116 4.42682,-0.20907 4.42682,-0.20907"
         id="path507865"
         sodipodi:nodetypes="caaac" />
      <path
         style="opacity:1;fill:none;fill-opacity:1;fill-rule:nonzero;stroke:#000000;stroke-width:0.340325;stroke-linecap:round;stroke-linejoin:round;stroke-opacity:1"
         d="m 25.612767,152.28647 c 0,0 -2.192426,-2.50997 -2.263118,-4.05681 -0.09334,-2.04235 0.96677,-4.23959 2.48706,-5.60657 0.55379,-0.49794 2.12674,-0.68458 2.12674,-0.68458"
         id="path507867"
         sodipodi:nodetypes="caac" />
      <path
         style="opacity:1;fill:none;fill-opacity:1;fill-rule:nonzero;stroke:#000000;stroke-width:0.340325;stroke-linecap:round;stroke-linejoin:round;stroke-opacity:1"
         d="m 26.39735,142.29527 c 0,0 0.03551,-2.21714 0.620829,-3.08928 1.65698,-2.46896 4.51897,-4.3217 7.42735,-4.94028 1.79491,-0.38177 3.6709,0.38981 5.42785,0.91951 1.63483,0.49289 3.38064,0.973 4.68186,2.07864 0.41858,0.35567 0.90304,1.37836 0.90304,1.37836"
         id="path507869"
         sodipodi:nodetypes="caaaac" />
      <path
         style="opacity:1;fill:none;fill-opacity:1;fill-rule:nonzero;stroke:#000000;stroke-width:0.340325;stroke-linecap:round;stroke-linejoin:round;stroke-opacity:1"
         d="m 43.508349,136.50819 c 0,0 1.998191,-1.9746 3.244582,-2.56281 1.454463,-0.68641 3.110265,-1.12077 4.715498,-1.02157 2.009072,0.12416 4.069306,0.81469 5.69947,1.99552 0.546335,0.39574 0.88291,0.89308 1.23091,1.60646"
         id="path507871"
         sodipodi:nodetypes="caaac" />
      <path
         style="opacity:1;fill:none;fill-opacity:1;fill-rule:nonzero;stroke:#000000;stroke-width:0.340325;stroke-linecap:round;stroke-linejoin:round;stroke-opacity:1"
         d="m 60.452509,146.78067 c 0,0 1.2433,-0.17662 1.72413,-0.5391 0.68982,-0.52002 1.19177,-1.33311 1.42444,-2.16507 0.33653,-1.20334 0.33072,-2.58734 -0.13692,-3.74605 -0.60934,-1.50981 -1.77288,-2.97401 -3.25964,-3.63762 -0.76506,-0.34179 -1.713631,-0.24847 -2.51344,0.001 -0.341607,0.10655 -0.883394,0.60996 -0.883394,0.60996"
         id="path507873"
         sodipodi:nodetypes="caaaasc" />
      <path
         style="opacity:1;fill:none;fill-opacity:1;fill-rule:nonzero;stroke:#000000;stroke-width:0.340325;stroke-linecap:round;stroke-linejoin:round;stroke-opacity:1"
         d="m 62.176639,146.24157 c 0,0 1.447892,0.85041 1.873091,1.53711 0.768633,1.24135 1.012498,2.80988 0.978169,4.26953 -0.05286,2.24737 -0.51846,4.65806 -1.81343,6.49559 -1.0583,1.50169 -2.68888,2.87763 -4.5008,3.18097 -1.06777,0.17877 -3.11825,-0.90846 -3.11825,-0.90846"
         id="path507875"
         sodipodi:nodetypes="caaaac" />
      <path
         style="opacity:1;fill:none;fill-opacity:1;fill-rule:nonzero;stroke:#000000;stroke-width:0.340325;stroke-linecap:round;stroke-linejoin:round;stroke-opacity:1"
         d="m 46.816519,163.43394 c 0,0 1.58453,2.01911 2.74365,2.32392 2.34521,0.6167 5.246776,0.14471 7.14598,-1.36305 0.773645,-0.61419 1.200956,-2.70916 1.200956,-2.70916"
         id="path507877"
         sodipodi:nodetypes="caac" />
      <path
         style="opacity:1;fill:none;fill-opacity:1;fill-rule:nonzero;stroke:#000000;stroke-width:0.340325;stroke-linecap:round;stroke-linejoin:round;stroke-opacity:1"
         d="m 34.861956,160.31804 c 0,0 2.404881,3.09171 4.091573,3.96424 1.520103,0.78636 3.33633,0.88064 5.04656,0.94544 0.94192,0.0357 1.915795,-0.0134 2.81088,-0.3089 0.319552,-0.10549 0.871918,-0.50886 0.871918,-0.50886"
         id="path507879"
         sodipodi:nodetypes="caaac" />
      <path
         style="opacity:1;fill:none;fill-opacity:1;fill-rule:nonzero;stroke:#000000;stroke-width:0.340325;stroke-linecap:round;stroke-linejoin:round;stroke-opacity:1"
         d="m 32.274279,157.7908 c 0,0 1.565839,-0.53559 1.910149,0 0.44575,0.69339 -0.327434,1.81318 -1.02665,2.24973 -0.829223,0.51772 -2.112569,0.45607 -2.931684,-0.0775 -0.656496,-0.42764 -1.252374,-1.38015 -1.006514,-2.12407 0.5353,-1.61971 1.777923,-2.92638 3.280304,-3.19205 1.167132,-0.20639 3.075962,2.20204 3.244198,1.45544 l 0.522751,-2.31988"
         id="path507881"
         sodipodi:nodetypes="cssaaasc" />
      <path
         style="opacity:1;fill:none;fill-opacity:1;fill-rule:nonzero;stroke:#000000;stroke-width:0.340325;stroke-linecap:round;stroke-linejoin:round;stroke-opacity:1"
         d="m 45.032762,163.00503 c 0,0 -4.932816,-0.0146 -6.584484,-1.54955 -1.159139,-1.07722 -1.371115,-2.94747 -1.422636,-4.52904 -0.04855,-1.4903 -0.160654,-3.48943 1.05994,-4.34587 0.974713,-0.68392 2.53977,-0.24339 3.551377,0.38467 1.080456,0.6708 1.939854,1.95036 2.050704,3.21728 0.113819,1.30085 -0.38476,2.93959 -1.499955,3.61893 -0.470963,0.2869 -1.202986,0.18669 -1.648624,-0.13815 -0.805274,-0.587 -1.339988,-1.78164 -1.149364,-2.75975 0.151973,-0.77979 0.881042,-1.70208 1.675469,-1.69507 0.634369,0.006 1.313807,1.37696 1.313807,1.37696"
         id="path507883"
         sodipodi:nodetypes="caaaaaaaaac" />
      <path
         style="opacity:1;fill:none;fill-opacity:1;fill-rule:nonzero;stroke:#000000;stroke-width:0.340325;stroke-linecap:round;stroke-linejoin:round;stroke-opacity:1"
         d="m 29.377263,153.09092 c 0,0 0.08823,-0.79598 0.389641,-0.9721 0.365501,-0.21356 0.936242,-0.10688 1.258921,0.16712 0.229637,0.195 0.340199,0.57372 0.262559,0.8648 -0.182416,0.6839 -0.900563,1.16607 -1.546843,1.45471 -0.496303,0.22165 -1.199711,0.47785 -1.624714,0.139 -0.543052,-0.43297 -0.461932,-1.39069 -0.289259,-2.06341 0.152055,-0.59239 0.550641,-1.19757 1.098352,-1.4697 0.609523,-0.30285 1.378003,-0.13663 2.041795,0.0138 1.22418,0.27734 2.166651,1.41936 3.408789,1.59999 0.898714,0.13069 1.949405,0.11287 2.693898,-0.40722 0.742814,-0.51892 1.218183,-1.4821 1.306272,-2.38393 0.09549,-0.97758 -0.443158,-1.9342 -0.889162,-2.80933 -0.59644,-1.17031 -1.996686,-1.90222 -2.341078,-3.1698 -0.329388,-1.21235 -0.01541,-2.56128 0.397105,-3.74793 0.382259,-1.09962 0.868967,-2.3509 1.865694,-2.95241 1.144135,-0.69047 2.739279,-0.76801 3.996594,-0.31529 0.963943,0.34709 1.721127,1.23736 2.206639,2.13954 0.81856,1.52106 1.659723,3.51227 0.961191,5.09205 -0.449745,1.01713 -1.764218,1.4725 -2.841582,1.74837 -1.027798,0.26319 -2.230516,0.31591 -3.178867,-0.15976 -0.727677,-0.36499 -1.43624,-1.07662 -1.556824,-1.88172 -0.178477,-1.19164 0.508687,-2.51334 1.387173,-3.33803 0.553889,-0.51997 1.440611,-0.99677 2.15564,-0.74006 0.763711,0.27418 1.145411,1.27318 1.273896,2.07438 0.08177,0.50989 0.03067,1.16659 -0.357262,1.50744 -0.462161,0.40608 -1.28922,0.47354 -1.835731,0.19102 -0.339555,-0.17553 -0.5627,-0.99917 -0.5627,-0.99917"
         id="path507885"
         sodipodi:nodetypes="caaaaaaaaaaaaaaaaaaaaaaaaaac" />
      <path
         style="opacity:1;fill:none;fill-opacity:1;fill-rule:nonzero;stroke:#000000;stroke-width:0.340325;stroke-linecap:round;stroke-linejoin:round;stroke-opacity:1"
         d="m 33.843787,148.80266 c 0,0 -0.503851,1.07715 -0.174019,1.42288 0.539566,0.56557 1.924399,0.48812 2.338477,-0.17486 0.82734,-1.32466 -1.007825,-2.97027 -1.736079,-4.35188 -0.677133,-1.28463 -1.712299,-2.35382 -2.425991,-3.6185 -0.730054,-1.29367 -2.294684,-2.60962 -1.885791,-4.03769 0.279204,-0.97513 1.538396,-1.61342 2.551739,-1.65773 0.895822,-0.0392 2.001708,0.44775 2.375112,1.26298 0.497055,1.08519 0.3019,3.01466 -0.792047,3.49213 -0.660262,0.28818 -1.595111,-0.41694 -1.870525,-1.08263 -0.181837,-0.43951 0.368977,-1.37839 0.368977,-1.37839"
         id="path507887"
         sodipodi:nodetypes="caaaaaaaaac" />
      <path
         style="opacity:1;fill:none;fill-opacity:1;fill-rule:nonzero;stroke:#000000;stroke-width:0.340325;stroke-linecap:round;stroke-linejoin:round;stroke-opacity:1"
         d="m 34.671211,135.45899 c 0,0 0.494791,1.08137 1.002474,1.20646 0.624528,0.15388 1.665689,-0.10865 1.781527,-0.74134 0.0726,-0.39651 -0.478135,-0.79231 -0.87947,-0.83005 -0.199835,-0.0188 -0.507291,0.32441 -0.507291,0.32441"
         id="path507889"
         sodipodi:nodetypes="caaac" />
      <path
         style="opacity:1;fill:none;fill-opacity:1;fill-rule:nonzero;stroke:#000000;stroke-width:0.340325;stroke-linecap:round;stroke-linejoin:round;stroke-opacity:1"
         d="m 31.854875,148.03261 c 0,0 0.887038,-1.83313 0.603392,-2.71615 -0.409155,-1.27373 -1.657822,-2.54728 -2.989238,-2.67819 -1.483303,-0.14584 -3.076743,1.00234 -3.847583,2.27799 -0.598621,0.99064 -1.057992,2.71766 -0.176587,3.46789 1.12461,0.95724 3.322092,0.14829 4.33196,-0.92931 0.501555,-0.53519 0.758532,-1.58811 0.321103,-2.17688 -0.262828,-0.35376 -0.875708,-0.27866 -1.307982,-0.19285 -0.611791,0.12144 -1.490307,0.3465 -1.606569,0.9593 -0.07417,0.39092 0.72952,0.94482 0.72952,0.94482"
         id="path507891"
         sodipodi:nodetypes="caaaaaaaac" />
      <path
         style="opacity:1;fill:none;fill-opacity:1;fill-rule:nonzero;stroke:#000000;stroke-width:0.340325;stroke-linecap:round;stroke-linejoin:round;stroke-opacity:1"
         d="m 45.795693,145.74633 c 0,0 -2.797092,0.50717 -3.935521,1.28764 -0.77557,0.5317 -1.638114,1.25572 -1.784887,2.18452 -0.120026,0.75954 0.298191,1.60145 0.837651,2.14944 1.013562,1.02958 2.613899,1.27773 4.013294,1.63695 2.328419,0.5977 4.788925,1.20143 7.163876,0.82942 1.382615,-0.21657 2.637565,-0.99142 3.82316,-1.73499 2.074328,-1.30095 3.247422,-5.19632 5.64513,-4.70003 1.296726,0.2684 1.551003,2.24305 1.793114,3.54494 0.261357,1.40538 0.213087,2.99037 -0.430515,4.26677 -0.460975,0.91421 -1.250005,2.05882 -2.27384,2.06498 -1.12786,0.007 -2.309517,-1.13876 -2.532079,-2.24446 -0.215747,-1.07185 0.749866,-2.0933 1.421612,-2.95595 0.506691,-0.65069 1.113907,-1.83872 1.898916,-1.58596 0.612865,0.19733 0.532031,1.2287 0.481528,1.87057 -0.06341,0.80594 -0.964499,2.22525 -0.964499,2.22525"
         id="path507893"
         sodipodi:nodetypes="caaaaaaaaaaaaaac" />
      <path
         style="opacity:1;fill:none;fill-opacity:1;fill-rule:nonzero;stroke:#000000;stroke-width:0.340325;stroke-linecap:round;stroke-linejoin:round;stroke-opacity:1"
         d="m 45.986215,149.47788 c 0,0 1.427013,-0.47813 1.367377,-1.04962 -0.08701,-0.83385 -1.432568,-1.15305 -2.268305,-1.08658 -1.241984,0.0988 -3.110743,0.88194 -3.073307,2.12728 0.04382,1.45758 2.354821,1.81385 3.740123,2.26925 1.505375,0.49487 3.167062,0.65798 4.734706,0.42659 2.281764,-0.33679 4.679231,-1.07035 6.41827,-2.58548 0.938311,-0.8175 2.210245,-2.04627 1.856182,-3.23932 -0.299523,-1.00928 -1.771479,-1.60734 -2.810899,-1.44014 -0.809534,0.13022 -1.418982,0.99172 -1.727028,1.7516 -0.280484,0.69189 -0.574925,1.78601 0.01802,2.23966 0.522502,0.39975 1.451198,-0.0284 1.90903,-0.50089 0.379992,-0.39212 0.365776,-1.59673 0.365776,-1.59673"
         id="path507895"
         sodipodi:nodetypes="caaaaaaaaaaac" />
      <path
         style="opacity:1;fill:none;fill-opacity:1;fill-rule:nonzero;stroke:#000000;stroke-width:0.340325;stroke-linecap:round;stroke-linejoin:round;stroke-opacity:1"
         d="m 48.247211,136.6806 c 0,0 0.160273,0.95765 -0.138363,1.25351 -0.438689,0.4346 -1.347073,0.55371 -1.843193,0.18602 -0.583699,-0.43259 -0.743059,-1.48693 -0.421522,-2.13843 0.443334,-0.89829 1.742427,-1.64574 2.693805,-1.33214 2.549649,0.84043 3.338717,4.50056 3.681291,7.1632 0.357885,2.78165 -0.05774,6.03648 -1.826318,8.21311 -0.399308,0.49144 -1.178649,1.09331 -1.730693,0.78314 -0.404039,-0.22701 -0.353229,-0.95461 -0.169296,-1.37999 0.193183,-0.44677 0.72262,-1.03574 1.177779,-0.86324 0.249083,0.0944 0.24658,0.52595 0.169521,0.78093 -0.05161,0.17078 -0.384222,0.37262 -0.384222,0.37262"
         id="path507897"
         sodipodi:nodetypes="caaaaaaaaaac" />
      <path
         style="opacity:1;fill:none;fill-opacity:1;fill-rule:nonzero;stroke:#000000;stroke-width:0.340325;stroke-linecap:round;stroke-linejoin:round;stroke-opacity:1"
         d="m 50.559908,143.97876 c 0,0 0.986675,1.43751 0.764569,2.17232 -0.287688,0.95178 -1.388843,1.78343 -2.383099,1.79409 -0.580682,0.006 -1.052051,-0.56358 -1.413973,-1.01772 -0.745356,-0.93527 -1.102393,-2.14624 -1.393246,-3.30628 -0.268067,-1.06916 -0.711655,-2.26793 -0.30548,-3.29262 0.207741,-0.52408 0.785607,-0.82721 1.267584,-1.11964 0.567747,-0.34447 1.197471,-0.76843 1.859413,-0.71523 0.702404,0.0564 1.482735,0.4492 1.826551,1.0643 0.323247,0.5783 0.375071,1.47658 -0.04733,1.98697 -0.683229,0.82555 -2.19466,1.17537 -3.142896,0.67619 -0.414283,-0.21809 -0.648863,-0.84543 -0.533651,-1.29922 0.194873,-0.76754 1.089838,-1.74969 1.8416,-1.50079 0.393275,0.13021 0.304539,1.20492 0.304539,1.20492"
         id="path507899"
         sodipodi:nodetypes="caaaaaaaaaaaac" />
      <path
         style="opacity:1;fill:none;fill-opacity:1;fill-rule:nonzero;stroke:#000000;stroke-width:0.340325;stroke-linecap:round;stroke-linejoin:round;stroke-opacity:1"
         d="m 49.313077,146.71576 c 0,0 -1.45634,-0.79121 -1.746091,-1.50223 -0.226694,-0.55628 -0.257467,-1.35915 0.155499,-1.79538 0.382545,-0.4041 1.172159,-0.5154 1.65274,-0.2349 0.499315,0.29143 0.954243,1.13517 0.632003,1.61518 -0.265629,0.39568 -1.429552,0.022 -1.429552,0.022"
         id="path507901"
         sodipodi:nodetypes="caaaac" />
      <path
         style="opacity:1;fill:none;fill-opacity:1;fill-rule:nonzero;stroke:#000000;stroke-width:0.340325;stroke-linecap:round;stroke-linejoin:round;stroke-opacity:1"
         d="m 52.966529,160.08887 c 0,0 1.825907,1.5478 1.647764,2.54164 -0.158781,0.88582 -1.284046,1.42601 -2.16408,1.61423 -0.958677,0.20504 -1.976145,-0.23884 -2.870527,-0.64031 -1.134185,-0.50912 -2.240054,-1.21703 -3.025947,-2.18034 -0.746649,-0.91519 -1.278244,-2.06393 -1.452062,-3.2322 -0.176644,-1.18727 -0.509244,-2.85789 0.455497,-3.57209 0.731979,-0.54189 1.860367,0.0919 2.693078,0.46071 0.626092,0.27731 1.61722,1.06621 1.61722,1.26673"
         id="path507903"
         sodipodi:nodetypes="caaaaaaac" />
      <path
         style="opacity:1;fill:none;fill-opacity:1;fill-rule:nonzero;stroke:#000000;stroke-width:0.340325;stroke-linecap:round;stroke-linejoin:round;stroke-opacity:1"
         d="m 50.552669,158.33723 -3.348199,-2.24297 -0.69487,2.0807 1.247304,1.72149 1.549226,1.68057 1.308869,-1.28613 -2.499217,-2.06498"
         id="path507905" />
      <path
         style="opacity:1;fill:none;fill-opacity:1;fill-rule:nonzero;stroke:#000000;stroke-width:0.340325;stroke-linecap:round;stroke-linejoin:round;stroke-opacity:1"
         d="m 53.127713,162.33048 c 0,0 -0.652947,0.91234 -1.106675,0.83007 -0.474413,-0.086 -0.731467,-0.73911 -0.778717,-1.21894 -0.0709,-0.72002 0.710745,-1.30267 0.789303,-2.02189 0.130452,-1.19432 -0.990612,-2.44163 -0.554985,-3.5613 0.304659,-0.78305 1.245404,-1.14687 1.969315,-1.57341 0.977662,-0.57605 3.147599,-1.29673 3.147599,-1.29673"
         id="path507907"
         sodipodi:nodetypes="caaaaac" />
      <path
         style="opacity:1;fill:none;fill-opacity:1;fill-rule:nonzero;stroke:#000000;stroke-width:0.340325;stroke-linecap:round;stroke-linejoin:round;stroke-opacity:1"
         d="m 59.584859,158.20637 c 0,0 0.397374,1.38788 -0.04946,1.77714 -1.072105,0.93397 -2.980595,0.19316 -4.23998,-0.46689 -1.04449,-0.54742 -2.56998,-1.51906 -2.319361,-2.67137 0.196469,-0.90334 1.599836,-1.11899 2.523776,-1.14982 0.624545,-0.0208 1.328501,0.20411 1.753987,0.66177 0.426642,0.4589 0.922116,1.31058 0.533841,1.80237 -0.374101,0.47384 -1.286571,0.206 -1.808527,-0.0974 -0.378225,-0.21984 -0.709976,-1.1038 -0.709976,-1.1038"
         id="path507909"
         sodipodi:nodetypes="caaaaaaac" />
      <path
         style="opacity:1;fill:none;fill-opacity:1;fill-rule:nonzero;stroke:#000000;stroke-width:0.340325;stroke-linecap:round;stroke-linejoin:round;stroke-opacity:1"
         d="m 60.154342,144.97467 c 0,0 -1.943905,-1.34436 -3.043057,-1.74159 -0.874812,-0.31615 -2.050712,0.13258 -2.748537,-0.48247 -1.815369,-1.60004 -1.477271,-4.60956 -2.143228,-6.93597 -0.130044,-0.45429 -0.645138,-0.99272 -0.361577,-1.37071 0.280665,-0.37413 0.955519,-0.17318 1.402654,-0.036 0.811216,0.24888 2.070299,1.48121 2.070299,1.48121"
         id="path507911"
         sodipodi:nodetypes="caaaaac" />
      <path
         style="opacity:1;fill:none;fill-opacity:1;fill-rule:nonzero;stroke:#000000;stroke-width:0.340325;stroke-linecap:round;stroke-linejoin:round;stroke-opacity:1"
         d="m 60.348152,143.33653 c 0,0 1.50608,-1.54984 1.465676,-2.52105 -0.04746,-1.14086 -0.995849,-2.19919 -1.96173,-2.8082 -0.488182,-0.30781 -1.233609,-0.61135 -1.708105,-0.28283 -0.438796,0.3038 -0.455068,1.05666 -0.311123,1.57058 0.208699,0.74511 0.798603,1.63167 1.568259,1.71151 0.389381,0.0404 0.897538,-0.29725 0.954244,-0.68459 0.09728,-0.66449 -1.231673,-1.5944 -1.231673,-1.5944"
         id="path507913"
         sodipodi:nodetypes="caaaaaac" />
      <path
         style="opacity:1;fill:none;fill-opacity:1;fill-rule:nonzero;stroke:#000000;stroke-width:0.340325;stroke-linecap:round;stroke-linejoin:round;stroke-opacity:1"
         d="m 60.297217,141.87538 c 0,0 -0.635635,0.58571 -1.039201,0.65566 -1.09375,0.18959 -2.330472,-0.10385 -3.250221,-0.72538 -0.94025,-0.63538 -1.559797,-1.73265 -1.927431,-2.80625 -0.248554,-0.72586 -0.800515,-1.91887 -0.133408,-2.29783 0.799381,-0.45411 2.116639,0.64308 2.283224,1.54722 0.07642,0.41478 -0.765523,0.61662 -0.725703,1.0365 0.07415,0.78189 1.69012,1.6417 1.69012,1.6417"
         id="path507915"
         sodipodi:nodetypes="caaaaaac" />
    </g>
  </g>
</svg>
