<?xml version="1.0" encoding="UTF-8" standalone="no"?>
<!-- Created with Inkscape (http://www.inkscape.org/) -->

<svg
   width="10.049897mm"
   height="15.355181mm"
   viewBox="0 0 10.049897 15.355181"
   version="1.1"
   id="svg5"
   inkscape:version="1.2.2 (b0a8486541, 2022-12-01)"
   sodipodi:docname="flame.svg"
   xmlns:inkscape="http://www.inkscape.org/namespaces/inkscape"
   xmlns:sodipodi="http://sodipodi.sourceforge.net/DTD/sodipodi-0.dtd"
   xmlns="http://www.w3.org/2000/svg"
   xmlns:svg="http://www.w3.org/2000/svg">
  <sodipodi:namedview
     id="namedview7"
     pagecolor="#4d4d4d"
     bordercolor="#666666"
     borderopacity="1.0"
     inkscape:pageshadow="2"
     inkscape:pageopacity="0"
     inkscape:pagecheckerboard="false"
     inkscape:document-units="mm"
     showgrid="false"
     inkscape:zoom="0.56569164"
     inkscape:cx="-143.18755"
     inkscape:cy="72.477649"
     inkscape:window-width="956"
     inkscape:window-height="1037"
     inkscape:window-x="960"
     inkscape:window-y="0"
     inkscape:window-maximized="1"
     inkscape:current-layer="layer1"
     inkscape:showpageshadow="2"
     inkscape:deskcolor="#4d4d4d" />
  <defs
     id="defs2" />
  <g
     inkscape:label="Layer 1"
     inkscape:groupmode="layer"
     id="layer1"
     transform="translate(27.007623,-129.36336)">
    <g
       id="g444163"
       transform="rotate(8.4599802,-967.01515,-726.84241)">
      <path
         style="opacity:1;fill:#a770c2;fill-opacity:1;fill-rule:nonzero;stroke:#000000;stroke-width:0.25;stroke-linecap:round;stroke-linejoin:round;stroke-opacity:1"
         d="m 92.867129,-4.2816017 c -1.120607,-0.6085956 -1.854478,-1.8609699 -2.303164,-3.054632 -0.519673,-1.3825108 -0.323398,-4.4190473 -0.323398,-4.4190473 0,0 0.349828,1.061443 0.609425,1.553354 0.196039,0.3714747 0.305964,1.161251 0.708684,1.0419158 0.846976,-0.250978 0.13536,-1.7697358 0.05601,-2.6495438 -0.08366,-0.927536 -0.643326,-1.810264 -0.557885,-2.737637 0.137575,-1.49324 1.688591,-4.169759 1.688591,-4.169759 0,0 -0.47766,2.042994 -0.29596,3.047202 0.133379,0.737149 0.287887,1.750494 0.987276,2.018885 0.393037,0.150828 0.852958,-0.196749 1.171385,-0.472124 0.17809,-0.154012 0.267216,-0.39204 0.355788,-0.610193 0.188966,-0.465425 0.363285,-1.462525 0.363285,-1.462525 0,0 0.32708,2.566071 1.229202,3.333251 0.212943,0.18109 0.607501,0.337807 0.823194,0.160001 0.318991,-0.26296 0,-1.240213 0,-1.240213 0,0 0.514759,1.4695 0.68999,2.226456 0.186981,0.807713 -0.418028,2.2424505 0.38264,2.4576088 0.408162,0.1096828 0.592456,-0.6163277 0.79677,-0.9863038 0.243901,-0.441662 0.48992,-1.432115 0.48992,-1.432115 0,0 0.189652,1.7398193 0.0626,2.5960438 -0.168941,1.1385247 -0.410354,2.3443767 -1.08203,3.279059 -0.572855,0.7971658 -1.414664,1.4891025 -2.3563,1.7665142 -1.120609,0.3301381 -2.469425,0.3113423 -3.496023,-0.2461977 z"
         id="path428952"
         sodipodi:nodetypes="aacaaaacaaaacaacaaacaaaa" />
      <path
         style="opacity:1;fill:#c270a7;fill-opacity:1;fill-rule:nonzero;stroke:none;stroke-width:0.25;stroke-linecap:round;stroke-linejoin:round;stroke-opacity:1"
         d="m 95.289504,-4.5973452 c -0.904075,0.100474 -1.92928,0.052675 -2.69297,-0.4415158 -0.861882,-0.5577319 -1.357613,-1.6003778 -1.69969,-2.5683086 -0.192786,-0.5455023 -0.164293,-1.7279064 -0.164293,-1.7279064 0,0 0.46372,0.7458197 0.850202,0.8158501 0.370492,0.067133 0.788161,-0.1643703 1.037626,-0.4463945 0.330301,-0.3734088 0.429166,-0.9372945 0.41893,-1.4357196 -0.01513,-0.736631 -0.448131,-1.40438 -0.705736,-2.094665 -0.269968,-0.723415 -0.874542,-1.370909 -0.879361,-2.143041 -0.0024,-0.384722 0.424789,-1.073175 0.424789,-1.073175 0,0 -0.03011,1.541192 0.398761,2.117219 0.427383,0.57403 1.209311,1.143498 1.907347,0.985661 0.595702,-0.134698 1.107481,-1.459634 1.107481,-1.459634 0,0 -0.196064,1.348484 -0.01577,1.985207 0.176499,0.623318 0.384368,1.63292 1.032044,1.646809 0.639812,0.01372 1.088316,-1.581612 1.088316,-1.581612 0,0 0.156393,0.663183 0.152966,1.000562 -0.0065,0.636899 -0.53479,1.2804848 -0.327072,1.8825939 0.153577,0.4451725 0.582046,0.88285 1.048612,0.9467275 0.224585,0.030748 0.444297,-0.1471822 0.608671,-0.3032755 0.164073,-0.1558066 0.333693,-0.591108 0.333693,-0.591108 0,0 -0.05817,0.966293 -0.250776,1.3992179 -0.400302,0.8997539 -1.025536,1.7402174 -1.811055,2.3341524 -0.534142,0.4038674 -1.197174,0.678391 -1.862715,0.7523556 z"
         id="path434036"
         sodipodi:nodetypes="aaacaaaaacaacaacaaaacaaa" />
      <path
         style="opacity:1;fill:#c27070;fill-opacity:1;fill-rule:nonzero;stroke:none;stroke-width:0.25;stroke-linecap:round;stroke-linejoin:round;stroke-opacity:1"
         d="m 94.329151,-4.6839457 c -0.514741,-0.070684 -0.972549,-0.4229029 -1.348827,-0.7811891 -0.546008,-0.5198999 -1.228027,-1.8994038 -1.228027,-1.8994038 0,0 0.31415,0.2539047 0.504174,0.2709209 0.299024,0.026777 0.645739,-0.064774 0.856496,-0.2785825 0.438022,-0.4443641 0.467057,-1.170254 0.553337,-1.7882169 0.04035,-0.2889868 0.0037,-0.5843026 -0.01982,-0.8751449 -0.02156,-0.266935 -0.05148,-0.534597 -0.110958,-0.795713 -0.08048,-0.35336 -0.330984,-1.035622 -0.330984,-1.035622 0,0 0.485027,0.402009 0.711373,0.620625 0.185093,0.17877 0.280522,0.636288 0.527412,0.563739 0.590955,-0.173653 0.331736,-1.817799 0.331736,-1.817799 0,0 0.338192,0.886461 0.43465,1.348912 0.107577,0.515754 -0.275888,1.2725495 0.157081,1.5727377 0.309788,0.2147831 0.763311,-0.1070417 1.093228,-0.2894016 0.24493,-0.1353841 0.613667,-0.5729651 0.613667,-0.5729651 0,0 -0.392249,0.8381592 -0.407511,1.2883082 -0.01622,0.4784467 0.0081,1.0498669 0.339391,1.3954866 0.24822,0.2589936 0.676759,0.3314352 1.033979,0.2985021 0.16599,-0.015303 0.447003,-0.2242111 0.447003,-0.2242111 0,0 -0.57242,1.1358272 -0.999271,1.5960217 -0.346872,0.3739683 -0.771582,0.688343 -1.232355,0.9071142 -0.598799,0.2843045 -1.269072,0.5860601 -1.925773,0.4958816 z"
         id="path436996"
         sodipodi:nodetypes="aacaaaaacaacaaacaaacaaaa" />
      <path
         style="opacity:1;fill:none;fill-opacity:1;fill-rule:nonzero;stroke:#000000;stroke-width:0.25;stroke-linecap:round;stroke-linejoin:round;stroke-opacity:1"
         d="m 90.714972,-9.3802402 c 0,0 0.02731,1.2132876 0.244032,1.7669604 0.24677,0.6304386 0.623028,1.2559528 1.161768,1.6659628 0.444293,0.3381307 1.057684,0.7558869 1.579525,0.5573664 0.260486,-0.099095 0.481163,-0.4640667 0.404168,-0.7319192 -0.113666,-0.3954285 -0.675213,-0.6757796 -1.079378,-0.5987452 -0.118558,0.022597 -0.229821,0.2797901 -0.229821,0.2797901"
         id="path434014"
         sodipodi:nodetypes="caaaaac" />
      <path
         style="opacity:1;fill:none;fill-opacity:1;fill-rule:nonzero;stroke:#000000;stroke-width:0.25;stroke-linecap:round;stroke-linejoin:round;stroke-opacity:1"
         d="m 92.449416,-7.2675929 c 0,0 -0.454386,-0.6634741 -0.396108,-1.0251461 0.08792,-0.5456258 0.920314,-0.7441034 1.053124,-1.2805722 0.214451,-0.8662478 -0.26487,-1.7731728 -0.539417,-2.6222898 -0.157312,-0.486532 -0.533629,-0.896722 -0.629102,-1.399062 -0.116823,-0.614683 0.08808,-1.874991 0.08808,-1.874991"
         id="path434016"
         sodipodi:nodetypes="caaaac" />
      <path
         style="opacity:1;fill:none;fill-opacity:1;fill-rule:nonzero;stroke:#000000;stroke-width:0.25;stroke-linecap:round;stroke-linejoin:round;stroke-opacity:1"
         d="m 93.230961,-13.252882 c 0,0 -0.190164,0.434615 -0.0622,0.581811 0.209647,0.241154 0.650869,0.11951 0.958104,0.03168 0.280131,-0.08008 0.545082,-0.258127 0.726318,-0.48625 0.263305,-0.331425 0.449549,-1.187626 0.449549,-1.187626"
         id="path434018"
         sodipodi:nodetypes="caaac" />
      <path
         style="opacity:1;fill:none;fill-opacity:1;fill-rule:nonzero;stroke:#000000;stroke-width:0.25;stroke-linecap:round;stroke-linejoin:round;stroke-opacity:1"
         d="m 93.748025,-4.6141568 c 0,0 1.247025,0.080838 1.834828,-0.090832 0.938405,-0.2740638 1.880031,-0.7394083 2.546852,-1.4542963 0.523265,-0.5609846 0.741849,-1.350472 0.999567,-2.0730313 0.122441,-0.3432854 0.255577,-1.0631133 0.255577,-1.0631133"
         id="path434022"
         sodipodi:nodetypes="caaac" />
      <path
         style="opacity:1;fill:none;fill-opacity:1;fill-rule:nonzero;stroke:#000000;stroke-width:0.25;stroke-linecap:round;stroke-linejoin:round;stroke-opacity:1"
         d="m 98.16535,-8.8649772 c 0,0 0.370248,0.4828679 0.243737,0.6922519 -0.166299,0.2752363 -0.664216,0.2778573 -0.954567,0.1396299 -0.487436,-0.2320539 -0.86193,-0.8528708 -0.828378,-1.3916819 0.02481,-0.3984128 0.550681,-0.5912667 0.735459,-0.9451107 0.143499,-0.274797 0.267952,-0.578248 0.275918,-0.888155 0.0081,-0.31437 -0.233235,-0.914137 -0.233235,-0.914137"
         id="path434024"
         sodipodi:nodetypes="caaaaac" />
      <path
         style="opacity:1;fill:none;fill-opacity:1;fill-rule:nonzero;stroke:#000000;stroke-width:0.25;stroke-linecap:round;stroke-linejoin:round;stroke-opacity:1"
         d="m 97.634799,-8.6578116 c 0,0 -0.41381,-0.1907907 -0.473633,-0.3853259 -0.05134,-0.1669362 -0.0026,-0.4177817 0.150413,-0.5018995 0.0964,-0.052981 0.332558,0.013076 0.317648,0.089484"
         id="path434026"
         sodipodi:nodetypes="caac" />
      <path
         style="opacity:1;fill:none;fill-opacity:1;fill-rule:nonzero;stroke:#000000;stroke-width:0.25;stroke-linecap:round;stroke-linejoin:round;stroke-opacity:1"
         d="m 95.595642,-13.290655 c 0,0 -0.122498,0.663829 0.04765,0.919098 0.171285,0.256975 0.634273,0.166058 0.835551,0.400284 0.25259,0.293937 0.440375,0.738171 0.33886,1.112198 -0.05828,0.214748 -0.273307,0.405133 -0.490707,0.452583 -0.339949,0.07419 -0.811497,-0.02643 -0.992407,-0.323656 -0.102217,-0.167936 -0.03431,-0.434101 0.09513,-0.582071 0.09986,-0.114152 0.435295,-0.132448 0.435295,-0.132448"
         id="path434028"
         sodipodi:nodetypes="caaaaaac" />
      <path
         style="opacity:1;fill:none;fill-opacity:1;fill-rule:nonzero;stroke:#000000;stroke-width:0.25;stroke-linecap:round;stroke-linejoin:round;stroke-opacity:1"
         d="m 94.781112,-5.145959 c 0,0 0.405215,-0.9187761 0.243435,-1.3445442 -0.230401,-0.6063659 -1.232409,-0.6255092 -1.530805,-1.2014642 -0.141593,-0.2732991 -0.105479,-0.6200664 -0.04677,-0.922216 0.09632,-0.4957154 0.547448,-0.8773413 0.637728,-1.3741921 0.09379,-0.5161895 -0.279911,-1.0704825 -0.117949,-1.5694985 0.08806,-0.271321 0.553051,-0.653042 0.553051,-0.653042"
         id="path434030"
         sodipodi:nodetypes="caaaaac" />
      <path
         style="opacity:1;fill:none;fill-opacity:1;fill-rule:nonzero;stroke:#000000;stroke-width:0.25;stroke-linecap:round;stroke-linejoin:round;stroke-opacity:1"
         d="m 96.872329,-7.4239381 c 0,0 0.538338,0.4088466 0.529227,0.701661 -0.01222,0.3926602 -0.428356,0.6955292 -0.766813,0.8949745 -0.229255,0.135095 -0.553455,0.297008 -0.781963,0.1606537 -0.361367,-0.2156335 -0.150677,-0.8459807 -0.363616,-1.2089424 -0.227944,-0.3885386 -0.785013,-0.5481079 -0.939747,-0.9711663 -0.175319,-0.4793404 0.0035,-1.0271966 0.103557,-1.5276819 0.06448,-0.3224158 0.340488,-0.6061491 0.316918,-0.9341035 -0.02548,-0.354585 -0.483552,-0.950576 -0.483552,-0.950576"
         id="path434032"
         sodipodi:nodetypes="caaaaaaac" />
      <path
         style="opacity:1;fill:none;fill-opacity:1;fill-rule:nonzero;stroke:#000000;stroke-width:0.25;stroke-linecap:round;stroke-linejoin:round;stroke-opacity:1"
         d="m 96.306843,-6.5139363 c 0,0 -0.241802,-0.5566687 -0.218692,-0.8475085 0.02205,-0.2775218 0.311527,-0.488091 0.333769,-0.7655976 0.03074,-0.3835849 -0.12692,-0.7682448 -0.286911,-1.1182241 -0.101546,-0.2221309 -0.173346,-0.6023326 -0.417587,-0.6020832 -0.238878,2.439e-4 -0.349403,0.3579194 -0.407215,0.5896965 -0.08205,0.3289418 -0.105823,0.7549342 0.117178,1.0102876 0.06338,0.072576 0.204418,0.1313746 0.280043,0.071665 0.154741,-0.1221747 -0.0097,-0.591395 -0.0097,-0.591395"
         id="path434034"
         sodipodi:nodetypes="caaaaaaac" />
    </g>
  </g>
</svg>
