<?xml version="1.0" encoding="UTF-8" standalone="no"?>
<!-- Created with Inkscape (http://www.inkscape.org/) -->

<svg
   width="23.602867mm"
   height="23.602871mm"
   viewBox="0 0 23.602867 23.602871"
   version="1.1"
   id="svg5"
   inkscape:version="1.2.2 (b0a8486541, 2022-12-01)"
   sodipodi:docname="forbidden.svg"
   xmlns:inkscape="http://www.inkscape.org/namespaces/inkscape"
   xmlns:sodipodi="http://sodipodi.sourceforge.net/DTD/sodipodi-0.dtd"
   xmlns="http://www.w3.org/2000/svg"
   xmlns:svg="http://www.w3.org/2000/svg">
  <sodipodi:namedview
     id="namedview7"
     pagecolor="#4d4d4d"
     bordercolor="#666666"
     borderopacity="1.0"
     inkscape:pageshadow="2"
     inkscape:pageopacity="0"
     inkscape:pagecheckerboard="false"
     inkscape:document-units="mm"
     showgrid="false"
     inkscape:zoom="2.2627666"
     inkscape:cx="60.103416"
     inkscape:cy="76.013144"
     inkscape:window-width="956"
     inkscape:window-height="1037"
     inkscape:window-x="960"
     inkscape:window-y="0"
     inkscape:window-maximized="1"
     inkscape:current-layer="layer1"
     inkscape:showpageshadow="2"
     inkscape:deskcolor="#4d4d4d" />
  <defs
     id="defs2" />
  <g
     inkscape:label="Layer 1"
     inkscape:groupmode="layer"
     id="layer1"
     transform="translate(-17.664708,-64.436357)">
    <g
       id="g547649"
       transform="matrix(0.77831927,0,0,0.77831927,13.631698,-47.04533)"
       style="stroke-width:1.28482">
      <path
         id="path535467"
         style="opacity:1;fill:#8a4242;fill-opacity:1;fill-rule:nonzero;stroke:#000000;stroke-width:0.321205;stroke-linecap:round;stroke-linejoin:round;stroke-opacity:1"
         d="m 20.344295,143.39448 c -8.285429,7e-5 -15.0020649,6.7168 -15.0020019,15.00223 6.3e-5,8.28534 6.7166599,15.00194 15.0020019,15.002 8.28543,6e-5 15.002169,-6.71657 15.002225,-15.002 6.3e-5,-8.28552 -6.716708,-15.00229 -15.002225,-15.00223 z m -0.289478,4.27947 c 2.027459,1e-4 4.016782,0.55113 5.755659,1.59367 -4.476018,5.78354 -8.256118,9.86535 -13.948904,14.49054 -1.210179,-1.82812 -1.810194,-2.74254 -1.811066,-4.93493 -0.0024,-6.1837 3.820615,-11.14956 10.004311,-11.14928 z m 9.338092,4.07834 c 1.404317,1.91847 1.471852,4.39283 1.471932,6.77035 2.14e-4,6.18353 -3.905522,10.18861 -10.089043,10.18673 -2.223286,-8e-4 -4.395449,-0.66705 -6.23972,-1.90869 5.700944,-4.88276 10.272002,-9.40216 14.856831,-15.04839 z"
         sodipodi:nodetypes="ssssssccsscsscc" />
      <path
         style="opacity:1;fill:none;fill-opacity:1;fill-rule:nonzero;stroke:#000000;stroke-width:0.321205;stroke-linecap:round;stroke-linejoin:round;stroke-opacity:1"
         d="m 24.269392,171.79146 c 0,0 3.034415,-1.06374 4.278779,-2.03672 1.860582,-1.4548 3.4501,-3.35792 4.498359,-5.47437 0.586358,-1.18387 0.910908,-3.85727 0.910908,-3.85727"
         id="path540385"
         sodipodi:nodetypes="caac" />
      <path
         style="opacity:1;fill:none;fill-opacity:1;fill-rule:nonzero;stroke:#000000;stroke-width:0.321205;stroke-linecap:round;stroke-linejoin:round;stroke-opacity:1"
         d="m 24.705163,170.60157 c 0,0 2.563048,-0.89911 3.614112,-1.72151 1.571558,-1.22965 2.91416,-2.83824 3.799581,-4.62714 0.495273,-1.00065 0.769408,-3.26031 0.769408,-3.26031"
         id="path540387"
         sodipodi:nodetypes="caac" />
      <path
         style="opacity:1;fill:none;fill-opacity:1;fill-rule:nonzero;stroke:#000000;stroke-width:0.321205;stroke-linecap:round;stroke-linejoin:round;stroke-opacity:1"
         d="m 26.030882,169.05808 c 0,0 1.685805,-0.59273 2.377127,-1.13489 1.033668,-0.81063 1.916743,-1.87108 2.499115,-3.0504 0.325759,-0.65966 0.506067,-2.14932 0.506067,-2.14932"
         id="path540389"
         sodipodi:nodetypes="caac" />
      <path
         style="opacity:1;fill:none;fill-opacity:1;fill-rule:nonzero;stroke:#000000;stroke-width:0.321205;stroke-linecap:round;stroke-linejoin:round;stroke-opacity:1"
         d="m 12.912999,163.95419 c 0,0 5.148422,-4.55988 7.567163,-7.00072 1.446167,-1.45938 4.144415,-4.56229 4.144415,-4.56229"
         id="path542796"
         sodipodi:nodetypes="cac" />
      <path
         style="opacity:1;fill:none;fill-opacity:1;fill-rule:nonzero;stroke:#000000;stroke-width:0.321205;stroke-linecap:round;stroke-linejoin:round;stroke-opacity:1"
         d="m 14.25276,163.76391 c 0,0 4.63598,-4.0416 6.843955,-6.18004 0.678793,-0.65742 1.966251,-2.04217 1.966251,-2.04217"
         id="path542798"
         sodipodi:nodetypes="cac" />
      <path
         style="opacity:1;fill:none;fill-opacity:1;fill-rule:nonzero;stroke:#000000;stroke-width:0.321205;stroke-linecap:round;stroke-linejoin:round;stroke-opacity:1"
         d="m 15.132025,164.17725 c 0,0 3.433776,-3.17771 5.124022,-4.79472 0.668357,-0.6394 1.983756,-1.94023 1.983756,-1.94023"
         id="path542800"
         sodipodi:nodetypes="cac" />
      <path
         style="opacity:1;fill:none;fill-opacity:1;fill-rule:nonzero;stroke:#000000;stroke-width:0.321205;stroke-linecap:round;stroke-linejoin:round;stroke-opacity:1"
         d="m 6.7483851,162.68403 c 0,0 -0.8296162,-3.52212 -0.6733514,-5.29419 0.1799588,-2.04076 0.8730555,-4.05593 1.8304669,-5.86714 0.8260695,-1.56274 3.2935304,-4.15614 3.2935304,-4.15614"
         id="path545210"
         sodipodi:nodetypes="caac" />
      <path
         style="opacity:1;fill:none;fill-opacity:1;fill-rule:nonzero;stroke:#000000;stroke-width:0.321205;stroke-linecap:round;stroke-linejoin:round;stroke-opacity:1"
         d="m 7.4336983,161.59723 c 0,0 -0.2848616,-2.92415 -0.071133,-4.36283 0.2936155,-1.97643 0.9296394,-3.9255 1.8358379,-5.70631 0.6131022,-1.20483 2.3898828,-3.2766 2.3898828,-3.2766"
         id="path545212"
         sodipodi:nodetypes="caac" />
      <path
         style="opacity:1;fill:none;fill-opacity:1;fill-rule:nonzero;stroke:#000000;stroke-width:0.321205;stroke-linecap:round;stroke-linejoin:round;stroke-opacity:1"
         d="m 8.3861453,161.28586 c 0,0 -0.055708,-2.51542 0.06821,-3.76424 0.1212881,-1.22231 0.6585929,-3.62562 0.6585929,-3.62562"
         id="path545214"
         sodipodi:nodetypes="cac" />
      <path
         style="opacity:1;fill:none;fill-opacity:1;fill-rule:nonzero;stroke:#000000;stroke-width:0.321205;stroke-linecap:round;stroke-linejoin:round;stroke-opacity:1"
         d="m 21.502102,143.99609 c 0,0 2.902664,0.54591 4.264411,1.0926 1.251098,0.50227 2.469895,1.14403 3.524417,1.98397 0.941605,0.75 2.430531,2.67107 2.430531,2.67107"
         id="path545216"
         sodipodi:nodetypes="caac" />
      <path
         style="opacity:1;fill:none;fill-opacity:1;fill-rule:nonzero;stroke:#000000;stroke-width:0.321205;stroke-linecap:round;stroke-linejoin:round;stroke-opacity:1"
         d="m 22.104561,144.79304 c 0,0 2.812544,0.72043 4.105934,1.35671 0.854555,0.42039 1.690997,0.92986 2.365718,1.60198 0.386205,0.38472 0.922182,1.35057 0.922182,1.35057"
         id="path545218"
         sodipodi:nodetypes="caac" />
      <path
         style="opacity:1;fill:none;fill-opacity:1;fill-rule:nonzero;stroke:#000000;stroke-width:0.321205;stroke-linecap:round;stroke-linejoin:round;stroke-opacity:1"
         d="m 23.375542,145.90086 c 0,0 1.768137,0.64214 2.58585,1.09868 0.603576,0.33698 1.691891,1.19927 1.691891,1.19927"
         id="path545220"
         sodipodi:nodetypes="cac" />
    </g>
  </g>
</svg>
