<?xml version="1.0" encoding="UTF-8" standalone="no"?>
<!-- Created with Inkscape (http://www.inkscape.org/) -->

<svg
   width="46.458118mm"
   height="18.138462mm"
   viewBox="0 0 46.458119 18.138462"
   version="1.1"
   id="svg5"
   inkscape:version="1.2.2 (b0a8486541, 2022-12-01)"
   sodipodi:docname="hand_point.svg"
   xmlns:inkscape="http://www.inkscape.org/namespaces/inkscape"
   xmlns:sodipodi="http://sodipodi.sourceforge.net/DTD/sodipodi-0.dtd"
   xmlns="http://www.w3.org/2000/svg"
   xmlns:svg="http://www.w3.org/2000/svg">
  <sodipodi:namedview
     id="namedview7"
     pagecolor="#4d4d4d"
     bordercolor="#666666"
     borderopacity="1.0"
     inkscape:pageshadow="2"
     inkscape:pageopacity="0"
     inkscape:pagecheckerboard="false"
     inkscape:document-units="mm"
     showgrid="false"
     inkscape:zoom="0.2000022"
     inkscape:cx="72.499203"
     inkscape:cy="224.99753"
     inkscape:window-width="956"
     inkscape:window-height="1037"
     inkscape:window-x="960"
     inkscape:window-y="0"
     inkscape:window-maximized="1"
     inkscape:current-layer="layer1"
     inkscape:showpageshadow="2"
     inkscape:deskcolor="#4d4d4d" />
  <defs
     id="defs2" />
  <g
     inkscape:label="Layer 1"
     inkscape:groupmode="layer"
     id="layer1"
     transform="translate(62.081272,-90.730579)">
    <g
       id="g335964"
       transform="matrix(0.75437433,0,0,0.75279933,56.96752,-110.5772)"
       style="stroke-width:1.32699">
      <path
         style="opacity:1;fill:#a770c2;fill-opacity:1;stroke:#000000;stroke-width:0.331747;stroke-linecap:round;stroke-linejoin:round;stroke-opacity:1"
         d="m -150.18186,286.33924 c -0.50764,-0.25092 -1.27977,-0.35604 -1.44163,-0.89868 -0.15595,-0.52282 0.58217,-0.94999 0.68768,-1.48527 0.0479,-0.24324 0.184,-0.62313 -0.033,-0.74303 -0.43784,-0.24191 -0.84449,0.5454 -1.30465,0.74158 -0.77798,0.33167 -1.5923,0.82518 -2.43188,0.72337 -0.60781,-0.0737 -1.07779,-0.58544 -1.58436,-0.92932 -0.47415,-0.32187 -1.35577,-1.05717 -1.35577,-1.05717 0,0 1.26364,0.27432 1.77632,-0.022 0.42319,-0.2446 0.50293,-0.83835 0.74765,-1.26148 0.36736,-0.63519 0.57006,-1.39125 1.0817,-1.91723 0.53078,-0.54566 1.62855,-0.49009 1.95719,-1.17673 0.24099,-0.5035 -0.025,-1.13908 -0.22817,-1.65899 -0.36389,-0.9311 -1.2357,-1.58313 -1.71423,-2.46084 -0.26159,-0.4798 -0.62364,-0.96993 -0.62308,-1.5164 5.5e-4,-0.54039 0.61922,-1.49826 0.61922,-1.49826 0,0 -0.009,1.09275 0.37555,1.36639 0.37404,0.26584 0.91517,-0.11268 1.37358,-0.0919 0.40669,0.0184 0.81111,0.0934 1.20624,0.19143 0.41617,0.10328 0.8624,0.65638 1.21734,0.41579 0.32519,-0.22043 0.10589,-0.78702 0.0592,-1.1771 -0.09,-0.75207 -0.36782,-1.47409 -0.64649,-2.1784 -0.29184,-0.73759 -1.0672,-2.12696 -1.0672,-2.12696 0,0 1.58033,1.76692 2.60685,2.30876 1.57157,0.82954 3.59492,0.47815 5.17003,1.30095 0.7831,0.40907 1.18783,1.39057 1.99919,1.74025 1.86451,0.80356 4.03163,0.59921 6.06192,0.59343 1.36023,-0.004 2.87375,0.24679 4.05895,-0.42069 0.73646,-0.41476 0.75052,-1.69695 1.53104,-2.02128 0.96421,-0.40065 2.09748,0.14333 3.10394,0.42129 1.10714,0.30576 2.02548,1.24002 3.16834,1.35457 3.19319,0.32006 6.24218,-1.56191 9.42752,-1.95247 0.85591,-0.10495 1.72573,-0.17646 2.5849,-0.10291 1.65869,0.14197 3.23879,0.78919 4.88394,1.04387 1.04841,0.1623 2.14722,0.0175 3.16786,0.30699 0.80991,0.22971 1.56558,0.64745 2.26736,1.11245 1.46225,0.96889 2.68959,2.25478 3.976205,3.44707 0.382085,0.35407 1.110442,1.09961 1.110442,1.09961 0,0 -1.146913,-0.33588 -1.738215,-0.36388 -1.134951,-0.0537 -2.306592,0.0296 -3.387412,0.38007 -0.97463,0.31604 -1.6927,1.22191 -2.67447,1.51503 -1.01756,0.3038 -2.12599,0.34295 -3.17913,0.20651 -0.35126,-0.0455 -0.65621,-0.37981 -1.00778,-0.33681 -0.76921,0.0941 -1.21359,1.04692 -1.96237,1.24655 -0.72248,0.19262 -1.64991,-0.55856 -2.24091,-0.10051 -0.91338,0.70792 -0.63233,2.23984 -0.7135,3.39259 -0.0482,0.68399 0.38228,1.41213 0.1371,2.05248 -0.26265,0.68599 -1.09783,0.98234 -1.57777,1.53842 -1.03086,1.19438 -1.31351,3.23734 -2.77346,3.83548 -1.29721,0.53146 -2.78667,-0.36068 -4.14702,-0.69929 -2.12039,-0.52779 -4.38652,-0.87984 -6.22072,-2.06741 -1.06788,-0.69141 -1.39589,-2.34795 -2.58042,-2.81196 -0.9356,-0.3665 -1.99962,0.24758 -3.00444,0.24574 -1.72853,-0.003 -3.44025,-0.52551 -5.16674,-0.44169 -0.78962,0.0383 -1.57929,0.18942 -2.33235,0.42997 -1.25145,0.39974 -2.27625,1.45047 -3.57241,1.66466 -1.20079,0.19843 -2.44601,-0.11255 -3.62974,-0.39548 -0.69921,-0.16712 -1.37346,-0.44261 -2.01794,-0.76116 z"
         id="path330709"
         sodipodi:nodetypes="aaaaaaacaaaaaaacaaaaaacaaaaaaaaaaaaaacaaaaaaaaaaaaaaaaaaaa" />
      <g
         id="g330644"
         transform="translate(-9.6360319,-1.237474)"
         style="stroke-width:1.32699">
        <path
           style="opacity:1;fill:#c270a7;fill-opacity:1;stroke:none;stroke-width:0.331747;stroke-linecap:round;stroke-linejoin:round;stroke-opacity:1"
           d="m -109.8467,290.84634 c 0,0 1.74526,-0.32939 2.2961,-0.94755 0.53238,-0.59744 0.19105,-1.65758 0.655,-2.30958 0.45753,-0.64297 1.55094,-0.67017 1.94017,-1.35665 0.96424,-1.70063 -1.01578,-4.51912 0.41612,-5.85012 0.98134,-0.91219 2.74033,0.4067 4.01945,0.008 0.584714,-0.18225 0.912982,-0.90985 1.509891,-1.04699 1.153628,-0.26504 2.33917,0.72963 3.508672,0.54696 1.12806,-0.1762 1.995178,-1.1284 3.062253,-1.5345 0.583241,-0.22196 1.80789,-0.48629 1.80789,-0.48629 0,0 -0.595663,-1.21732 -1.095822,-1.64709 -1.138921,-0.97864 -2.636371,-1.50147 -4.083502,-1.90232 -1.893355,-0.52445 -3.898824,-0.53371 -5.861802,-0.61466 -2.11149,-0.0871 -4.23888,-0.10188 -6.3383,0.13978 -1.82009,0.20951 -3.5468,1.11227 -5.37882,1.13049 -2.25477,0.0224 -4.52193,-2.01516 -6.64638,-1.25939 -0.49179,0.17495 -0.54612,0.95602 -1.00876,1.19774 -2.13718,1.11665 -4.79425,0.77061 -7.20327,0.6654 -1.67732,-0.0733 -3.36432,-0.36437 -4.95591,-0.89879 -1.36457,-0.45819 -2.54426,-1.35064 -3.85303,-1.9499 -0.97615,-0.44696 -2.97862,-1.22539 -2.97862,-1.22539 0,0 0.56972,1.18508 0.64082,1.82631 0.0642,0.57888 0.28651,1.42025 -0.20327,1.73543 -0.555,0.35715 -1.2524,-0.41772 -1.88521,-0.60513 -0.30736,-0.091 -0.60761,-0.26121 -0.92804,-0.25211 -0.53237,0.0151 -1.51562,0.50572 -1.51562,0.50572 0,0 0.57805,0.55781 0.81306,0.88103 0.74052,1.01848 2.03575,2.04759 1.85093,3.29319 -0.16985,1.14467 -1.76509,1.5135 -2.50644,2.40206 -0.43,0.51539 -0.487,1.74826 -1.04686,2.42959 -0.26279,0.3198 -1.02352,0.70314 -1.02352,0.70314 0,0 0.62891,0.6073 1.03516,0.67137 0.47953,0.0756 0.99801,-0.1156 1.40648,-0.37794 0.50128,-0.32194 0.58008,-1.17245 1.13973,-1.37671 1.08623,-0.39645 2.46088,-0.0368 3.41329,0.61897 0.26586,0.18305 0.61814,0.5275 0.50139,0.82843 -0.24811,0.63951 -1.41488,0.18394 -1.97406,0.58124 -0.29821,0.21188 -0.74689,0.54253 -0.63915,0.89212 0.26509,0.86017 1.65047,0.76471 2.53544,0.92901 1.44364,0.26802 3.0164,0.54912 4.40438,0.0701 0.99679,-0.34401 1.45828,-1.65724 2.45871,-1.99052 1.34948,-0.44956 2.84552,0.0568 4.2642,0.1596 1.09102,0.0791 2.16996,0.30313 3.26277,0.35131 1.2021,0.053 2.4923,-0.5169 3.60914,-0.0691 1.19928,0.48085 1.64852,2.05688 2.75078,2.73105 1.53503,0.93886 3.40626,1.1642 5.13079,1.6778 0.89118,0.26541 2.69377,0.72489 2.69377,0.72489 z"
           id="path326012"
           sodipodi:nodetypes="caaaaaaaacaaaaaaaaaacaaaacaasacaaaaaaaaaaaaaaac" />
        <path
           style="opacity:1;fill:#c27070;fill-opacity:1;stroke:none;stroke-width:0.331747;stroke-linecap:round;stroke-linejoin:round;stroke-opacity:1"
           d="m -133.54406,285.38748 c 0.8889,-1.2002 2.79338,-1.25239 4.28594,-1.3063 1.30176,-0.047 2.64302,0.74634 3.81052,0.86667 2.86094,0.29487 3.88552,-0.6326 5.5981,0.10935 0.82176,0.35602 1.14237,1.40938 1.87546,1.92379 1.16291,0.81602 2.51885,1.35866 3.88171,1.75971 1.42654,0.41979 3.02493,1.18548 4.4131,0.65237 0.88368,-0.33937 1.20492,-1.46029 1.80916,-2.18896 0.55841,-0.6734 1.34293,-1.20958 1.67852,-2.01746 0.77338,-1.86181 -0.94772,-4.68841 0.56444,-6.02177 0.61839,-0.54525 1.7761,0.075 2.47206,0.0793 1.20902,0.007 1.45672,-0.79817 2.63826,-0.91097 1.056989,-0.10091 1.641309,-0.007 2.452092,-0.11566 0.438627,-0.0586 0.99759,0.83069 1.433373,0.75569 0.386482,-0.0665 1.172566,-0.20717 1.690775,-0.48059 0.622783,-0.3286 1.531865,-0.65314 1.623748,-1.35128 0.05944,-0.4516 -0.415506,-0.85456 -0.788427,-1.11611 -0.678762,-0.47606 -1.709574,-0.45208 -2.398741,-0.65742 -1.329521,-0.39614 -1.202388,-0.81896 -3.025866,-0.66797 -1.578864,0.13073 -1.498804,0.24466 -3.059364,0.24254 -1.00112,-10e-4 -1.9116,-0.5998 -2.91357,-0.6287 -1.11565,-0.0322 -1.92363,0.69432 -3.03878,0.67492 -1.55695,-0.0271 -3.05226,0.67782 -4.60444,0.79142 -1.25403,0.0917 -2.76918,-0.51998 -4.00611,-0.26083 -1.25256,0.26243 -2.94551,0.83463 -4.21879,0.83802 -1.42136,0.004 -2.58673,-0.19311 -3.87126,-0.0679 -0.93737,0.0914 -1.82044,0.59689 -2.76225,0.59424 -1.08964,-0.003 -2.1242,-0.48795 -3.19191,-0.7055 -1.22007,-0.24859 -2.71921,-0.32817 -3.67203,-0.68517 -1.15927,-0.43434 -1.16708,-0.96335 -1.80457,-1.36727 -0.78011,-0.49429 -2.45602,-1.2822 -2.45602,-1.2822 0,0 0.85432,0.92216 0.92523,1.50746 0.0647,0.53388 -0.057,1.21938 -0.49116,1.53676 -0.65031,0.47542 -1.65315,0.25944 -2.41668,0.003 -0.65262,-0.2195 -1.64442,-1.25006 -1.64442,-1.25006 0,0 0.26342,1.05188 0.57011,1.48404 0.45616,0.64278 1.37764,0.86593 1.80366,1.52906 0.35805,0.55733 0.67785,1.26526 0.53864,1.91289 -0.11764,0.54727 -0.62922,0.95365 -1.07918,1.28662 -0.74441,0.55086 -1.93474,0.39975 -2.5575,1.08514 -0.56793,0.62505 -0.76224,2.41623 -0.76224,2.41623 0,0 0.59861,-1.02439 1.08454,-1.3226 0.54273,-0.33307 1.22942,-0.43892 1.86559,-0.41106 0.95291,0.0417 1.84603,0.4991 2.72991,0.85761 0.6538,0.26518 1.84679,0.24736 1.89068,0.95153 0.0498,0.79861 -1.24219,1.06216 -1.99365,1.33706 -0.43884,0.16053 -1.39326,0.15477 -1.39326,0.15477 0,0 1.48445,0.59937 2.27008,0.65685 0.76957,0.0563 1.55189,-0.10025 2.29363,-0.31292 0.68549,-0.19656 1.24291,-0.7926 1.95089,-0.87797 0,0 -7e-5,-2.7e-4 0,-3.7e-4 z"
           id="path324283"
           sodipodi:nodetypes="aasaaaaaaassssaaassssssssaaasacaaacaaaaacaaaaacaaaa" />
        <g
           id="g324281"
           transform="translate(-4.2959028,6.4491171)"
           style="stroke-width:1.32699">
          <path
             style="fill:#a5938d;fill-opacity:1;stroke:#000000;stroke-width:0.331747;stroke-linecap:round;stroke-linejoin:round;stroke-opacity:1"
             d="m -111.34041,278.39776 c 0.22901,-0.28347 0.69246,-0.40865 1.04989,-0.32679 0.68003,0.15574 0.90693,1.0928 1.51781,1.42683 0.72091,0.3942 1.69971,0.16708 2.39442,0.60488 0.27308,0.17209 0.54887,0.42988 0.6155,0.74326 0.0484,0.22773 0.0113,0.55107 -0.18946,0.67252 -0.83855,0.50738 -1.94855,-0.30174 -2.88981,-0.5822 -0.9029,-0.26904 -2.12806,-0.25493 -2.62262,-1.04898 -0.26419,-0.42418 -0.19016,-1.1003 0.12427,-1.48952 z"
             id="path36204-2"
             sodipodi:nodetypes="aaaaaaaaa" />
          <path
             style="fill:#a5938d;fill-opacity:1;stroke:#000000;stroke-width:0.331747;stroke-linecap:round;stroke-linejoin:round;stroke-opacity:1"
             d="m -113.57664,275.59584 c 0,0 0.16281,-0.3607 0.31637,-0.33807 0.81251,0.11971 0.45135,1.66375 1.07409,2.19357 0.35964,0.30599 0.9802,0.13521 1.35924,0.41738 0.2133,0.15878 0.44724,0.39802 0.43985,0.66195 -0.016,0.57302 -0.45646,1.33273 -1.03388,1.38272 -0.91555,0.0793 -1.39638,-1.19162 -1.99962,-1.87735 -0.49997,-0.56833 -1.32888,-1.83854 -1.32888,-1.83854 v 0"
             id="path33163-5"
             sodipodi:nodetypes="caaaaaaac" />
          <path
             style="fill:#a5938d;fill-opacity:1;stroke:#000000;stroke-width:0.331747;stroke-linecap:round;stroke-linejoin:round;stroke-opacity:1"
             d="m -106.62424,280.4234 v 0 c 0,0 1.13196,-1.07779 1.49924,-1.75077 0.16771,-0.30729 0.0236,-0.78747 0.30003,-1.00469 0.38599,-0.30325 1.08776,-0.38633 1.47633,-0.0863 0.18233,0.14078 0.19879,0.45658 0.12831,0.67447 -0.24277,0.7505 -1.31024,0.96435 -1.72335,1.63814 -0.21971,0.35835 -0.063,0.90508 -0.35735,1.20654 -0.22251,0.22786 -0.6208,0.43031 -0.91219,0.29878 -0.32423,-0.14635 -0.41102,-0.97615 -0.41102,-0.97615 z"
             id="path36206-4"
             sodipodi:nodetypes="aaaaaaaaaa" />
          <path
             style="fill:#a5938d;fill-opacity:1;stroke:#000000;stroke-width:0.331746;stroke-linecap:round;stroke-linejoin:round;stroke-opacity:1"
             d="m -93.001578,269.98964 c 0.277815,-0.30663 0.831602,0.0629 1.241427,0.13525 0.345261,0.061 0.683664,0.15647 1.021067,0.25116 0.149773,0.042 0.402916,-0.008 0.444908,0.14057 0.09303,0.32846 -0.366347,0.62772 -0.678669,0.77244 -0.269254,0.12477 -0.597918,0.063 -0.891841,0.0185 -0.468385,-0.0709 -1.04729,-0.0856 -1.347272,-0.44837 -0.08329,-0.10072 -0.07298,-0.25933 -0.04916,-0.38728 0.03335,-0.17909 0.23478,-0.30179 0.259547,-0.48223 10e-7,-1e-5 -7e-6,-2e-5 -4e-6,-2e-5 z"
             id="path36214-4"
             sodipodi:nodetypes="aaaaaaaaaa" />
          <path
             style="fill:#a5938d;fill-opacity:1;stroke:#000000;stroke-width:0.331746;stroke-linecap:round;stroke-linejoin:round;stroke-opacity:1"
             d="m -96.751092,269.6307 c 0.301875,-0.0916 0.543891,-0.34594 0.853787,-0.40591 0.221349,-0.0428 0.452526,0.007 0.675354,0.0412 0.807423,0.1251 1.820642,0.005 2.376098,0.59795 0.159774,0.17055 0.223543,0.47769 0.121356,0.68707 -0.118233,0.24226 -0.445181,0.40193 -0.716691,0.38583 -0.175142,-0.0104 -0.259525,-0.25655 -0.428921,-0.30175 -0.383796,-0.10237 -0.790061,0.11179 -1.187549,0.10768 -0.241549,-0.002 -0.478714,-0.0718 -0.720124,-0.0803 -0.184023,-0.006 -0.397564,0.12176 -0.551954,0.0225 -0.320391,-0.20596 -0.612762,-0.72686 -0.421804,-1.0542 7.6e-5,-1.3e-4 2.86e-4,-10e-6 4.24e-4,-1.6e-4 z"
             id="path36212-1"
             sodipodi:nodetypes="aaaaaaaaaaaa" />
          <path
             style="fill:#a5938d;fill-opacity:1;stroke:#000000;stroke-width:0.331746;stroke-linecap:round;stroke-linejoin:round;stroke-opacity:1"
             d="m -103.06553,271.63775 c -0.45819,-0.28294 -0.55435,-1.16049 -0.22858,-1.58663 0.63728,-0.83362 2.08997,-0.31724 3.1415,-0.42063 0.844969,-0.0831 1.693481,-0.13536 2.542241,-0.16019 0.435075,-0.0127 0.96244,-0.25879 1.305783,0.006 0.248398,0.19142 0.31071,0.6026 0.235034,0.9049 -0.04945,0.19752 -0.225988,0.37117 -0.414765,0.45211 -0.733905,0.31471 -1.599942,-0.062 -2.39948,-0.0373 -0.683202,0.0211 -1.373843,0.0267 -2.044363,0.15805 -0.73456,0.14383 -1.5022,1.07616 -2.13737,0.68393 z"
             id="path36210-2"
             sodipodi:nodetypes="aaaaaaaaaa" />
          <path
             style="fill:#a5938d;fill-opacity:1;stroke:#000000;stroke-width:0.331746;stroke-linecap:round;stroke-linejoin:round;stroke-opacity:1"
             d="m -112.10551,270.56586 c 1.24253,0.0447 2.48253,-0.1466 3.72141,-0.25066 1.21485,-0.10204 2.42181,-0.29452 3.63887,-0.36638 0.66374,-0.0392 1.53135,-0.507 1.99447,-0.0351 0.35123,0.35786 0.27775,1.13517 -0.072,1.49445 -0.34191,0.35123 -0.98066,0.11564 -1.47355,0.12503 -1.32679,0.0253 -2.66038,-0.35158 -3.97671,-0.18516 -1.0115,0.12789 -1.92717,1.12239 -2.92133,0.89799 -0.65468,-0.14777 -1.54942,-0.69834 -1.47382,-1.35822 0.0244,-0.21291 0.34993,-0.28105 0.56262,-0.32192 10e-6,0 2e-5,10e-6 3e-5,10e-6 z"
             id="path36208-2"
             sodipodi:nodetypes="aaaaaaaaaaa" />
          <path
             id="path27144-3"
             style="fill:#a5938d;fill-opacity:1;stroke:#000000;stroke-width:0.331746;stroke-linecap:round;stroke-linejoin:round;stroke-opacity:1"
             d="m -129.07398,270.16982 c 2.45121,1.58435 5.24258,2.08801 7.97235,1.91958 1.16566,-0.0719 2.10958,-1.30881 3.2749,-1.2318 0.4603,0.0304 0.97778,0.26211 1.21662,0.65243 0.22485,0.36749 0.0188,1.28846 0.0188,1.28846 v 0 c 0,0 -1.02012,1.17913 -1.73097,1.40291 -0.9299,0.29273 -1.94954,-0.10545 -2.92041,-0.20305 -1.22871,-0.12352 -2.44763,-0.32886 -3.6727,-0.48377 -2.29685,-0.29044 -6.89507,-0.83557 -6.89507,-0.83557"
             sodipodi:nodetypes="caaaaaaaac" />
          <path
             style="fill:#a5938d;fill-opacity:1;stroke:#000000;stroke-width:0.331746;stroke-linecap:round;stroke-linejoin:round;stroke-opacity:1"
             d="m -115.42228,270.91972 c -0.12021,-0.41638 0.71823,-0.53932 1.1448,-0.63696 0.30244,-0.0692 0.67231,-0.11856 0.92977,0.053 0.26478,0.17643 0.5088,0.55565 0.41023,0.85597 -0.1666,0.50753 -0.8809,0.7519 -1.42022,0.76806 -0.38854,0.0116 -0.84411,-0.16824 -1.05515,-0.49108 -0.10055,-0.15365 0.1254,-0.42354 -0.009,-0.54897 -10e-6,-2e-5 -5e-5,2e-5 -6e-5,0 z"
             id="path45277-2"
             sodipodi:nodetypes="aaaaaaaa" />
          <path
             style="fill:#a5938d;fill-opacity:1;stroke:#000000;stroke-width:0.331746;stroke-linecap:round;stroke-linejoin:round;stroke-opacity:1"
             d="m -112.12879,272.54549 c 0.15259,-0.49131 -0.029,-1.19057 -0.46388,-1.47208 -0.33005,-0.21368 -0.78554,0.0749 -1.17637,0.12783 -0.40921,0.0555 -0.91981,-0.0789 -1.2227,0.19883 -0.32409,0.29715 -0.32355,0.83711 -0.31329,1.27405 0.01,0.41298 0.0678,0.88685 0.35229,1.1893 0.22875,0.24317 0.616,0.42001 0.94393,0.34836 0.40007,-0.0874 0.55868,-0.59432 0.86334,-0.86525 0.32219,-0.28652 0.88947,-0.39141 1.01668,-0.80104 z"
             id="path33155-7"
             sodipodi:nodetypes="aaaaaaaaa" />
          <path
             style="fill:#a5938d;fill-opacity:1;stroke:#000000;stroke-width:0.331746;stroke-linecap:round;stroke-linejoin:round;stroke-opacity:1"
             d="m -116.61012,271.51003 c 0.0692,-0.22772 0.0314,-0.53663 0.22484,-0.67783 0.32991,-0.24079 0.90164,-0.2646 1.22989,-0.0216 0.16495,0.1221 0.14807,0.3863 0.16365,0.58948 0.0345,0.45081 0.13599,1.00221 -0.15958,1.34712 -0.19685,0.2297 -0.58123,0.18135 -0.87748,0.2508 -0.34528,0.0809 -0.80624,0.45104 -1.04653,0.19282 -0.39773,-0.42743 0.29609,-1.12451 0.46521,-1.68078 z"
             id="path33159-2"
             sodipodi:nodetypes="aaaaaaaa" />
          <path
             style="fill:#a5938d;fill-opacity:1;stroke:#000000;stroke-width:0.331746;stroke-linecap:round;stroke-linejoin:round;stroke-opacity:1"
             d="m -114.66967,276.55916 c 0,0 0.17067,0.78001 0.48154,0.96458 0.30524,0.18123 0.74026,0.10598 1.06756,-0.0326 0.64618,-0.27354 1.25342,-0.8135 1.50197,-1.46373 0.11321,-0.29616 0.0692,-0.66102 -0.0671,-0.94753 -0.14843,-0.31208 -0.44885,-0.55298 -0.75735,-0.71381 -0.27024,-0.14088 -0.59875,-0.25531 -0.89655,-0.18795 -0.32848,0.0743 -0.79948,0.61181 -0.79948,0.61181"
             id="path33161-1"
             sodipodi:nodetypes="caaaaaac" />
          <path
             style="fill:#a5938d;fill-opacity:1;stroke:#000000;stroke-width:0.331746;stroke-linecap:round;stroke-linejoin:round;stroke-opacity:1"
             d="m -116.3528,273.30462 c 0,0 0.64816,-0.71587 1.04777,-0.63049 0.4149,0.0886 0.38379,0.78104 0.71761,1.04033 0.34945,0.27142 1.02334,0.0845 1.24785,0.46368 0.21424,0.36186 -0.002,0.86885 -0.19258,1.24348 -0.24223,0.47643 -0.63981,0.93217 -1.13744,1.13753 -0.36558,0.15086 -1.1884,-4.4e-4 -1.1884,-4.4e-4 l -2.24707,-1.51248 z"
             id="path30149-6"
             sodipodi:nodetypes="caaaaac" />
          <path
             style="fill:#a5938d;fill-opacity:1;stroke:#000000;stroke-width:0.331746;stroke-linecap:round;stroke-linejoin:round;stroke-opacity:1"
             d="m -131.11161,276.68211 c 0,0 5.00157,-0.40542 7.49162,-0.20638 1.41897,0.11342 2.77104,0.80101 4.19462,0.79414 1.21303,-0.006 3.02005,0.35943 3.56738,-0.71116 0.22847,-0.4469 -0.55058,-0.86928 -0.64107,-1.36199 -0.11431,-0.62236 0.36015,-1.29598 0.14626,-1.8921 -0.1819,-0.50698 -0.58642,-1.07849 -1.12214,-1.17172 -1.38325,-0.24074 -2.39903,1.55372 -3.76771,1.86545 -3.53868,0.80597 -10.89322,-0.12335 -10.89322,-0.12335"
             id="path24139-2"
             sodipodi:nodetypes="caaaaaaac" />
          <path
             style="fill:none;fill-opacity:1;stroke:#000000;stroke-width:0.331748;stroke-linecap:round;stroke-linejoin:round;stroke-opacity:1"
             d="m -115.35439,273.67997 c 0,0 0.34408,0.37789 0.48459,0.59013 0.19603,0.29599 0.52484,0.59 0.49381,0.94366 -0.0211,0.23997 -0.21201,0.49883 -0.44147,0.57216 -0.29742,0.0951 -0.89624,-0.27231 -0.89624,-0.27231"
             id="path315082"
             sodipodi:nodetypes="caaac" />
          <path
             style="fill:none;fill-opacity:1;stroke:#000000;stroke-width:0.331748;stroke-linecap:round;stroke-linejoin:round;stroke-opacity:1"
             d="m -115.3883,275.05591 -0.3429,-0.46636"
             id="path315084"
             sodipodi:nodetypes="cc" />
          <path
             style="fill:none;fill-opacity:1;stroke:#000000;stroke-width:0.331748;stroke-linecap:round;stroke-linejoin:round;stroke-opacity:1"
             d="m -115.69791,272.19854 c 0,0 0.18652,-0.40253 0.21796,-0.61902 0.0258,-0.17775 -0.027,-0.53819 -0.027,-0.53819"
             id="path315086"
             sodipodi:nodetypes="cac" />
          <path
             style="fill:none;fill-opacity:1;stroke:#000000;stroke-width:0.331748;stroke-linecap:round;stroke-linejoin:round;stroke-opacity:1"
             d="m -115.8256,271.11766 -0.0343,0.42974"
             id="path315088"
             sodipodi:nodetypes="cc" />
          <path
             style="fill:none;fill-opacity:1;stroke:#000000;stroke-width:0.331748;stroke-linecap:round;stroke-linejoin:round;stroke-opacity:1"
             d="m -114.51749,270.85081 0.72396,-0.17862"
             id="path315090"
             sodipodi:nodetypes="cc" />
          <path
             style="fill:none;fill-opacity:1;stroke:#000000;stroke-width:0.331748;stroke-linecap:round;stroke-linejoin:round;stroke-opacity:1"
             d="m -114.57818,271.74073 c 0.0704,-0.0151 0.64947,-0.1543 0.64947,-0.1543"
             id="path315092"
             sodipodi:nodetypes="cc" />
          <path
             style="fill:none;fill-opacity:1;stroke:#000000;stroke-width:0.331748;stroke-linecap:round;stroke-linejoin:round;stroke-opacity:1"
             d="m -114.24507,272.00458 0.34899,-0.11846"
             id="path315094"
             sodipodi:nodetypes="cc" />
          <path
             style="fill:#a5938d;fill-opacity:1;stroke:#000000;stroke-width:0.331746;stroke-linecap:round;stroke-linejoin:round;stroke-opacity:1"
             d="m -108.93624,277.01617 c 0.26635,0.002 0.58595,0.0586 0.75337,0.26345 0.15122,0.18505 0.16196,0.48013 0.0924,0.70791 -0.0535,0.1753 -0.185,0.36829 -0.36405,0.4149 -0.50399,0.1312 -0.96399,-0.40823 -1.4733,-0.51751 -0.28002,-0.0601 -0.57056,-0.0538 -0.85644,-0.0731 -0.17085,-0.0115 -0.44487,0.13006 -0.51309,-0.0253 -0.13152,-0.2995 0.32763,-0.64044 0.63929,-0.74823 0.33404,-0.11553 0.68808,0.22743 1.04122,0.20487 0.23892,-0.0153 0.44115,-0.22878 0.68056,-0.22707 z"
             id="path45267-1"
             sodipodi:nodetypes="aaaaaaaaaa" />
          <path
             style="fill:#a5938d;fill-opacity:1;stroke:#000000;stroke-width:0.331746;stroke-linecap:round;stroke-linejoin:round;stroke-opacity:1"
             d="m -104.29469,275.80651 c 0.14495,0.35072 -0.0533,0.81201 -0.30786,1.09514 -0.43957,0.48884 -1.24085,0.45896 -1.83677,0.74291 -0.49815,0.23735 -0.89621,0.76458 -1.44796,0.80049 -0.2389,0.0156 -0.54769,-0.0573 -0.66745,-0.26235 -0.14908,-0.25518 -0.0499,-0.63911 0.12892,-0.87487 0.34505,-0.45499 1.11906,-0.35511 1.56928,-0.70898 0.2615,-0.20554 0.33498,-0.59975 0.61142,-0.78518 0.37706,-0.25293 0.86241,-0.42556 1.31458,-0.37023 0.24289,0.0297 0.54325,0.13902 0.63584,0.36307 z"
             id="path45265-9"
             sodipodi:nodetypes="aaaaaaaaaa" />
          <path
             style="fill:#a5938d;fill-opacity:1;stroke:#000000;stroke-width:0.331746;stroke-linecap:round;stroke-linejoin:round;stroke-opacity:1"
             d="m -103.72457,270.70523 c 0.26786,0.20235 0.61495,0.40949 0.68509,0.73554 0.0743,0.34524 -0.27433,0.65687 -0.34197,1.00344 -0.2666,1.36594 0.56772,3.02604 -0.23731,4.16685 -0.21037,0.29812 -0.64658,0.47212 -1.01205,0.43318 -0.36923,-0.0393 -0.7749,-0.29886 -0.90475,-0.64295 -0.26896,-0.71277 0.37253,-1.47659 0.53366,-2.2205 0.14753,-0.68112 0.45841,-1.35876 0.39633,-2.05262 -0.0353,-0.3948 -0.43215,-0.71428 -0.42937,-1.11061 0.001,-0.14986 0.05,-0.32398 0.16822,-0.41767 0.18848,-0.14931 0.47691,-0.1514 0.71533,-0.11345 0.15821,0.0252 0.29948,0.12259 0.42682,0.21879 z"
             id="path42247-5"
             sodipodi:nodetypes="aaaaaaaaaaaa" />
          <path
             style="fill:#a5938d;fill-opacity:1;stroke:#000000;stroke-width:0.331746;stroke-linecap:round;stroke-linejoin:round;stroke-opacity:1"
             d="m -113.47279,271.24704 c 0.11393,-0.74262 1.51592,0.1009 2.27505,0.12431 1.08586,0.0335 2.18461,0.18167 3.25908,0.023 1.00289,-0.14812 1.89605,-0.78033 2.90288,-0.89944 0.40123,-0.0475 0.90447,-0.18344 1.20968,0.0785 0.22581,0.19379 0.28318,0.58912 0.18423,0.86813 -0.17514,0.49381 -0.72553,0.82583 -1.22508,0.99839 -0.77186,0.26664 -1.64723,-0.18189 -2.45242,-0.0416 -0.97073,0.16919 -1.78052,0.94855 -2.76122,1.04664 -0.88172,0.0882 -1.8482,-0.005 -2.6228,-0.43042 -0.37635,-0.20688 -0.72113,-0.55434 -0.85234,-0.95991 -0.0834,-0.25772 0.24012,-0.58609 0.083,-0.8076 0,-1e-5 -4e-5,0 -4e-5,-1e-5 z"
             id="path39230-7"
             sodipodi:nodetypes="aaaaaaaaaaaaa" />
          <path
             style="fill:#a5938d;fill-opacity:1;stroke:#000000;stroke-width:0.331746;stroke-linecap:round;stroke-linejoin:round;stroke-opacity:1"
             d="m -107.07428,279.56558 c -0.0769,-0.3565 -0.74263,0.12135 -1.10453,0.0522 -0.54542,-0.10423 -1.02266,-0.43219 -1.51517,-0.68629 -0.14592,-0.0753 -0.43366,-0.0852 -0.42545,-0.24778 0.0178,-0.35206 0.61588,-0.4116 0.97089,-0.44315 0.17705,-0.0157 0.35038,0.069 0.5163,0.13209 0.1925,0.0732 0.34927,0.23037 0.54847,0.28318 0.18135,0.0481 0.40523,-0.0773 0.56273,0.0238 0.27995,0.1796 0.13532,0.76734 0.4467,0.886 2e-5,10e-6 6e-5,0 6e-5,-2e-5 z"
             id="path45275-3"
             sodipodi:nodetypes="aaaaaaaaaa" />
          <path
             style="fill:#a5938d;fill-opacity:1;stroke:#000000;stroke-width:0.331746;stroke-linecap:round;stroke-linejoin:round;stroke-opacity:1"
             d="m -103.81746,276.86719 c 0.22921,0.11795 -0.0695,0.52624 -0.21725,0.73585 -0.35143,0.49844 -1.03776,0.6643 -1.48168,1.08442 -0.39962,0.3782 -0.55972,1.01208 -1.04482,1.27491 -0.26452,0.14331 -0.63911,0.25182 -0.89909,0.10061 -0.39695,-0.23087 -0.723,-0.84696 -0.53145,-1.2611 0.15384,-0.33262 0.73849,-0.15205 1.05392,-0.34302 0.64151,-0.38837 1.27036,-0.9034 1.60306,-1.57053 0.1176,-0.2358 -0.0965,-0.60585 0.10047,-0.78248 0.24094,-0.21612 0.69289,-0.18717 0.97544,-0.0278 0.26403,0.14894 0.13853,0.76358 0.44139,0.78914 1e-5,0 1e-5,-10e-6 1e-5,-10e-6 z"
             id="path45273-4"
             sodipodi:nodetypes="aaaaaaaaaaaa" />
          <path
             style="fill:#a5938d;fill-opacity:1;stroke:#000000;stroke-width:0.331746;stroke-linecap:round;stroke-linejoin:round;stroke-opacity:1"
             d="m -106.08971,272.18532 c 0.4045,0.008 0.74155,0.39679 0.96145,0.73264 0.37426,0.5716 0.23647,1.35017 0.48096,1.98676 0.11899,0.30984 0.2528,0.62792 0.47405,0.87686 0.23185,0.26087 0.76869,0.26913 0.85769,0.6051 0.10017,0.37814 -0.16872,0.85414 -0.50369,1.06166 -0.34849,0.21589 -0.89855,0.22019 -1.23356,-0.0156 -0.25354,-0.17848 -0.33105,-0.56102 -0.31697,-0.86847 0.004,-0.0965 0.12091,-0.16597 0.12394,-0.26249 0.027,-0.86002 -0.38431,-1.75313 -0.95561,-2.40208 -0.21424,-0.24335 -0.76353,-0.16468 -0.85284,-0.47502 -0.0976,-0.33911 0.27815,-0.6638 0.51591,-0.92651 0.12203,-0.13485 0.26573,-0.31665 0.44867,-0.31281 z"
             id="path45271-9"
             sodipodi:nodetypes="aaaaaaaaaaaaa" />
          <path
             style="fill:#a5938d;fill-opacity:1;stroke:#000000;stroke-width:0.331746;stroke-linecap:round;stroke-linejoin:round;stroke-opacity:1"
             d="m -106.37333,273.56502 c 0,0 0.4066,0.22587 0.54981,0.40095 0.23785,0.29076 0.34093,0.66985 0.46776,1.02219 0.0836,0.23216 0.19148,0.71464 0.19148,0.71464"
             id="path119792-4"
             sodipodi:nodetypes="caac" />
          <path
             style="fill:#a5938d;fill-opacity:1;stroke:#000000;stroke-width:0.331746;stroke-linecap:round;stroke-linejoin:round;stroke-opacity:1"
             d="m -114.29699,272.74839 c 0.16457,-0.51439 1.08016,-0.15601 1.62343,-0.20536 1.34253,-0.12196 2.69293,-0.13627 4.0382,-0.22383 0.53049,-0.0345 1.0627,-0.18298 1.59036,-0.11888 0.38214,0.0464 0.83106,0.0834 1.09644,0.35925 0.20434,0.21243 0.38749,0.59493 0.23727,0.8477 -0.36093,0.60733 -1.36439,0.49453 -2.0767,0.49834 -0.41975,0.002 -0.80715,-0.28184 -1.22691,-0.28056 -0.83475,0.003 -1.60181,0.55438 -2.43635,0.57281 -0.53233,0.0118 -1.09295,-0.0605 -1.56902,-0.29638 -0.51529,-0.25529 -1.45058,-0.60966 -1.27672,-1.15309 z"
             id="path45269-4"
             sodipodi:nodetypes="aaaaaaaaaaa" />
          <path
             style="fill:#a5938d;fill-opacity:1;stroke:#000000;stroke-width:0.331746;stroke-linecap:round;stroke-linejoin:round;stroke-opacity:1"
             d="m -105.29344,279.47034 c -0.19119,0.11226 0.052,0.45777 -0.0386,0.65857 -0.13514,0.29949 -0.45097,0.48268 -0.70073,0.69842 -0.25557,0.22077 -0.4993,0.7357 -0.81249,0.60655 -0.20006,-0.0825 -0.11957,-0.42539 -0.0869,-0.6373 0.0515,-0.33437 0.25968,-0.62838 0.43359,-0.9196 0.13313,-0.22292 0.21493,-0.54485 0.46309,-0.62729 0.24487,-0.0813 0.64953,0.45914 0.74214,0.22066 0,-10e-6 -1e-5,-10e-6 -1e-5,-10e-6 z"
             id="path45285-5"
             sodipodi:nodetypes="aaaaaaaaa" />
          <path
             style="fill:#a5938d;fill-opacity:1;stroke:#000000;stroke-width:0.331746;stroke-linecap:round;stroke-linejoin:round;stroke-opacity:1"
             d="m -105.0556,277.19638 c 0.2035,0.22787 0.29934,0.55828 0.30043,0.86229 0.003,0.71909 -0.12233,1.60265 -0.69596,2.04453 -0.15329,0.11808 -0.41507,0.14434 -0.58114,0.0446 -0.16333,-0.0981 -0.21419,-0.33305 -0.22421,-0.52177 -0.0244,-0.46037 0.41049,-0.86149 0.40917,-1.3225 -0.001,-0.38061 -0.513,-0.74798 -0.34405,-1.08995 0.10366,-0.20981 0.42729,-0.25755 0.66314,-0.24629 0.17524,0.008 0.35648,0.099 0.47262,0.22909 z"
             id="path45283-0"
             sodipodi:nodetypes="aaaaaaaaa" />
          <path
             style="fill:#a5938d;fill-opacity:1;stroke:#000000;stroke-width:0.331746;stroke-linecap:round;stroke-linejoin:round;stroke-opacity:1"
             d="m -107.69524,273.79799 c 0.56216,-0.0462 0.7329,0.85526 1.01983,1.33558 0.19487,0.32623 0.21931,0.75043 0.46911,1.03773 0.34012,0.39118 1.19453,0.33474 1.31689,0.83626 0.0645,0.26436 -0.15338,0.62018 -0.41452,0.70536 -0.26259,0.0857 -0.55106,-0.14771 -0.76171,-0.32485 -0.24898,-0.20937 -0.3102,-0.57604 -0.52795,-0.81708 -0.39238,-0.43434 -0.86347,-0.80748 -1.37267,-1.10014 -0.38488,-0.22121 -1.00973,-0.10566 -1.24421,-0.47988 -0.2198,-0.35079 -0.17883,-0.93699 0.11184,-1.23309 0.23375,-0.23811 0.66681,-0.16102 0.99958,-0.11824 0.14359,0.0185 0.26807,0.20829 0.40379,0.15838 1e-5,0 0,-3e-5 2e-5,-3e-5 z"
             id="path45281-5"
             sodipodi:nodetypes="aaaaaaaaaaaaa" />
          <path
             style="fill:#a5938d;fill-opacity:1;stroke:#000000;stroke-width:0.331746;stroke-linecap:round;stroke-linejoin:round;stroke-opacity:1"
             d="m -114.23289,274.49481 c -0.16333,-0.29658 0.0972,-0.74199 0.37043,-0.94459 1.16701,-0.86539 2.9138,-0.56133 4.35977,-0.37158 0.4017,0.0527 0.91435,0.0806 1.14205,0.41205 0.15115,0.22005 0.0771,0.55053 -0.0222,0.79776 -0.0628,0.15626 -0.19018,0.29614 -0.33962,0.37631 -0.71234,0.38214 -1.59305,0.38455 -2.40317,0.36392 -1.0572,-0.0269 -2.60142,0.28462 -3.10722,-0.63387 z"
             id="path45279-7"
             sodipodi:nodetypes="aaaaaaaa" />
          <path
             style="fill:none;fill-opacity:1;stroke:#000000;stroke-width:0.331748;stroke-linecap:round;stroke-linejoin:round;stroke-opacity:1"
             d="m -112.87175,274.5518 c 0,0 -0.3988,-0.0458 -0.54455,-0.16751 -0.11682,-0.0976 -0.24218,-0.25685 -0.20981,-0.40558 0.0535,-0.24573 0.35766,-0.37885 0.59377,-0.46543 0.66636,-0.24435 1.4199,-0.13386 2.12769,-0.0812 0.54296,0.0404 1.60501,0.30314 1.60501,0.30314"
             id="path315107"
             sodipodi:nodetypes="caaaac" />
          <path
             style="fill:none;fill-opacity:1;stroke:#000000;stroke-width:0.331748;stroke-linecap:round;stroke-linejoin:round;stroke-opacity:1"
             d="m -112.72844,273.9563 c 0,0 1.20563,-0.12424 1.80494,-0.0668 0.47762,0.0458 1.40212,0.32557 1.40212,0.32557"
             id="path315109"
             sodipodi:nodetypes="cac" />
          <path
             style="fill:none;fill-opacity:1;stroke:#000000;stroke-width:0.331748;stroke-linecap:round;stroke-linejoin:round;stroke-opacity:1"
             d="m -111.37804,274.74698 c 0,0 0.63797,-0.0288 0.95669,-0.0479 0.24071,-0.0144 0.72166,-0.0504 0.72166,-0.0504"
             id="path315111"
             sodipodi:nodetypes="cac" />
          <path
             style="fill:none;fill-opacity:1;stroke:#000000;stroke-width:0.331748;stroke-linecap:round;stroke-linejoin:round;stroke-opacity:1"
             d="m -109.09289,272.72292 c 0,0 1.12199,-0.14797 1.68515,-0.13105 0.32579,0.01 0.68959,-0.0344 0.96856,0.1342 0.13302,0.0804 0.28001,0.22391 0.27145,0.3791 -0.007,0.13305 -0.26708,0.29747 -0.26708,0.29747"
             id="path315113"
             sodipodi:nodetypes="caaac" />
          <path
             style="fill:none;fill-opacity:1;stroke:#000000;stroke-width:0.331748;stroke-linecap:round;stroke-linejoin:round;stroke-opacity:1"
             d="m -105.54753,271.78881 c 0,0 0.43644,0.18587 0.65785,0.14742 0.26559,-0.0461 0.54948,-0.19851 0.6833,-0.43251 0.11696,-0.20452 0.19693,-0.54754 0.023,-0.70644 -0.19833,-0.18118 -0.79982,0.0988 -0.79982,0.0988"
             id="path315115"
             sodipodi:nodetypes="caaac" />
          <path
             style="fill:none;fill-opacity:1;stroke:#000000;stroke-width:0.331748;stroke-linecap:round;stroke-linejoin:round;stroke-opacity:1"
             d="m -107.30732,271.73272 c 0,0 0.58856,-0.30215 0.88971,-0.43868 0.34402,-0.15597 1.04668,-0.43419 1.04668,-0.43419"
             id="path315117"
             sodipodi:nodetypes="cac" />
          <path
             style="fill:none;fill-opacity:1;stroke:#000000;stroke-width:0.331748;stroke-linecap:round;stroke-linejoin:round;stroke-opacity:1"
             d="m -112.69794,271.45231 c 0,0 1.35618,0.21519 2.03991,0.26945 0.75473,0.0599 2.27049,0.0614 2.27049,0.0614"
             id="path315119"
             sodipodi:nodetypes="cac" />
          <path
             style="fill:none;fill-opacity:1;stroke:#000000;stroke-width:0.331748;stroke-linecap:round;stroke-linejoin:round;stroke-opacity:1"
             d="m -110.72323,270.75122 c 0,0 1.22947,0.0345 1.84275,0 0.85265,-0.048 2.54583,-0.28723 2.54583,-0.28723"
             id="path315121"
             sodipodi:nodetypes="cac" />
          <path
             style="fill:none;fill-opacity:1;stroke:#000000;stroke-width:0.331748;stroke-linecap:round;stroke-linejoin:round;stroke-opacity:1"
             d="m -109.1264,271.0466 1.18536,-0.14105"
             id="path315123"
             sodipodi:nodetypes="cc" />
          <path
             style="fill:none;fill-opacity:1;stroke:#000000;stroke-width:0.331748;stroke-linecap:round;stroke-linejoin:round;stroke-opacity:1"
             d="m -101.84251,270.84557 c 0,0 1.20396,-0.48342 1.84087,-0.53332 0.599012,-0.0469 1.187731,0.20896 1.788342,0.22582 0.427292,0.012 0.898481,0.10516 1.279285,-0.089 0.154491,-0.0788 0.334015,-0.39889 0.334015,-0.39889"
             id="path315125"
             sodipodi:nodetypes="caaac" />
          <path
             style="fill:none;fill-opacity:1;stroke:#000000;stroke-width:0.331748;stroke-linecap:round;stroke-linejoin:round;stroke-opacity:1"
             d="m -94.857577,269.67367 c 0,0 0.869704,0.0442 1.251772,0.22835 0.173347,0.0836 0.434806,0.37977 0.434806,0.37977"
             id="path315127"
             sodipodi:nodetypes="cac" />
          <path
             style="fill:none;fill-opacity:1;stroke:#000000;stroke-width:0.331748;stroke-linecap:round;stroke-linejoin:round;stroke-opacity:1"
             d="m -92.386515,270.91537 c 0,0 0.600601,0.12579 0.896423,0.0765 0.185611,-0.0309 0.474719,-0.0442 0.516551,-0.22767 0.02276,-0.0998 -0.199548,-0.23345 -0.199548,-0.23345"
             id="path315129"
             sodipodi:nodetypes="caac" />
          <path
             style="fill:none;fill-opacity:1;stroke:#000000;stroke-width:0.331748;stroke-linecap:round;stroke-linejoin:round;stroke-opacity:1"
             d="m -108.16381,274.9451 c 0,0 0.56978,0.28635 0.83758,0.45831 0.1337,0.0858 0.38206,0.28501 0.38206,0.28501"
             id="path315131"
             sodipodi:nodetypes="cac" />
          <path
             style="fill:none;fill-opacity:1;stroke:#000000;stroke-width:0.331748;stroke-linecap:round;stroke-linejoin:round;stroke-opacity:1"
             d="m -105.79663,277.22748 c 0,0 0.18222,0.0861 0.27425,0.0666 0.0949,-0.0201 0.23073,-0.17767 0.23073,-0.17767"
             id="path315133"
             sodipodi:nodetypes="cac" />
          <path
             style="fill:none;fill-opacity:1;stroke:#000000;stroke-width:0.331748;stroke-linecap:round;stroke-linejoin:round;stroke-opacity:1"
             d="m -105.20981,273.57961 c 0,0 0.19083,1.07838 0.37296,1.59213 0.14791,0.41724 0.57917,1.1951 0.57917,1.1951"
             id="path315135"
             sodipodi:nodetypes="cac" />
          <path
             style="fill:none;fill-opacity:1;stroke:#000000;stroke-width:0.331748;stroke-linecap:round;stroke-linejoin:round;stroke-opacity:1"
             d="m -103.84088,275.60262 c 0,0 0.11124,-1.06172 0.0883,-1.59306 -0.0177,-0.40989 -0.23811,-0.81326 -0.1739,-1.21848 0.0402,-0.2539 0.33963,-0.69237 0.33963,-0.69237"
             id="path315137"
             sodipodi:nodetypes="caac" />
          <path
             style="fill:none;fill-opacity:1;stroke:#000000;stroke-width:0.331748;stroke-linecap:round;stroke-linejoin:round;stroke-opacity:1"
             d="m -104.14177,274.45041 c 0,0 -0.23351,-0.34714 -0.23736,-0.54536 -0.004,-0.19834 0.21613,-0.55451 0.21613,-0.55451"
             id="path315139"
             sodipodi:nodetypes="cac" />
          <path
             style="fill:none;fill-opacity:1;stroke:#000000;stroke-width:0.331748;stroke-linecap:round;stroke-linejoin:round;stroke-opacity:1"
             d="m -104.28826,277.12051 c 0,0 0.33345,-0.14521 0.41364,-0.2942 0.0618,-0.11475 0.0136,-0.39071 0.0136,-0.39071"
             id="path315141"
             sodipodi:nodetypes="cac" />
          <path
             style="fill:none;fill-opacity:1;stroke:#000000;stroke-width:0.331748;stroke-linecap:round;stroke-linejoin:round;stroke-opacity:1"
             d="m -104.42421,278.83704 c 0,0 0.5885,-0.13988 0.74052,-0.3702 0.0746,-0.11305 0.0242,-0.40566 0.0242,-0.40566"
             id="path315143"
             sodipodi:nodetypes="cac" />
          <path
             style="fill:none;fill-opacity:1;stroke:#000000;stroke-width:0.331748;stroke-linecap:round;stroke-linejoin:round;stroke-opacity:1"
             d="m -105.7175,279.74978 c 0,0 0.43576,-0.44939 0.50327,-0.73994 0.0791,-0.34057 -0.14706,-1.03859 -0.14706,-1.03859"
             id="path315145"
             sodipodi:nodetypes="cac" />
          <path
             style="fill:none;fill-opacity:1;stroke:#000000;stroke-width:0.331748;stroke-linecap:round;stroke-linejoin:round;stroke-opacity:1"
             d="m -107.80522,277.79678 c 0,0 0.49647,-0.48379 0.78495,-0.67196 0.0881,-0.0574 0.28427,-0.13661 0.28427,-0.13661"
             id="path315147"
             sodipodi:nodetypes="cac" />
          <path
             style="fill:none;fill-opacity:1;stroke:#000000;stroke-width:0.331748;stroke-linecap:round;stroke-linejoin:round;stroke-opacity:1"
             d="m -108.99417,277.52445 c 0,0 -0.70633,0.0897 -1.0511,0.0267 -0.15988,-0.0292 -0.45155,-0.18396 -0.45155,-0.18396"
             id="path315149"
             sodipodi:nodetypes="cac" />
          <path
             style="fill:none;fill-opacity:1;stroke:#000000;stroke-width:0.331748;stroke-linecap:round;stroke-linejoin:round;stroke-opacity:1"
             d="m -113.80791,277.09529 c 0,0 0.94335,-0.10811 1.28689,-0.39709 0.24524,-0.20629 0.48093,-0.53916 0.43662,-0.85656 -0.0166,-0.11907 -0.24556,-0.26418 -0.24556,-0.26418"
             id="path315151"
             sodipodi:nodetypes="caac" />
          <path
             style="fill:none;fill-opacity:1;stroke:#000000;stroke-width:0.331748;stroke-linecap:round;stroke-linejoin:round;stroke-opacity:1"
             d="m -112.91332,276.35308 c 0,0 -0.14665,-0.13068 -0.15487,-0.21998 -0.022,-0.23858 0.2995,-0.65341 0.2995,-0.65341"
             id="path315153"
             sodipodi:nodetypes="cac" />
          <path
             style="fill:none;fill-opacity:1;stroke:#000000;stroke-width:0.331748;stroke-linecap:round;stroke-linejoin:round;stroke-opacity:1"
             d="m -112.54718,275.85527 -0.0984,0.22815"
             id="path315155"
             sodipodi:nodetypes="cc" />
          <path
             style="fill:none;fill-opacity:1;stroke:#000000;stroke-width:0.331748;stroke-linecap:round;stroke-linejoin:round;stroke-opacity:1"
             d="m -112.27405,279.04749 c 0,0 0.46316,0.4468 0.75213,0.43305 0.15673,-0.007 0.27446,-0.16 0.38379,-0.27255 0.1375,-0.14155 0.3141,-0.29562 0.32863,-0.49242 0.0146,-0.19759 -0.25379,-0.5375 -0.25379,-0.5375"
             id="path315157"
             sodipodi:nodetypes="caaac" />
          <path
             style="fill:none;fill-opacity:1;stroke:#000000;stroke-width:0.331748;stroke-linecap:round;stroke-linejoin:round;stroke-opacity:1"
             d="m -111.65626,279.00378 c 0,0 -0.19906,-0.29467 -0.15822,-0.44754 0.035,-0.13083 0.17623,-0.29396 0.30839,-0.26445 0.0819,0.0183 0.10324,0.22963 0.10324,0.22963"
             id="path315159"
             sodipodi:nodetypes="caac" />
          <path
             style="fill:none;fill-opacity:1;stroke:#000000;stroke-width:0.331748;stroke-linecap:round;stroke-linejoin:round;stroke-opacity:1"
             d="m -110.75983,279.99245 c 0,0 1.01193,0.26956 1.51509,0.41431 0.37826,0.10883 1.13039,0.34142 1.13039,0.34142"
             id="path315161"
             sodipodi:nodetypes="cac" />
          <path
             style="fill:none;fill-opacity:1;stroke:#000000;stroke-width:0.331748;stroke-linecap:round;stroke-linejoin:round;stroke-opacity:1"
             d="m -109.57022,279.40188 c 0,0 0.80505,0.5336 1.25509,0.69564 0.13929,0.0502 0.43653,0.0817 0.43653,0.0817"
             id="path315163"
             sodipodi:nodetypes="cac" />
          <path
             style="fill:none;fill-opacity:1;stroke:#000000;stroke-width:0.331748;stroke-linecap:round;stroke-linejoin:round;stroke-opacity:1"
             d="m -108.61533,279.03222 c 0,0 -0.84167,0.0759 -0.88625,-0.22568 -0.0205,-0.13838 0.3593,-0.21681 0.3593,-0.21681"
             id="path315165"
             sodipodi:nodetypes="cac" />
          <path
             style="fill:none;fill-opacity:1;stroke:#000000;stroke-width:0.331748;stroke-linecap:round;stroke-linejoin:round;stroke-opacity:1"
             d="m -107.64468,279.03254 c 0,0 0.14715,0.67623 0.42505,0.75803 0.16966,0.05 0.33936,-0.12792 0.46885,-0.24839 0.19344,-0.17997 0.42058,-0.67185 0.42058,-0.67185"
             id="path315167"
             sodipodi:nodetypes="caac" />
          <path
             style="opacity:1;fill:none;fill-opacity:1;stroke:#000000;stroke-width:0.331747;stroke-linecap:round;stroke-linejoin:round;stroke-opacity:1"
             d="m -133.05351,276.39522 4.65635,-0.28175"
             id="path315062" />
          <path
             style="opacity:1;fill:none;fill-opacity:1;stroke:#000000;stroke-width:0.331747;stroke-linecap:round;stroke-linejoin:round;stroke-opacity:1"
             d="m -132.00168,275.76176 1.6554,-0.023"
             id="path315064" />
          <path
             style="opacity:1;fill:none;fill-opacity:1;stroke:#000000;stroke-width:0.331747;stroke-linecap:round;stroke-linejoin:round;stroke-opacity:1"
             d="m -132.44009,274.37269 5.09334,0.36984 2.83532,0.0428"
             id="path315066" />
          <path
             style="opacity:1;fill:none;fill-opacity:1;stroke:#000000;stroke-width:0.331747;stroke-linecap:round;stroke-linejoin:round;stroke-opacity:1"
             d="m -123.50507,275.92956 c 0,0 1.55861,0.33373 2.3461,0.45309 0.79271,0.12015 1.58923,0.24401 2.39074,0.26424 0.5873,0.0148 1.75933,-0.10498 1.75933,-0.10498"
             id="path315068"
             sodipodi:nodetypes="caac" />
          <path
             style="opacity:1;fill:none;fill-opacity:1;stroke:#000000;stroke-width:0.331747;stroke-linecap:round;stroke-linejoin:round;stroke-opacity:1"
             d="m -119.72467,276.08177 c 0,0 0.84139,0.0626 1.26295,0.069 0.45534,0.007 1.36578,-0.0332 1.36578,-0.0332"
             id="path315070"
             sodipodi:nodetypes="cac" />
          <path
             style="opacity:1;fill:none;fill-opacity:1;stroke:#000000;stroke-width:0.331747;stroke-linecap:round;stroke-linejoin:round;stroke-opacity:1"
             d="m -116.96973,275.475 c 0,0 -0.20542,-0.49782 -0.18527,-0.75673 0.0323,-0.41548 0.4816,-1.15372 0.4816,-1.15372"
             id="path315072"
             sodipodi:nodetypes="cac" />
          <path
             style="opacity:1;fill:none;fill-opacity:1;stroke:#000000;stroke-width:0.331747;stroke-linecap:round;stroke-linejoin:round;stroke-opacity:1"
             d="m -118.96299,273.39413 c 0,0 0.62568,-0.54557 1.01469,-0.59608 0.22766,-0.0296 0.66323,0.18564 0.66323,0.18564"
             id="path315074"
             sodipodi:nodetypes="cac" />
          <path
             style="opacity:1;fill:none;fill-opacity:1;stroke:#000000;stroke-width:0.331747;stroke-linecap:round;stroke-linejoin:round;stroke-opacity:1"
             d="m -129.12059,270.97071 c 0,0 2.50942,1.00655 3.82351,1.29727 1.33455,0.29524 4.0764,0.44341 4.0764,0.44341"
             id="path315076"
             sodipodi:nodetypes="cac" />
          <path
             style="opacity:1;fill:none;fill-opacity:1;stroke:#000000;stroke-width:0.331747;stroke-linecap:round;stroke-linejoin:round;stroke-opacity:1"
             d="m -118.83043,271.88111 c 0,0 0.60979,-0.5486 0.99074,-0.57528 0.22521,-0.0158 0.6274,0.25514 0.6274,0.25514"
             id="path315078"
             sodipodi:nodetypes="cac" />
          <path
             style="opacity:1;fill:none;fill-opacity:1;stroke:#000000;stroke-width:0.331747;stroke-linecap:round;stroke-linejoin:round;stroke-opacity:1"
             d="m -122.48153,273.22845 c 0,0 0.83747,0.23536 1.25313,0.16624 0.43923,-0.073 1.19608,-0.59476 1.19608,-0.59476"
             id="path315080"
             sodipodi:nodetypes="cac" />
          <path
             style="opacity:1;fill:none;fill-opacity:1;stroke:#000000;stroke-width:0.331747;stroke-linecap:round;stroke-linejoin:round;stroke-opacity:1"
             d="m -128.48233,275.32062 -6.22646,-0.32832"
             id="path319598" />
          <path
             style="opacity:1;fill:none;fill-opacity:1;stroke:#000000;stroke-width:0.331747;stroke-linecap:round;stroke-linejoin:round;stroke-opacity:1"
             d="m -128.95044,272.54273 c 0,0 -1.45643,-0.13394 -2.17026,-0.28498 -0.77678,-0.16436 -2.28486,-0.67305 -2.28486,-0.67305"
             id="path319600"
             sodipodi:nodetypes="cac" />
          <path
             style="opacity:1;fill:none;fill-opacity:1;stroke:#000000;stroke-width:0.331747;stroke-linecap:round;stroke-linejoin:round;stroke-opacity:1"
             d="m -131.9136,270.84797 c 0,0 1.18722,0.62226 1.81867,0.83907 0.90595,0.31106 2.79843,0.65294 2.79843,0.65294"
             id="path319602"
             sodipodi:nodetypes="cac" />
          <path
             style="opacity:1;fill:none;fill-opacity:1;stroke:#000000;stroke-width:0.331747;stroke-linecap:round;stroke-linejoin:round;stroke-opacity:1"
             d="m -129.23243,271.51436 -1.74379,-0.98099"
             id="path319604"
             sodipodi:nodetypes="cc" />
        </g>
      </g>
      <path
         style="opacity:1;fill:none;fill-opacity:1;stroke:#000000;stroke-width:0.331747;stroke-linecap:round;stroke-linejoin:round;stroke-opacity:1"
         d="m -145.78143,285.894 c 0,0 1.95147,-0.45726 2.68859,-1.08161 0.61216,-0.51851 0.55739,-1.65557 1.25335,-2.0546 1.52588,-0.87487 3.58278,-0.57264 5.2758,-0.0958 0.67712,0.19071 1.77988,1.13392 1.77988,1.13392"
         id="path335823"
         sodipodi:nodetypes="caaac" />
      <path
         style="opacity:1;fill:none;fill-opacity:1;stroke:#000000;stroke-width:0.331747;stroke-linecap:round;stroke-linejoin:round;stroke-opacity:1"
         d="m -140.01009,283.82015 c 0.14674,0.0243 2.58695,0.58967 3.90041,0.76202 1.01484,0.13317 2.0436,0.29472 3.06351,0.20868 1.22854,-0.10364 3.0348,0.23179 3.5959,-0.86604 0.10671,-0.20879 -0.06,-0.54075 -0.2671,-0.65074 -0.43276,-0.22985 -1.43931,0.29898 -1.43931,0.29898"
         id="path335825"
         sodipodi:nodetypes="caaaac" />
      <path
         style="opacity:1;fill:none;fill-opacity:1;stroke:#000000;stroke-width:0.331747;stroke-linecap:round;stroke-linejoin:round;stroke-opacity:1"
         d="m -127.72365,285.04694 c 0,0 -0.27314,1.27494 0.0679,1.74786 1.29699,1.79853 4.08147,1.77859 6.2256,2.34392 1.19896,0.31612 3.67493,0.57613 3.67493,0.57613"
         id="path335827"
         sodipodi:nodetypes="caac" />
      <path
         style="opacity:1;fill:none;fill-opacity:1;stroke:#000000;stroke-width:0.331747;stroke-linecap:round;stroke-linejoin:round;stroke-opacity:1"
         d="m -124.6088,286.38692 c 0,0 3.95063,2.13091 6.11184,2.1667 0.58744,0.01 1.19236,-0.20568 1.67985,-0.53361 0.84093,-0.56569 1.08902,-1.79421 1.94484,-2.33712 0.14512,-0.0921 0.40882,0.0168 0.49906,-0.12949 0.30467,-0.49381 0.1399,-1.41624 -0.3651,-1.70198 -0.66539,-0.37649 -1.64056,0.19102 -2.17005,0.7425 -0.3564,0.37121 -0.77751,1.09139 -0.43994,1.47979 0.26741,0.30768 0.9398,0.12405 1.20936,-0.18175 0.13677,-0.15515 0.0145,-0.62031 0.0145,-0.62031"
         id="path335829"
         sodipodi:nodetypes="caaaaaaaac" />
      <path
         style="opacity:1;fill:none;fill-opacity:1;stroke:#000000;stroke-width:0.331747;stroke-linecap:round;stroke-linejoin:round;stroke-opacity:1"
         d="m -113.95252,280.95804 c 0,0 -0.50028,1.15744 -0.99678,1.4899 -0.48732,0.32631 -1.28877,0.7399 -1.72475,0.34763 -1.17718,-1.05917 -0.50667,-3.46294 0.4433,-4.72987 0.69276,-0.9239 3.22044,-1.27686 3.22044,-1.27686"
         id="path335831"
         sodipodi:nodetypes="caaac" />
      <path
         style="opacity:1;fill:none;fill-opacity:1;stroke:#000000;stroke-width:0.331747;stroke-linecap:round;stroke-linejoin:round;stroke-opacity:1"
         d="m -114.92642,279.59554 c 0,0 1.47738,-0.64873 2.26655,-0.70334 0.86038,-0.0595 1.72423,0.65728 2.55313,0.41913 0.55382,-0.15912 0.75202,-0.95579 1.29706,-1.14279 0.45606,-0.15648 1.1624,0.35488 1.44377,0.0885"
         id="path335833"
         sodipodi:nodetypes="caaac" />
      <path
         style="opacity:1;fill:none;fill-opacity:1;stroke:#000000;stroke-width:0.331747;stroke-linecap:round;stroke-linejoin:round;stroke-opacity:1"
         d="m -104.64604,277.98984 c 0.2584,-0.0642 2.13616,-1.51595 3.38539,-1.71749 0.5219,-0.0842 1.288917,0.68518 1.568234,0.23635 0.358655,-0.57632 -0.619854,-1.26366 -1.161664,-1.67259 -1.49644,-1.12944 -3.50631,-1.3527 -5.32224,-1.81896 -2.24852,-0.57733 -4.53858,-1.19 -6.86001,-1.20118 -0.71246,-0.003 -2.10883,0.34835 -2.10883,0.34835"
         id="path335835"
         sodipodi:nodetypes="caaaaac" />
      <path
         style="opacity:1;fill:none;fill-opacity:1;stroke:#000000;stroke-width:0.331747;stroke-linecap:round;stroke-linejoin:round;stroke-opacity:1"
         d="m -104.15227,274.63921 c 0,0 -5.13564,-1.46599 -7.77931,-1.58372 -1.91382,-0.0852 -3.79959,0.76603 -5.71124,0.64138 -0.66067,-0.0431 -1.92831,-0.47609 -1.92831,-0.47609"
         id="path335837"
         sodipodi:nodetypes="caac" />
      <path
         style="opacity:1;fill:none;fill-opacity:1;stroke:#000000;stroke-width:0.331747;stroke-linecap:round;stroke-linejoin:round;stroke-opacity:1"
         d="m -130.56224,274.54957 c 0,0 0.6496,-1.29564 1.26471,-1.5593 1.53052,-0.65604 3.32476,0.21303 4.97982,0.39645 1.12142,0.12428 3.35111,0.47668 3.35111,0.47668"
         id="path335839"
         sodipodi:nodetypes="caac" />
      <path
         style="opacity:1;fill:none;fill-opacity:1;stroke:#000000;stroke-width:0.331747;stroke-linecap:round;stroke-linejoin:round;stroke-opacity:1"
         d="m -124.70475,274.62447 -2.91572,-0.40777"
         id="path335841"
         sodipodi:nodetypes="cc" />
      <path
         style="opacity:1;fill:none;fill-opacity:1;stroke:#000000;stroke-width:0.331747;stroke-linecap:round;stroke-linejoin:round;stroke-opacity:1"
         d="m -132.97301,274.31642 c 0,0 -0.81679,1.42442 -1.52175,1.72775 -0.97466,0.41938 -2.13668,0.0725 -3.1811,-0.11469 -0.96898,-0.17364 -1.86441,-0.63335 -2.80461,-0.92507 -2.02545,-0.62844 -6.10886,-1.7772 -6.10886,-1.7772"
         id="path335843"
         sodipodi:nodetypes="caaac" />
      <path
         style="opacity:1;fill:none;fill-opacity:1;stroke:#000000;stroke-width:0.331747;stroke-linecap:round;stroke-linejoin:round;stroke-opacity:1"
         d="m -135.74365,274.91536 c 0,0 -1.34531,-0.89864 -2.09101,-0.82516 -0.36731,0.0362 -0.93082,0.59965 -0.93082,0.59965"
         id="path335845"
         sodipodi:nodetypes="cac" />
      <path
         style="opacity:1;fill:none;fill-opacity:1;stroke:#000000;stroke-width:0.331747;stroke-linecap:round;stroke-linejoin:round;stroke-opacity:1"
         d="m -145.49943,272.40882 c -0.23266,0.035 -1.72895,0.16204 -2.44882,-0.23037 -0.66473,-0.36235 -1.40402,-1.78527 -1.40402,-1.78527"
         id="path335847"
         sodipodi:nodetypes="cac" />
      <path
         style="opacity:1;fill:none;fill-opacity:1;stroke:#000000;stroke-width:0.331747;stroke-linecap:round;stroke-linejoin:round;stroke-opacity:1"
         d="m -146.99426,274.72784 c 0,0 -2.11153,-1.08087 -3.05395,-0.64071 -0.3966,0.18523 -0.67176,0.72415 -0.61815,1.15858 0.0605,0.49052 0.5196,0.96429 0.99506,1.09922 0.37675,0.10691 0.98186,0.0361 1.12846,-0.32703 0.13799,-0.34183 -0.5508,-0.95896 -0.5508,-0.95896"
         id="path335849"
         sodipodi:nodetypes="caaaac" />
      <path
         style="opacity:1;fill:none;fill-opacity:1;stroke:#000000;stroke-width:0.331747;stroke-linecap:round;stroke-linejoin:round;stroke-opacity:1"
         d="m -151.29684,273.85969 c 0,0 -0.32746,0.56746 -0.60929,0.5901 -0.71325,0.0573 -1.76066,-1.22809 -1.76066,-1.22809"
         id="path335851"
         sodipodi:nodetypes="cac" />
      <path
         style="opacity:1;fill:none;fill-opacity:1;stroke:#000000;stroke-width:0.331747;stroke-linecap:round;stroke-linejoin:round;stroke-opacity:1"
         d="m -150.94819,277.82117 c -0.0683,0.19341 0.29394,2.57545 -0.59511,3.19373 -0.45185,0.31424 -1.13329,-0.52465 -1.62699,-0.28138 -0.59081,0.29113 -0.44716,1.28977 -0.91921,1.7491 -0.23492,0.22859 -0.88262,0.4335 -0.88262,0.4335"
         id="path335853"
         sodipodi:nodetypes="caaac" />
      <path
         style="opacity:1;fill:none;fill-opacity:1;stroke:#000000;stroke-width:0.331747;stroke-linecap:round;stroke-linejoin:round;stroke-opacity:1"
         d="m -153.33501,282.95088 c 0.2352,-0.20261 0.39695,-0.93538 0.82733,-1.06714 0.972,-0.29757 2.33451,0.10463 2.8975,0.95102 0.38598,0.58027 -0.55435,1.50509 -0.16651,2.08412 0.50378,0.75213 2.58573,0.83032 2.58573,0.83032"
         id="path335855"
         sodipodi:nodetypes="caaac" />
      <path
         style="opacity:1;fill:none;fill-opacity:1;stroke:#000000;stroke-width:0.331747;stroke-linecap:round;stroke-linejoin:round;stroke-opacity:1"
         d="m -143.93127,282.82904 c 0,0 -2.35605,1.99415 -3.67093,1.69691 -0.50338,-0.11379 -1.06533,-0.68052 -0.98929,-1.19097 0.0856,-0.57462 0.93969,-1.22411 1.45605,-0.95787 0.2479,0.12782 0.0308,0.83616 0.0308,0.83616"
         id="path335857"
         sodipodi:nodetypes="caaac" />
      <path
         style="opacity:1;fill:none;fill-opacity:1;stroke:#000000;stroke-width:0.331747;stroke-linecap:round;stroke-linejoin:round;stroke-opacity:1"
         d="m -149.00194,281.29364 c 0,0 -0.74507,-0.16107 -0.92529,-0.45347 -0.46146,-0.74871 -0.46097,-1.90697 0.0275,-2.63835 0.35066,-0.52504 1.1188,-0.84533 1.74195,-0.74379 0.53601,0.0873 1.22839,0.5394 1.21774,1.08238 -0.0115,0.58681 -0.77441,1.14026 -1.36089,1.11728 -0.3632,-0.0142 -0.94286,-0.75575 -0.78607,-0.75575"
         id="path335859"
         sodipodi:nodetypes="caaaaac" />
    </g>
  </g>
</svg>
