<?xml version="1.0" encoding="UTF-8" standalone="no"?>
<!-- Created with Inkscape (http://www.inkscape.org/) -->

<svg
   width="14.602791mm"
   height="22.361145mm"
   viewBox="0 0 14.602791 22.361145"
   version="1.1"
   id="svg5"
   inkscape:version="1.2.2 (b0a8486541, 2022-12-01)"
   sodipodi:docname="mouse_button_right.svg"
   xmlns:inkscape="http://www.inkscape.org/namespaces/inkscape"
   xmlns:sodipodi="http://sodipodi.sourceforge.net/DTD/sodipodi-0.dtd"
   xmlns="http://www.w3.org/2000/svg"
   xmlns:svg="http://www.w3.org/2000/svg">
  <sodipodi:namedview
     id="namedview7"
     pagecolor="#4d4d4d"
     bordercolor="#666666"
     borderopacity="1.0"
     inkscape:pageshadow="2"
     inkscape:pageopacity="0"
     inkscape:pagecheckerboard="false"
     inkscape:document-units="mm"
     showgrid="false"
     inkscape:zoom="0.56569164"
     inkscape:cx="1.7677475"
     inkscape:cy="72.477649"
     inkscape:window-width="636"
     inkscape:window-height="1037"
     inkscape:window-x="1280"
     inkscape:window-y="0"
     inkscape:window-maximized="1"
     inkscape:current-layer="g3878"
     inkscape:showpageshadow="2"
     inkscape:deskcolor="#4d4d4d" />
  <defs
     id="defs2" />
  <g
     inkscape:label="Layer 1"
     inkscape:groupmode="layer"
     id="layer1"
     transform="translate(62.81634,-129.51695)">
    <g
       id="g4074"
       transform="translate(-133.13996,-222.28979)">
      <g
         id="g3878">
        <g
           id="g10415"
           transform="matrix(0.71702199,0,0,0.71589321,189.84556,161.03548)"
           style="stroke-width:0.348939;stroke-dasharray:none">
          <path
             style="fill:#6b6b6b;fill-opacity:1;stroke:#000000;stroke-width:0.348939;stroke-linecap:butt;stroke-linejoin:miter;stroke-dasharray:none;stroke-opacity:1"
             d="m -158.81671,273.29438 c 1.70785,-0.025 4.46422,-0.31207 5.88811,1.08871 2.15038,2.11552 1.74312,5.85708 1.80073,8.87549 0.0664,3.48093 0.1604,7.3568 -1.68455,10.30751 -1.2183,1.94848 -3.33316,3.93363 -5.6282,3.97401 -2.55571,0.045 -5.0723,-1.84481 -6.41875,-4.20215 -1.24542,-2.18043 -1.73014,-6.64643 -1.64946,-10.15506 0.0667,-2.89344 -0.2994,-6.4369 1.71624,-8.51073 1.42578,-1.46694 4.19307,-1.4002 5.97588,-1.37728 1.7e-4,0 -1.7e-4,-5e-4 0,-5e-4 z"
             id="path10399"
             sodipodi:nodetypes="saaaassass" />
          <path
             style="fill:#898989;fill-opacity:1;stroke:none;stroke-width:0.281649;stroke-linecap:butt;stroke-linejoin:miter;stroke-dasharray:none;stroke-opacity:1"
             d="m -158.27669,274.66545 c 1.37782,-0.0201 3.60157,-0.25177 4.7503,0.87834 1.73486,1.70671 1.39622,4.72548 1.45276,7.16041 0.0651,2.80487 0.19697,5.93886 -1.2888,8.31732 -0.99224,1.5884 -2.74037,3.17428 -4.61085,3.20449 -2.09879,0.0339 -4.20045,-1.52487 -5.28672,-3.42669 -1.00476,-1.75908 -1.2875,-5.32555 -1.22241,-8.15619 0.0538,-2.33431 -0.24155,-5.19304 1.3846,-6.86614 1.15026,-1.18347 3.38281,-1.12962 4.82112,-1.11114 1.3e-4,0 -1.4e-4,-4e-4 0,-4e-4 z"
             id="path10401"
             sodipodi:nodetypes="saaaassass" />
          <path
             style="fill:none;stroke:#000000;stroke-width:0.348939;stroke-linecap:butt;stroke-linejoin:miter;stroke-dasharray:none;stroke-opacity:1"
             d="m -166.47252,284.42203 7.68039,-1.11573 7.90933,1.04743"
             id="path10403"
             sodipodi:nodetypes="ccc" />
          <path
             style="fill:none;stroke:#000000;stroke-width:0.348939;stroke-linecap:butt;stroke-linejoin:miter;stroke-dasharray:none;stroke-opacity:1"
             d="M -159.7674,283.39888 V 273.4189"
             id="path10405" />
          <path
             style="fill:none;stroke:#000000;stroke-width:0.348939;stroke-linecap:butt;stroke-linejoin:miter;stroke-dasharray:none;stroke-opacity:1"
             d="m -158.69942,273.04752 c 0,0 0.3272,-3.22181 1.26052,-4.57502 2.0412,-2.92418 5.43793,-1.93651 7.50795,0.25525 1.09652,1.19383 3.47242,3.95582 3.47242,3.95582"
             id="path10407"
             sodipodi:nodetypes="cccc" />
          <path
             style="fill:none;stroke:#000000;stroke-width:0.348939;stroke-linecap:butt;stroke-linejoin:miter;stroke-dasharray:none;stroke-opacity:1"
             d="m -157.64819,283.39889 v -9.97998"
             id="path10409" />
          <rect
             style="fill:#000000;fill-opacity:1;stroke:none;stroke-width:0.270777;stroke-dasharray:none"
             id="rect10411"
             width="1.334938"
             height="3.6100066"
             x="-159.36482"
             y="276.7764"
             ry="0.41782352"
             rx="0.41782352" />
          <rect
             style="fill:#1c1c1c;fill-opacity:1;stroke:none;stroke-width:0.199322;stroke-dasharray:none"
             id="rect10413"
             width="0.98266381"
             height="2.6573689"
             x="-159.1548"
             y="277.0369"
             ry="0.30756488"
             rx="0.30756488" />
        </g>
        <path
           style="fill:none;stroke:#000000;stroke-width:0.265;stroke-linecap:round;stroke-linejoin:miter;stroke-dasharray:none;stroke-opacity:1"
           d="m 73.310509,372.95308 1.289704,-1.18072"
           id="path10417"
           sodipodi:nodetypes="cc" />
        <path
           style="fill:none;stroke:#000000;stroke-width:0.265;stroke-linecap:round;stroke-linejoin:miter;stroke-dasharray:none;stroke-opacity:1"
           d="m 72.766115,372.40871 1.598503,-1.46788"
           id="path10419"
           sodipodi:nodetypes="cc" />
        <path
           style="fill:none;stroke:#000000;stroke-width:0.264999;stroke-linecap:round;stroke-linejoin:miter;stroke-dasharray:none;stroke-opacity:1"
           d="m 72.251634,371.83438 2.782545,-2.56891"
           id="path10421"
           sodipodi:nodetypes="cc" />
        <path
           style="fill:none;stroke:#000000;stroke-width:0.265;stroke-linecap:round;stroke-linejoin:miter;stroke-dasharray:none;stroke-opacity:1"
           d="m 71.814924,371.14641 1.481139,-1.35873"
           id="path10423"
           sodipodi:nodetypes="cc" />
        <path
           style="fill:none;stroke:#000000;stroke-width:0.265;stroke-linecap:round;stroke-linejoin:miter;stroke-dasharray:none;stroke-opacity:1"
           d="m 71.324373,370.39265 1.840079,-1.69251"
           id="path10425"
           sodipodi:nodetypes="cc" />
        <path
           style="fill:none;stroke:#000000;stroke-width:0.265;stroke-linecap:round;stroke-linejoin:miter;stroke-dasharray:none;stroke-opacity:1"
           d="m 71.007307,369.33977 1.864009,-1.71476"
           id="path10427"
           sodipodi:nodetypes="cc" />
        <path
           style="fill:none;stroke:#000000;stroke-width:0.265;stroke-linecap:round;stroke-linejoin:miter;stroke-dasharray:none;stroke-opacity:1"
           d="m 70.80989,368.32874 1.289704,-1.18072"
           id="path10429"
           sodipodi:nodetypes="cc" />
        <path
           style="fill:none;stroke:#000000;stroke-width:0.265;stroke-linecap:round;stroke-linejoin:miter;stroke-dasharray:none;stroke-opacity:1"
           d="m 74.124107,373.35391 0.440855,-0.39138"
           id="path10431"
           sodipodi:nodetypes="cc" />
        <path
           style="fill:none;stroke:#000000;stroke-width:0.265;stroke-linecap:round;stroke-linejoin:miter;stroke-dasharray:none;stroke-opacity:1"
           d="m 75.039407,373.79063 1.709196,-1.57081"
           id="path10433"
           sodipodi:nodetypes="cc" />
        <path
           style="fill:none;stroke:#000000;stroke-width:0.265;stroke-linecap:round;stroke-linejoin:miter;stroke-dasharray:none;stroke-opacity:1"
           d="m 76.032475,373.97009 0.517706,-0.46284"
           id="path10435"
           sodipodi:nodetypes="cc" />
        <path
           style="fill:#000000;fill-opacity:1;stroke:none;stroke-width:0.264582px;stroke-linecap:butt;stroke-linejoin:miter;stroke-opacity:1"
           d="m 81.472787,358.75381 -0.270313,-0.63476 1.813954,-1.71249 0.287714,1.13362 z"
           id="path10499"
           sodipodi:nodetypes="ccccc" />
        <path
           style="fill:#000000;fill-opacity:1;stroke:none;stroke-width:0.264582px;stroke-linecap:butt;stroke-linejoin:miter;stroke-opacity:1"
           d="m 80.724802,357.28004 -0.66718,-0.51801 0.920449,-2.91209 0.982889,1.04125 z"
           id="path10501"
           sodipodi:nodetypes="ccccc" />
        <path
           style="fill:#000000;fill-opacity:1;stroke:none;stroke-width:0.264582px;stroke-linecap:butt;stroke-linejoin:miter;stroke-opacity:1"
           d="m 79.375356,356.14425 -0.59797,-0.18243 -0.130892,-2.2567 0.954229,0.46112 z"
           id="path10503"
           sodipodi:nodetypes="ccccc" />
        <path
           style="fill:#a770c2;fill-opacity:0.61157;stroke:none;stroke-width:0.264583px;stroke-linecap:butt;stroke-linejoin:miter;stroke-opacity:1"
           d="m 81.37986,364.44226 -4.450373,-0.60607 0.0095,-7.04043 c 0,0 1.883343,-0.17421 2.96879,0.57905 0.761702,0.52863 1.134839,1.70913 1.318356,2.59954 0.163193,0.7918 0.147746,4.45594 0.147746,4.45594 z"
           id="path11959"
           sodipodi:nodetypes="cccsscc" />
      </g>
    </g>
  </g>
</svg>
