<?xml version="1.0" encoding="UTF-8" standalone="no"?>
<!-- Created with Inkscape (http://www.inkscape.org/) -->

<svg
   width="34.643124mm"
   height="17.685188mm"
   viewBox="0 0 34.643124 17.685188"
   version="1.1"
   id="svg5"
   inkscape:version="1.2.2 (b0a8486541, 2022-12-01)"
   sodipodi:docname="ashes.svg"
   xmlns:inkscape="http://www.inkscape.org/namespaces/inkscape"
   xmlns:sodipodi="http://sodipodi.sourceforge.net/DTD/sodipodi-0.dtd"
   xmlns="http://www.w3.org/2000/svg"
   xmlns:svg="http://www.w3.org/2000/svg">
  <sodipodi:namedview
     id="namedview7"
     pagecolor="#4d4d4d"
     bordercolor="#666666"
     borderopacity="1.0"
     inkscape:pageshadow="2"
     inkscape:pageopacity="0"
     inkscape:pagecheckerboard="false"
     inkscape:document-units="mm"
     showgrid="false"
     inkscape:zoom="0.56569164"
     inkscape:cx="164.40052"
     inkscape:cy="8.8387377"
     inkscape:window-width="956"
     inkscape:window-height="1037"
     inkscape:window-x="960"
     inkscape:window-y="0"
     inkscape:window-maximized="1"
     inkscape:current-layer="layer1"
     inkscape:showpageshadow="2"
     inkscape:deskcolor="#4d4d4d" />
  <defs
     id="defs2" />
  <g
     inkscape:label="Layer 1"
     inkscape:groupmode="layer"
     id="layer1"
     transform="translate(-78.560327,-146.43929)">
    <g
       id="g198922"
       transform="translate(162.76122,-130.43735)">
      <path
         style="opacity:1;fill:#b0a693;fill-opacity:1;fill-rule:nonzero;stroke:#000000;stroke-width:0.25;stroke-linecap:round;stroke-linejoin:round;stroke-opacity:1"
         d="m -49.682769,291.61714 -4.411973,2.19998 -15.763342,0.61971 -5.966827,-1.4182 -4.757787,-0.35534 -3.493195,-1.67775 0.201398,-5.38308 3.919836,-3.42087 6.812221,-1.51941 5.319823,-3.66054 4.136206,2.322 5.116991,0.33493 2.355668,2.62644 5.091577,1.74311 z"
         id="path188739"
         sodipodi:nodetypes="ccccccccccccccc" />
      <g
         id="g176506"
         transform="rotate(-0.57018145,16840.225,10731.7)">
        <g
           id="g188737">
          <g
             id="g180615">
            <path
               style="opacity:1;fill:none;fill-opacity:1;fill-rule:nonzero;stroke:#000000;stroke-width:0.25;stroke-linecap:round;stroke-linejoin:round;stroke-opacity:1"
               d="m 48.785849,124.33417 4.077695,-3.96489"
               id="path178566" />
            <path
               style="opacity:1;fill:none;fill-opacity:1;fill-rule:nonzero;stroke:#000000;stroke-width:0.25;stroke-linecap:round;stroke-linejoin:round;stroke-opacity:1"
               d="m 46.894485,124.41726 1.941223,-1.8883 m 2.95736,-2.87673 0.536592,-0.52196"
               id="path178568"
               sodipodi:nodetypes="cccc" />
            <path
               style="opacity:1;fill:none;fill-opacity:1;fill-rule:nonzero;stroke:#000000;stroke-width:0.25;stroke-linecap:round;stroke-linejoin:round;stroke-opacity:1"
               d="m 44.775776,124.58743 1.994683,-1.94081 m 3.962715,-3.8557 0.971001,-0.94478"
               id="path178570"
               sodipodi:nodetypes="cccc" />
            <path
               style="opacity:1;fill:none;fill-opacity:1;fill-rule:nonzero;stroke:#000000;stroke-width:0.25;stroke-linecap:round;stroke-linejoin:round;stroke-opacity:1"
               d="m 42.682242,124.93554 2.327481,-2.26469 m 4.282936,-4.16738 0.5137,-0.49984"
               id="path178574"
               sodipodi:nodetypes="cccc" />
            <path
               style="opacity:1;fill:none;fill-opacity:1;fill-rule:nonzero;stroke:#000000;stroke-width:0.25;stroke-linecap:round;stroke-linejoin:round;stroke-opacity:1"
               d="m 41.663312,124.38201 1.921808,-1.86996"
               id="path178576"
               sodipodi:nodetypes="cc" />
            <path
               style="opacity:1;fill:none;fill-opacity:1;fill-rule:nonzero;stroke:#000000;stroke-width:0.25;stroke-linecap:round;stroke-linejoin:round;stroke-opacity:1"
               d="m 39.901774,124.33538 1.678621,-1.63333"
               id="path178578"
               sodipodi:nodetypes="cc" />
            <path
               style="opacity:1;fill:none;fill-opacity:1;fill-rule:nonzero;stroke:#000000;stroke-width:0.25;stroke-linecap:round;stroke-linejoin:round;stroke-opacity:1"
               d="m 37.862754,124.78426 2.179989,-2.12117"
               id="path178580"
               sodipodi:nodetypes="cc" />
            <path
               style="opacity:1;fill:none;fill-opacity:1;fill-rule:nonzero;stroke:#000000;stroke-width:0.25;stroke-linecap:round;stroke-linejoin:round;stroke-opacity:1"
               d="m 35.719249,125.19518 2.338182,-2.2751"
               id="path178582"
               sodipodi:nodetypes="cc" />
            <path
               style="opacity:1;fill:none;fill-opacity:1;fill-rule:nonzero;stroke:#000000;stroke-width:0.25;stroke-linecap:round;stroke-linejoin:round;stroke-opacity:1"
               d="m 35.342089,124.00457 1.175485,-1.14377"
               id="path178584"
               sodipodi:nodetypes="cc" />
            <path
               style="opacity:1;fill:none;fill-opacity:1;fill-rule:nonzero;stroke:#000000;stroke-width:0.25;stroke-linecap:round;stroke-linejoin:round;stroke-opacity:1"
               d="m 33.523224,124.1788 1.478719,-1.43882"
               id="path178586"
               sodipodi:nodetypes="cc" />
            <path
               style="opacity:1;fill:none;fill-opacity:1;fill-rule:nonzero;stroke:#000000;stroke-width:0.25;stroke-linecap:round;stroke-linejoin:round;stroke-opacity:1"
               d="m 31.980647,124.39757 1.603292,-1.65621"
               id="path178588"
               sodipodi:nodetypes="cc" />
            <path
               style="opacity:1;fill:none;fill-opacity:1;fill-rule:nonzero;stroke:#000000;stroke-width:0.25;stroke-linecap:round;stroke-linejoin:round;stroke-opacity:1"
               d="m 31.632368,123.19882 0.778077,-0.75708"
               id="path178590"
               sodipodi:nodetypes="cc" />
            <path
               style="opacity:1;fill:none;fill-opacity:1;fill-rule:nonzero;stroke:#000000;stroke-width:0.25;stroke-linecap:round;stroke-linejoin:round;stroke-opacity:1"
               d="m 30.253975,123.06017 0.912278,-0.88767"
               id="path178592"
               sodipodi:nodetypes="cc" />
            <path
               style="opacity:1;fill:none;fill-opacity:1;fill-rule:nonzero;stroke:#000000;stroke-width:0.25;stroke-linecap:round;stroke-linejoin:round;stroke-opacity:1"
               d="m 28.509788,123.15125 1.085722,-1.05643"
               id="path178594"
               sodipodi:nodetypes="cc" />
            <path
               style="opacity:1;fill:none;fill-opacity:1;fill-rule:nonzero;stroke:#000000;stroke-width:0.25;stroke-linecap:round;stroke-linejoin:round;stroke-opacity:1"
               d="m 26.901299,123.20814 1.279838,-1.24531"
               id="path178596"
               sodipodi:nodetypes="cc" />
            <path
               style="opacity:1;fill:none;fill-opacity:1;fill-rule:nonzero;stroke:#000000;stroke-width:0.25;stroke-linecap:round;stroke-linejoin:round;stroke-opacity:1"
               d="m 25.112736,123.48912 1.396719,-1.35904"
               id="path178598"
               sodipodi:nodetypes="cc" />
            <path
               style="opacity:1;fill:none;fill-opacity:1;fill-rule:nonzero;stroke:#000000;stroke-width:0.25;stroke-linecap:round;stroke-linejoin:round;stroke-opacity:1"
               d="m 24.548913,122.643 0.780114,-0.75907"
               id="path178600"
               sodipodi:nodetypes="cc" />
            <path
               style="opacity:1;fill:none;fill-opacity:1;fill-rule:nonzero;stroke:#000000;stroke-width:0.25;stroke-linecap:round;stroke-linejoin:round;stroke-opacity:1"
               d="m 22.507691,120.96349 5.416884,-5.26918"
               id="path178604" />
            <path
               style="opacity:1;fill:none;fill-opacity:1;fill-rule:nonzero;stroke:#000000;stroke-width:0.25;stroke-linecap:round;stroke-linejoin:round;stroke-opacity:1"
               d="m 23.001941,122.48509 1.308187,-1.27289 m 5.325011,-5.18135 0.490919,-0.47767"
               id="path178602"
               sodipodi:nodetypes="cccc" />
            <path
               style="opacity:1;fill:none;fill-opacity:1;fill-rule:nonzero;stroke:#000000;stroke-width:0.25;stroke-linecap:round;stroke-linejoin:round;stroke-opacity:1"
               d="m 50.919212,124.10098 2.291701,-2.40227"
               id="path182608"
               sodipodi:nodetypes="cc" />
            <path
               style="opacity:1;fill:none;fill-opacity:1;fill-rule:nonzero;stroke:#000000;stroke-width:0.25;stroke-linecap:round;stroke-linejoin:round;stroke-opacity:1"
               d="m 22.516865,119.16567 3.244388,-3.20506"
               id="path184602"
               sodipodi:nodetypes="cc" />
          </g>
          <path
             style="opacity:1;fill:#333333;fill-opacity:1;fill-rule:nonzero;stroke:#000000;stroke-width:0.25;stroke-linecap:round;stroke-linejoin:round;stroke-opacity:1"
             d="m 24.746324,120.9343 c -0.305935,-1.85083 2.671876,-2.65235 4.178805,-3.76964 1.44289,-1.06982 3.071643,-1.8631 4.616285,-2.7799 1.189874,-0.70623 1.851646,-2.02055 3.583065,-2.09587 1.49183,-0.0649 2.074617,0.94534 3.158895,1.28797 1.674195,0.52904 3.62973,0.27439 5.13463,1.17511 1.57656,0.94362 2.1764,3.00798 3.61333,4.15117 0.67082,0.5337 2.39536,0.36546 2.27118,1.21101 -0.45558,3.1022 -6.13296,1.51327 -9.26195,1.88555 -2.4921,0.2965 -5.02117,0.44916 -7.52464,0.27117 -1.6942,-0.12045 -3.3184,-0.8073 -5.01424,-0.90206 -1.08221,-0.0605 -2.17637,0.39883 -3.24452,0.21558 -0.54071,-0.0928 -1.421429,-0.10917 -1.51084,-0.65009 z"
             id="path176404"
             sodipodi:nodetypes="aaasaaaaaaaaa" />
          <path
             style="opacity:1;fill:none;fill-opacity:1;fill-rule:nonzero;stroke:#000000;stroke-width:0.25;stroke-linecap:round;stroke-linejoin:round;stroke-opacity:1"
             d="m 26.604078,119.52629 c 0,0 0.72609,0.22056 1.0264,0.0564 0.31147,-0.17025 0.52122,-0.92532 0.52122,-0.92532"
             id="path176469"
             sodipodi:nodetypes="cac" />
          <path
             style="opacity:1;fill:none;fill-opacity:1;fill-rule:nonzero;stroke:#000000;stroke-width:0.25;stroke-linecap:round;stroke-linejoin:round;stroke-opacity:1"
             d="m 36.751414,113.76172 c 0,0 -0.0855,-0.35981 0,-0.50514 0.0965,-0.16411 0.30981,-0.29962 0.49986,-0.27943 0.19209,0.0204 0.43392,0.38221 0.43392,0.38221"
             id="path176471"
             sodipodi:nodetypes="caac" />
          <path
             style="opacity:1;fill:none;fill-opacity:1;fill-rule:nonzero;stroke:#000000;stroke-width:0.25;stroke-linecap:round;stroke-linejoin:round;stroke-opacity:1"
             d="m 44.150574,115.68724 c 0,0 0.0964,0.54439 0.30833,0.67076 0.16986,0.10126 0.40989,0.0385 0.5929,-0.0367 0.14868,-0.0611 0.36242,-0.31703 0.36242,-0.31703"
             id="path176473"
             sodipodi:nodetypes="caac" />
          <path
             style="opacity:1;fill:none;fill-opacity:1;fill-rule:nonzero;stroke:#000000;stroke-width:0.25;stroke-linecap:round;stroke-linejoin:round;stroke-opacity:1"
             d="m 48.793404,121.38553 c 0,0 -0.27089,-0.35145 -0.25203,-0.55296 0.0152,-0.16255 0.12707,-0.3489 0.28257,-0.40104 0.13186,-0.0442 0.29536,0.0325 0.39765,0.12638 0.13691,0.12562 0.21244,0.51412 0.21244,0.51412"
             id="path176475"
             sodipodi:nodetypes="caaac" />
          <path
             style="opacity:1;fill:none;fill-opacity:1;fill-rule:nonzero;stroke:#000000;stroke-width:0.25;stroke-linecap:round;stroke-linejoin:round;stroke-opacity:1"
             d="m 37.709404,121.7229 c 0,0 -0.56882,0.13918 -0.79317,0 -0.13097,-0.0812 -0.20316,-0.26013 -0.20377,-0.41369 -10e-4,-0.2571 0.33566,-0.69527 0.33566,-0.69527"
             id="path176477"
             sodipodi:nodetypes="caac" />
          <path
             style="opacity:1;fill:none;fill-opacity:1;fill-rule:nonzero;stroke:#000000;stroke-width:0.25;stroke-linecap:round;stroke-linejoin:round;stroke-opacity:1"
             d="m 32.619817,117.1018 c 0,0 -0.0323,-0.54254 0.12952,-0.72994 0.12372,-0.14324 0.35017,-0.19459 0.53953,-0.18136 0.19006,0.0132 0.51061,0.25551 0.51061,0.25551"
             id="path176479"
             sodipodi:nodetypes="caac" />
          <path
             style="opacity:1;fill:none;fill-opacity:1;fill-rule:nonzero;stroke:#000000;stroke-width:0.25;stroke-linecap:round;stroke-linejoin:round;stroke-opacity:1"
             d="m 40.128364,117.80852 c 0,0 0.61218,-0.005 0.77421,0.20665 0.0914,0.11919 0.0227,0.3019 -0.003,0.44967 -0.0388,0.22702 -0.0327,0.52618 -0.22564,0.65333 -0.0937,0.0617 -0.33631,-0.0234 -0.33631,-0.0234"
             id="path176481"
             sodipodi:nodetypes="caaac" />
          <path
             style="opacity:1;fill:none;fill-opacity:1;fill-rule:nonzero;stroke:#000000;stroke-width:0.25;stroke-linecap:round;stroke-linejoin:round;stroke-opacity:1"
             d="m 37.718494,114.03612 c 0,0 0.37281,0.46141 0.64227,0.50785 0.13787,0.0237 0.2925,-0.0425 0.39732,-0.13474 0.13667,-0.12025 0.27399,-0.31201 0.23862,-0.49008 -0.0194,-0.0976 -0.22373,-0.19898 -0.22373,-0.19898"
             id="path176483"
             sodipodi:nodetypes="caaac" />
          <path
             style="opacity:1;fill:none;fill-opacity:1;fill-rule:nonzero;stroke:#000000;stroke-width:0.25;stroke-linecap:round;stroke-linejoin:round;stroke-opacity:1"
             d="m 33.468477,116.93049 c 0,0 0.40876,0.20109 0.6138,0.15218 0.23644,-0.0564 0.44993,-0.25566 0.55083,-0.47575 0.079,-0.1724 0.0712,-0.3927 0,-0.56846 -0.0498,-0.12281 -0.27678,-0.28628 -0.27678,-0.28628"
             id="path176485"
             sodipodi:nodetypes="caaac" />
          <path
             style="opacity:1;fill:none;fill-opacity:1;fill-rule:nonzero;stroke:#000000;stroke-width:0.25;stroke-linecap:round;stroke-linejoin:round;stroke-opacity:1"
             d="m 31.654875,120.36808 c 0,0 -0.33482,-0.0266 -0.36675,-0.15487 -0.0462,-0.18554 0.1879,-0.36829 0.36408,-0.44458 0.25586,-0.11077 0.64751,-0.15027 0.83529,0.0551 0.0892,0.0975 -0.0112,0.39526 -0.0112,0.39526"
             id="path176487"
             sodipodi:nodetypes="caaac" />
          <path
             style="opacity:1;fill:none;fill-opacity:1;fill-rule:nonzero;stroke:#000000;stroke-width:0.25;stroke-linecap:round;stroke-linejoin:round;stroke-opacity:1"
             d="m 37.685964,121.13091 c 0,0 0.67723,-0.28381 0.90324,-0.084 0.15575,0.13773 0.10167,0.43311 0.0153,0.62175 -0.0546,0.11912 -0.18633,0.19206 -0.30417,0.25031 -0.11951,0.0591 -0.3897,0.0913 -0.3897,0.0913"
             id="path176489"
             sodipodi:nodetypes="caaac" />
          <path
             style="opacity:1;fill:none;fill-opacity:1;fill-rule:nonzero;stroke:#000000;stroke-width:0.25;stroke-linecap:round;stroke-linejoin:round;stroke-opacity:1"
             d="m 46.514204,119.89271 c 0,0 -0.29382,-0.046 -0.37775,-0.15223 -0.11037,-0.13977 -0.1307,-0.35777 -0.0779,-0.52758 0.0476,-0.15328 0.1753,-0.30281 0.32829,-0.35357 0.12752,-0.0423 0.28305,0.001 0.39668,0.0723 0.19369,0.12179 0.40198,0.55475 0.40198,0.55475"
             id="path176491"
             sodipodi:nodetypes="caaaac" />
          <path
             style="opacity:1;fill:none;fill-opacity:1;fill-rule:nonzero;stroke:#000000;stroke-width:0.25;stroke-linecap:round;stroke-linejoin:round;stroke-opacity:1"
             d="m 24.789444,121.11612 1.307258,-1.30726"
             id="path186597" />
          <path
             style="opacity:1;fill:none;fill-opacity:1;fill-rule:nonzero;stroke:#000000;stroke-width:0.25;stroke-linecap:round;stroke-linejoin:round;stroke-opacity:1"
             d="m 25.480083,121.44555 0.428494,-0.42016"
             id="path186599" />
          <path
             style="opacity:1;fill:none;fill-opacity:1;fill-rule:nonzero;stroke:#000000;stroke-width:0.25;stroke-linecap:round;stroke-linejoin:round;stroke-opacity:1"
             d="m 26.319377,121.59993 0.727974,-0.72797"
             id="path186601" />
          <path
             style="opacity:1;fill:none;fill-opacity:1;fill-rule:nonzero;stroke:#000000;stroke-width:0.25;stroke-linecap:round;stroke-linejoin:round;stroke-opacity:1"
             d="m 27.184011,121.64531 1.903118,-1.9031"
             id="path186603" />
          <path
             style="opacity:1;fill:none;fill-opacity:1;fill-rule:nonzero;stroke:#000000;stroke-width:0.25;stroke-linecap:round;stroke-linejoin:round;stroke-opacity:1"
             d="m 28.269993,121.42002 0.881411,-0.88141"
             id="path186605" />
          <path
             style="opacity:1;fill:none;fill-opacity:1;fill-rule:nonzero;stroke:#000000;stroke-width:0.25;stroke-linecap:round;stroke-linejoin:round;stroke-opacity:1"
             d="m 29.287919,121.37041 2.002405,-2.00242"
             id="path186607" />
          <path
             style="opacity:1;fill:none;fill-opacity:1;fill-rule:nonzero;stroke:#000000;stroke-width:0.25;stroke-linecap:round;stroke-linejoin:round;stroke-opacity:1"
             d="m 30.406131,121.38663 0.620113,-0.62011"
             id="path186609" />
          <path
             style="opacity:1;fill:none;fill-opacity:1;fill-rule:nonzero;stroke:#000000;stroke-width:0.25;stroke-linecap:round;stroke-linejoin:round;stroke-opacity:1"
             d="m 31.354912,121.5953 0.559345,-0.55935"
             id="path186611" />
          <path
             style="opacity:1;fill:none;fill-opacity:1;fill-rule:nonzero;stroke:#000000;stroke-width:0.25;stroke-linecap:round;stroke-linejoin:round;stroke-opacity:1"
             d="m 32.146448,121.86994 1.140349,-1.14035"
             id="path186613" />
          <path
             style="opacity:1;fill:none;fill-opacity:1;fill-rule:nonzero;stroke:#000000;stroke-width:0.25;stroke-linecap:round;stroke-linejoin:round;stroke-opacity:1"
             d="m 33.285624,122.11505 1.406147,-1.40615"
             id="path186615" />
          <path
             style="opacity:1;fill:none;fill-opacity:1;fill-rule:nonzero;stroke:#000000;stroke-width:0.25;stroke-linecap:round;stroke-linejoin:round;stroke-opacity:1"
             d="M 34.082441,122.19427 34.756718,121.52"
             id="path186617" />
          <path
             style="opacity:1;fill:none;fill-opacity:1;fill-rule:nonzero;stroke:#000000;stroke-width:0.25;stroke-linecap:round;stroke-linejoin:round;stroke-opacity:1"
             d="m 35.098068,122.29745 1.125604,-1.12559"
             id="path186619" />
          <path
             style="opacity:1;fill:none;fill-opacity:1;fill-rule:nonzero;stroke:#000000;stroke-width:0.25;stroke-linecap:round;stroke-linejoin:round;stroke-opacity:1"
             d="m 36.186871,122.3014 0.349424,-0.34944"
             id="path186621" />
          <path
             style="opacity:1;fill:none;fill-opacity:1;fill-rule:nonzero;stroke:#000000;stroke-width:0.25;stroke-linecap:round;stroke-linejoin:round;stroke-opacity:1"
             d="m 38.921167,122.22832 1.667669,-1.66767"
             id="path186623" />
          <path
             style="opacity:1;fill:none;fill-opacity:1;fill-rule:nonzero;stroke:#000000;stroke-width:0.25;stroke-linecap:round;stroke-linejoin:round;stroke-opacity:1"
             d="m 40.168813,122.17344 0.824029,-0.82404"
             id="path186625" />
          <path
             style="opacity:1;fill:none;fill-opacity:1;fill-rule:nonzero;stroke:#000000;stroke-width:0.25;stroke-linecap:round;stroke-linejoin:round;stroke-opacity:1"
             d="m 41.326121,122.03499 2.167419,-2.16744"
             id="path186627" />
          <path
             style="opacity:1;fill:none;fill-opacity:1;fill-rule:nonzero;stroke:#000000;stroke-width:0.25;stroke-linecap:round;stroke-linejoin:round;stroke-opacity:1"
             d="m 42.402031,121.94614 1.084056,-1.08408"
             id="path186629" />
          <path
             style="opacity:1;fill:none;fill-opacity:1;fill-rule:nonzero;stroke:#000000;stroke-width:0.25;stroke-linecap:round;stroke-linejoin:round;stroke-opacity:1"
             d="m 43.682284,121.88312 0.852093,-0.85209"
             id="path186631" />
          <path
             style="opacity:1;fill:none;fill-opacity:1;fill-rule:nonzero;stroke:#000000;stroke-width:0.25;stroke-linecap:round;stroke-linejoin:round;stroke-opacity:1"
             d="m 44.692854,121.92542 0.518274,-0.51826"
             id="path186633" />
          <path
             style="opacity:1;fill:none;fill-opacity:1;fill-rule:nonzero;stroke:#000000;stroke-width:0.25;stroke-linecap:round;stroke-linejoin:round;stroke-opacity:1"
             d="m 45.81364,122.0238 1.417211,-1.41722"
             id="path186635" />
          <path
             style="opacity:1;fill:none;fill-opacity:1;fill-rule:nonzero;stroke:#000000;stroke-width:0.25;stroke-linecap:round;stroke-linejoin:round;stroke-opacity:1"
             d="m 46.714713,122.08412 0.60448,-0.60447"
             id="path186637" />
          <path
             style="opacity:1;fill:none;fill-opacity:1;fill-rule:nonzero;stroke:#000000;stroke-width:0.25;stroke-linecap:round;stroke-linejoin:round;stroke-opacity:1"
             d="m 47.510159,122.12315 0.728556,-0.72856"
             id="path186639" />
          <path
             style="opacity:1;fill:none;fill-opacity:1;fill-rule:nonzero;stroke:#000000;stroke-width:0.25;stroke-linecap:round;stroke-linejoin:round;stroke-opacity:1"
             d="m 49.44893,121.83203 1.423432,-1.42341"
             id="path186641" />
          <path
             style="opacity:1;fill:none;fill-opacity:1;fill-rule:nonzero;stroke:#000000;stroke-width:0.25;stroke-linecap:round;stroke-linejoin:round;stroke-opacity:1"
             d="m 40.65975,113.77821 -0.5616,0.57407"
             id="path186643" />
          <path
             style="opacity:1;fill:none;fill-opacity:1;fill-rule:nonzero;stroke:#000000;stroke-width:0.25;stroke-linecap:round;stroke-linejoin:round;stroke-opacity:1"
             d="m 41.384882,113.99627 -1.19529,1.2237"
             id="path186645"
             sodipodi:nodetypes="cc" />
          <path
             style="opacity:1;fill:none;fill-opacity:1;fill-rule:nonzero;stroke:#000000;stroke-width:0.25;stroke-linecap:round;stroke-linejoin:round;stroke-opacity:1"
             d="m 42.148196,114.14448 -0.958479,0.99667"
             id="path186647"
             sodipodi:nodetypes="cc" />
          <path
             style="opacity:1;fill:none;fill-opacity:1;fill-rule:nonzero;stroke:#000000;stroke-width:0.25;stroke-linecap:round;stroke-linejoin:round;stroke-opacity:1"
             d="m 42.942169,114.22068 -0.5616,0.57407"
             id="path186649" />
          <path
             style="opacity:1;fill:none;fill-opacity:1;fill-rule:nonzero;stroke:#000000;stroke-width:0.25;stroke-linecap:round;stroke-linejoin:round;stroke-opacity:1"
             d="m 43.75949,114.33325 -0.320749,0.34474"
             id="path186651"
             sodipodi:nodetypes="cc" />
        </g>
      </g>
    </g>
  </g>
</svg>
