<?xml version="1.0" encoding="UTF-8" standalone="no"?>
<!-- Created with Inkscape (http://www.inkscape.org/) -->

<svg
   width="10.95541mm"
   height="27.74181mm"
   viewBox="0 0 10.95541 27.741809"
   version="1.1"
   id="svg5"
   inkscape:version="1.2.2 (b0a8486541, 2022-12-01)"
   sodipodi:docname="exclamation.svg"
   xmlns:inkscape="http://www.inkscape.org/namespaces/inkscape"
   xmlns:sodipodi="http://sodipodi.sourceforge.net/DTD/sodipodi-0.dtd"
   xmlns="http://www.w3.org/2000/svg"
   xmlns:svg="http://www.w3.org/2000/svg">
  <sodipodi:namedview
     id="namedview7"
     pagecolor="#4d4d4d"
     bordercolor="#666666"
     borderopacity="1.0"
     inkscape:pageshadow="2"
     inkscape:pageopacity="0"
     inkscape:pagecheckerboard="false"
     inkscape:document-units="mm"
     showgrid="false"
     inkscape:zoom="0.2000022"
     inkscape:cx="-47.499478"
     inkscape:cy="204.99775"
     inkscape:window-width="956"
     inkscape:window-height="1037"
     inkscape:window-x="960"
     inkscape:window-y="0"
     inkscape:window-maximized="1"
     inkscape:current-layer="layer1"
     inkscape:showpageshadow="2"
     inkscape:deskcolor="#4d4d4d" />
  <defs
     id="defs2" />
  <g
     inkscape:label="Layer 1"
     inkscape:groupmode="layer"
     id="layer1"
     transform="translate(31.00265,-96.236325)">
    <g
       id="g654288"
       transform="matrix(0.81697587,0,0,0.81897542,-22.844849,-65.577228)"
       style="stroke-width:1.22253">
      <g
         id="g681271"
         transform="translate(-0.04254555,-1.403991)">
        <path
           id="path796241-8"
           style="fill:#a770c2;fill-opacity:1;fill-rule:nonzero;stroke:#000000;stroke-width:0.305633;stroke-linecap:round;stroke-linejoin:round;stroke-dasharray:none;stroke-opacity:1"
           d="m -1.1295792,199.13726 c 0,0 -1.3756189,1.46068 -2.0314005,2.2195 -0.32005,0.37034 -0.4836086,0.93297 -0.9281087,1.13792 -0.7621558,0.35141 -1.7510463,0.28589 -2.5171591,-0.0568 -0.4177353,-0.18686 -0.5892966,-0.70609 -0.9379272,-1.00253 -0.686654,-0.58386 -2.2458577,-1.50585 -2.2458577,-1.50585 0,0 1.3644654,2.1914 1.7699178,3.40445 0.3681135,1.10134 0.1458036,2.35682 0.5746419,3.43596 0.3347271,0.84232 1.2145944,1.40297 1.5146362,2.25826 0.3653924,1.04157 0.145223,2.20393 0.2778106,3.29974 0.3566865,2.94795 0.8628829,5.98563 1.3913357,8.79902 0.077581,0.41303 0.1513199,0.82439 0.2199386,1.23352 l 3.16073608,0.009 c 0,0 0.13038419,-1.9666 0.4037336,-4.5755 0.34599539,-3.30225 0.9210431,-7.63356 1.75065682,-10.30835 0.344666,-1.11125 1.2211326,-2.01287 1.5425415,-3.13107 0.4504048,-1.56698 0.4981609,-4.86585 0.4981609,-4.86585 0,0 -0.6148283,1.96843 -1.377177,2.57245 -0.5089289,0.40323 -1.24303294,0.61741 -1.88205563,0.50229 -0.48646749,-0.0876 -0.98452035,-0.41807 -1.20922847,-0.85834 -0.3890541,-0.76227 0.024805,-2.56733 0.024805,-2.56733 z"
           sodipodi:nodetypes="caaaacaaaasccssacaaac" />
        <path
           style="opacity:1;fill:#c270a7;fill-opacity:1;stroke:none;stroke-width:0.305633;stroke-linecap:round;stroke-linejoin:round;stroke-opacity:1"
           d="m -1.7298214,220.51986 c -3.1983087,0.0841 -2.1255193,-6.06443 -2.6894114,-9.21376 -0.1757926,-0.9818 0.1996534,-2.07558 -0.2103226,-2.98484 -0.190382,-0.42224 -0.8060901,-0.55928 -0.9740927,-0.99091 -0.2368441,-0.6085 0.067504,-1.95773 0.067504,-1.95773 0,0 0.3982839,1.48205 0.9644755,1.92129 0.3788476,0.2939 0.9952017,0.0576 1.4056269,0.30555 0.450113,0.27188 0.4944353,1.28957 1.0139985,1.2085 0.6536986,-0.102 0.3316936,-1.32587 0.7519097,-1.83689 0.2938376,-0.35733 0.79576226,-0.4771 1.15868245,-0.76401 0.42661591,-0.33727 1.18818997,-1.11801 1.18818997,-1.11801 0,0 -1.2219033,2.28563 -1.55827661,3.52574 -0.71027021,2.61855 -0.79564091,5.37685 -0.92256181,8.08705 -0.042947,0.91706 0.151925,1.8407 0.055065,2.75364 -0.038457,0.36247 0.1135959,1.05479 -0.2507869,1.06438 z"
           id="path640618"
           sodipodi:nodetypes="aaaacaaaaacaaaa" />
        <path
           style="opacity:1;fill:#c27070;fill-opacity:1;stroke:none;stroke-width:0.305633;stroke-linecap:round;stroke-linejoin:round;stroke-opacity:1"
           d="m -2.7031501,219.51924 c 0,0 -0.560118,-4.56847 -0.2350294,-6.8197 0.1759971,-1.21878 0.6607233,-2.3825 1.1665638,-3.50523 0.214493,-0.47607 0.78560344,-1.35525 0.78560344,-1.35525 0,0 -0.0889982,1.33273 -0.17288934,1.99489 -0.2359029,1.86201 -0.8432188,3.67869 -0.9281424,5.55366 -0.037381,0.82531 0.3398593,1.65981 0.1858786,2.4715 -0.1145439,0.60379 -0.8019847,1.66013 -0.8019847,1.66013 z"
           id="path655601"
           sodipodi:nodetypes="caacaaac" />
        <path
           style="opacity:1;fill:#c27070;fill-opacity:1;stroke:none;stroke-width:0.305633;stroke-linecap:round;stroke-linejoin:round;stroke-opacity:1"
           d="m -3.9256177,210.78259 c -0.2694609,-0.76352 -0.012926,-1.64597 -0.2690469,-2.41407 -0.09029,-0.27078 -0.4348929,-0.73764 -0.4348929,-0.73764 0,0 1.5554872,0.65923 1.7932426,1.37368 0.2644168,0.79457 -0.6609795,2.51249 -0.6812412,2.4181 -0.020267,-0.0944 -0.3238536,-0.40147 -0.4080616,-0.64007 z"
           id="path656086"
           sodipodi:nodetypes="aacasa" />
        <path
           style="opacity:1;fill:none;fill-opacity:1;stroke:#000000;stroke-width:0.305633;stroke-linecap:round;stroke-linejoin:round;stroke-opacity:1"
           d="m -2.936936,221.23572 c 0,0 0.1839515,-3.09056 0.274455,-4.63592 0.1008407,-1.72187 0.7283823,-3.49523 0.2992411,-5.16581 -0.2620103,-1.01997 -0.6287854,-2.7354 -1.6801597,-2.67543 -0.7108308,0.0406 -0.9920926,1.21767 -0.9228905,1.92629 0.062275,0.63768 0.5096488,1.55495 1.1501887,1.54003 0.305628,-0.007 0.5139902,-0.75957 0.5139902,-0.75957"
           id="path666439"
           sodipodi:nodetypes="caaaaac" />
        <path
           style="opacity:1;fill:none;fill-opacity:1;stroke:#000000;stroke-width:0.305633;stroke-linecap:round;stroke-linejoin:round;stroke-opacity:1"
           d="m -3.2437971,213.35112 c 0,0 -0.9927378,1.17009 -1.0937319,1.89132 -0.1103536,0.78807 -0.2138608,2.34102 0.5814827,2.31537 0.6338608,-0.0204 0.3435827,-1.87129 0.3435827,-1.87129"
           id="path666441"
           sodipodi:nodetypes="caac" />
        <path
           style="opacity:1;fill:none;fill-opacity:1;stroke:#000000;stroke-width:0.305633;stroke-linecap:round;stroke-linejoin:round;stroke-opacity:1"
           d="m -1.8484349,221.50252 c 0,0 0.3452106,-5.29549 0.7999254,-7.90443 0.26625942,-1.52767 1.19531725,-2.9649 1.12505331,-4.51401 -0.03720229,-0.8202 -0.78171866,-1.5057 -0.80959588,-2.32627 -0.0361266,-1.06339 0.0599582,-2.35761 0.84215286,-3.07891 0.39179003,-0.36129 1.14535121,-0.6161 1.57124401,-0.29572 0.3191548,0.24009 0.2006457,0.80299 0.1135036,1.19274 -0.1340941,0.59975 -0.3322274,1.67946 -0.93967566,1.58624 C 0.44667506,206.09963 0.57189143,204.958 0.57189143,204.958"
           id="path666443"
           sodipodi:nodetypes="caaaaaaac" />
        <path
           style="opacity:1;fill:none;fill-opacity:1;stroke:#000000;stroke-width:0.305633;stroke-linecap:round;stroke-linejoin:round;stroke-opacity:1"
           d="m -2.5039877,209.22405 c 0,0 0.4673144,0.97466 0.8982869,0.93681 0.4103435,-0.036 0.65271914,-0.61689 0.68669956,-1.02741 0.0781869,-0.94458 -0.77915576,-1.72809 -1.16985516,-2.59163 -0.4144813,-0.9161 -1.2193887,-1.74207 -1.2458224,-2.74723 -0.018316,-0.69649 0.113017,-1.69286 0.762,-1.94633 0.548461,-0.21421 1.2930585,0.26357 1.58831225,0.773 0.28002313,0.48315 0.11604674,1.16208 -0.11271515,1.67151 -0.1361651,0.30323 -0.3744642,0.78286 -0.6990318,0.71115 -0.4679741,-0.1034 -0.4820602,-1.35456 -0.4820602,-1.35456"
           id="path666445"
           sodipodi:nodetypes="caaaaaaaac" />
        <path
           style="opacity:1;fill:none;fill-opacity:1;stroke:#000000;stroke-width:0.305633;stroke-linecap:round;stroke-linejoin:round;stroke-opacity:1"
           d="m -2.1725547,208.26901 c 0,0 -0.7886155,-2.21791 -1.526059,-3.10429 -0.523719,-0.6295 -1.3001684,-0.99668 -1.9706743,-1.46675 -0.7225431,-0.50655 -2.2098952,-1.45751 -2.2098952,-1.45751"
           id="path666447"
           sodipodi:nodetypes="caac" />
        <path
           style="opacity:1;fill:none;fill-opacity:1;stroke:#000000;stroke-width:0.305633;stroke-linecap:round;stroke-linejoin:round;stroke-opacity:1"
           d="m -4.9582812,207.54727 c 0,0 -1.2560676,-0.49226 -1.4527715,-1.05814 -0.2036414,-0.58584 -0.1017129,-1.64278 0.5002524,-1.79216 0.6279257,-0.15581 1.1986442,0.77624 1.3352594,1.40862 0.050312,0.23289 -0.00459,0.61025 -0.2337462,0.67549 -0.388925,0.11073 -0.9410488,-0.76559 -0.9410488,-0.76559"
           id="path666449"
           sodipodi:nodetypes="caaaac" />
      </g>
      <g
         id="g681281"
         transform="translate(-0.19841067,0.69274187)">
        <path
           style="fill:#a770c2;fill-opacity:1;fill-rule:nonzero;stroke:#000000;stroke-width:0.305633;stroke-linecap:round;stroke-linejoin:round;stroke-dasharray:none;stroke-opacity:1"
           d="m -2.4808518,230.60821 c -1.3373644,-0.0354 -2.5967423,-1.79349 -2.5137843,-3.12875 0.031982,-0.51477 0.2912396,-0.95628 0.3820284,-1.44665 0.083158,-0.44916 -0.058058,-1.01357 0.1476294,-1.36234 0.1639757,-0.27804 0.4836004,0.4409 0.7540574,0.36883 0.5230386,-0.13939 0.7584489,-1.27203 0.9074156,-1.34372 0.3294001,-0.15851 0.4695699,0.36707 0.6302399,0.61158 0.1962615,0.29869 0.1342854,0.74213 0.3795986,1.00224 0.2479636,0.26292 0.6364934,0.51967 0.99028035,0.44379 0.49000948,-0.1051 0.87755433,-1.38524 0.99710145,-1.12272 0.1102702,0.24215 -0.432696,2.01195 -0.37710138,2.26284 0.0620424,0.27998 0.15012004,0.74158 0.1324658,0.9986 -0.08324979,1.212 -1.21550242,2.74847 -2.42993122,2.7163 z"
           id="path796011-4"
           sodipodi:nodetypes="asasasaaasssa" />
        <path
           style="opacity:1;fill:#c270a7;fill-opacity:1;stroke:none;stroke-width:0.305633;stroke-linecap:round;stroke-linejoin:round;stroke-opacity:1"
           d="m -2.1755551,229.34077 c -0.4194452,0.0932 -0.9061091,-0.10909 -1.2271137,-0.39471 -0.4334257,-0.38565 -0.8694843,-1.02258 -0.7219659,-1.58367 0.07788,-0.29622 0.5242968,-0.32614 0.7430717,-0.5405 0.257668,-0.25246 0.6543146,-0.862 0.6543146,-0.862 0,0 0.040628,0.27111 0.1468067,0.28637 0.2669357,0.0384 0.5568606,-0.58689 0.5568606,-0.58689 0,0 0.7237991,0.9776 0.9396545,1.53838 0.10119285,0.26289 0.23140038,0.5588 0.1567418,0.83042 -0.0999831,0.36376 -0.4855005,0.57845 -0.748829,0.84858 -0.1586393,0.16274 -0.2776855,0.41472 -0.4995413,0.46402 z"
           id="path656433"
           sodipodi:nodetypes="aaaacacaaaa" />
        <path
           style="opacity:1;fill:#c27070;fill-opacity:1;stroke:none;stroke-width:0.305633;stroke-linecap:round;stroke-linejoin:round;stroke-opacity:1"
           d="m -2.54752,229.09041 c -0.6306281,-0.11429 -1.0256974,-1.03003 -0.9575509,-1.6673 0.032048,-0.29969 0.3217038,-0.57085 0.6059276,-0.67114 0.4050981,-0.14295 0.9490296,-0.0797 1.2726908,0.20273 0.2884169,0.2517 0.4430761,0.73274 0.3324807,1.09922 -0.1566437,0.51907 -0.7200529,1.13318 -1.2535482,1.03649 z"
           id="path649141"
           sodipodi:nodetypes="aaaaaa" />
        <path
           style="opacity:1;fill:none;fill-opacity:1;stroke:#000000;stroke-width:0.305633;stroke-linecap:round;stroke-linejoin:round;stroke-opacity:1"
           d="m -3.2278573,228.47831 c 0,0 -0.7323142,-0.72076 -0.7411217,-1.18718 -0.013561,-0.71813 0.3542647,-1.91236 1.0712503,-1.86962 0.4658597,0.0278 0.6295627,0.82958 0.5467932,1.28887 -0.048288,0.26795 -0.5614247,0.59327 -0.5614247,0.59327"
           id="path649350"
           sodipodi:nodetypes="caaac" />
        <path
           style="opacity:1;fill:none;fill-opacity:1;stroke:#000000;stroke-width:0.305633;stroke-linecap:round;stroke-linejoin:round;stroke-opacity:1"
           d="m -2.0074737,227.79345 c 0,0 0.5913214,-0.29737 0.7516841,-0.5672 0.1846322,-0.31067 0.34092103,-0.7595 0.1599504,-1.0723 -0.067703,-0.11703 -0.3775867,-0.14809 -0.3775867,-0.14809"
           id="path661503"
           sodipodi:nodetypes="caac" />
        <path
           style="opacity:1;fill:none;fill-opacity:1;stroke:#000000;stroke-width:0.305633;stroke-linecap:round;stroke-linejoin:round;stroke-opacity:1"
           d="m -1.6344413,228.86376 c 0,0 0.082955,-0.57007 0.2894462,-0.7319 0.1390897,-0.10901 0.52530643,-0.0715 0.52530643,-0.0715"
           id="path661505"
           sodipodi:nodetypes="cac" />
        <path
           style="opacity:1;fill:none;fill-opacity:1;stroke:#000000;stroke-width:0.305633;stroke-linecap:round;stroke-linejoin:round;stroke-opacity:1"
           d="m -2.1657902,228.51432 c 0,0 -0.3075054,0.58611 -0.5800559,0.74181 -0.3138024,0.17925 -0.7652564,0.32779 -1.0748946,0.14146 -0.1158472,-0.0697 -0.1415681,-0.38008 -0.1415681,-0.38008"
           id="path666452"
           sodipodi:nodetypes="caac" />
        <path
           style="opacity:1;fill:none;fill-opacity:1;stroke:#000000;stroke-width:0.305633;stroke-linecap:round;stroke-linejoin:round;stroke-opacity:1"
           d="m -1.1967393,229.28791 c 0,0 -0.2770708,0.50507 -0.5271156,0.58447 -0.168326,0.0539 -0.5171441,-0.11671 -0.5171441,-0.11671"
           id="path666454"
           sodipodi:nodetypes="cac" />
      </g>
    </g>
  </g>
</svg>
