<?xml version="1.0" encoding="UTF-8" standalone="no"?>
<!-- Created with Inkscape (http://www.inkscape.org/) -->

<svg
   width="20.101358mm"
   height="71.754837mm"
   viewBox="0 0 20.101358 71.754836"
   version="1.1"
   id="svg5"
   inkscape:version="1.2.2 (b0a8486541, 2022-12-01)"
   sodipodi:docname="fire_ext_8.svg"
   xmlns:inkscape="http://www.inkscape.org/namespaces/inkscape"
   xmlns:sodipodi="http://sodipodi.sourceforge.net/DTD/sodipodi-0.dtd"
   xmlns="http://www.w3.org/2000/svg"
   xmlns:svg="http://www.w3.org/2000/svg">
  <sodipodi:namedview
     id="namedview7"
     pagecolor="#4d4d4d"
     bordercolor="#666666"
     borderopacity="1.0"
     inkscape:pageshadow="2"
     inkscape:pageopacity="0"
     inkscape:pagecheckerboard="false"
     inkscape:document-units="mm"
     showgrid="false"
     inkscape:zoom="1.1313833"
     inkscape:cx="-136.5585"
     inkscape:cy="-20.329097"
     inkscape:window-width="1920"
     inkscape:window-height="1080"
     inkscape:window-x="0"
     inkscape:window-y="0"
     inkscape:window-maximized="1"
     inkscape:current-layer="layer1"
     inkscape:showpageshadow="2"
     inkscape:deskcolor="#4d4d4d" />
  <defs
     id="defs2" />
  <g
     inkscape:label="Layer 1"
     inkscape:groupmode="layer"
     id="layer1"
     transform="translate(10.359296,-96.288873)">
    <g
       id="g166920"
       transform="rotate(-10.199844,-260.90615,1473.7309)">
      <g
         id="g66390"
         transform="rotate(-2.3627019,-123.03784,910.84529)">
        <path
           style="opacity:1;fill:#f4d653;fill-opacity:1;fill-rule:nonzero;stroke:#000000;stroke-width:0.25;stroke-linecap:round;stroke-linejoin:round;stroke-opacity:1"
           d="m 250.59626,247.06604 c -4.3115,-6.7046 -2.59527,-16.3035 -0.22028,-23.91272 1.6431,-5.2643 5.09102,-10.054 9.53578,-13.51971 2.88593,-2.59086 5.21407,-6.48011 4.21363,-10.48215 -0.60921,-5.07823 -1.68774,-10.46132 -0.31992,-15.41561 0.3785,-1.37095 1.75444,-7.27123 2.26463,-3.61612 1.92491,9.07866 8.01111,18.18345 7.46954,27.74612 -0.34671,6.12195 -3.07244,12.19438 -6.7569,17.10938 -4.4343,6.20586 -4.8957,14.36309 -3.65479,21.66737 -0.28166,2.95239 -3.85832,3.30343 -6.21445,3.37465 -2.32314,0.0702 -5.06012,-0.99633 -6.31724,-2.95121 z"
           id="path47416"
           sodipodi:nodetypes="aaaaacaaaaa" />
        <path
           style="opacity:1;fill:none;fill-opacity:1;fill-rule:nonzero;stroke:#000000;stroke-width:0.25;stroke-linecap:round;stroke-linejoin:round;stroke-opacity:1"
           d="m 252.00279,248.24223 c 0,0 -2.88977,-7.3394 -2.86239,-11.18911 0.0356,-5.0031 1.53744,-10.091 3.92642,-14.48703 1.11535,-2.0524 3.23966,-3.3771 4.67796,-5.21765 0.70027,-0.89612 1.91447,-2.8241 1.91447,-2.8241"
           id="path66380"
           sodipodi:nodetypes="caaac" />
        <path
           style="opacity:1;fill:none;fill-opacity:1;fill-rule:nonzero;stroke:#000000;stroke-width:0.25;stroke-linecap:round;stroke-linejoin:round;stroke-opacity:1"
           d="m 257.50949,249.79537 c 0,0 -3.71916,-11.11856 -3.42683,-16.83922 0.20792,-4.06878 1.44693,-8.23598 3.64548,-11.66593 2.35147,-3.66853 7.77405,-4.84895 9.70936,-8.75307 1.48069,-2.98702 1.06609,-6.64134 0.83188,-9.96698 -0.22799,-3.23737 -2.16165,-9.49317 -2.16165,-9.49317"
           id="path66382"
           sodipodi:nodetypes="caaaac" />
        <path
           style="opacity:1;fill:none;fill-opacity:1;fill-rule:nonzero;stroke:#000000;stroke-width:0.25;stroke-linecap:round;stroke-linejoin:round;stroke-opacity:1"
           d="m 261.63754,249.21501 c 0,0 -1.61577,-6.56197 -1.63478,-9.90984 -0.0299,-5.27387 -0.13986,-11.01583 2.39784,-15.63911 1.22756,-2.23641 4.32153,-2.93307 5.75927,-5.04052 1.60704,-2.35562 2.50533,-5.22464 2.89745,-8.04914 0.18963,-1.36597 -0.28787,-4.12717 -0.28787,-4.12717"
           id="path66384"
           sodipodi:nodetypes="caaaac" />
      </g>
    </g>
  </g>
</svg>
