<?xml version="1.0" encoding="UTF-8" standalone="no"?>
<!-- Created with Inkscape (http://www.inkscape.org/) -->

<svg
   width="6.2646208mm"
   height="22.703005mm"
   viewBox="0 0 6.2646208 22.703005"
   version="1.1"
   id="svg5"
   inkscape:version="1.2.2 (b0a8486541, 2022-12-01)"
   sodipodi:docname="fire_int_1.svg"
   xmlns:inkscape="http://www.inkscape.org/namespaces/inkscape"
   xmlns:sodipodi="http://sodipodi.sourceforge.net/DTD/sodipodi-0.dtd"
   xmlns="http://www.w3.org/2000/svg"
   xmlns:svg="http://www.w3.org/2000/svg">
  <sodipodi:namedview
     id="namedview7"
     pagecolor="#4d4d4d"
     bordercolor="#666666"
     borderopacity="1.0"
     inkscape:pageshadow="2"
     inkscape:pageopacity="0"
     inkscape:pagecheckerboard="false"
     inkscape:document-units="mm"
     showgrid="false"
     inkscape:zoom="3.2000352"
     inkscape:cx="4.2187037"
     inkscape:cy="76.561659"
     inkscape:window-width="1920"
     inkscape:window-height="1080"
     inkscape:window-x="0"
     inkscape:window-y="0"
     inkscape:window-maximized="1"
     inkscape:current-layer="g166920"
     inkscape:showpageshadow="2"
     inkscape:deskcolor="#4d4d4d" />
  <defs
     id="defs2" />
  <g
     inkscape:label="Layer 1"
     inkscape:groupmode="layer"
     id="layer1"
     transform="translate(17.769138,-143.35365)">
    <g
       id="g166920"
       transform="translate(-233.47975,-67.146562)">
      <g
         id="g158749"
         transform="rotate(7.2382858,-133.92838,830.82991)">
        <path
           style="fill:#ba522a;fill-opacity:1;fill-rule:nonzero;stroke:#000000;stroke-width:0.25;stroke-linecap:round;stroke-linejoin:round;stroke-opacity:1"
           d="m 138.20624,191.68982 c -0.85528,-1.11589 -1.11545,-2.64563 -1.23478,-4.05576 -0.16455,-1.94416 0.34316,-3.89615 0.73791,-5.80569 0.3687,-1.78355 1.57699,-3.42394 1.51612,-5.24551 -0.0639,-1.91246 -1.95571,-5.38442 -1.95571,-5.38442 0,0 2.69447,2.78728 3.4276,4.54557 0.9743,2.33669 1.10886,4.99354 1.10416,7.53201 -0.002,1.25253 -0.75225,2.47741 -0.55856,3.71432 0.25067,1.6008 2.4912,2.75547 2.15522,4.33998 -0.22427,1.05767 -1.42377,1.96392 -2.4844,2.03494 -1.05391,0.0706 -2.05785,-0.82776 -2.70756,-1.67544 z"
           id="path152935"
           sodipodi:nodetypes="aaaacaaaaaa" />
        <path
           style="fill:none;fill-opacity:1;fill-rule:nonzero;stroke:#000000;stroke-width:0.25;stroke-linecap:round;stroke-linejoin:round;stroke-opacity:1"
           d="m 141.00666,193.21174 c 0,0 -1.86535,-0.84261 -2.41017,-1.64938 -0.91619,-1.35671 -0.99941,-3.15981 -1.05867,-4.79583 -0.054,-1.49047 0.2221,-2.9975 0.64586,-4.42748 0.29106,-0.98214 1.04281,-1.79624 1.28485,-2.79159 0.2634,-1.08324 0.23937,-2.22949 0.15284,-3.34094 -0.0503,-0.64619 -0.38844,-1.90524 -0.38844,-1.90524"
           id="path158707"
           sodipodi:nodetypes="caaaaac" />
        <path
           style="fill:none;fill-opacity:1;fill-rule:nonzero;stroke:#000000;stroke-width:0.25;stroke-linecap:round;stroke-linejoin:round;stroke-opacity:1"
           d="m 139.1966,190.13055 c 0,0 -0.87487,-2.36462 -0.99053,-3.60565 -0.0707,-0.75825 0.0151,-1.53517 0.18771,-2.27687 0.1631,-0.70068 0.47747,-1.36054 0.79078,-2.00815 0.37357,-0.77219 1.21772,-1.37093 1.29215,-2.2255 0.0281,-0.32224 -0.33481,-0.91079 -0.33481,-0.91079"
           id="path158709"
           sodipodi:nodetypes="caaaac" />
        <path
           style="fill:none;fill-opacity:1;fill-rule:nonzero;stroke:#000000;stroke-width:0.25;stroke-linecap:round;stroke-linejoin:round;stroke-opacity:1"
           d="m 140.41938,185.1347 c 0,0 0.53424,-1.9822 0.63079,-2.99924 0.13737,-1.44693 0.94989,-3.33245 -0.0784,-4.35959 -0.20168,-0.20145 -0.708,-0.25859 -0.85506,-0.0144 -0.11412,0.18949 0.0991,0.58908 0.32019,0.58122 0.12741,-0.005 0.16032,-0.34726 0.16032,-0.34726"
           id="path158711"
           sodipodi:nodetypes="caaaac" />
        <path
           style="fill:none;fill-opacity:1;fill-rule:nonzero;stroke:#000000;stroke-width:0.25;stroke-linecap:round;stroke-linejoin:round;stroke-opacity:1"
           d="m 140.0561,177.01847 c 0,0 0.41082,-0.31236 0.43244,-0.54264 0.0456,-0.48588 -0.68341,-1.29477 -0.68341,-1.29477"
           id="path158713"
           sodipodi:nodetypes="cac" />
        <path
           style="fill:none;fill-opacity:1;fill-rule:nonzero;stroke:#000000;stroke-width:0.25;stroke-linecap:round;stroke-linejoin:round;stroke-opacity:1"
           d="m 138.81572,173.53611 -0.34651,-0.56915"
           id="path158715"
           sodipodi:nodetypes="cc" />
        <path
           style="fill:none;fill-opacity:1;fill-rule:nonzero;stroke:#000000;stroke-width:0.25;stroke-linecap:round;stroke-linejoin:round;stroke-opacity:1"
           d="m 139.3015,190.96064 c 0,0 0.4318,0.14974 0.56965,0.019 0.35978,-0.34121 0.0888,-0.99501 0.0292,-1.48727 -0.12524,-1.03429 -0.70963,-1.98256 -0.80537,-3.02 -0.0825,-0.8944 -0.008,-1.81434 0.20613,-2.68672 0.21869,-0.89222 1.08372,-2.53385 1.08372,-2.53385"
           id="path158717"
           sodipodi:nodetypes="caaaac" />
        <path
           style="fill:none;fill-opacity:1;fill-rule:nonzero;stroke:#000000;stroke-width:0.25;stroke-linecap:round;stroke-linejoin:round;stroke-opacity:1"
           d="m 141.56531,192.62582 c 0,0 0.75231,-0.80476 0.85749,-1.31832 0.11426,-0.55789 -0.0414,-1.17237 -0.29351,-1.68301 -0.32572,-0.65983 -1.21123,-0.94496 -1.49573,-1.62358 -0.27657,-0.65972 -0.10623,-2.1434 -0.10623,-2.1434"
           id="path158719"
           sodipodi:nodetypes="caaac" />
        <path
           style="fill:none;fill-opacity:1;fill-rule:nonzero;stroke:#000000;stroke-width:0.25;stroke-linecap:round;stroke-linejoin:round;stroke-opacity:1"
           d="m 140.78314,191.19137 c 0,0 -0.61867,0.13501 -0.63636,0.38174 -0.021,0.29346 0.39127,0.58238 0.68443,0.55736 0.42514,-0.0363 0.8184,-0.53877 0.84121,-0.96484 0.0243,-0.45347 -0.55861,-0.72039 -0.78055,-1.11658 -0.42368,-0.75628 -0.85531,-1.53675 -1.03947,-2.38384 -0.13817,-0.63553 -0.0478,-1.30064 -0.0331,-1.95085 0.0154,-0.68266 -0.0517,-1.38555 0.12713,-2.04454 0.0798,-0.29396 0.41219,-0.81555 0.41219,-0.81555"
           id="path158721"
           sodipodi:nodetypes="caaaaaaac" />
        <path
           style="fill:none;fill-opacity:1;fill-rule:nonzero;stroke:#000000;stroke-width:0.25;stroke-linecap:round;stroke-linejoin:round;stroke-opacity:1"
           d="m 142.55531,191.98633 c 0,0 0.38089,-0.691 0.37703,-1.06875 -0.004,-0.3769 -0.39791,-1.05845 -0.39791,-1.05845"
           id="path158723"
           sodipodi:nodetypes="cac" />
        <path
           style="fill:none;fill-opacity:1;fill-rule:nonzero;stroke:#000000;stroke-width:0.25;stroke-linecap:round;stroke-linejoin:round;stroke-opacity:1"
           d="m 140.67652,178.81586 c 0,0 0.26012,0.57392 0.28245,0.88173 0.027,0.37235 -0.18414,1.10473 -0.18414,1.10473"
           id="path158725"
           sodipodi:nodetypes="cac" />
      </g>
    </g>
  </g>
</svg>
