<?xml version="1.0" encoding="UTF-8" standalone="no"?>
<!-- Created with Inkscape (http://www.inkscape.org/) -->

<svg
   width="18.418325mm"
   height="46.416916mm"
   viewBox="0 0 18.418326 46.416916"
   version="1.1"
   id="svg5"
   inkscape:version="1.2.2 (b0a8486541, 2022-12-01)"
   sodipodi:docname="fire_ext_4.svg"
   xmlns:inkscape="http://www.inkscape.org/namespaces/inkscape"
   xmlns:sodipodi="http://sodipodi.sourceforge.net/DTD/sodipodi-0.dtd"
   xmlns="http://www.w3.org/2000/svg"
   xmlns:svg="http://www.w3.org/2000/svg">
  <sodipodi:namedview
     id="namedview7"
     pagecolor="#4d4d4d"
     bordercolor="#666666"
     borderopacity="1.0"
     inkscape:pageshadow="2"
     inkscape:pageopacity="0"
     inkscape:pagecheckerboard="false"
     inkscape:document-units="mm"
     showgrid="false"
     inkscape:zoom="1.1313833"
     inkscape:cx="-302.72676"
     inkscape:cy="205.05871"
     inkscape:window-width="1920"
     inkscape:window-height="1080"
     inkscape:window-x="0"
     inkscape:window-y="0"
     inkscape:window-maximized="1"
     inkscape:current-layer="layer1"
     inkscape:showpageshadow="2"
     inkscape:deskcolor="#4d4d4d" />
  <defs
     id="defs2" />
  <g
     inkscape:label="Layer 1"
     inkscape:groupmode="layer"
     id="layer1"
     transform="translate(-3.7979298,-102.792)">
    <g
       id="g166920"
       transform="rotate(-22.784439,-41.00398,739.91006)">
      <g
         id="g112969"
         transform="rotate(5.6831447,74.688367,469.44223)">
        <path
           style="opacity:1;fill:#f4d751;fill-opacity:1;fill-rule:nonzero;stroke:#000000;stroke-width:0.25;stroke-linecap:round;stroke-linejoin:round;stroke-opacity:1"
           d="m 208.51217,199.9093 c -3.20731,-2.52088 -3.60343,-8.22002 -2.17908,-12.0427 1.22343,-3.28345 6.06039,-3.81003 8.18402,-6.59715 2.61591,-3.43323 3.89708,-7.74891 5.15976,-11.87633 1.31613,-4.30214 2.46828,-13.26923 2.46828,-13.26923 0,0 0.044,13.97415 0.76919,20.91159 0.41478,3.96775 2.87969,7.89176 2.04312,11.79243 -0.88782,4.13964 -3.43149,8.42831 -7.1096,10.52506 -2.70827,1.54388 -6.88472,2.48274 -9.33569,0.55633 z"
           id="path66420"
           sodipodi:nodetypes="aaaacaaaa" />
        <path
           style="opacity:1;fill:none;fill-opacity:1;fill-rule:nonzero;stroke:#000000;stroke-width:0.25;stroke-linecap:round;stroke-linejoin:round;stroke-opacity:1"
           d="m 211.44188,187.20179 c 0,0 6.01695,-4.3014 7.7584,-7.43025 1.32806,-2.38611 1.35309,-5.30558 1.69786,-8.01453 0.17003,-1.33599 0.17941,-4.03631 0.17941,-4.03631"
           id="path111056"
           sodipodi:nodetypes="caac" />
        <path
           style="opacity:1;fill:none;fill-opacity:1;fill-rule:nonzero;stroke:#000000;stroke-width:0.25;stroke-linecap:round;stroke-linejoin:round;stroke-opacity:1"
           d="m 212.50505,199.48449 c 0,0 6.34086,-2.5284 8.41606,-5.05984 1.34481,-1.64047 2.14099,-3.86991 2.14545,-5.99114 0.003,-1.30736 -1.30673,-3.69799 -1.30673,-3.69799"
           id="path111058"
           sodipodi:nodetypes="caac" />
        <path
           style="opacity:1;fill:none;fill-opacity:1;fill-rule:nonzero;stroke:#000000;stroke-width:0.25;stroke-linecap:round;stroke-linejoin:round;stroke-opacity:1"
           d="m 219.80644,188.33885 c 0,0 -0.90892,-2.55181 -0.65352,-3.81721 0.31521,-1.56173 2.15339,-2.49188 2.57069,-4.02948 0.39302,-1.44812 -0.17031,-4.49828 -0.17031,-4.49828"
           id="path111060"
           sodipodi:nodetypes="caac" />
        <path
           style="opacity:1;fill:none;fill-opacity:1;fill-rule:nonzero;stroke:#000000;stroke-width:0.25;stroke-linecap:round;stroke-linejoin:round;stroke-opacity:1"
           d="m 210.2992,196.73613 c 0,0 -0.22825,-4.07493 0.72112,-5.76163 1.02221,-1.81612 2.81813,-3.80111 4.90058,-3.88241 0.86534,-0.0338 1.78439,0.6674 2.15596,1.44963 0.26883,0.56595 -0.17256,1.87172 -0.17256,1.87172"
           id="path111062"
           sodipodi:nodetypes="caaac" />
        <path
           style="opacity:1;fill:none;fill-opacity:1;fill-rule:nonzero;stroke:#000000;stroke-width:0.25;stroke-linecap:round;stroke-linejoin:round;stroke-opacity:1"
           d="m 212.85962,196.98599 c 0,0 2.75343,-2.65558 3.31401,-4.40563 0.27326,-0.85308 0.74152,-2.30086 -0.067,-2.68651 -0.99434,-0.47428 -2.3082,0.95841 -2.61954,2.01516 -0.10509,0.35671 0.37418,1.05098 0.37418,1.05098"
           id="path111064"
           sodipodi:nodetypes="caaac" />
        <path
           style="opacity:1;fill:none;fill-opacity:1;fill-rule:nonzero;stroke:#000000;stroke-width:0.25;stroke-linecap:round;stroke-linejoin:round;stroke-opacity:1"
           d="m 208.13014,195.01963 c 0,0 -1.10592,-3.32138 -0.5081,-4.82354 0.35534,-0.89288 2.18948,-1.87557 2.18948,-1.87557"
           id="path111066"
           sodipodi:nodetypes="cac" />
      </g>
    </g>
  </g>
</svg>
