<?xml version="1.0" encoding="UTF-8" standalone="no"?>
<!-- Created with Inkscape (http://www.inkscape.org/) -->

<svg
   width="7.7985306mm"
   height="26.243208mm"
   viewBox="0 0 7.7985306 26.243208"
   version="1.1"
   id="svg5"
   inkscape:version="1.2.2 (b0a8486541, 2022-12-01)"
   sodipodi:docname="fire_int_2.svg"
   xmlns:inkscape="http://www.inkscape.org/namespaces/inkscape"
   xmlns:sodipodi="http://sodipodi.sourceforge.net/DTD/sodipodi-0.dtd"
   xmlns="http://www.w3.org/2000/svg"
   xmlns:svg="http://www.w3.org/2000/svg">
  <sodipodi:namedview
     id="namedview7"
     pagecolor="#4d4d4d"
     bordercolor="#666666"
     borderopacity="1.0"
     inkscape:pageshadow="2"
     inkscape:pageopacity="0"
     inkscape:pagecheckerboard="false"
     inkscape:document-units="mm"
     showgrid="false"
     inkscape:zoom="3.2000352"
     inkscape:cx="-7.6561659"
     inkscape:cy="50.93694"
     inkscape:window-width="1920"
     inkscape:window-height="1080"
     inkscape:window-x="0"
     inkscape:window-y="0"
     inkscape:window-maximized="1"
     inkscape:current-layer="g166920"
     inkscape:showpageshadow="2"
     inkscape:deskcolor="#4d4d4d" />
  <defs
     id="defs2" />
  <g
     inkscape:label="Layer 1"
     inkscape:groupmode="layer"
     id="layer1"
     transform="translate(7.2831084,-140.34719)">
    <g
       id="g166920"
       transform="translate(-233.47975,-67.146562)">
      <g
         id="g124470"
         transform="matrix(0.29934473,-0.16832402,0.1690673,0.30066653,145.33803,201.12494)"
         style="stroke-width:2.90545">
        <path
           style="opacity:1;fill:#ab542d;fill-opacity:1;fill-rule:nonzero;stroke:#000000;stroke-width:0.72636;stroke-linecap:round;stroke-linejoin:round;stroke-opacity:1"
           d="m 165.44862,198.21867 c -0.5817,-4.13828 -0.86022,-8.57026 0.4826,-12.52761 1.21775,-3.58877 4.02136,-6.47331 6.56664,-9.28112 3.10164,-3.42155 10.47258,-9.07028 10.47258,-9.07028 0,0 -4.77505,4.55018 -5.94117,7.526 -0.8708,2.22221 -2.86062,6.49248 -0.56285,7.13807 3.48936,0.98038 2.60152,-6.90932 4.9158,-9.69874 3.72068,-4.48456 9.9796,-6.30382 13.86589,-10.64565 3.90574,-4.36356 7.50047,-9.39626 9.09521,-15.03117 0.96108,-3.3959 0.0788,-10.58755 0.0788,-10.58755 0,0 2.9881,15.03037 1.11093,22.19679 -1.93118,7.37263 -7.94496,13.01384 -12.19105,19.34281 -3.28211,4.89212 -8.24352,8.85453 -10.26128,14.38931 -0.66651,1.82825 0.62251,4.20547 -0.46477,5.81934 -1.92177,2.85252 -5.81493,4.16794 -9.22393,4.62489 -2.36826,0.31745 -5.24039,0.17367 -7.02788,-1.41198 -0.73058,-0.64808 -0.77958,-1.81601 -0.91552,-2.78311 z"
           id="path124450"
           sodipodi:nodetypes="aaacaaaaacaaaaaaa" />
        <path
           style="opacity:1;fill:none;fill-opacity:1;fill-rule:nonzero;stroke:#000000;stroke-width:0.726361;stroke-linecap:round;stroke-linejoin:round;stroke-opacity:1"
           d="m 167.1669,201.6356 c 0,0 -0.974,-5.94277 -0.73691,-8.91518 0.25804,-3.23504 0.92906,-6.5251 2.33014,-9.45524 1.23493,-2.58267 3.28318,-4.71319 5.20255,-6.84161 0.79244,-0.87874 2.59008,-2.42942 2.59008,-2.42942"
           id="path139165"
           sodipodi:nodetypes="caaac" />
        <path
           style="opacity:1;fill:none;fill-opacity:1;fill-rule:nonzero;stroke:#000000;stroke-width:0.726361;stroke-linecap:round;stroke-linejoin:round;stroke-opacity:1"
           d="m 168.39064,201.94342 c 0,0 1.74416,-2.6342 2.03184,-4.14459 0.33956,-1.78277 1.07526,-4.40773 -0.4329,-5.42654 -0.59684,-0.40319 -1.67132,0.035 -2.06764,0.63501 -0.81615,1.23552 -0.98743,4.18611 0.48069,4.41044 0.7267,0.11104 0.88455,-2.01159 0.88455,-2.01159"
           id="path139167"
           sodipodi:nodetypes="caaaac" />
        <path
           style="opacity:1;fill:none;fill-opacity:1;fill-rule:nonzero;stroke:#000000;stroke-width:0.726361;stroke-linecap:round;stroke-linejoin:round;stroke-opacity:1"
           d="m 171.74786,192.73287 c 0,0 -2.53561,-2.16948 -2.80599,-3.68803 -0.38297,-2.1509 0.89327,-4.33978 1.92874,-6.26565 0.83448,-1.55204 3.35849,-4.08793 3.35849,-4.08793"
           id="path139169"
           sodipodi:nodetypes="caac" />
        <path
           style="opacity:1;fill:none;fill-opacity:1;fill-rule:nonzero;stroke:#000000;stroke-width:0.726361;stroke-linecap:round;stroke-linejoin:round;stroke-opacity:1"
           d="m 172.69339,191.03795 c 0,0 -1.46598,-2.25424 -1.38256,-3.50745 0.10625,-1.59615 0.981,-3.33976 2.33764,-4.19682 1.00892,-0.63739 2.46006,-0.66003 3.57678,-0.2368 0.64492,0.24442 1.38628,0.78573 1.45142,1.46969 0.1004,1.05419 -0.7328,2.40705 -1.76955,2.64347 -0.79235,0.18068 -1.91619,-0.44471 -2.1008,-1.23285 -0.14619,-0.6241 1.05817,-1.60819 1.05817,-1.60819"
           id="path139171"
           sodipodi:nodetypes="caaaaaac" />
        <path
           style="opacity:1;fill:none;fill-opacity:1;fill-rule:nonzero;stroke:#000000;stroke-width:0.726361;stroke-linecap:round;stroke-linejoin:round;stroke-opacity:1"
           d="m 170.77854,202.04215 c 0,0 0.49024,-2.26849 0.83382,-3.37556 0.69427,-2.23706 1.50903,-4.44296 2.47356,-6.57839 0.55232,-1.22282 0.83697,-2.7197 1.89062,-3.55471 0.74327,-0.58903 1.99935,-0.15655 2.7536,-0.73157 0.82913,-0.63211 1.56909,-2.69972 1.56909,-2.69972"
           id="path139173"
           sodipodi:nodetypes="caaaac" />
        <path
           style="opacity:1;fill:none;fill-opacity:1;fill-rule:nonzero;stroke:#000000;stroke-width:0.726361;stroke-linecap:round;stroke-linejoin:round;stroke-opacity:1"
           d="m 177.79681,200.93937 c 0,0 -2.28018,-0.0995 -2.88699,-0.9015 -1.17423,-1.55201 -0.65595,-3.95292 -0.14221,-5.82744 0.40701,-1.48508 2.45227,-3.91996 2.45227,-3.91996"
           id="path139175"
           sodipodi:nodetypes="caac" />
        <path
           style="opacity:1;fill:none;fill-opacity:1;fill-rule:nonzero;stroke:#000000;stroke-width:0.726361;stroke-linecap:round;stroke-linejoin:round;stroke-opacity:1"
           d="m 179.21044,200.07252 c 0,0 -1.65238,-1.36682 -1.87597,-2.33955 -0.43006,-1.871 0.67297,-3.79393 1.28342,-5.61453 0.68727,-2.0497 2.16856,-3.81256 2.65874,-5.91762 0.37147,-1.59527 0.0476,-3.27689 0.17268,-4.90972 0.18767,-2.44974 -0.23323,-5.12032 0.86602,-7.31995 1.05453,-2.11014 5.12479,-4.89507 5.12479,-4.89507"
           id="path139177"
           sodipodi:nodetypes="caaaaac" />
        <path
           style="opacity:1;fill:none;fill-opacity:1;fill-rule:nonzero;stroke:#000000;stroke-width:0.726361;stroke-linecap:round;stroke-linejoin:round;stroke-opacity:1"
           d="m 182.78656,195.05027 c 0,0 -1.18363,2.57046 -2.22477,2.31414 -0.92268,-0.22715 -0.78133,-1.78305 -0.7844,-2.72934 -0.006,-1.82094 0.85121,-3.55002 1.47536,-5.26165 0.7297,-2.00108 2.17948,-3.74162 2.64069,-5.82038 0.45112,-2.03328 -0.50578,-4.2436 0.0661,-6.24655 0.35941,-1.25881 1.34621,-2.2483 2.03886,-3.36055 1.42401,-2.28668 4.3518,-6.81015 4.3518,-6.81015"
           id="path139179"
           sodipodi:nodetypes="caaaaaac" />
        <path
           style="opacity:1;fill:none;fill-opacity:1;fill-rule:nonzero;stroke:#000000;stroke-width:0.726361;stroke-linecap:round;stroke-linejoin:round;stroke-opacity:1"
           d="m 182.85773,192.23836 c 0,0 0.59871,-4.37938 1.56886,-6.3241 1.64129,-3.29008 4.76631,-5.61584 6.9587,-8.57057 2.35281,-3.17092 4.46888,-6.51004 6.63558,-9.80981 1.9611,-2.98665 4.63008,-5.65289 5.75956,-9.03929 0.61319,-1.83848 0.4427,-5.79483 0.4427,-5.79483"
           id="path139181"
           sodipodi:nodetypes="caaaac" />
        <path
           style="opacity:1;fill:none;fill-opacity:1;fill-rule:nonzero;stroke:#000000;stroke-width:0.726361;stroke-linecap:round;stroke-linejoin:round;stroke-opacity:1"
           d="m 185.80305,180.38602 c 0,0 1.66699,-4.41767 2.77725,-6.49484 1.68722,-3.1566 3.70169,-6.14436 5.86493,-8.99871 1.62138,-2.13937 5.30803,-6.05941 5.30803,-6.05941"
           id="path139183"
           sodipodi:nodetypes="caac" />
        <path
           style="opacity:1;fill:none;fill-opacity:1;fill-rule:nonzero;stroke:#000000;stroke-width:0.726361;stroke-linecap:round;stroke-linejoin:round;stroke-opacity:1"
           d="m 188.01742,178.50545 c 0,0 4.71842,-8.49297 7.55713,-12.424 1.85136,-2.56376 5.03611,-4.27378 6.14505,-7.23205 0.36876,-0.98371 0.0388,-3.14974 0.0388,-3.14974"
           id="path139185"
           sodipodi:nodetypes="caac" />
      </g>
    </g>
  </g>
</svg>
