<?xml version="1.0" encoding="UTF-8" standalone="no"?>
<!-- Created with Inkscape (http://www.inkscape.org/) -->

<svg
   width="13.890009mm"
   height="72.524979mm"
   viewBox="0 0 13.890009 72.524978"
   version="1.1"
   id="svg5"
   inkscape:version="1.2.2 (b0a8486541, 2022-12-01)"
   sodipodi:docname="fire_ext_1.svg"
   xmlns:inkscape="http://www.inkscape.org/namespaces/inkscape"
   xmlns:sodipodi="http://sodipodi.sourceforge.net/DTD/sodipodi-0.dtd"
   xmlns="http://www.w3.org/2000/svg"
   xmlns:svg="http://www.w3.org/2000/svg">
  <sodipodi:namedview
     id="namedview7"
     pagecolor="#4d4d4d"
     bordercolor="#666666"
     borderopacity="1.0"
     inkscape:pageshadow="2"
     inkscape:pageopacity="0"
     inkscape:pagecheckerboard="false"
     inkscape:document-units="mm"
     showgrid="false"
     inkscape:zoom="1.6000176"
     inkscape:cx="-49.06196"
     inkscape:cy="188.74792"
     inkscape:window-width="1920"
     inkscape:window-height="1080"
     inkscape:window-x="0"
     inkscape:window-y="0"
     inkscape:window-maximized="1"
     inkscape:current-layer="layer1"
     inkscape:showpageshadow="2"
     inkscape:deskcolor="#4d4d4d" />
  <defs
     id="defs2" />
  <g
     inkscape:label="Layer 1"
     inkscape:groupmode="layer"
     id="layer1"
     transform="translate(6.144681,-67.016436)">
    <g
       id="g166920"
       transform="rotate(-18.16928,-94.967857,866.20655)">
      <g
         id="g114879"
         transform="rotate(5.6831447,-45.294965,-12.936573)">
        <path
           style="opacity:1;fill:#f7dd6f;fill-opacity:1;fill-rule:nonzero;stroke:#000000;stroke-width:0.25;stroke-linecap:round;stroke-linejoin:round;stroke-opacity:1"
           d="m 238.39493,173.53878 c 0.89074,-5.11244 5.51523,-8.93901 6.97278,-13.91957 2.12131,-7.24872 -0.24209,-15.44852 2.37474,-22.53345 1.05532,-2.85722 4.14375,-4.66363 5.17924,-7.5281 1.2599,-3.48524 1.13334,-7.36779 1.01187,-11.07178 -0.13955,-4.25543 -1.99339,-12.61665 -1.99339,-12.61665 0,0 7.78311,12.2263 8.54876,19.18567 0.79525,7.22838 -2.79439,14.27401 -4.33458,21.38102 -1.27314,5.87474 -1.72643,12.02976 -4.05514,17.57147 -1.82349,4.33942 -3.6536,9.34127 -7.606,11.89748 -1.61643,1.04542 -4.18405,2.01025 -5.7135,0.84126 -0.85551,-0.65388 -0.5696,-2.14655 -0.38478,-3.20735 z"
           id="path66426"
           sodipodi:nodetypes="aaaaacaaaaaa" />
        <path
           style="opacity:1;fill:none;fill-opacity:1;fill-rule:nonzero;stroke:#000000;stroke-width:0.25;stroke-linecap:round;stroke-linejoin:round;stroke-opacity:1"
           d="m 242.07999,175.95326 c 0,0 4.81899,-4.24496 6.38831,-6.98119 2.22661,-3.88227 2.85806,-8.49078 3.97267,-12.82523 1.28272,-4.9882 1.96342,-10.11413 3.11536,-15.13414 0.89145,-3.88481 2.70204,-7.61229 2.93646,-11.59117 0.16071,-2.72788 -1.06614,-8.12821 -1.06614,-8.12821"
           id="path114863"
           sodipodi:nodetypes="caaaac" />
        <path
           style="opacity:1;fill:none;fill-opacity:1;fill-rule:nonzero;stroke:#000000;stroke-width:0.25;stroke-linecap:round;stroke-linejoin:round;stroke-opacity:1"
           d="m 241.84719,173.15701 c 0,0 0.55112,-3.40954 1.17707,-5.00499 1.18848,-3.02925 3.86181,-5.37861 4.82333,-8.48736 1.24849,-4.03661 0.46277,-8.44814 1.05265,-12.63204 0.3276,-2.32359 0.0519,-4.96752 1.37781,-6.90356 0.64446,-0.94099 2.88656,-1.83708 2.88656,-1.83708"
           id="path114865"
           sodipodi:nodetypes="caaaac" />
        <path
           style="opacity:1;fill:none;fill-opacity:1;fill-rule:nonzero;stroke:#000000;stroke-width:0.25;stroke-linecap:round;stroke-linejoin:round;stroke-opacity:1"
           d="m 244.22645,170.89166 c 0.72454,-0.18709 2.74157,-2.26868 3.53634,-3.80781 1.4618,-2.83089 1.48937,-6.20486 1.94453,-9.35821 0.36289,-2.51413 0.62288,-7.59507 0.62288,-7.59507"
           id="path114867"
           sodipodi:nodetypes="caac" />
        <path
           style="opacity:1;fill:none;fill-opacity:1;fill-rule:nonzero;stroke:#000000;stroke-width:0.25;stroke-linecap:round;stroke-linejoin:round;stroke-opacity:1"
           d="m 251.64841,152.33138 c 0,0 2.74475,-6.71459 1.22672,-9.5378 -0.24552,-0.45662 -0.9065,-0.85515 -1.39629,-0.68517 -0.604,0.20962 -0.82825,1.72996 -0.82825,1.72996"
           id="path114869"
           sodipodi:nodetypes="caac" />
        <path
           style="opacity:1;fill:none;fill-opacity:1;fill-rule:nonzero;stroke:#000000;stroke-width:0.25;stroke-linecap:round;stroke-linejoin:round;stroke-opacity:1"
           d="m 251.59325,135.60011 c 0,0 3.95324,-3.59823 4.67069,-6.04013 0.64269,-2.18745 -0.56979,-4.53423 -0.59225,-6.81403 -0.0207,-2.10314 0.69021,-4.20945 0.42241,-6.29558 -0.12796,-0.99681 -0.95512,-2.85969 -0.95512,-2.85969"
           id="path114871"
           sodipodi:nodetypes="caaac" />
      </g>
    </g>
  </g>
</svg>
