<?xml version="1.0" encoding="UTF-8" standalone="no"?>
<!-- Created with Inkscape (http://www.inkscape.org/) -->

<svg
   width="14.50588mm"
   height="46.35527mm"
   viewBox="0 0 14.50588 46.35527"
   version="1.1"
   id="svg5"
   inkscape:version="1.2.2 (b0a8486541, 2022-12-01)"
   sodipodi:docname="fire_mid_0.svg"
   xmlns:inkscape="http://www.inkscape.org/namespaces/inkscape"
   xmlns:sodipodi="http://sodipodi.sourceforge.net/DTD/sodipodi-0.dtd"
   xmlns="http://www.w3.org/2000/svg"
   xmlns:svg="http://www.w3.org/2000/svg">
  <sodipodi:namedview
     id="namedview7"
     pagecolor="#4d4d4d"
     bordercolor="#666666"
     borderopacity="1.0"
     inkscape:pageshadow="2"
     inkscape:pageopacity="0"
     inkscape:pagecheckerboard="false"
     inkscape:document-units="mm"
     showgrid="false"
     inkscape:zoom="1.6000176"
     inkscape:cx="-70.936721"
     inkscape:cy="-16.874815"
     inkscape:window-width="1920"
     inkscape:window-height="1080"
     inkscape:window-x="0"
     inkscape:window-y="0"
     inkscape:window-maximized="1"
     inkscape:current-layer="layer1"
     inkscape:showpageshadow="2"
     inkscape:deskcolor="#4d4d4d" />
  <defs
     id="defs2" />
  <g
     inkscape:label="Layer 1"
     inkscape:groupmode="layer"
     id="layer1"
     transform="translate(15.266748,-109.23395)">
    <g
       id="g166920"
       transform="translate(-233.47975,-67.146562)">
      <g
         id="g109022"
         transform="rotate(-7.1112107,21.071305,489.63822)">
        <path
           style="fill:#eba147;fill-opacity:1;fill-rule:nonzero;stroke:#000000;stroke-width:0.25;stroke-linecap:round;stroke-linejoin:round;stroke-opacity:1"
           d="m 252.41619,247.47394 c -2.47966,-4.28149 -1.31038,-10.13521 0.21606,-14.84158 1.09359,-3.37178 3.26497,-6.46957 6.11547,-8.69969 1.8508,-1.66717 3.34388,-4.16983 2.70227,-6.74507 -0.39069,-3.26775 -1.08237,-6.73167 -0.20517,-9.91967 0.24275,-0.88218 1.12516,-4.6789 1.45235,-2.3269 1.23449,5.84195 5.13767,11.70072 4.79036,17.85412 -0.22235,3.93937 -1.97042,7.84687 -4.33332,11.00958 -2.8438,3.99336 -3.13971,9.24239 -2.34388,13.94256 -0.18064,1.89981 -2.47257,2.17715 -3.98544,2.17152 -1.6804,-0.006 -3.56652,-0.99073 -4.4087,-2.44487 z"
           id="path53214"
           sodipodi:nodetypes="aaaaacaaaaa" />
        <path
           style="fill:none;fill-opacity:1;fill-rule:nonzero;stroke:#000000;stroke-width:0.25;stroke-linecap:round;stroke-linejoin:round;stroke-opacity:1"
           d="m 253.92745,248.99914 c 0,0 -1.65697,-3.6874 -1.85721,-5.66428 -0.30167,-2.97827 0.19009,-6.04799 1.02997,-8.92126 0.56297,-1.92594 1.48603,-3.76811 2.63906,-5.41027 1.00569,-1.43231 2.50411,-2.4506 3.65683,-3.76747 1.15139,-1.31535 2.74527,-2.44387 3.24657,-4.11855 0.21378,-0.71417 -0.19177,-2.22819 -0.19177,-2.22819"
           id="path64496"
           sodipodi:nodetypes="caaaaac" />
        <path
           style="fill:none;fill-opacity:1;fill-rule:nonzero;stroke:#000000;stroke-width:0.25;stroke-linecap:round;stroke-linejoin:round;stroke-opacity:1"
           d="m 255.97292,249.668 c 0,0 -1.62281,-3.72262 -1.7481,-5.70883 -0.19912,-3.15658 0.45612,-6.40745 1.61605,-9.34994 1.04567,-2.65263 3.0223,-4.84059 4.68664,-7.15573 1.1304,-1.57241 2.87437,-2.76714 3.59288,-4.56547 0.55645,-1.39272 0.6134,-2.99242 0.42,-4.47967 -0.16014,-1.23148 -1.28487,-3.49697 -1.28487,-3.49697"
           id="path64498"
           sodipodi:nodetypes="caaaaac" />
        <path
           style="fill:none;fill-opacity:1;fill-rule:nonzero;stroke:#000000;stroke-width:0.25;stroke-linecap:round;stroke-linejoin:round;stroke-opacity:1"
           d="m 257.84524,249.7492 c 0,0 -1.1713,-5.46871 -1.14247,-8.24224 0.0228,-2.19243 0.28685,-4.43542 1.03833,-6.49516 0.66049,-1.81036 1.85297,-3.39064 2.97805,-4.9552 1.06682,-1.48353 2.65367,-2.58322 3.55542,-4.1725 0.78659,-1.38631 1.27628,-2.95615 1.5336,-4.52916 0.12244,-0.74849 -0.005,-2.27532 -0.005,-2.27532"
           id="path64500"
           sodipodi:nodetypes="caaaaac" />
        <path
           style="fill:none;fill-opacity:1;fill-rule:nonzero;stroke:#000000;stroke-width:0.25;stroke-linecap:round;stroke-linejoin:round;stroke-opacity:1"
           d="m 260.0066,248.78987 c 0,0 -0.7313,-4.94908 -0.53867,-7.42214 0.23072,-2.96207 0.7923,-5.97436 2.01393,-8.68263 0.90739,-2.01162 2.92436,-3.38397 3.8444,-5.38983 0.83094,-1.8116 1.35352,-3.81531 1.42428,-5.80713 0.067,-1.88743 -0.95573,-5.58466 -0.95573,-5.58466"
           id="path64502"
           sodipodi:nodetypes="caaaac" />
        <path
           style="fill:none;fill-opacity:1;fill-rule:nonzero;stroke:#000000;stroke-width:0.25;stroke-linecap:round;stroke-linejoin:round;stroke-opacity:1"
           d="m 254.69191,249.39213 c 0,0 -1.58808,-4.11677 -1.6842,-6.28286 -0.0807,-1.81935 0.6026,-3.59235 0.9416,-5.38166 0.33191,-1.75191 0.32083,-3.6229 1.06936,-5.24125 0.69657,-1.50602 3.07235,-3.91667 3.07235,-3.91667"
           id="path64504"
           sodipodi:nodetypes="caaac" />
        <path
           style="fill:none;fill-opacity:1;fill-rule:nonzero;stroke:#000000;stroke-width:0.25;stroke-linecap:round;stroke-linejoin:round;stroke-opacity:1"
           d="m 256.82993,249.71301 c -0.0217,-0.27839 -1.00946,-5.22978 -1.0097,-7.8769 -1.7e-4,-1.89929 0.25183,-3.81195 0.72345,-5.65176 0.25072,-0.97809 1.10826,-2.81914 1.10826,-2.81914"
           id="path64506"
           sodipodi:nodetypes="caac" />
        <path
           style="fill:none;fill-opacity:1;fill-rule:nonzero;stroke:#000000;stroke-width:0.25;stroke-linecap:round;stroke-linejoin:round;stroke-opacity:1"
           d="m 259.13342,249.09452 c -0.003,-0.2416 -0.97093,-4.28459 -0.97848,-6.46368 -0.008,-2.32896 0.44399,-4.65315 0.99787,-6.9153 0.32548,-1.32934 0.63828,-2.71049 1.35737,-3.87497 0.66636,-1.07909 1.86406,-1.7353 2.64718,-2.73289 0.49151,-0.62612 1.2717,-2.02121 1.2717,-2.02121"
           id="path64508"
           sodipodi:nodetypes="caaaac" />
      </g>
    </g>
  </g>
</svg>
