<?xml version="1.0" encoding="UTF-8" standalone="no"?>
<!-- Created with Inkscape (http://www.inkscape.org/) -->

<svg
   width="34.697361mm"
   height="14.931397mm"
   viewBox="0 0 34.697361 14.931397"
   version="1.1"
   id="svg5"
   inkscape:version="1.2.2 (b0a8486541, 2022-12-01)"
   sodipodi:docname="hand_point.svg"
   xmlns:inkscape="http://www.inkscape.org/namespaces/inkscape"
   xmlns:sodipodi="http://sodipodi.sourceforge.net/DTD/sodipodi-0.dtd"
   xmlns="http://www.w3.org/2000/svg"
   xmlns:svg="http://www.w3.org/2000/svg">
  <sodipodi:namedview
     id="namedview7"
     pagecolor="#4d4d4d"
     bordercolor="#666666"
     borderopacity="1.0"
     inkscape:pageshadow="2"
     inkscape:pageopacity="0"
     inkscape:pagecheckerboard="false"
     inkscape:document-units="mm"
     showgrid="false"
     inkscape:zoom="0.2000022"
     inkscape:cx="-7.4999176"
     inkscape:cy="204.99775"
     inkscape:window-width="956"
     inkscape:window-height="1037"
     inkscape:window-x="960"
     inkscape:window-y="0"
     inkscape:window-maximized="1"
     inkscape:current-layer="layer1"
     inkscape:showpageshadow="2"
     inkscape:deskcolor="#4d4d4d" />
  <defs
     id="defs2" />
  <g
     inkscape:label="Layer 1"
     inkscape:groupmode="layer"
     id="layer1"
     transform="translate(41.675092,-96.906373)">
    <g
       id="g553647"
       transform="matrix(0.82372976,0,0,0.82273183,94.564289,86.553768)"
       style="stroke-width:1.21472">
      <path
         style="opacity:1;fill:#b6c9c9;fill-opacity:1;stroke:#000000;stroke-width:0.303682;stroke-linecap:round;stroke-linejoin:round;stroke-opacity:1"
         d="m -158.17036,15.098774 c 0,0 3.67317,-0.373048 5.38105,0.178303 0.6246,0.201639 1.31726,0.52327 1.6346,1.097797 1.58574,2.870908 0.46222,6.559389 0.29418,9.834821 -0.0327,0.637272 -0.0934,1.279671 -0.25275,1.89757 -0.16533,0.641181 -0.24266,1.394173 -0.72258,1.850379 -0.43342,0.412006 -1.10803,0.49783 -1.702,0.567124 -2.48614,0.290037 -7.47905,-0.670164 -7.47905,-0.670164"
         id="path524556"
         sodipodi:nodetypes="caaaaaac" />
      <g
         id="g519895"
         transform="translate(-5.8899518,-23.067958)"
         style="stroke-width:1.21472">
        <path
           style="opacity:1;fill:#caadae;fill-opacity:1;stroke:#000000;stroke-width:0.303682;stroke-linecap:round;stroke-linejoin:round;stroke-opacity:1"
           d="m -133.63877,49.475131 c -1.93258,0.355516 -3.75836,1.19341 -5.69664,1.516428 -1.41856,0.236406 -2.86804,0.385191 -4.30376,0.302215 -1.00471,-0.05807 -2.27995,0.178023 -2.96733,-0.557043 -1.57097,-1.679945 -1.18404,-4.581264 -0.81606,-6.851669 0.23392,-1.44329 0.80621,-2.963502 1.86794,-3.96876 1.45967,-1.382034 3.69194,-1.599755 5.58834,-2.266326 1.18465,-0.416395 2.35497,-1.14443 3.609,-1.079844 2.87844,0.148247 5.99694,1.230074 7.98543,3.316523 0.72584,0.7616 1.19223,1.924799 1.06915,2.96966 -0.29818,2.531321 -2.01437,5.069464 -4.19103,6.395603 -0.61391,0.374026 -1.43803,0.09315 -2.14504,0.223213 z"
           id="path486462"
           sodipodi:nodetypes="aaaaaaaaaaaa" />
        <g
           id="g496473"
           style="stroke-width:1.21472">
          <path
             style="opacity:1;fill:#caadae;fill-opacity:1;stroke:#000000;stroke-width:0.303682;stroke-linecap:round;stroke-linejoin:round;stroke-opacity:1"
             d="m -134.69999,44.778486 c -0.4037,0.03833 -0.84308,0.12904 -1.15159,0.392229 -0.199,0.169771 -0.3668,0.432118 -0.36688,0.693698 -2.2e-4,0.738866 0.65879,1.324216 1.03515,1.960044 0.42766,0.722495 0.71848,1.594319 1.38668,2.102649 0.64983,0.494358 1.52373,0.628742 2.33056,0.754025 0.53368,0.08287 1.13729,0.234018 1.6202,-0.0078 0.45468,-0.22768 0.74452,-0.739707 0.9197,-1.217078 0.20246,-0.551732 0.35953,-1.233426 0.0992,-1.760329 -0.69359,-1.40379 -2.42458,-2.076482 -3.88564,-2.639512 -0.62417,-0.240527 -1.32147,-0.341153 -1.98738,-0.277926 z"
             id="path486460"
             sodipodi:nodetypes="aaaaaaaaaaa" />
          <path
             style="opacity:1;fill:#caadae;fill-opacity:1;stroke:#000000;stroke-width:0.303682;stroke-linecap:round;stroke-linejoin:round;stroke-opacity:1"
             d="m -135.58065,49.965571 -0.56053,-1.24392"
             id="path491817" />
          <path
             style="opacity:1;fill:#caadae;fill-opacity:1;stroke:#000000;stroke-width:0.303682;stroke-linecap:round;stroke-linejoin:round;stroke-opacity:1"
             d="m -134.58821,48.941797 1.23608,-1.432477"
             id="path491821"
             sodipodi:nodetypes="cc" />
          <path
             style="opacity:1;fill:#caadae;fill-opacity:1;stroke:#000000;stroke-width:0.303682;stroke-linecap:round;stroke-linejoin:round;stroke-opacity:1"
             d="m -134.20003,49.529902 2.0932,-2.247431"
             id="path491823" />
          <path
             style="opacity:1;fill:#caadae;fill-opacity:1;stroke:#000000;stroke-width:0.303682;stroke-linecap:round;stroke-linejoin:round;stroke-opacity:1"
             d="m -133.17736,50.276803 0.72322,-0.820776"
             id="path491825"
             sodipodi:nodetypes="cc" />
          <path
             style="opacity:1;fill:#caadae;fill-opacity:1;stroke:#000000;stroke-width:0.303682;stroke-linecap:round;stroke-linejoin:round;stroke-opacity:1"
             d="m -132.37477,50.520485 0.88104,-1.268567"
             id="path491827"
             sodipodi:nodetypes="cc" />
          <path
             style="opacity:1;fill:#caadae;fill-opacity:1;stroke:#000000;stroke-width:0.303682;stroke-linecap:round;stroke-linejoin:round;stroke-opacity:1"
             d="m -133.79663,49.927106 1.88234,-1.839881"
             id="path491829" />
          <path
             style="opacity:1;fill:#caadae;fill-opacity:1;stroke:#000000;stroke-width:0.303682;stroke-linecap:round;stroke-linejoin:round;stroke-opacity:1"
             d="m -131.69099,50.645928 0.48552,-0.734544"
             id="path491831"
             sodipodi:nodetypes="cc" />
          <path
             style="opacity:1;fill:#caadae;fill-opacity:1;stroke:#000000;stroke-width:0.303682;stroke-linecap:round;stroke-linejoin:round;stroke-opacity:1"
             d="m -131.00695,50.756457 0.48552,-0.734544"
             id="path491833"
             sodipodi:nodetypes="cc" />
          <path
             style="opacity:1;fill:#caadae;fill-opacity:1;stroke:#000000;stroke-width:0.303682;stroke-linecap:round;stroke-linejoin:round;stroke-opacity:1"
             d="m -134.84683,48.451591 0.48552,-0.734544"
             id="path491835"
             sodipodi:nodetypes="cc" />
        </g>
        <path
           style="opacity:1;fill:#caadae;fill-opacity:1;stroke:#000000;stroke-width:0.303682;stroke-linecap:round;stroke-linejoin:round;stroke-opacity:1"
           d="m -133.96994,43.130447 c -0.33039,0.191325 -0.74552,0.418397 -0.82827,0.791114 -0.1,0.45031 0.24471,0.906762 0.50219,1.289487 0.56077,0.833545 1.31682,1.573199 2.18919,2.071423 0.85704,0.489465 1.85905,0.84935 2.84552,0.818404 0.69812,-0.0219 1.46688,-0.223437 1.97349,-0.70426 0.41014,-0.389264 0.61753,-1.001392 0.65278,-1.565751 0.0221,-0.354189 -0.0617,-0.749535 -0.28422,-1.025999 -1.07859,-1.340176 -2.85219,-2.238905 -4.56403,-2.409251 -0.86007,-0.08559 -1.73869,0.301704 -2.48665,0.734833 z"
           id="path486458"
           sodipodi:nodetypes="aaaaaaaaaa" />
        <path
           style="opacity:1;fill:#caadae;fill-opacity:1;stroke:#000000;stroke-width:0.303682;stroke-linecap:round;stroke-linejoin:round;stroke-opacity:1"
           d="m -145.4673,40.452371 c 0,0 5.9921,-3.570635 9.34613,-4.253523 4.34644,-0.884947 8.88509,-0.06302 13.30257,0.337716 1.57702,0.143063 3.38414,-0.155061 4.69314,0.735997 0.32152,0.21886 0.61607,0.618008 0.59089,1.006129 -0.025,0.38587 -0.37504,0.725936 -0.71178,0.916006 -0.85736,0.483926 -1.9512,0.275253 -2.93314,0.346278 -1.40683,0.101758 -2.82405,4.82e-4 -4.23,0.113803 -0.78647,0.06339 -1.55831,0.267915 -2.34586,0.316137 -1.2078,0.07395 -3.62994,-0.04228 -3.62994,-0.04228"
           id="path486452"
           sodipodi:nodetypes="caaaaaaaac" />
        <path
           style="opacity:1;fill:#caadae;fill-opacity:1;stroke:#000000;stroke-width:0.303682;stroke-linecap:round;stroke-linejoin:round;stroke-opacity:1"
           d="m -133.78415,40.800312 c -0.24327,0.424133 -0.71927,0.77509 -0.74539,1.26334 -0.0193,0.360627 0.21158,0.713401 0.44785,0.986533 0.82699,0.956015 1.96831,1.72908 3.19139,2.048386 1.37213,0.358219 2.99693,0.415491 4.24673,-0.254627 0.67074,-0.359639 1.25212,-1.071614 1.37512,-1.822686 0.11147,-0.680702 -0.24978,-1.404429 -0.65427,-1.96315 -0.40141,-0.554463 -1.02359,-0.944769 -1.64805,-1.225126 -1.5795,-0.709125 -3.51105,-1.7758 -5.08568,-1.055931 -0.7022,0.321023 -0.74355,1.353508 -1.1277,2.023261 z"
           id="path486456"
           sodipodi:nodetypes="aaaaaaaaaa" />
        <path
           style="opacity:1;fill:#caadae;fill-opacity:1;stroke:#000000;stroke-width:0.303682;stroke-linecap:round;stroke-linejoin:round;stroke-opacity:1"
           d="m -145.86971,46.215525 c 0,0 4.16969,0.207358 6.04417,-0.553897 1.12202,-0.45567 2.12533,-1.296155 2.82464,-2.28486 0.57155,-0.808077 0.12149,-2.327444 0.99183,-2.798791 0.40749,-0.220684 0.88961,0.286147 1.3512,0.327136 0.34875,0.03097 0.72608,-0.200015 1.04845,-0.06341 0.27208,0.115297 0.34098,0.49523 0.57702,0.673017 0.43102,0.324645 0.94182,0.57346 1.47208,0.673447 0.79067,0.14909 1.66625,0.171157 2.40998,-0.135848 0.33214,-0.137104 0.61554,-0.41128 0.80567,-0.716177 0.21505,-0.344856 0.52327,-0.819158 0.32644,-1.174731 -0.39865,-0.720166 -1.64411,-0.309705 -2.36727,-0.702885 -0.88494,-0.481136 -1.36714,-1.576049 -2.29685,-1.963654 -0.54562,-0.227473 -1.185,-0.04491 -1.76736,-0.146391 -0.60931,-0.106182 -1.17346,-0.481549 -1.79195,-0.481353 -0.83972,2.67e-4 -1.65501,0.337822 -2.43249,0.655072 -1.88733,0.770124 -5.33167,2.994871 -5.33167,2.994871"
           id="path486454"
           sodipodi:nodetypes="caaaaaaaaaaaaaaac" />
        <g
           id="g491663"
           style="stroke-width:1.21472">
          <path
             style="opacity:1;fill:#caadae;fill-opacity:1;stroke:#000000;stroke-width:0.303682;stroke-linecap:round;stroke-linejoin:round;stroke-opacity:1"
             d="m -144.87483,46.240153 -1.78392,-2.001462"
             id="path491607" />
          <path
             style="opacity:1;fill:#caadae;fill-opacity:1;stroke:#000000;stroke-width:0.303682;stroke-linecap:round;stroke-linejoin:round;stroke-opacity:1"
             d="M -144.10137,46.237534 -145.70615,44.3605"
             id="path491609" />
          <path
             style="opacity:1;fill:#caadae;fill-opacity:1;stroke:#000000;stroke-width:0.303682;stroke-linecap:round;stroke-linejoin:round;stroke-opacity:1"
             d="m -143.42554,46.219524 -2.56319,-3.645569"
             id="path491611" />
          <path
             style="opacity:1;fill:#caadae;fill-opacity:1;stroke:#000000;stroke-width:0.303682;stroke-linecap:round;stroke-linejoin:round;stroke-opacity:1"
             d="m -142.64817,46.177685 -2.28374,-2.980878"
             id="path491613" />
          <path
             style="opacity:1;fill:#caadae;fill-opacity:1;stroke:#000000;stroke-width:0.303682;stroke-linecap:round;stroke-linejoin:round;stroke-opacity:1"
             d="m -141.99751,46.121196 -1.53269,-2.042568"
             id="path491615" />
          <path
             style="opacity:1;fill:#caadae;fill-opacity:1;stroke:#000000;stroke-width:0.303682;stroke-linecap:round;stroke-linejoin:round;stroke-opacity:1"
             d="m -141.37316,46.042864 -2.34027,-3.202999"
             id="path491617"
             sodipodi:nodetypes="cc" />
          <path
             style="opacity:1;fill:#caadae;fill-opacity:1;stroke:#000000;stroke-width:0.303682;stroke-linecap:round;stroke-linejoin:round;stroke-opacity:1"
             d="m -140.65601,45.911379 -3.02632,-3.916665"
             id="path491619" />
          <path
             style="opacity:1;fill:#caadae;fill-opacity:1;stroke:#000000;stroke-width:0.303682;stroke-linecap:round;stroke-linejoin:round;stroke-opacity:1"
             d="m -140.05778,45.747297 -2.15707,-2.80266"
             id="path491621"
             sodipodi:nodetypes="cc" />
          <path
             style="opacity:1;fill:#caadae;fill-opacity:1;stroke:#000000;stroke-width:0.303682;stroke-linecap:round;stroke-linejoin:round;stroke-opacity:1"
             d="m -139.52017,45.526824 -1.3213,-1.613947"
             id="path491625"
             sodipodi:nodetypes="cc" />
          <path
             style="opacity:1;fill:#caadae;fill-opacity:1;stroke:#000000;stroke-width:0.303682;stroke-linecap:round;stroke-linejoin:round;stroke-opacity:1"
             d="m -138.53885,44.938618 -3.00255,-3.33788"
             id="path491627" />
          <path
             style="opacity:1;fill:#caadae;fill-opacity:1;stroke:#000000;stroke-width:0.303682;stroke-linecap:round;stroke-linejoin:round;stroke-opacity:1"
             d="m -138.10679,44.594755 -1.66024,-1.754214"
             id="path491629" />
          <path
             style="opacity:1;fill:#caadae;fill-opacity:1;stroke:#000000;stroke-width:0.303682;stroke-linecap:round;stroke-linejoin:round;stroke-opacity:1"
             d="m -136.58867,41.646944 -1.03481,-1.156507"
             id="path491631" />
          <path
             style="opacity:1;fill:#caadae;fill-opacity:1;stroke:#000000;stroke-width:0.303682;stroke-linecap:round;stroke-linejoin:round;stroke-opacity:1"
             d="m -138.99166,45.240828 -1.3213,-1.613947"
             id="path491633"
             sodipodi:nodetypes="cc" />
          <path
             style="opacity:1;fill:#caadae;fill-opacity:1;stroke:#000000;stroke-width:0.303682;stroke-linecap:round;stroke-linejoin:round;stroke-opacity:1"
             d="m -137.74471,44.257842 -2.10653,-2.292681"
             id="path491635" />
          <path
             style="opacity:1;fill:#caadae;fill-opacity:1;stroke:#000000;stroke-width:0.303682;stroke-linecap:round;stroke-linejoin:round;stroke-opacity:1"
             d="m -137.37373,43.856146 -1.09662,-1.039911"
             id="path491637" />
          <path
             style="opacity:1;fill:#caadae;fill-opacity:1;stroke:#000000;stroke-width:0.303682;stroke-linecap:round;stroke-linejoin:round;stroke-opacity:1"
             d="m -137.0009,43.376768 -0.63982,-0.464055"
             id="path491639" />
          <path
             style="opacity:1;fill:#caadae;fill-opacity:1;stroke:#000000;stroke-width:0.303682;stroke-linecap:round;stroke-linejoin:round;stroke-opacity:1"
             d="m -136.79044,42.925037 -1.31598,-0.963572"
             id="path491641" />
          <path
             style="opacity:1;fill:#caadae;fill-opacity:1;stroke:#000000;stroke-width:0.303682;stroke-linecap:round;stroke-linejoin:round;stroke-opacity:1"
             d="m -136.66206,42.233051 -0.68248,-0.545644"
             id="path491643" />
        </g>
        <g
           id="g491695"
           style="stroke-width:1.21472">
          <path
             style="opacity:1;fill:#caadae;fill-opacity:1;stroke:#000000;stroke-width:0.303682;stroke-linecap:round;stroke-linejoin:round;stroke-opacity:1"
             d="m -130.08198,42.274731 1.00856,-0.789284"
             id="path491665" />
          <path
             style="opacity:1;fill:#caadae;fill-opacity:1;stroke:#000000;stroke-width:0.303682;stroke-linecap:round;stroke-linejoin:round;stroke-opacity:1"
             d="m -130.73287,42.288246 0.57434,-0.513683"
             id="path491667" />
          <path
             style="opacity:1;fill:#caadae;fill-opacity:1;stroke:#000000;stroke-width:0.303682;stroke-linecap:round;stroke-linejoin:round;stroke-opacity:1"
             d="m -131.56032,42.188168 1.28053,-1.119212"
             id="path491669" />
          <path
             style="opacity:1;fill:#caadae;fill-opacity:1;stroke:#000000;stroke-width:0.303682;stroke-linecap:round;stroke-linejoin:round;stroke-opacity:1"
             d="m -132.04547,42.054656 0.64572,-0.629973"
             id="path491671" />
          <path
             style="opacity:1;fill:#caadae;fill-opacity:1;stroke:#000000;stroke-width:0.303682;stroke-linecap:round;stroke-linejoin:round;stroke-opacity:1"
             d="m -132.59523,41.801177 1.21128,-1.15656"
             id="path491673" />
          <path
             style="opacity:1;fill:#caadae;fill-opacity:1;stroke:#000000;stroke-width:0.303682;stroke-linecap:round;stroke-linejoin:round;stroke-opacity:1"
             d="m -133.0324,41.514718 0.68681,-0.660323"
             id="path491675" />
          <path
             style="opacity:1;fill:#caadae;fill-opacity:1;stroke:#000000;stroke-width:0.303682;stroke-linecap:round;stroke-linejoin:round;stroke-opacity:1"
             d="m -133.36165,41.069925 1.14853,-1.039114"
             id="path491677" />
          <path
             style="opacity:1;fill:#caadae;fill-opacity:1;stroke:#000000;stroke-width:0.303682;stroke-linecap:round;stroke-linejoin:round;stroke-opacity:1"
             d="m -133.78415,40.800312 0.53767,-0.521669"
             id="path491679" />
          <path
             style="opacity:1;fill:#caadae;fill-opacity:1;stroke:#000000;stroke-width:0.303682;stroke-linecap:round;stroke-linejoin:round;stroke-opacity:1"
             d="m -134.65787,40.905113 0.49465,-0.536887"
             id="path491681" />
          <path
             style="opacity:1;fill:#caadae;fill-opacity:1;stroke:#000000;stroke-width:0.303682;stroke-linecap:round;stroke-linejoin:round;stroke-opacity:1"
             d="m -135.14227,40.743818 0.98236,-1.116187"
             id="path491683" />
        </g>
        <path
           style="opacity:1;fill:#caadae;fill-opacity:1;stroke:#000000;stroke-width:0.303682;stroke-linecap:round;stroke-linejoin:round;stroke-opacity:1"
           d="m -128.13858,40.99097 c 0,0 -1.66476,0.0063 -2.38272,-0.353163 -0.39767,-0.199093 -0.78424,-0.525693 -0.94737,-0.939419 -0.0404,-0.102417 0.0127,-0.330028 0.0127,-0.330028"
           id="path491697"
           sodipodi:nodetypes="caac" />
        <path
           style="opacity:1;fill:#caadae;fill-opacity:1;stroke:#000000;stroke-width:0.303682;stroke-linecap:round;stroke-linejoin:round;stroke-opacity:1"
           d="m -143.12678,39.963585 0.23991,-0.948131"
           id="path491699" />
        <path
           style="opacity:1;fill:#caadae;fill-opacity:1;stroke:#000000;stroke-width:0.303682;stroke-linecap:round;stroke-linejoin:round;stroke-opacity:1"
           d="m -142.22726,39.415596 0.30911,-0.90197"
           id="path491701" />
        <path
           style="opacity:1;fill:#caadae;fill-opacity:1;stroke:#000000;stroke-width:0.303682;stroke-linecap:round;stroke-linejoin:round;stroke-opacity:1"
           d="m -141.0762,38.743121 0.11582,-0.703689"
           id="path491703" />
        <path
           style="opacity:1;fill:#caadae;fill-opacity:1;stroke:#000000;stroke-width:0.303682;stroke-linecap:round;stroke-linejoin:round;stroke-opacity:1"
           d="m -140.5137,38.429243 0.15401,-0.648298"
           id="path491705" />
        <path
           style="opacity:1;fill:#caadae;fill-opacity:1;stroke:#000000;stroke-width:0.303682;stroke-linecap:round;stroke-linejoin:round;stroke-opacity:1"
           d="m -141.55793,39.020161 0.0819,-0.728335"
           id="path491707" />
        <path
           style="opacity:1;fill:#caadae;fill-opacity:1;stroke:#000000;stroke-width:0.303682;stroke-linecap:round;stroke-linejoin:round;stroke-opacity:1"
           d="m -143.49872,40.195379 0.0389,-0.873482"
           id="path491709" />
        <path
           style="opacity:1;fill:#caadae;fill-opacity:1;stroke:#000000;stroke-width:0.303682;stroke-linecap:round;stroke-linejoin:round;stroke-opacity:1"
           d="m -144.00582,40.51707 0.0839,-0.943063"
           id="path491711" />
        <path
           style="opacity:1;fill:#caadae;fill-opacity:1;stroke:#000000;stroke-width:0.303682;stroke-linecap:round;stroke-linejoin:round;stroke-opacity:1"
           d="m -139.85366,38.077659 0.034,-0.56973"
           id="path491713" />
        <path
           style="opacity:1;fill:#caadae;fill-opacity:1;stroke:#000000;stroke-width:0.303682;stroke-linecap:round;stroke-linejoin:round;stroke-opacity:1"
           d="m -139.28462,37.794417 0.0467,-0.541014"
           id="path491715" />
        <path
           style="opacity:1;fill:#caadae;fill-opacity:1;stroke:#000000;stroke-width:0.303682;stroke-linecap:round;stroke-linejoin:round;stroke-opacity:1"
           d="m -138.67415,37.522198 0.0827,-0.535911"
           id="path491717" />
        <path
           style="opacity:1;fill:#caadae;fill-opacity:1;stroke:#000000;stroke-width:0.303682;stroke-linecap:round;stroke-linejoin:round;stroke-opacity:1"
           d="m -138.0736,37.281996 0.0281,-0.506058"
           id="path491719" />
        <path
           style="opacity:1;fill:#caadae;fill-opacity:1;stroke:#000000;stroke-width:0.303682;stroke-linecap:round;stroke-linejoin:round;stroke-opacity:1"
           d="m -137.42392,37.058558 0.0363,-0.513543"
           id="path491721" />
        <path
           style="opacity:1;fill:#caadae;fill-opacity:1;stroke:#000000;stroke-width:0.303682;stroke-linecap:round;stroke-linejoin:round;stroke-opacity:1"
           d="m -136.84853,36.921808 0.13932,-0.581858"
           id="path491723" />
        <path
           style="opacity:1;fill:#caadae;fill-opacity:1;stroke:#000000;stroke-width:0.303682;stroke-linecap:round;stroke-linejoin:round;stroke-opacity:1"
           d="m -136.24166,36.867127 0.12049,-0.668279"
           id="path491725" />
        <path
           style="opacity:1;fill:#caadae;fill-opacity:1;stroke:#000000;stroke-width:0.303682;stroke-linecap:round;stroke-linejoin:round;stroke-opacity:1"
           d="m -135.64497,36.966028 0.0428,-0.336037"
           id="path491727"
           sodipodi:nodetypes="cc" />
        <path
           style="opacity:1;fill:#caadae;fill-opacity:1;stroke:#000000;stroke-width:0.303682;stroke-linecap:round;stroke-linejoin:round;stroke-opacity:1"
           d="m -135.14884,37.139317 0.0821,-0.522018"
           id="path491729"
           sodipodi:nodetypes="cc" />
        <path
           style="opacity:1;fill:#caadae;fill-opacity:1;stroke:#000000;stroke-width:0.303682;stroke-linecap:round;stroke-linejoin:round;stroke-opacity:1"
           d="m -134.64804,37.304848 0.0481,-0.341458"
           id="path491731" />
        <path
           style="opacity:1;fill:#caadae;fill-opacity:1;stroke:#000000;stroke-width:0.303682;stroke-linecap:round;stroke-linejoin:round;stroke-opacity:1"
           d="m -134.15184,37.378879 0.11332,-0.84641"
           id="path491733" />
        <path
           style="opacity:1;fill:#caadae;fill-opacity:1;stroke:#000000;stroke-width:0.303682;stroke-linecap:round;stroke-linejoin:round;stroke-opacity:1"
           d="m -133.63522,37.376005 0.0464,-0.380582"
           id="path491735" />
        <path
           style="opacity:1;fill:#caadae;fill-opacity:1;stroke:#000000;stroke-width:0.303682;stroke-linecap:round;stroke-linejoin:round;stroke-opacity:1"
           d="m -133.07223,37.394497 0.0399,-0.668081"
           id="path491737" />
        <path
           style="opacity:1;fill:#caadae;fill-opacity:1;stroke:#000000;stroke-width:0.303682;stroke-linecap:round;stroke-linejoin:round;stroke-opacity:1"
           d="m -132.48206,37.592506 0.11176,-0.67137"
           id="path491739" />
        <path
           style="opacity:1;fill:#caadae;fill-opacity:1;stroke:#000000;stroke-width:0.303682;stroke-linecap:round;stroke-linejoin:round;stroke-opacity:1"
           d="m -131.92978,38.011952 c 0,0 0.0975,-0.602191 0.13855,-0.618476"
           id="path491741" />
        <path
           style="opacity:1;fill:#caadae;fill-opacity:1;stroke:#000000;stroke-width:0.303682;stroke-linecap:round;stroke-linejoin:round;stroke-opacity:1"
           d="m -131.40915,38.560733 0.11981,-0.982038"
           id="path491743" />
        <path
           style="opacity:1;fill:#caadae;fill-opacity:1;stroke:#000000;stroke-width:0.303682;stroke-linecap:round;stroke-linejoin:round;stroke-opacity:1"
           d="m -130.87982,38.535833 0.2914,-1.313402"
           id="path491745" />
        <path
           style="opacity:1;fill:#caadae;fill-opacity:1;stroke:#000000;stroke-width:0.303682;stroke-linecap:round;stroke-linejoin:round;stroke-opacity:1"
           d="m -130.15233,38.71598 0.13323,-1.173758"
           id="path491747" />
        <path
           style="opacity:1;fill:#caadae;fill-opacity:1;stroke:#000000;stroke-width:0.303682;stroke-linecap:round;stroke-linejoin:round;stroke-opacity:1"
           d="m -129.62281,38.904294 0.10293,-0.763587"
           id="path491749" />
        <path
           style="opacity:1;fill:#caadae;fill-opacity:1;stroke:#000000;stroke-width:0.303682;stroke-linecap:round;stroke-linejoin:round;stroke-opacity:1"
           d="m -128.99951,39.167473 0.0689,-1.286487"
           id="path491751" />
        <path
           style="opacity:1;fill:#caadae;fill-opacity:1;stroke:#000000;stroke-width:0.303682;stroke-linecap:round;stroke-linejoin:round;stroke-opacity:1"
           d="m -128.17746,39.550737 -7.9e-4,-1.297937"
           id="path491753" />
        <path
           style="opacity:1;fill:#caadae;fill-opacity:1;stroke:#000000;stroke-width:0.303682;stroke-linecap:round;stroke-linejoin:round;stroke-opacity:1"
           d="m -127.57077,39.832982 0.0296,-0.907399"
           id="path491755" />
        <path
           style="opacity:1;fill:#caadae;fill-opacity:1;stroke:#000000;stroke-width:0.303682;stroke-linecap:round;stroke-linejoin:round;stroke-opacity:1"
           d="m -126.97943,39.882755 0.0105,-1.159513"
           id="path491757" />
        <path
           style="opacity:1;fill:#caadae;fill-opacity:1;stroke:#000000;stroke-width:0.303682;stroke-linecap:round;stroke-linejoin:round;stroke-opacity:1"
           d="m -126.44706,39.795977 0.0265,-0.453213"
           id="path491759" />
        <path
           style="opacity:1;fill:#caadae;fill-opacity:1;stroke:#000000;stroke-width:0.303682;stroke-linecap:round;stroke-linejoin:round;stroke-opacity:1"
           d="m -125.77544,39.69347 0.0199,-0.903439"
           id="path491761" />
        <path
           style="opacity:1;fill:#caadae;fill-opacity:1;stroke:#000000;stroke-width:0.303682;stroke-linecap:round;stroke-linejoin:round;stroke-opacity:1"
           d="m -124.83797,39.619518 0.012,-0.76038"
           id="path491763" />
        <path
           style="opacity:1;fill:#caadae;fill-opacity:1;stroke:#000000;stroke-width:0.303682;stroke-linecap:round;stroke-linejoin:round;stroke-opacity:1"
           d="m -125.40949,39.654777 -0.006,-0.460933"
           id="path491765" />
        <path
           style="opacity:1;fill:#caadae;fill-opacity:1;stroke:#000000;stroke-width:0.303682;stroke-linecap:round;stroke-linejoin:round;stroke-opacity:1"
           d="m -124.16445,39.599818 c 0.0478,-0.792037 0.0686,-1.354394 0.088,-1.904496"
           id="path491767"
           sodipodi:nodetypes="cc" />
        <path
           style="opacity:1;fill:#caadae;fill-opacity:1;stroke:#000000;stroke-width:0.303682;stroke-linecap:round;stroke-linejoin:round;stroke-opacity:1"
           d="m -123.45744,39.593949 -0.061,-0.791302"
           id="path491769" />
        <path
           style="opacity:1;fill:#caadae;fill-opacity:1;stroke:#000000;stroke-width:0.303682;stroke-linecap:round;stroke-linejoin:round;stroke-opacity:1"
           d="m -122.76736,39.59183 -0.0324,-0.412089"
           id="path491771" />
        <path
           style="opacity:1;fill:#caadae;fill-opacity:1;stroke:#000000;stroke-width:0.303682;stroke-linecap:round;stroke-linejoin:round;stroke-opacity:1"
           d="m -122.10664,39.58304 c 0.0646,-0.393202 0.16499,-0.793662 0.0109,-1.1426"
           id="path491773"
           sodipodi:nodetypes="cc" />
        <path
           style="opacity:1;fill:#caadae;fill-opacity:1;stroke:#000000;stroke-width:0.303682;stroke-linecap:round;stroke-linejoin:round;stroke-opacity:1"
           d="m -121.17949,39.540974 -0.0238,-0.629438"
           id="path491775" />
        <path
           style="opacity:1;fill:#caadae;fill-opacity:1;stroke:#000000;stroke-width:0.303682;stroke-linecap:round;stroke-linejoin:round;stroke-opacity:1"
           d="m -120.63715,39.524131 -0.0527,-0.714899"
           id="path491777" />
        <path
           style="opacity:1;fill:#caadae;fill-opacity:1;stroke:#000000;stroke-width:0.303682;stroke-linecap:round;stroke-linejoin:round;stroke-opacity:1"
           d="m -121.61139,39.566268 -0.0249,-0.461052"
           id="path491779" />
        <path
           style="opacity:1;fill:#caadae;fill-opacity:1;stroke:#000000;stroke-width:0.303682;stroke-linecap:round;stroke-linejoin:round;stroke-opacity:1"
           d="m -119.99087,39.527814 -0.0828,-1.137656"
           id="path491781" />
        <path
           style="opacity:1;fill:#caadae;fill-opacity:1;stroke:#000000;stroke-width:0.303682;stroke-linecap:round;stroke-linejoin:round;stroke-opacity:1"
           d="m -119.41963,39.509481 -0.0723,-0.764358"
           id="path491783" />
        <path
           style="opacity:1;fill:#caadae;fill-opacity:1;stroke:#000000;stroke-width:0.303682;stroke-linecap:round;stroke-linejoin:round;stroke-opacity:1"
           d="m -118.91258,39.439663 -0.0649,-0.529148"
           id="path491785" />
        <path
           style="opacity:1;fill:#caadae;fill-opacity:1;stroke:#000000;stroke-width:0.303682;stroke-linecap:round;stroke-linejoin:round;stroke-opacity:1"
           d="m -118.24635,39.194696 -0.0223,-0.766591"
           id="path491787" />
        <path
           style="opacity:1;fill:#caadae;fill-opacity:1;stroke:#000000;stroke-width:0.303682;stroke-linecap:round;stroke-linejoin:round;stroke-opacity:1"
           d="m -118.53059,39.327948 -0.0855,-0.596969"
           id="path491789" />
        <path
           style="opacity:1;fill:#caadae;fill-opacity:1;stroke:#000000;stroke-width:0.303682;stroke-linecap:round;stroke-linejoin:round;stroke-opacity:1"
           d="m -117.803,38.84385 -0.0662,-0.552368"
           id="path491791" />
        <path
           style="opacity:1;fill:#caadae;fill-opacity:1;stroke:#000000;stroke-width:0.303682;stroke-linecap:round;stroke-linejoin:round;stroke-opacity:1"
           d="m -144.76703,51.286582 -2.18354,-3.509965"
           id="path491793" />
        <path
           style="opacity:1;fill:#caadae;fill-opacity:1;stroke:#000000;stroke-width:0.303682;stroke-linecap:round;stroke-linejoin:round;stroke-opacity:1"
           d="m -145.47688,51.2449 -1.16337,-1.646005"
           id="path491795" />
        <path
           style="opacity:1;fill:#caadae;fill-opacity:1;stroke:#000000;stroke-width:0.303682;stroke-linecap:round;stroke-linejoin:round;stroke-opacity:1"
           d="m -144.16524,51.283418 -0.75536,-1.29422"
           id="path491797" />
        <path
           style="opacity:1;fill:#caadae;fill-opacity:1;stroke:#000000;stroke-width:0.303682;stroke-linecap:round;stroke-linejoin:round;stroke-opacity:1"
           d="m -143.06804,51.314882 -1.74423,-2.417209"
           id="path491799" />
        <path
           style="opacity:1;fill:#caadae;fill-opacity:1;stroke:#000000;stroke-width:0.303682;stroke-linecap:round;stroke-linejoin:round;stroke-opacity:1"
           d="m -142.30124,51.308416 -0.54599,-0.851297"
           id="path491801" />
        <path
           style="opacity:1;fill:#caadae;fill-opacity:1;stroke:#000000;stroke-width:0.303682;stroke-linecap:round;stroke-linejoin:round;stroke-opacity:1"
           d="m -141.55668,51.268228 -1.60951,-2.663507"
           id="path491803" />
        <path
           style="opacity:1;fill:#caadae;fill-opacity:1;stroke:#000000;stroke-width:0.303682;stroke-linecap:round;stroke-linejoin:round;stroke-opacity:1"
           d="m -140.58639,51.172833 -1.42983,-2.292829"
           id="path491805" />
        <path
           style="opacity:1;fill:#caadae;fill-opacity:1;stroke:#000000;stroke-width:0.303682;stroke-linecap:round;stroke-linejoin:round;stroke-opacity:1"
           d="m -139.89665,51.079964 -0.93944,-1.532139"
           id="path491807" />
        <path
           style="opacity:1;fill:#caadae;fill-opacity:1;stroke:#000000;stroke-width:0.303682;stroke-linecap:round;stroke-linejoin:round;stroke-opacity:1"
           d="m -138.97694,50.925937 -1.37925,-2.237084"
           id="path491809" />
        <path
           style="opacity:1;fill:#caadae;fill-opacity:1;stroke:#000000;stroke-width:0.303682;stroke-linecap:round;stroke-linejoin:round;stroke-opacity:1"
           d="m -138.02843,50.703166 -0.65345,-1.290035"
           id="path491811" />
        <path
           style="opacity:1;fill:#caadae;fill-opacity:1;stroke:#000000;stroke-width:0.303682;stroke-linecap:round;stroke-linejoin:round;stroke-opacity:1"
           d="m -137.24708,50.4805 -1.3405,-2.455979"
           id="path491813" />
        <path
           style="opacity:1;fill:#caadae;fill-opacity:1;stroke:#000000;stroke-width:0.303682;stroke-linecap:round;stroke-linejoin:round;stroke-opacity:1"
           d="m -136.28913,50.184225 -1.17467,-1.841206"
           id="path491815" />
        <path
           style="opacity:1;fill:#caadae;fill-opacity:1;stroke:#000000;stroke-width:0.303682;stroke-linecap:round;stroke-linejoin:round;stroke-opacity:1"
           d="m -134.74904,49.728152 -1.86655,-2.543347"
           id="path491819" />
        <path
           style="opacity:1;fill:#caadae;fill-opacity:1;stroke:#000000;stroke-width:0.303682;stroke-linecap:round;stroke-linejoin:round;stroke-opacity:1"
           d="m -131.93696,42.501064 c 0.003,0.269486 -0.33828,0.576804 -0.63113,0.658684 -0.32443,0.09071 -0.69514,-0.07564 -0.97625,-0.261267 -0.23452,-0.154864 -0.46245,-0.387542 -0.52031,-0.663428 -0.0454,-0.216337 0.31189,-0.767114 0.31189,-0.767114"
           id="path501102"
           sodipodi:nodetypes="caasc" />
        <path
           style="opacity:1;fill:#caadae;fill-opacity:1;stroke:#000000;stroke-width:0.303682;stroke-linecap:round;stroke-linejoin:round;stroke-opacity:1"
           d="m -134.37745,44.35913 c 0,0 0.44982,0.805431 0.85171,0.920223 0.27024,0.07719 0.63215,-0.0079 0.81313,-0.222941 0.0788,-0.09358 0.0352,-0.365231 0.0352,-0.365231"
           id="path510381"
           sodipodi:nodetypes="caac" />
        <path
           style="opacity:1;fill:#caadae;fill-opacity:1;stroke:#000000;stroke-width:0.303682;stroke-linecap:round;stroke-linejoin:round;stroke-opacity:1"
           d="m -135.86748,46.029137 c 0,0 0.2354,0.509507 0.45284,0.667793 0.12032,0.08759 0.28023,0.113808 0.42864,0.124915 0.22697,0.01699 0.47512,0.01436 0.67669,-0.09134 0.11738,-0.06155 0.26783,-0.29389 0.26783,-0.29389"
           id="path510383"
           sodipodi:nodetypes="caaac" />
        <path
           style="opacity:1;fill:#caadae;fill-opacity:1;stroke:#000000;stroke-width:0.303682;stroke-linecap:round;stroke-linejoin:round;stroke-opacity:1"
           d="m -132.47149,44.337687 0.47026,-0.563168"
           id="path510385" />
        <path
           style="opacity:1;fill:#caadae;fill-opacity:1;stroke:#000000;stroke-width:0.303682;stroke-linecap:round;stroke-linejoin:round;stroke-opacity:1"
           d="m -131.74503,44.721845 0.48595,-0.601391"
           id="path510387"
           sodipodi:nodetypes="cc" />
        <path
           style="opacity:1;fill:#caadae;fill-opacity:1;stroke:#000000;stroke-width:0.303682;stroke-linecap:round;stroke-linejoin:round;stroke-opacity:1"
           d="m -131.21897,44.966229 0.42581,-0.483478"
           id="path510389" />
        <path
           style="opacity:1;fill:#caadae;fill-opacity:1;stroke:#000000;stroke-width:0.303682;stroke-linecap:round;stroke-linejoin:round;stroke-opacity:1"
           d="m -130.74459,45.090162 0.3417,-0.495519"
           id="path510391" />
        <path
           style="opacity:1;fill:#caadae;fill-opacity:1;stroke:#000000;stroke-width:0.303682;stroke-linecap:round;stroke-linejoin:round;stroke-opacity:1"
           d="m -130.20558,45.171437 c 0.0409,-0.06945 0.52356,-0.775703 0.52356,-0.775703"
           id="path510393" />
        <path
           style="opacity:1;fill:#caadae;fill-opacity:1;stroke:#000000;stroke-width:0.303682;stroke-linecap:round;stroke-linejoin:round;stroke-opacity:1"
           d="m -129.56077,45.321165 0.60309,-1.136677"
           id="path510395" />
        <path
           style="opacity:1;fill:#caadae;fill-opacity:1;stroke:#000000;stroke-width:0.303682;stroke-linecap:round;stroke-linejoin:round;stroke-opacity:1"
           d="m -128.96972,45.26631 0.15449,-0.370631"
           id="path510397"
           sodipodi:nodetypes="cc" />
        <path
           style="opacity:1;fill:#caadae;fill-opacity:1;stroke:#000000;stroke-width:0.303682;stroke-linecap:round;stroke-linejoin:round;stroke-opacity:1"
           d="m -128.52239,45.217602 0.28773,-0.878779"
           id="path510399" />
        <path
           style="opacity:1;fill:#caadae;fill-opacity:1;stroke:#000000;stroke-width:0.303682;stroke-linecap:round;stroke-linejoin:round;stroke-opacity:1"
           d="m -128.07893,45.256761 0.13492,-0.481263"
           id="path510401"
           sodipodi:nodetypes="cc" />
        <path
           style="opacity:1;fill:#caadae;fill-opacity:1;stroke:#000000;stroke-width:0.303682;stroke-linecap:round;stroke-linejoin:round;stroke-opacity:1"
           d="m -127.04252,44.987223 0.2814,-1.047032"
           id="path510403"
           sodipodi:nodetypes="cc" />
        <path
           style="opacity:1;fill:#caadae;fill-opacity:1;stroke:#000000;stroke-width:0.303682;stroke-linecap:round;stroke-linejoin:round;stroke-opacity:1"
           d="m -133.28728,46.299179 1.00755,-0.98298"
           id="path510405" />
        <path
           style="opacity:1;fill:#caadae;fill-opacity:1;stroke:#000000;stroke-width:0.303682;stroke-linecap:round;stroke-linejoin:round;stroke-opacity:1"
           d="m -132.50947,46.9408 0.42143,-0.664709"
           id="path510407"
           sodipodi:nodetypes="cc" />
        <path
           style="opacity:1;fill:#caadae;fill-opacity:1;stroke:#000000;stroke-width:0.303682;stroke-linecap:round;stroke-linejoin:round;stroke-opacity:1"
           d="m -132.9169,46.660243 0.28696,-0.442747"
           id="path510409"
           sodipodi:nodetypes="cc" />
        <path
           style="opacity:1;fill:#caadae;fill-opacity:1;stroke:#000000;stroke-width:0.303682;stroke-linecap:round;stroke-linejoin:round;stroke-opacity:1"
           d="m -132.02059,47.172511 0.24022,-0.534859"
           id="path510411"
           sodipodi:nodetypes="cc" />
        <path
           style="opacity:1;fill:#caadae;fill-opacity:1;stroke:#000000;stroke-width:0.303682;stroke-linecap:round;stroke-linejoin:round;stroke-opacity:1"
           d="m -131.53383,47.50285 0.48118,-1.137838"
           id="path510413"
           sodipodi:nodetypes="cc" />
        <path
           style="opacity:1;fill:#caadae;fill-opacity:1;stroke:#000000;stroke-width:0.303682;stroke-linecap:round;stroke-linejoin:round;stroke-opacity:1"
           d="m -130.85707,47.786854 0.19464,-0.537067"
           id="path510415" />
        <path
           style="opacity:1;fill:#caadae;fill-opacity:1;stroke:#000000;stroke-width:0.303682;stroke-linecap:round;stroke-linejoin:round;stroke-opacity:1"
           d="m -130.27133,47.92104 0.28044,-1.080614"
           id="path510417" />
        <path
           style="opacity:1;fill:#caadae;fill-opacity:1;stroke:#000000;stroke-width:0.303682;stroke-linecap:round;stroke-linejoin:round;stroke-opacity:1"
           d="m -129.57337,48.098951 0.0898,-0.714981"
           id="path510419" />
        <path
           style="opacity:1;fill:#caadae;fill-opacity:1;stroke:#000000;stroke-width:0.303682;stroke-linecap:round;stroke-linejoin:round;stroke-opacity:1"
           d="m -129.08531,48.066101 0.004,-0.457391"
           id="path510421" />
        <path
           style="opacity:1;fill:#caadae;fill-opacity:1;stroke:#000000;stroke-width:0.303682;stroke-linecap:round;stroke-linejoin:round;stroke-opacity:1"
           d="m -128.65976,47.978613 0.0102,-0.736563"
           id="path510423" />
        <path
           style="opacity:1;fill:#caadae;fill-opacity:1;stroke:#000000;stroke-width:0.303682;stroke-linecap:round;stroke-linejoin:round;stroke-opacity:1"
           d="m -128.23212,47.879424 0.043,-0.984414"
           id="path510425" />
        <path
           style="opacity:1;fill:#caadae;fill-opacity:1;stroke:#000000;stroke-width:0.303682;stroke-linecap:round;stroke-linejoin:round;stroke-opacity:1"
           d="m -127.57288,47.669157 -0.0447,-0.579856"
           id="path510427" />
        <path
           style="opacity:1;fill:#caadae;fill-opacity:1;stroke:#000000;stroke-width:0.303682;stroke-linecap:round;stroke-linejoin:round;stroke-opacity:1"
           d="m -127.21407,47.22712 -0.033,-0.595294"
           id="path510429" />
        <path
           style="opacity:1;fill:#caadae;fill-opacity:1;stroke:#000000;stroke-width:0.303682;stroke-linecap:round;stroke-linejoin:round;stroke-opacity:1"
           d="m -127.51251,45.081813 0.22985,-0.69524"
           id="path510431"
           sodipodi:nodetypes="cc" />
        <path
           style="opacity:1;fill:#caadae;fill-opacity:1;stroke:#000000;stroke-width:0.303682;stroke-linecap:round;stroke-linejoin:round;stroke-opacity:1"
           d="m -126.47952,44.688881 0.17875,-0.559275"
           id="path510433"
           sodipodi:nodetypes="cc" />
        <path
           style="opacity:1;fill:#caadae;fill-opacity:1;stroke:#000000;stroke-width:0.303682;stroke-linecap:round;stroke-linejoin:round;stroke-opacity:1"
           d="m -128.55268,41.647199 c 0,0 0.48756,-0.101615 0.72987,-0.06974 0.28697,0.03775 0.81362,0.303331 0.81362,0.303331"
           id="path510435"
           sodipodi:nodetypes="cac" />
        <path
           style="opacity:1;fill:#caadae;fill-opacity:1;stroke:#000000;stroke-width:0.303682;stroke-linecap:round;stroke-linejoin:round;stroke-opacity:1"
           d="m -128.2636,41.315355 c 0,0 0.31425,-0.04316 0.47126,-0.03152 0.11183,0.0083 0.32867,0.07172 0.32867,0.07172"
           id="path510437"
           sodipodi:nodetypes="cac" />
        <path
           style="opacity:1;fill:#caadae;fill-opacity:1;stroke:#000000;stroke-width:0.303682;stroke-linecap:round;stroke-linejoin:round;stroke-opacity:1"
           d="m -128.07888,40.948751 0.28139,-0.0024"
           id="path510439"
           sodipodi:nodetypes="cc" />
      </g>
      <path
         style="opacity:1;fill:#b6c9c9;fill-opacity:1;stroke:none;stroke-width:0.303682;stroke-linecap:round;stroke-linejoin:round;stroke-opacity:1"
         d="m -161.57829,29.637795 c -0.82322,-0.21038 -1.65876,-0.747197 -2.06613,-1.492848 -0.6021,-1.102098 0.1045,-2.545213 -0.20684,-3.761856 -0.28354,-1.108063 -1.87144,-1.878132 -1.48047,-3.095481 0.23686,-0.737518 1.41446,-0.421717 1.91478,-0.923547 0.45931,-0.460713 0.34007,-1.347226 0.84254,-1.760453 0.58354,-0.479896 1.6147,-0.08144 2.19494,-0.565316 0.70634,-0.589024 0.4099,-1.968452 1.15701,-2.504821 0.52039,-0.373599 1.29087,-0.367171 1.91079,-0.205682 0.81643,0.212679 1.60747,0.755057 2.06449,1.464223 0.98667,1.531033 0.91879,3.54732 1.03752,5.364871 0.11029,1.68839 0.55922,3.61338 -0.30728,5.066656 -0.61849,1.037316 -1.93894,1.508958 -3.07723,1.912485 -1.2616,0.447239 -2.68727,0.833191 -3.98412,0.501769 z"
         id="path530049"
         sodipodi:nodetypes="aaasaaaaaaaaaa" />
      <path
         style="opacity:1;fill:#e6d199;fill-opacity:1;stroke:#000000;stroke-width:0.303682;stroke-linecap:round;stroke-linejoin:round;stroke-opacity:1"
         d="m -151.74584,17.025906 c -1.54418,0.192888 -2.09501,0.770086 -2.69246,1.633157 -1.16253,1.679374 -1.20737,3.981411 -1.12974,6.022426 0.0618,1.624271 0.19556,3.482636 1.26054,4.710595 0.32108,0.370215 0.86885,0.658118 1.35216,0.577086 0.48303,-0.08099 0.99888,-0.504642 1.08938,-0.985983 0.18336,-0.975258 -1.09726,-1.698508 -1.33097,-2.662939 -0.45909,-1.894491 -0.46088,-3.937785 -0.0701,-5.847548 0.25172,-1.230357 0.52844,-1.80825 1.52115,-3.446794 z"
         id="path524846"
         sodipodi:nodetypes="caaaaaaacc" />
      <path
         style="opacity:1;fill:#e6d199;fill-opacity:1;stroke:#000000;stroke-width:0.303682;stroke-linecap:round;stroke-linejoin:round;stroke-opacity:1"
         d="m -153.11097,29.308865 c -0.0381,-0.03308 -1.02425,-1.38376 -1.02425,-1.38376 l 0.41043,-0.821643 1.12118,1.186556 -0.15821,0.688194 -0.50084,-0.598543"
         id="path525385" />
      <path
         style="opacity:1;fill:none;fill-opacity:1;stroke:#000000;stroke-width:0.303682;stroke-linecap:round;stroke-linejoin:round;stroke-opacity:1"
         d="m -160.12272,20.716191 5.70433,-5.704333"
         id="path539446" />
      <path
         style="opacity:1;fill:none;fill-opacity:1;stroke:#000000;stroke-width:0.303682;stroke-linecap:round;stroke-linejoin:round;stroke-opacity:1"
         d="m -159.05467,18.526545 3.73184,-3.549378"
         id="path539448"
         sodipodi:nodetypes="cc" />
      <path
         style="opacity:1;fill:none;fill-opacity:1;stroke:#000000;stroke-width:0.303682;stroke-linecap:round;stroke-linejoin:round;stroke-opacity:1"
         d="m -154.87506,17.499846 2.08575,-2.222769"
         id="path539450"
         sodipodi:nodetypes="cc" />
      <path
         style="opacity:1;fill:none;fill-opacity:1;stroke:#000000;stroke-width:0.303682;stroke-linecap:round;stroke-linejoin:round;stroke-opacity:1"
         d="m -160.09013,30.01817 3.85421,-3.802959"
         id="path539452"
         sodipodi:nodetypes="cc" />
      <path
         style="opacity:1;fill:none;fill-opacity:1;stroke:#000000;stroke-width:0.303682;stroke-linecap:round;stroke-linejoin:round;stroke-opacity:1"
         d="m -161.01691,29.854604 2.23549,-2.235495"
         id="path539454"
         sodipodi:nodetypes="cc" />
      <path
         style="opacity:1;fill:none;fill-opacity:1;stroke:#000000;stroke-width:0.303682;stroke-linecap:round;stroke-linejoin:round;stroke-opacity:1"
         d="m -156.44002,18.089552 2.72792,-3.008137"
         id="path539456"
         sodipodi:nodetypes="cc" />
      <path
         style="opacity:1;fill:none;fill-opacity:1;stroke:#000000;stroke-width:0.303682;stroke-linecap:round;stroke-linejoin:round;stroke-opacity:1"
         d="m -158.95257,30.195739 1.17311,-1.219719"
         id="path539458"
         sodipodi:nodetypes="cc" />
      <path
         style="opacity:1;fill:none;fill-opacity:1;stroke:#000000;stroke-width:0.303682;stroke-linecap:round;stroke-linejoin:round;stroke-opacity:1"
         d="m -157.79929,30.350278 1.78083,-1.850235"
         id="path539460"
         sodipodi:nodetypes="cc" />
      <path
         style="opacity:1;fill:none;fill-opacity:1;stroke:#000000;stroke-width:0.303682;stroke-linecap:round;stroke-linejoin:round;stroke-opacity:1"
         d="m -156.67412,30.471526 1.17311,-1.219719"
         id="path539462"
         sodipodi:nodetypes="cc" />
      <path
         style="opacity:1;fill:none;fill-opacity:1;stroke:#000000;stroke-width:0.303682;stroke-linecap:round;stroke-linejoin:round;stroke-opacity:1"
         d="m -157.16622,21.6672 2.72792,-3.008137"
         id="path544136"
         sodipodi:nodetypes="cc" />
      <path
         style="opacity:1;fill:none;fill-opacity:1;stroke:#000000;stroke-width:0.303682;stroke-linecap:round;stroke-linejoin:round;stroke-opacity:1"
         d="m -158.0472,23.738828 2.72792,-3.008137"
         id="path544138"
         sodipodi:nodetypes="cc" />
      <path
         style="opacity:1;fill:none;fill-opacity:1;stroke:#000000;stroke-width:0.303682;stroke-linecap:round;stroke-linejoin:round;stroke-opacity:1"
         d="m -156.9823,23.985319 1.43433,-1.707101"
         id="path544140"
         sodipodi:nodetypes="cc" />
    </g>
  </g>
</svg>
