<?xml version="1.0" encoding="UTF-8" standalone="no"?>
<!-- Created with Inkscape (http://www.inkscape.org/) -->

<svg
   width="20.615791mm"
   height="31.805977mm"
   viewBox="0 0 20.615791 31.805976"
   version="1.1"
   id="svg5"
   inkscape:version="1.2.2 (b0a8486541, 2022-12-01)"
   sodipodi:docname="interrogation.svg"
   xmlns:inkscape="http://www.inkscape.org/namespaces/inkscape"
   xmlns:sodipodi="http://sodipodi.sourceforge.net/DTD/sodipodi-0.dtd"
   xmlns="http://www.w3.org/2000/svg"
   xmlns:svg="http://www.w3.org/2000/svg">
  <sodipodi:namedview
     id="namedview7"
     pagecolor="#4d4d4d"
     bordercolor="#666666"
     borderopacity="1.0"
     inkscape:pageshadow="2"
     inkscape:pageopacity="0"
     inkscape:pagecheckerboard="false"
     inkscape:document-units="mm"
     showgrid="false"
     inkscape:zoom="0.2000022"
     inkscape:cx="-42.499533"
     inkscape:cy="239.99736"
     inkscape:window-width="956"
     inkscape:window-height="1037"
     inkscape:window-x="960"
     inkscape:window-y="0"
     inkscape:window-maximized="1"
     inkscape:current-layer="layer1"
     inkscape:showpageshadow="2"
     inkscape:deskcolor="#4d4d4d" />
  <defs
     id="defs2" />
  <g
     inkscape:label="Layer 1"
     inkscape:groupmode="layer"
     id="layer1"
     transform="translate(32.139456,-87.617894)">
    <g
       id="g627480"
       transform="matrix(1.1052162,0,0,1.1047031,6.280662,-53.029109)"
       style="stroke-width:0.90501">
      <g
         id="g617617"
         transform="matrix(0.65335773,0,0,0.65446544,-9.2714389,54.689615)"
         style="stroke-width:1.384">
        <path
           style="fill:#a770c2;fill-opacity:1;fill-rule:nonzero;stroke:#000000;stroke-width:0.345999;stroke-linecap:round;stroke-linejoin:round;stroke-dasharray:none;stroke-opacity:1"
           d="m -26.262394,154.79061 c -1.081977,-0.0113 -1.954439,-1.06345 -2.619792,-1.91674 -0.615692,-0.7896 -1.129199,-2.7835 -1.129199,-2.7835 0,0 0.992475,0.88197 1.472775,0.64437 0.30754,-0.15214 0.244261,-0.99994 0.244261,-0.99994 0,0 0.700691,0.0581 0.841986,-0.19279 0.459472,-0.8158 -0.88316,-2.66643 -0.88316,-2.66643 0,0 2.294463,2.64368 3.755536,2.3874 0.387657,-0.068 0.721364,-0.93475 0.721364,-0.93475 0,0 1.076572,1.75654 1.004881,2.72063 -0.0621,0.83513 -0.650285,1.57861 -1.209442,2.20202 -0.597517,0.66617 -1.304377,1.54905 -2.19921,1.53973 z"
           id="path785813-1"
           sodipodi:nodetypes="aacacacacaaa" />
        <path
           style="opacity:1;fill:#c270a7;fill-opacity:1;stroke:none;stroke-width:0.345999;stroke-linecap:round;stroke-linejoin:round;stroke-opacity:1"
           d="m -26.405209,154.12762 c -0.533454,0.009 -1.020462,-0.38696 -1.417525,-0.74332 -0.525857,-0.47196 -1.180915,-1.76036 -1.180915,-1.76036 0,0 0.973219,0.50076 1.367636,0.25667 0.408381,-0.25274 0.201701,-0.94576 0.393917,-1.38588 0.189086,-0.43295 0.736716,-1.21079 0.736716,-1.21079 0,0 0.473707,0.67909 0.790045,0.93803 0.373696,0.30588 0.789279,0.73436 1.270674,0.69594 0.352888,-0.0282 0.661551,-0.34499 0.838759,-0.65145 0.09166,-0.15853 0.07562,-0.54414 0.07562,-0.54414 0,0 0.242169,0.75056 0.178719,1.12489 -0.140732,0.83024 -0.608016,1.62258 -1.196448,2.22495 -0.49757,0.50935 -1.145247,1.04341 -1.857197,1.05546 z"
           id="path581501"
           sodipodi:nodetypes="aacaacaaacaaa" />
        <path
           style="opacity:1;fill:#c27070;fill-opacity:1;stroke:none;stroke-width:0.345999;stroke-linecap:round;stroke-linejoin:round;stroke-opacity:1"
           d="m -26.39732,153.55267 c -0.316897,-0.13855 -0.657728,-0.28891 -0.874505,-0.5584 -0.146453,-0.18207 -0.241876,-0.65793 -0.241876,-0.65793 0,0 0.299537,0.0684 0.42574,0.003 0.296911,-0.15272 0.34321,-0.58008 0.575846,-0.81958 0.186849,-0.19236 0.644552,-0.48144 0.644552,-0.48144 0,0 -0.06045,0.15507 -0.02882,0.22304 0.08341,0.17928 0.310814,0.26003 0.498983,0.32079 0.316912,0.10232 0.997645,0.0532 0.997645,0.0532 0,0 -0.08953,0.84485 -0.324697,1.17703 -0.288611,0.40766 -0.738263,0.76836 -1.230037,0.85577 -0.150228,0.0267 -0.303021,-0.0548 -0.442826,-0.11593 z"
           id="path581712"
           sodipodi:nodetypes="aacaacaacaaa" />
        <path
           style="opacity:1;fill:none;fill-opacity:1;stroke:#000000;stroke-width:0.345999;stroke-linecap:round;stroke-linejoin:round;stroke-opacity:1"
           d="m -25.285867,153.71311 c 0,0 -0.687989,0.38122 -1.047819,0.31926 -0.92068,-0.15855 -1.679275,-0.92956 -2.253337,-1.66661 -0.22783,-0.29252 -0.422341,-1.02902 -0.422341,-1.02902"
           id="path602783"
           sodipodi:nodetypes="caac" />
        <path
           style="opacity:1;fill:none;fill-opacity:1;stroke:#000000;stroke-width:0.345999;stroke-linecap:round;stroke-linejoin:round;stroke-opacity:1"
           d="m -26.919844,153.0026 c 0,0 0.901892,0.23752 1.329081,0.11411 0.429396,-0.12404 0.804647,-0.44903 1.068983,-0.80944 0.340471,-0.46422 0.545299,-1.05191 0.580716,-1.62651 0.01603,-0.26011 -0.170463,-0.76299 -0.170463,-0.76299"
           id="path602785"
           sodipodi:nodetypes="caaac" />
        <path
           style="opacity:1;fill:none;fill-opacity:1;stroke:#000000;stroke-width:0.345999;stroke-linecap:round;stroke-linejoin:round;stroke-opacity:1"
           d="m -27.849888,151.6316 c 0,0 0.58571,-0.33054 0.887515,-0.26531 0.422545,0.0913 0.546446,0.87192 0.978263,0.85145 0.609634,-0.0289 1.297061,-0.71804 1.261218,-1.3273 -0.03929,-0.66779 -0.879019,-1.20477 -1.54341,-1.28267 -0.415679,-0.0487 -1.076419,0.14168 -1.125085,0.55737 -0.04758,0.40646 0.53801,0.73683 0.944475,0.78436 0.184118,0.0215 0.498248,-0.24701 0.498248,-0.24701"
           id="path602791"
           sodipodi:nodetypes="caaaaaac" />
      </g>
      <g
         id="g617609"
         transform="matrix(0.77482333,0,0,0.64587381,-6.3062769,55.637232)"
         style="stroke-width:1.27931">
        <path
           style="fill:#a770c2;fill-opacity:1;fill-rule:nonzero;stroke:#000000;stroke-width:0.319831;stroke-linecap:round;stroke-linejoin:round;stroke-dasharray:none;stroke-opacity:1"
           d="m -32.800263,132.41214 c 0,0 -0.306128,-1.99508 -0.716477,-2.9036 -0.415652,-0.92027 -1.163195,-1.65113 -1.726841,-2.48896 -0.424104,-0.63041 -1.043598,-1.17669 -1.245033,-1.90929 -0.216948,-0.78902 0.101082,-2.45282 0.101082,-2.45282 0,0 0.984871,0.73086 1.34838,0.43014 0.602042,-0.49805 -0.281328,-2.32711 -0.281328,-2.32711 0,0 1.715094,0.82613 2.481863,0.47717 0.433908,-0.19747 0.647833,-0.76497 0.718907,-1.23637 0.07882,-0.52278 -0.151627,-0.84431 -0.35756,-1.54525 0,0 1.462714,1.26356 2.029067,0.80644 0.593175,-0.47877 -0.458759,-1.49765 -0.377107,-2.25555 0.07495,-0.69564 0.779151,-1.94904 0.779151,-1.94904 0,0 0.193276,0.90239 0.4919,1.22599 0.284579,0.30838 0.733953,0.70783 1.127006,0.56089 0.647544,-0.24208 0.597409,-1.25303 0.795175,-1.91545 0.212673,-0.71236 0.09153,-1.5217 0.414115,-2.19149 0.304926,-0.63313 1.375636,-1.59755 1.375636,-1.59755 0,0 -0.20497,2.23692 0.123657,3.28078 0.256492,0.81473 0.751955,1.58377 1.387778,2.15412 0.763895,0.68524 1.754638,1.61362 2.753279,1.3774 0.986141,-0.23326 1.82132,-2.43409 1.82132,-2.43409 0,0 -0.468958,2.14484 0.289551,2.31221 0.415616,0.0917 0.677105,-1.08252 0.677105,-1.08252 0,0 0.07935,1.44075 0.01338,2.1566 -0.07846,0.8513 -0.615297,1.67375 -0.484391,2.51858 0.175717,1.13404 0.96839,2.09699 1.642839,3.02545 0.373015,0.5135 0.680813,1.30099 1.310379,1.38141 0.327783,0.0419 0.612869,-0.28569 0.841143,-0.52462 0.220402,-0.23069 0.25095,-0.60146 0.468991,-0.83438 0.166261,-0.17761 0.38437,-0.31102 0.611276,-0.39878 0.49572,-0.19171 1.574132,-0.25403 1.574132,-0.25403 0,0 -1.614433,0.91332 -1.805514,1.72298 -0.07775,0.32947 0.343711,0.95563 0.343711,0.95563 0,0 -2.383586,0.10425 -2.478044,0.98853 -0.04239,0.39685 0.686241,0.41357 0.993296,0.66853 0.317442,0.26358 0.868134,0.88235 0.868134,0.88235 0,0 -2.345337,-0.28205 -3.23387,0.33863 -0.865721,0.60474 -0.92762,1.89744 -1.39406,2.84487 -0.368561,0.74862 -0.558622,1.61737 -1.109836,2.24381 -0.823417,0.9358 -2.491047,0.99107 -3.113658,2.07093 -0.84584,1.46703 -0.22429,3.37946 -0.315543,5.0704 -0.03571,0.66178 0.294769,1.4471 -0.09078,1.98616 -0.383468,0.53615 -1.182045,0.7588 -1.840284,0.7238 -0.599132,-0.0319 -1.264812,-0.33224 -1.595731,-0.83271 -0.567646,-0.85848 -0.223843,-2.049 -0.242469,-3.07801 -0.0319,-1.76256 0.36689,-3.52672 0.224242,-5.28378 -0.05859,-0.72165 -0.44095,-2.12684 -0.44095,-2.12684 0,0 0.758132,0.72813 1.247071,0.82231 0.604964,0.11652 1.328151,0.0117 1.810526,-0.37152 0.540908,-0.42974 0.732632,-1.20539 0.864814,-1.88346 0.189493,-0.97207 -0.134844,-2.96804 -0.134844,-2.96804 0,0 0.769316,0.69676 1.161279,0.53087 0.428496,-0.18135 0.467178,-1.31538 0.467178,-1.31538 0,0 0.455703,1.74668 1.144509,1.7221 0.716168,-0.0256 0.614676,-1.30877 1.059312,-1.87077 0.247463,-0.31279 0.809896,-0.42024 0.877621,-0.81328 0.127305,-0.73881 -0.529291,-1.44657 -1.042906,-1.99269 -0.550376,-0.58521 -1.508382,-0.66495 -2.062799,-1.24633 -0.803713,-0.84281 -0.879186,-2.21119 -1.662793,-3.07272 -0.539476,-0.59312 -1.197551,-1.38975 -1.997746,-1.33958 -1.334573,0.0837 -2.017798,1.75523 -3.026697,2.63285 -0.851201,0.74044 -1.879841,1.31642 -2.553603,2.22132 -0.36573,0.49119 -0.747278,1.06132 -0.757784,1.67363 -0.01833,1.0685 0.662986,2.05304 1.221397,2.9642 0.368738,0.60167 1.378,1.60713 1.378,1.60713 0,0 -0.961727,0.30025 -1.364595,0.58848 -0.559331,0.40018 -1.384958,1.52932 -1.384958,1.52932 z"
           id="path785811-5"
           sodipodi:nodetypes="caaacacaacaacaaaacaaacacaaaaaaacacaacaaaaaaaaaacaaacacaaaaaaaaaaacac" />
        <path
           style="opacity:1;fill:#c270a7;fill-opacity:1;stroke:none;stroke-width:0.319831;stroke-linecap:round;stroke-linejoin:round;stroke-opacity:1"
           d="m -26.167191,143.14463 c -0.253205,-0.0923 -0.397491,-0.39033 -0.489144,-0.64377 -0.739532,-2.045 -0.167174,-4.34622 -0.28855,-6.51744 -0.02598,-0.46481 -0.189992,-1.39342 -0.09412,-1.39342 0.09588,0 0.989832,0.20952 1.433967,0.0325 1.086041,-0.43286 1.987734,-1.41414 2.490488,-2.46964 0.222704,-0.46756 -0.194302,-1.16294 0.154244,-1.54598 0.292052,-0.32096 0.865317,-0.38627 1.277493,-0.25056 0.424028,0.13962 0.844035,0.54576 0.903999,0.98814 0.09762,0.72021 -0.546937,1.36664 -0.990385,1.94248 -0.402505,0.52267 -1.015675,0.846 -1.474994,1.31952 -0.494239,0.50952 -1.105149,0.97138 -1.370874,1.62961 -0.539588,1.33663 -0.194067,2.87633 -0.293799,4.3143 -0.05428,0.78267 0.345436,1.75267 -0.165781,2.34779 -0.243268,0.28319 -0.741792,0.37434 -1.092544,0.24647 z"
           id="path587582"
           sodipodi:nodetypes="aaasaaaaaaaaaaa" />
        <path
           style="opacity:1;fill:#c270a7;fill-opacity:1;stroke:none;stroke-width:0.319831;stroke-linecap:round;stroke-linejoin:round;stroke-opacity:1"
           d="m -19.979664,129.42347 c -0.268613,-0.19977 0.106765,-0.66514 0.222091,-0.9794 0.256605,-0.69925 1.056096,-1.23709 1.032731,-1.98157 -0.03215,-1.02427 -0.856692,-1.91498 -1.589017,-2.63182 -0.425883,-0.41687 -1.142729,-0.45602 -1.549927,-0.89117 -0.778627,-0.83207 -2.098396,-2.09797 -1.503862,-3.07015 0.265778,-0.4346 1.032465,0.0911 1.528037,-0.0269 0.684646,-0.16301 1.313607,-1.30541 1.901264,-0.91815 0.728551,0.48011 -0.334,1.77007 -0.11625,2.61498 0.394579,1.53104 1.983484,2.54364 2.474714,4.04646 0.111483,0.34106 0.149921,0.71911 0.0892,1.07275 -0.112619,0.6559 -0.371155,1.32882 -0.819645,1.8205 -0.43085,0.47234 -1.156332,1.32596 -1.669336,0.94443 z"
           id="path587843"
           sodipodi:nodetypes="aaaaaaaaaaaaa" />
        <path
           style="opacity:1;fill:#c270a7;fill-opacity:1;stroke:none;stroke-width:0.319831;stroke-linecap:round;stroke-linejoin:round;stroke-opacity:1"
           d="m -24.518559,118.04187 c -0.06339,-0.71639 -1.041794,-1.00958 -1.43254,-1.61337 -0.275762,-0.4261 -0.624575,-1.38867 -0.624575,-1.38867 0,0 -0.180257,0.68553 -0.390428,0.95949 -0.552447,0.72014 -1.262534,1.63956 -2.170151,1.64457 -0.230588,0.001 -0.555921,-0.41171 -0.555921,-0.41171 0,0 0.224269,1.59895 -0.19169,2.21049 -0.340433,0.5005 -1.211799,0.3682 -1.624986,0.81055 -0.332678,0.35616 -0.21333,1.00925 -0.56201,1.34976 -0.331068,0.32331 -1.293876,0.50309 -1.293876,0.50309 0,0 -0.608776,0.73779 -0.872648,1.13563 -0.243583,0.36726 -0.239977,0.99463 -0.652414,1.14989 -0.187139,0.0705 -0.566602,-0.19702 -0.566602,-0.19702 0,0 0.173131,1.17512 0.409424,1.71231 0.435172,0.98931 1.277999,1.74884 1.814967,2.68681 0.390334,0.68183 0.273857,1.86945 1.016225,2.12663 0.155211,0.0538 0.377729,-0.0667 0.441989,-0.2179 0.678658,-1.59652 -1.604578,-3.2234 -1.582072,-4.95804 0.0068,-0.52308 0.245077,-1.03454 0.515707,-1.48223 0.34456,-0.56998 0.879496,-1.00333 1.365828,-1.45839 0.604907,-0.56601 1.285276,-1.0456 1.922712,-1.57471 1.045381,-0.86772 1.803344,-2.28469 3.118944,-2.62375 0.496492,-0.12796 1.039444,0.50376 1.50902,0.29791 0.236765,-0.10379 0.427883,-0.40383 0.405097,-0.66134 z"
           id="path592749"
           sodipodi:nodetypes="aacaacaaacaacaaaaaaaaaaa" />
        <path
           style="opacity:1;fill:#c27070;fill-opacity:1;stroke:none;stroke-width:0.319831;stroke-linecap:round;stroke-linejoin:round;stroke-opacity:1"
           d="m -26.006769,142.19577 c 0,0 -0.441388,-1.47404 -0.486513,-2.23522 -0.056,-0.94457 0.255168,-1.87957 0.271777,-2.82566 0.0096,-0.54803 -0.09988,-1.64132 -0.09988,-1.64132 0,0 0.584319,0.44968 0.734597,0.77137 0.439459,0.94075 0.36613,2.05688 0.351398,3.0951 -0.0086,0.60387 -0.07656,1.21685 -0.255383,1.7937 -0.114767,0.37022 -0.515996,1.04203 -0.515996,1.04203 z"
           id="path597656"
           sodipodi:nodetypes="caacaaac" />
        <path
           style="opacity:1;fill:#c27070;fill-opacity:1;stroke:none;stroke-width:0.319831;stroke-linecap:round;stroke-linejoin:round;stroke-opacity:1"
           d="m -22.300235,132.10345 c -0.215114,-0.22755 -0.343149,-0.64879 -0.187507,-0.92051 0.09377,-0.1637 0.350499,-0.21994 0.535527,-0.18312 0.254079,0.0506 0.539895,0.2584 0.583081,0.51384 0.04637,0.27426 -0.153702,0.61851 -0.409887,0.72685 -0.165457,0.07 -0.397805,-0.007 -0.521214,-0.13706 z"
           id="path597796"
           sodipodi:nodetypes="aaaaaa" />
        <path
           style="opacity:1;fill:#c27070;fill-opacity:1;stroke:none;stroke-width:0.319831;stroke-linecap:round;stroke-linejoin:round;stroke-opacity:1"
           d="m -20.657267,123.19618 c -0.538201,-0.28137 -1.052242,-0.65396 -1.428883,-1.13037 -0.275114,-0.34799 -0.456296,-0.77538 -0.562538,-1.20608 -0.05303,-0.21499 -0.03139,-0.66355 -0.03139,-0.66355 0,0 0.617237,0.72445 1.017455,0.66332 0.389912,-0.0596 0.487548,-0.62107 0.753121,-0.9127 0.153434,-0.16849 0.484396,-0.48243 0.484396,-0.48243 0,0 -0.153565,1.05501 -0.160028,1.58648 -0.0054,0.4415 -0.07679,0.91654 0.100849,1.32076 0.298312,0.67881 1.979862,1.04358 1.519335,1.62469 -0.252808,0.319 -0.685185,-0.44681 -1.058844,-0.60822 -0.202543,-0.0875 -0.437947,-0.0897 -0.633473,-0.1919 z"
           id="path597861"
           sodipodi:nodetypes="aaacaacaaaaa" />
        <path
           style="opacity:1;fill:#c27070;fill-opacity:1;stroke:none;stroke-width:0.319831;stroke-linecap:round;stroke-linejoin:round;stroke-opacity:1"
           d="m -19.254785,128.82613 c 0.488738,0.32571 1.167143,-0.51837 1.41397,-1.05132 0.245652,-0.53041 0.109336,-1.20907 -0.112159,-1.75001 -0.115281,-0.28154 -0.313718,-0.80067 -0.597181,-0.6902 -0.476752,0.1858 0.149216,1.03319 0.046,1.53435 -0.0899,0.43648 -0.41615,0.79164 -0.564859,1.21174 -0.08545,0.2414 -0.398863,0.60343 -0.185769,0.74544 z"
           id="path597863"
           sodipodi:nodetypes="aaaaaaa" />
        <path
           style="opacity:1;fill:#c27070;fill-opacity:1;stroke:none;stroke-width:0.319831;stroke-linecap:round;stroke-linejoin:round;stroke-opacity:1"
           d="m -33.717045,126.34352 c -0.442411,-0.20143 -0.729361,-0.76613 -0.747996,-1.25188 -0.02382,-0.621 0.628353,-1.08147 0.830842,-1.66902 0.145954,-0.4235 -0.131557,-1.11695 0.269463,-1.31655 0.284239,-0.14147 0.737301,0.11724 0.859634,0.41023 0.131911,0.31593 -0.280789,0.63247 -0.337162,0.97016 -0.0316,0.18928 0.07069,0.39647 0.0021,0.57569 -0.168543,0.44036 -0.879348,0.58317 -0.948283,1.04962 -0.06183,0.41838 0.735641,0.77131 0.541883,1.14724 -0.073,0.14163 -0.325467,0.15053 -0.470481,0.0845 z"
           id="path597865"
           sodipodi:nodetypes="aaaaaaaaaa" />
        <path
           style="opacity:1;fill:#c27070;fill-opacity:1;stroke:none;stroke-width:0.319831;stroke-linecap:round;stroke-linejoin:round;stroke-opacity:1"
           d="m -30.836222,121.18373 c 0,0 0.236033,-0.52971 0.405569,-0.76231 0.40851,-0.56046 1.124689,-0.87984 1.44952,-1.49261 0.216516,-0.40844 -0.04938,-1.03484 0.281132,-1.35805 0.575181,-0.56246 1.572067,-0.50403 2.373694,-0.43628 0.452267,0.0382 1.278898,0.46742 1.278898,0.46742 0,0 -0.423535,0.43733 -0.700886,0.53396 -0.469606,0.16362 -1.038736,-0.17639 -1.491596,0.0291 -0.628486,0.28516 -0.896353,1.05264 -1.393651,1.53118 -0.452734,0.43566 -0.897192,0.90075 -1.441691,1.21426 -0.233581,0.13449 -0.760989,0.27335 -0.760989,0.27335 z"
           id="path597867"
           sodipodi:nodetypes="caaaacaaaac" />
        <path
           style="opacity:1;fill:#c27070;fill-opacity:1;stroke:none;stroke-width:0.319831;stroke-linecap:round;stroke-linejoin:round;stroke-opacity:1"
           d="m -32.391038,130.11831 c 0.510427,-0.0721 0.50442,-1.00238 0.372963,-1.50082 -0.182373,-0.69151 -0.776844,-1.70207 -1.476955,-1.55616 -0.258078,0.0538 -0.296343,0.48107 -0.269955,0.74337 0.04269,0.42433 0.449514,0.72493 0.667494,1.09148 0.240506,0.40443 0.240534,1.28792 0.706453,1.22213 z"
           id="path597869"
           sodipodi:nodetypes="aaaaaa" />
        <path
           style="opacity:1;fill:none;fill-opacity:1;stroke:#000000;stroke-width:0.319831;stroke-linecap:round;stroke-linejoin:round;stroke-opacity:1"
           d="m -24.819261,142.23314 c 0,0 -0.04465,0.55557 -0.255386,0.66502 -0.482424,0.25055 -1.264985,0.0445 -1.58169,-0.3973 -1.045483,-1.45852 0.640714,-3.5833 0.434832,-5.36597 -0.102222,-0.88511 -0.817502,-2.54489 -0.817502,-2.54489"
           id="path607708"
           sodipodi:nodetypes="caaac" />
        <path
           style="opacity:1;fill:none;fill-opacity:1;stroke:#000000;stroke-width:0.319831;stroke-linecap:round;stroke-linejoin:round;stroke-opacity:1"
           d="m -25.490773,141.15374 c 0.534844,-0.17231 -0.09365,-4.55311 1.155031,-6.2746 0.484536,-0.66801 1.637125,-0.55643 2.175268,-1.18205 0.504825,-0.58689 0.916878,-1.41954 0.79134,-2.18343 -0.08358,-0.50856 -0.450608,-1.24976 -0.96434,-1.20856 -0.489365,0.0392 -0.723366,1.28293 -0.723366,1.28293"
           id="path607710"
           sodipodi:nodetypes="caaaac" />
        <path
           style="opacity:1;fill:none;fill-opacity:1;stroke:#000000;stroke-width:0.319831;stroke-linecap:round;stroke-linejoin:round;stroke-opacity:1"
           d="m -20.512651,132.45636 c 0,0 -0.01586,-1.17549 0.237249,-1.68197 0.17069,-0.34155 0.698911,-0.4439 0.811083,-0.80888 0.151729,-0.49369 -0.550881,-1.0738 -0.293254,-1.52144 0.337569,-0.58654 1.916758,-0.66926 1.916758,-0.66926"
           id="path607712"
           sodipodi:nodetypes="caaac" />
        <path
           style="opacity:1;fill:none;fill-opacity:1;stroke:#000000;stroke-width:0.319831;stroke-linecap:round;stroke-linejoin:round;stroke-opacity:1"
           d="m -17.490684,126.6585 c 0,0 -0.741036,-0.85693 -1.059471,-1.3239 -0.772854,-1.13336 -1.982471,-2.19716 -2.052211,-3.56718 -0.03633,-0.71364 0.997326,-1.2531 0.874778,-1.95708 -0.06759,-0.38825 -0.440109,-0.74373 -0.818795,-0.85282 -0.463561,-0.13354 -1.330706,-0.12604 -1.404086,0.35076 -0.06192,0.40233 1.040966,0.63852 1.040966,0.63852"
           id="path607714"
           sodipodi:nodetypes="caaaaac" />
        <path
           style="opacity:1;fill:none;fill-opacity:1;stroke:#000000;stroke-width:0.319831;stroke-linecap:round;stroke-linejoin:round;stroke-opacity:1"
           d="m -21.863786,122.93951 c 0,0 0.595448,0.18562 0.745525,-0.0125 0.430322,-0.56807 -0.199876,-1.44365 -0.544362,-2.06752 -0.440349,-0.79748 -1.233644,-1.341 -1.866022,-1.99673 -0.794649,-0.82399 -1.865121,-1.43435 -2.422454,-2.43426 -0.424827,-0.76218 -0.607037,-2.54638 -0.607037,-2.54638"
           id="path607716"
           sodipodi:nodetypes="caaaac" />
        <path
           style="opacity:1;fill:none;fill-opacity:1;stroke:#000000;stroke-width:0.319831;stroke-linecap:round;stroke-linejoin:round;stroke-opacity:1"
           d="m -22.952882,121.71065 c 0,0 -1.056045,-2.23298 -1.970776,-3.00744 -0.653165,-0.553 -1.494352,-1.03677 -2.350171,-1.03374 -0.5882,0.002 -1.071201,0.95739 -1.610197,0.72188 -0.240958,-0.10529 -0.252227,-0.74746 -0.252227,-0.74746"
           id="path607718"
           sodipodi:nodetypes="caaac" />
        <path
           style="opacity:1;fill:none;fill-opacity:1;stroke:#000000;stroke-width:0.319831;stroke-linecap:round;stroke-linejoin:round;stroke-opacity:1"
           d="m -28.981133,118.92881 c 0,0 -0.446265,0.63096 -0.767007,0.82725 -0.520174,0.31834 -1.760711,0.49716 -1.760711,0.49716"
           id="path607720"
           sodipodi:nodetypes="cac" />
        <path
           style="opacity:1;fill:none;fill-opacity:1;stroke:#000000;stroke-width:0.319831;stroke-linecap:round;stroke-linejoin:round;stroke-opacity:1"
           d="m -30.836222,121.18375 c 0,0 -0.826228,0.27057 -1.234638,0.41923 -0.434837,0.15828 -0.831145,0.49917 -1.293876,0.50309 -0.297422,0.003 -0.837007,-0.30922 -0.837007,-0.30922"
           id="path607722"
           sodipodi:nodetypes="caac" />
        <path
           style="opacity:1;fill:none;fill-opacity:1;stroke:#000000;stroke-width:0.319831;stroke-linecap:round;stroke-linejoin:round;stroke-opacity:1"
           d="m -31.474333,122.60376 c 0,0 -0.69013,-0.14102 -1.030769,-0.0875 -0.618413,0.0972 -1.26398,0.30997 -1.732283,0.7254 -0.329671,0.29245 -0.239977,0.99463 -0.652415,1.14989 -0.187139,0.0705 -0.418321,-0.33117 -0.5666,-0.19702 -0.435183,0.39373 0.173131,1.17512 0.409424,1.71231 0.435171,0.98931 1.250893,1.76489 1.814965,2.68681 0.30291,0.49508 0.840973,1.52462 0.840973,1.52462"
           id="path607724"
           sodipodi:nodetypes="caaaaaac" />
        <path
           style="opacity:1;fill:none;fill-opacity:1;stroke:#000000;stroke-width:0.319831;stroke-linecap:round;stroke-linejoin:round;stroke-opacity:1"
           d="m -31.653605,129.73748 c 0,0 -1.723233,-2.97815 -2.134843,-4.62571 -0.101664,-0.40693 -0.30287,-0.90607 -0.072,-1.25625 0.198711,-0.30139 0.722219,-0.57582 1.018182,-0.3691 0.157323,0.10988 0.0021,0.57569 0.0021,0.57569 v 0"
           id="path607726"
           sodipodi:nodetypes="caaaac" />
        <path
           style="opacity:1;fill:none;fill-opacity:1;stroke:#000000;stroke-width:0.319831;stroke-linecap:round;stroke-linejoin:round;stroke-opacity:1"
           d="m -29.924642,121.33085 c 0,0 -0.212049,-0.68593 -0.0024,-0.901 0.237605,-0.24375 0.887578,-0.33655 1.020937,-0.0234 0.09199,0.21603 -0.499662,0.49651 -0.499662,0.49651"
           id="path607728"
           sodipodi:nodetypes="caac" />
        <path
           style="opacity:1;fill:none;fill-opacity:1;stroke:#000000;stroke-width:0.319831;stroke-linecap:round;stroke-linejoin:round;stroke-opacity:1"
           d="m -22.534198,132.39724 c 0,0 -0.134803,0.48937 -0.326416,0.62597 -0.239348,0.17064 -0.872125,0.13052 -0.872125,0.13052"
           id="path607730"
           sodipodi:nodetypes="cac" />
      </g>
    </g>
  </g>
</svg>
